<svg class="railroad-diagram" height="181" viewBox="0 0 599.0 181" width="599.0" xmlns="http://www.w3.org/2000/svg" xmlns:xlink="http://www.w3.org/1999/xlink">
<g transform="translate(.5 .5)">
<g>
<path d="M20 30v20m10 -20v20m-10 -10h44.0" /><text style="text-anchor:start" x="20" y="25">args</text></g><g>
<path d="M64.0 40h0.0" /><path d="M559.0 40h0.0" /><path d="M64.0 40h20" /><g>
<path d="M84.0 40h0.0" /><path d="M539.0 40h0.0" /><g>
<path d="M84.0 40h0.0" /><path d="M362.5 40h0.0" /><path d="M84.0 40h20" /><g>
<path d="M104.0 40h238.5" /></g><path d="M342.5 40h20" /><path d="M84.0 40a10 10 0 0 1 10 10v0a10 10 0 0 0 10 10" /><g>
<path d="M104.0 60h0.0" /><path d="M342.5 60h0.0" /><path d="M104.0 60h20" /><g>
<path d="M124.0 60h14.0" /><path d="M308.5 60h14.0" /><g class="terminal ">
<path d="M138.0 60h0.0" /><path d="M183.5 60h0.0" /><rect height="22" rx="10" ry="10" width="45.5" x="138" y="49"></rect><text x="160.75" y="64">&apos;*&apos;</text></g><path d="M183.5 60h10" /><path d="M193.5 60h10" /><g class="non-terminal ">
<path d="M203.5 60h0.0" /><path d="M308.5 60h0.0" /><rect height="22" width="105" x="203.5" y="49"></rect><text x="256" y="64">expression</text></g></g><path d="M322.5 60h20" /><path d="M104.0 60a10 10 0 0 1 10 10v10a10 10 0 0 0 10 10" /><g class="non-terminal ">
<path d="M124.0 90h0.0" /><path d="M322.5 90h0.0" /><rect height="22" width="198.5" x="124" y="79"></rect><text x="223.25" y="94">assignment_expression</text></g><path d="M322.5 90a10 10 0 0 0 10 -10v-10a10 10 0 0 1 10 -10" /><path d="M104.0 60a10 10 0 0 1 10 10v40a10 10 0 0 0 10 10" /><g class="non-terminal ">
<path d="M124.0 120h46.75" /><path d="M275.75 120h46.75" /><rect height="22" width="105" x="170.75" y="109"></rect><text x="223.25" y="124">expression</text></g><path d="M322.5 120a10 10 0 0 0 10 -10v-40a10 10 0 0 1 10 -10" /></g><path d="M342.5 60a10 10 0 0 0 10 -10v0a10 10 0 0 1 10 -10" /></g><g>
<path d="M362.5 40h0.0" /><path d="M539.0 40h0.0" /><path d="M362.5 40a10 10 0 0 0 10 -10v0a10 10 0 0 1 10 -10" /><g>
<path d="M382.5 20h136.5" /></g><path d="M519.0 20a10 10 0 0 1 10 10v0a10 10 0 0 0 10 10" /><path d="M362.5 40h20" /><g>
<path d="M382.5 40h0.0" /><path d="M519.0 40h0.0" /><g class="terminal ">
<path d="M382.5 40h0.0" /><path d="M428.0 40h0.0" /><rect height="22" rx="10" ry="10" width="45.5" x="382.5" y="29"></rect><text x="405.25" y="44">&apos;,&apos;</text></g><path d="M428.0 40h10" /><path d="M438.0 40h10" /><g class="non-terminal ">
<path d="M448.0 40h0.0" /><path d="M519.0 40h0.0" /><rect height="22" width="71" x="448" y="29"></rect><text x="483.5" y="44">kwargs</text></g></g><path d="M519.0 40h20" /></g></g><path d="M539.0 40h20" /><path d="M64.0 40a10 10 0 0 1 10 10v90a10 10 0 0 0 10 10" /><g class="non-terminal ">
<path d="M84.0 150h192.0" /><path d="M347.0 150h192.0" /><rect height="22" width="71" x="276" y="139"></rect><text x="311.5" y="154">kwargs</text></g><path d="M539.0 150a10 10 0 0 0 10 -10v-90a10 10 0 0 1 10 -10" /></g><path d="M 559.0 40 h 20 m -10 -10 v 20 m 10 -20 v 20"></path></g><style>/* <![CDATA[ */
	svg.railroad-diagram {
		background-color:hsl(30,20%,95%);
	}
	svg.railroad-diagram path {
		stroke-width:3;
		stroke:black;
		fill:rgba(0,0,0,0);
	}
	svg.railroad-diagram text {
		font:bold 14px monospace;
		text-anchor:middle;
	}
	svg.railroad-diagram text.label{
		text-anchor:start;
	}
	svg.railroad-diagram text.comment{
		font:italic 12px monospace;
	}
	svg.railroad-diagram rect{
		stroke-width:3;
		stroke:black;
		fill:hsl(120,100%,90%);
	}
	svg.railroad-diagram rect.group-box {
		stroke: gray;
		stroke-dasharray: 10 5;
		fill: none;
	}

/* ]]> */
</style></svg>