<svg class="railroad-diagram" height="191" viewBox="0 0 565.0 191" width="565.0" xmlns="http://www.w3.org/2000/svg" xmlns:xlink="http://www.w3.org/1999/xlink">
<g transform="translate(.5 .5)">
<g>
<path d="M20 30v20m10 -20v20m-10 -10h20" /></g><g>
<path d="M40 40h0.0" /><path d="M525.0 40h0.0" /><path d="M40.0 40h20" /><g>
<path d="M60.0 40h0.0" /><path d="M505.0 40h0.0" /><g>
<path d="M60.0 40h0.0" /><path d="M318.5 40h0.0" /><path d="M60.0 40h10" /><g>
<path d="M70.0 40h0.0" /><path d="M308.5 40h0.0" /><path d="M70.0 40h20" /><g>
<path d="M90.0 40h14.0" /><path d="M274.5 40h14.0" /><g class="terminal ">
<path d="M104.0 40h0.0" /><path d="M149.5 40h0.0" /><rect height="22" rx="10" ry="10" width="45.5" x="104" y="29"></rect><text x="126.75" y="44">&apos;*&apos;</text></g><path d="M149.5 40h10" /><path d="M159.5 40h10" /><g class="non-terminal ">
<path d="M169.5 40h0.0" /><path d="M274.5 40h0.0" /><rect height="22" width="105" x="169.5" y="29"></rect><text x="222" y="44">expression</text></g></g><path d="M288.5 40h20" /><path d="M70.0 40a10 10 0 0 1 10 10v10a10 10 0 0 0 10 10" /><g class="non-terminal ">
<path d="M90.0 70h0.0" /><path d="M288.5 70h0.0" /><rect height="22" width="198.5" x="90" y="59"></rect><text x="189.25" y="74">assignment_expression</text></g><path d="M288.5 70a10 10 0 0 0 10 -10v-10a10 10 0 0 1 10 -10" /><path d="M70.0 40a10 10 0 0 1 10 10v40a10 10 0 0 0 10 10" /><g class="non-terminal ">
<path d="M90.0 100h46.75" /><path d="M241.75 100h46.75" /><rect height="22" width="105" x="136.75" y="89"></rect><text x="189.25" y="104">expression</text></g><path d="M288.5 100a10 10 0 0 0 10 -10v-40a10 10 0 0 1 10 -10" /></g><path d="M308.5 40h10" /><path d="M70.0 40a10 10 0 0 0 -10 10v70a10 10 0 0 0 10 10" /><g class="terminal ">
<path d="M70.0 130h96.5" /><path d="M212.0 130h96.5" /><rect height="22" rx="10" ry="10" width="45.5" x="166.5" y="119"></rect><text x="189.25" y="134">&apos;,&apos;</text></g><path d="M308.5 130a10 10 0 0 0 10 -10v-70a10 10 0 0 0 -10 -10" /></g><path d="M318.5 40h10" /><g>
<path d="M328.5 40h0.0" /><path d="M505.0 40h0.0" /><path d="M328.5 40a10 10 0 0 0 10 -10v0a10 10 0 0 1 10 -10" /><g>
<path d="M348.5 20h136.5" /></g><path d="M485.0 20a10 10 0 0 1 10 10v0a10 10 0 0 0 10 10" /><path d="M328.5 40h20" /><g>
<path d="M348.5 40h0.0" /><path d="M485.0 40h0.0" /><g class="terminal ">
<path d="M348.5 40h0.0" /><path d="M394.0 40h0.0" /><rect height="22" rx="10" ry="10" width="45.5" x="348.5" y="29"></rect><text x="371.25" y="44">&apos;,&apos;</text></g><path d="M394.0 40h10" /><path d="M404.0 40h10" /><g class="non-terminal ">
<path d="M414.0 40h0.0" /><path d="M485.0 40h0.0" /><rect height="22" width="71" x="414" y="29"></rect><text x="449.5" y="44">kwargs</text></g></g><path d="M485.0 40h20" /></g></g><path d="M505.0 40h20" /><path d="M40.0 40a10 10 0 0 1 10 10v100a10 10 0 0 0 10 10" /><g class="non-terminal ">
<path d="M60.0 160h187.0" /><path d="M318.0 160h187.0" /><rect height="22" width="71" x="247" y="149"></rect><text x="282.5" y="164">kwargs</text></g><path d="M505.0 160a10 10 0 0 0 10 -10v-100a10 10 0 0 1 10 -10" /></g><path d="M 525.0 40 h 20 m -10 -10 v 20 m 10 -20 v 20"></path></g><style>/* <![CDATA[ */
	svg.railroad-diagram {
		background-color:hsl(30,20%,95%);
	}
	svg.railroad-diagram path {
		stroke-width:3;
		stroke:black;
		fill:rgba(0,0,0,0);
	}
	svg.railroad-diagram text {
		font:bold 14px monospace;
		text-anchor:middle;
	}
	svg.railroad-diagram text.label{
		text-anchor:start;
	}
	svg.railroad-diagram text.comment{
		font:italic 12px monospace;
	}
	svg.railroad-diagram rect{
		stroke-width:3;
		stroke:black;
		fill:hsl(120,100%,90%);
	}
	svg.railroad-diagram rect.group-box {
		stroke: gray;
		stroke-dasharray: 10 5;
		fill: none;
	}

/* ]]> */
</style></svg>