<svg class="railroad-diagram" height="223" viewBox="0 0 680.5 223" width="680.5" xmlns="http://www.w3.org/2000/svg" xmlns:xlink="http://www.w3.org/1999/xlink">
<g transform="translate(.5 .5)">
<g>
<path d="M20 54v20m10 -20v20m-10 -10h20" /></g><path d="M40 64h10" /><g>
<path d="M50 64h0.0" /><path d="M630.5 64h0.0" /><g>
<path d="M50.0 64h0.0" /><path d="M535.0 64h0.0" /><rect class="group-box" height="167" rx="10" ry="10" width="485" x="50" y="36"></rect><g>
<path d="M50.0 64h0.0" /><path d="M535.0 64h0.0" /><path d="M50.0 64h20" /><g>
<path d="M70.0 64h0.0" /><path d="M515.0 64h0.0" /><g>
<path d="M70.0 64h0.0" /><path d="M328.5 64h0.0" /><path d="M70.0 64h10" /><g>
<path d="M80.0 64h0.0" /><path d="M318.5 64h0.0" /><path d="M80.0 64h20" /><g>
<path d="M100.0 64h14.0" /><path d="M284.5 64h14.0" /><g class="terminal ">
<path d="M114.0 64h0.0" /><path d="M159.5 64h0.0" /><rect height="22" rx="10" ry="10" width="45.5" x="114" y="53"></rect><text x="136.75" y="68">&apos;*&apos;</text></g><path d="M159.5 64h10" /><path d="M169.5 64h10" /><g class="non-terminal ">
<path d="M179.5 64h0.0" /><path d="M284.5 64h0.0" /><rect height="22" width="105" x="179.5" y="53"></rect><text x="232" y="68">expression</text></g></g><path d="M298.5 64h20" /><path d="M80.0 64a10 10 0 0 1 10 10v10a10 10 0 0 0 10 10" /><g class="non-terminal ">
<path d="M100.0 94h0.0" /><path d="M298.5 94h0.0" /><rect height="22" width="198.5" x="100" y="83"></rect><text x="199.25" y="98">assignment_expression</text></g><path d="M298.5 94a10 10 0 0 0 10 -10v-10a10 10 0 0 1 10 -10" /><path d="M80.0 64a10 10 0 0 1 10 10v40a10 10 0 0 0 10 10" /><g class="non-terminal ">
<path d="M100.0 124h46.75" /><path d="M251.75 124h46.75" /><rect height="22" width="105" x="146.75" y="113"></rect><text x="199.25" y="128">expression</text></g><path d="M298.5 124a10 10 0 0 0 10 -10v-40a10 10 0 0 1 10 -10" /></g><path d="M318.5 64h10" /><path d="M80.0 64a10 10 0 0 0 -10 10v70a10 10 0 0 0 10 10" /><g class="terminal ">
<path d="M80.0 154h96.5" /><path d="M222.0 154h96.5" /><rect height="22" rx="10" ry="10" width="45.5" x="176.5" y="143"></rect><text x="199.25" y="158">&apos;,&apos;</text></g><path d="M318.5 154a10 10 0 0 0 10 -10v-70a10 10 0 0 0 -10 -10" /></g><path d="M328.5 64h10" /><g>
<path d="M338.5 64h0.0" /><path d="M515.0 64h0.0" /><path d="M338.5 64a10 10 0 0 0 10 -10v0a10 10 0 0 1 10 -10" /><g>
<path d="M358.5 44h136.5" /></g><path d="M495.0 44a10 10 0 0 1 10 10v0a10 10 0 0 0 10 10" /><path d="M338.5 64h20" /><g>
<path d="M358.5 64h0.0" /><path d="M495.0 64h0.0" /><g class="terminal ">
<path d="M358.5 64h0.0" /><path d="M404.0 64h0.0" /><rect height="22" rx="10" ry="10" width="45.5" x="358.5" y="53"></rect><text x="381.25" y="68">&apos;,&apos;</text></g><path d="M404.0 64h10" /><path d="M414.0 64h10" /><g class="non-terminal ">
<path d="M424.0 64h0.0" /><path d="M495.0 64h0.0" /><rect height="22" width="71" x="424" y="53"></rect><text x="459.5" y="68">kwargs</text></g></g><path d="M495.0 64h20" /></g></g><path d="M515.0 64h20" /><path d="M50.0 64a10 10 0 0 1 10 10v100a10 10 0 0 0 10 10" /><g class="non-terminal ">
<path d="M70.0 184h187.0" /><path d="M328.0 184h187.0" /><rect height="22" width="71" x="257" y="173"></rect><text x="292.5" y="188">kwargs</text></g><path d="M515.0 184a10 10 0 0 0 10 -10v-100a10 10 0 0 1 10 -10" /></g><g class="non-terminal ">
<path d="M50.0 28h0.0" /><path d="M88.0 28h0.0" /><text class="comment" x="69" y="33">args</text></g></g><path d="M535.0 64h10" /><g>
<path d="M545.0 64h0.0" /><path d="M630.5 64h0.0" /><path d="M545.0 64a10 10 0 0 0 10 -10v0a10 10 0 0 1 10 -10" /><g>
<path d="M565.0 44h45.5" /></g><path d="M610.5 44a10 10 0 0 1 10 10v0a10 10 0 0 0 10 10" /><path d="M545.0 64h20" /><g class="terminal ">
<path d="M565.0 64h0.0" /><path d="M610.5 64h0.0" /><rect height="22" rx="10" ry="10" width="45.5" x="565" y="53"></rect><text x="587.75" y="68">&apos;,&apos;</text></g><path d="M610.5 64h20" /></g></g><path d="M630.5 64h10" /><path d="M 640.5 64 h 20 m -10 -10 v 20 m 10 -20 v 20"></path></g><style>/* <![CDATA[ */
	svg.railroad-diagram {
		background-color:hsl(30,20%,95%);
	}
	svg.railroad-diagram path {
		stroke-width:3;
		stroke:black;
		fill:rgba(0,0,0,0);
	}
	svg.railroad-diagram text {
		font:bold 14px monospace;
		text-anchor:middle;
	}
	svg.railroad-diagram text.label{
		text-anchor:start;
	}
	svg.railroad-diagram text.comment{
		font:italic 12px monospace;
	}
	svg.railroad-diagram rect{
		stroke-width:3;
		stroke:black;
		fill:hsl(120,100%,90%);
	}
	svg.railroad-diagram rect.group-box {
		stroke: gray;
		stroke-dasharray: 10 5;
		fill: none;
	}

/* ]]> */
</style></svg>