<svg class="railroad-diagram" height="62" viewBox="0 0 581.0 62" width="581.0" xmlns="http://www.w3.org/2000/svg" xmlns:xlink="http://www.w3.org/1999/xlink">
<g transform="translate(.5 .5)">
<g>
<path d="M20 21v20m10 -20v20m-10 -10h95.0" /><text style="text-anchor:start" x="20" y="16">as_pattern</text></g><path d="M115.0 31h10" /><g>
<path d="M125.0 31h0.0" /><path d="M531.0 31h0.0" /><g class="non-terminal ">
<path d="M125.0 31h0.0" /><path d="M230.0 31h0.0" /><rect height="22" width="105" x="125" y="20"></rect><text x="177.5" y="35">or_pattern</text></g><path d="M230.0 31h10" /><path d="M240.0 31h10" /><g class="terminal ">
<path d="M250.0 31h0.0" /><path d="M304.0 31h0.0" /><rect height="22" rx="10" ry="10" width="54" x="250" y="20"></rect><text x="277" y="35">&apos;as&apos;</text></g><path d="M304.0 31h10" /><path d="M314.0 31h10" /><g class="non-terminal ">
<path d="M324.0 31h0.0" /><path d="M531.0 31h0.0" /><rect height="22" width="207" x="324" y="20"></rect><text x="427.5" y="35">pattern_capture_target</text></g></g><path d="M531.0 31h10" /><path d="M 541.0 31 h 20 m -10 -10 v 20 m 10 -20 v 20"></path></g><style>/* <![CDATA[ */
	svg.railroad-diagram {
		background-color:hsl(30,20%,95%);
	}
	svg.railroad-diagram path {
		stroke-width:3;
		stroke:black;
		fill:rgba(0,0,0,0);
	}
	svg.railroad-diagram text {
		font:bold 14px monospace;
		text-anchor:middle;
	}
	svg.railroad-diagram text.label{
		text-anchor:start;
	}
	svg.railroad-diagram text.comment{
		font:italic 12px monospace;
	}
	svg.railroad-diagram rect{
		stroke-width:3;
		stroke:black;
		fill:hsl(120,100%,90%);
	}
	svg.railroad-diagram rect.group-box {
		stroke: gray;
		stroke-dasharray: 10 5;
		fill: none;
	}

/* ]]> */
</style></svg>