<svg class="railroad-diagram" height="71" viewBox="0 0 533.5 71" width="533.5" xmlns="http://www.w3.org/2000/svg" xmlns:xlink="http://www.w3.org/1999/xlink">
<g transform="translate(.5 .5)">
<g>
<path d="M20 30v20m10 -20v20m-10 -10h20" /></g><path d="M40 40h10" /><g>
<path d="M50 40h0.0" /><path d="M483.5 40h0.0" /><g class="terminal ">
<path d="M50.0 40h0.0" /><path d="M138.0 40h0.0" /><rect height="22" rx="10" ry="10" width="88" x="50" y="29"></rect><text x="94" y="44">&apos;assert&apos;</text></g><path d="M138.0 40h10" /><path d="M148.0 40h10" /><g class="non-terminal ">
<path d="M158.0 40h0.0" /><path d="M263.0 40h0.0" /><rect height="22" width="105" x="158" y="29"></rect><text x="210.5" y="44">expression</text></g><path d="M263.0 40h10" /><g>
<path d="M273.0 40h0.0" /><path d="M483.5 40h0.0" /><path d="M273.0 40a10 10 0 0 0 10 -10v0a10 10 0 0 1 10 -10" /><g>
<path d="M293.0 20h170.5" /></g><path d="M463.5 20a10 10 0 0 1 10 10v0a10 10 0 0 0 10 10" /><path d="M273.0 40h20" /><g>
<path d="M293.0 40h0.0" /><path d="M463.5 40h0.0" /><g class="terminal ">
<path d="M293.0 40h0.0" /><path d="M338.5 40h0.0" /><rect height="22" rx="10" ry="10" width="45.5" x="293" y="29"></rect><text x="315.75" y="44">&apos;,&apos;</text></g><path d="M338.5 40h10" /><path d="M348.5 40h10" /><g class="non-terminal ">
<path d="M358.5 40h0.0" /><path d="M463.5 40h0.0" /><rect height="22" width="105" x="358.5" y="29"></rect><text x="411" y="44">expression</text></g></g><path d="M463.5 40h20" /></g></g><path d="M483.5 40h10" /><path d="M 493.5 40 h 20 m -10 -10 v 20 m 10 -20 v 20"></path></g><style>/* <![CDATA[ */
	svg.railroad-diagram {
		background-color:hsl(30,20%,95%);
	}
	svg.railroad-diagram path {
		stroke-width:3;
		stroke:black;
		fill:rgba(0,0,0,0);
	}
	svg.railroad-diagram text {
		font:bold 14px monospace;
		text-anchor:middle;
	}
	svg.railroad-diagram text.label{
		text-anchor:start;
	}
	svg.railroad-diagram text.comment{
		font:italic 12px monospace;
	}
	svg.railroad-diagram rect{
		stroke-width:3;
		stroke:black;
		fill:hsl(120,100%,90%);
	}
	svg.railroad-diagram rect.group-box {
		stroke: gray;
		stroke-dasharray: 10 5;
		fill: none;
	}

/* ]]> */
</style></svg>