<svg class="railroad-diagram" height="62" viewBox="0 0 521.5 62" width="521.5" xmlns="http://www.w3.org/2000/svg" xmlns:xlink="http://www.w3.org/1999/xlink">
<g transform="translate(.5 .5)">
<g>
<path d="M20 21v20m10 -20v20m-10 -10h188.5" /><text style="text-anchor:start" x="20" y="16">assignment_expression</text></g><path d="M208.5 31h10" /><g>
<path d="M218.5 31h0.0" /><path d="M471.5 31h0.0" /><g class="terminal ">
<path d="M218.5 31h0.0" /><path d="M272.5 31h0.0" /><rect height="22" rx="10" ry="10" width="54" x="218.5" y="20"></rect><text x="245.5" y="35">NAME</text></g><path d="M272.5 31h10" /><path d="M282.5 31h10" /><g class="terminal ">
<path d="M292.5 31h0.0" /><path d="M346.5 31h0.0" /><rect height="22" rx="10" ry="10" width="54" x="292.5" y="20"></rect><text x="319.5" y="35">&apos;:=&apos;</text></g><path d="M346.5 31h10" /><path d="M356.5 31h10" /><g class="non-terminal ">
<path d="M366.5 31h0.0" /><path d="M471.5 31h0.0" /><rect height="22" width="105" x="366.5" y="20"></rect><text x="419" y="35">expression</text></g></g><path d="M471.5 31h10" /><path d="M 481.5 31 h 20 m -10 -10 v 20 m 10 -20 v 20"></path></g><style>/* <![CDATA[ */
	svg.railroad-diagram {
		background-color:hsl(30,20%,95%);
	}
	svg.railroad-diagram path {
		stroke-width:3;
		stroke:black;
		fill:rgba(0,0,0,0);
	}
	svg.railroad-diagram text {
		font:bold 14px monospace;
		text-anchor:middle;
	}
	svg.railroad-diagram text.label{
		text-anchor:start;
	}
	svg.railroad-diagram text.comment{
		font:italic 12px monospace;
	}
	svg.railroad-diagram rect{
		stroke-width:3;
		stroke:black;
		fill:hsl(120,100%,90%);
	}
	svg.railroad-diagram rect.group-box {
		stroke: gray;
		stroke-dasharray: 10 5;
		fill: none;
	}

/* ]]> */
</style></svg>