<svg class="railroad-diagram" height="512" viewBox="0 0 232.0 512" width="232.0" xmlns="http://www.w3.org/2000/svg" xmlns:xlink="http://www.w3.org/1999/xlink">
<g transform="translate(.5 .5)">
<g>
<path d="M20 21v20m10 -20v20m-10 -10h44.0" /><text style="text-anchor:start" x="20" y="16">atom</text></g><g>
<path d="M64.0 31h0.0" /><path d="M192.0 31h0.0" /><path d="M64.0 31h20" /><g class="terminal ">
<path d="M84.0 31h17.0" /><path d="M155.0 31h17.0" /><rect height="22" rx="10" ry="10" width="54" x="101" y="20"></rect><text x="128" y="35">NAME</text></g><path d="M172.0 31h20" /><path d="M64.0 31a10 10 0 0 1 10 10v10a10 10 0 0 0 10 10" /><g class="terminal ">
<path d="M84.0 61h8.5" /><path d="M163.5 61h8.5" /><rect height="22" rx="10" ry="10" width="71" x="92.5" y="50"></rect><text x="128" y="65">&apos;True&apos;</text></g><path d="M172.0 61a10 10 0 0 0 10 -10v-10a10 10 0 0 1 10 -10" /><path d="M64.0 31a10 10 0 0 1 10 10v40a10 10 0 0 0 10 10" /><g class="terminal ">
<path d="M84.0 91h4.25" /><path d="M167.75 91h4.25" /><rect height="22" rx="10" ry="10" width="79.5" x="88.25" y="80"></rect><text x="128" y="95">&apos;False&apos;</text></g><path d="M172.0 91a10 10 0 0 0 10 -10v-40a10 10 0 0 1 10 -10" /><path d="M64.0 31a10 10 0 0 1 10 10v70a10 10 0 0 0 10 10" /><g class="terminal ">
<path d="M84.0 121h8.5" /><path d="M163.5 121h8.5" /><rect height="22" rx="10" ry="10" width="71" x="92.5" y="110"></rect><text x="128" y="125">&apos;None&apos;</text></g><path d="M172.0 121a10 10 0 0 0 10 -10v-70a10 10 0 0 1 10 -10" /><path d="M64.0 31a10 10 0 0 1 10 10v100a10 10 0 0 0 10 10" /><g class="non-terminal ">
<path d="M84.0 151h4.25" /><path d="M167.75 151h4.25" /><rect height="22" width="79.5" x="88.25" y="140"></rect><text x="128" y="155">strings</text></g><path d="M172.0 151a10 10 0 0 0 10 -10v-100a10 10 0 0 1 10 -10" /><path d="M64.0 31a10 10 0 0 1 10 10v130a10 10 0 0 0 10 10" /><g class="terminal ">
<path d="M84.0 181h8.5" /><path d="M163.5 181h8.5" /><rect height="22" rx="10" ry="10" width="71" x="92.5" y="170"></rect><text x="128" y="185">NUMBER</text></g><path d="M172.0 181a10 10 0 0 0 10 -10v-130a10 10 0 0 1 10 -10" /><path d="M64.0 31a10 10 0 0 1 10 10v160a10 10 0 0 0 10 10" /><g class="non-terminal ">
<path d="M84.0 211h12.75" /><path d="M159.25 211h12.75" /><rect height="22" width="62.5" x="96.75" y="200"></rect><text x="128" y="215">tuple</text></g><path d="M172.0 211a10 10 0 0 0 10 -10v-160a10 10 0 0 1 10 -10" /><path d="M64.0 31a10 10 0 0 1 10 10v190a10 10 0 0 0 10 10" /><g class="non-terminal ">
<path d="M84.0 241h12.75" /><path d="M159.25 241h12.75" /><rect height="22" width="62.5" x="96.75" y="230"></rect><text x="128" y="245">group</text></g><path d="M172.0 241a10 10 0 0 0 10 -10v-190a10 10 0 0 1 10 -10" /><path d="M64.0 31a10 10 0 0 1 10 10v220a10 10 0 0 0 10 10" /><g class="non-terminal ">
<path d="M84.0 271h8.5" /><path d="M163.5 271h8.5" /><rect height="22" width="71" x="92.5" y="260"></rect><text x="128" y="275">genexp</text></g><path d="M172.0 271a10 10 0 0 0 10 -10v-220a10 10 0 0 1 10 -10" /><path d="M64.0 31a10 10 0 0 1 10 10v250a10 10 0 0 0 10 10" /><g class="non-terminal ">
<path d="M84.0 301h17.0" /><path d="M155.0 301h17.0" /><rect height="22" width="54" x="101" y="290"></rect><text x="128" y="305">list</text></g><path d="M172.0 301a10 10 0 0 0 10 -10v-250a10 10 0 0 1 10 -10" /><path d="M64.0 31a10 10 0 0 1 10 10v280a10 10 0 0 0 10 10" /><g class="non-terminal ">
<path d="M84.0 331h0.0" /><path d="M172.0 331h0.0" /><rect height="22" width="88" x="84" y="320"></rect><text x="128" y="335">listcomp</text></g><path d="M172.0 331a10 10 0 0 0 10 -10v-280a10 10 0 0 1 10 -10" /><path d="M64.0 31a10 10 0 0 1 10 10v310a10 10 0 0 0 10 10" /><g class="non-terminal ">
<path d="M84.0 361h17.0" /><path d="M155.0 361h17.0" /><rect height="22" width="54" x="101" y="350"></rect><text x="128" y="365">dict</text></g><path d="M172.0 361a10 10 0 0 0 10 -10v-310a10 10 0 0 1 10 -10" /><path d="M64.0 31a10 10 0 0 1 10 10v340a10 10 0 0 0 10 10" /><g class="non-terminal ">
<path d="M84.0 391h21.25" /><path d="M150.75 391h21.25" /><rect height="22" width="45.5" x="105.25" y="380"></rect><text x="128" y="395">set</text></g><path d="M172.0 391a10 10 0 0 0 10 -10v-340a10 10 0 0 1 10 -10" /><path d="M64.0 31a10 10 0 0 1 10 10v370a10 10 0 0 0 10 10" /><g class="non-terminal ">
<path d="M84.0 421h0.0" /><path d="M172.0 421h0.0" /><rect height="22" width="88" x="84" y="410"></rect><text x="128" y="425">dictcomp</text></g><path d="M172.0 421a10 10 0 0 0 10 -10v-370a10 10 0 0 1 10 -10" /><path d="M64.0 31a10 10 0 0 1 10 10v400a10 10 0 0 0 10 10" /><g class="non-terminal ">
<path d="M84.0 451h4.25" /><path d="M167.75 451h4.25" /><rect height="22" width="79.5" x="88.25" y="440"></rect><text x="128" y="455">setcomp</text></g><path d="M172.0 451a10 10 0 0 0 10 -10v-400a10 10 0 0 1 10 -10" /><path d="M64.0 31a10 10 0 0 1 10 10v430a10 10 0 0 0 10 10" /><g class="terminal ">
<path d="M84.0 481h12.75" /><path d="M159.25 481h12.75" /><rect height="22" rx="10" ry="10" width="62.5" x="96.75" y="470"></rect><text x="128" y="485">&apos;...&apos;</text></g><path d="M172.0 481a10 10 0 0 0 10 -10v-430a10 10 0 0 1 10 -10" /></g><path d="M 192.0 31 h 20 m -10 -10 v 20 m 10 -20 v 20"></path></g><style>/* <![CDATA[ */
	svg.railroad-diagram {
		background-color:hsl(30,20%,95%);
	}
	svg.railroad-diagram path {
		stroke-width:3;
		stroke:black;
		fill:rgba(0,0,0,0);
	}
	svg.railroad-diagram text {
		font:bold 14px monospace;
		text-anchor:middle;
	}
	svg.railroad-diagram text.label{
		text-anchor:start;
	}
	svg.railroad-diagram text.comment{
		font:italic 12px monospace;
	}
	svg.railroad-diagram rect{
		stroke-width:3;
		stroke:black;
		fill:hsl(120,100%,90%);
	}
	svg.railroad-diagram rect.group-box {
		stroke: gray;
		stroke-dasharray: 10 5;
		fill: none;
	}

/* ]]> */
</style></svg>