<svg class="railroad-diagram" height="154" viewBox="0 0 513.0 154" width="513.0" xmlns="http://www.w3.org/2000/svg" xmlns:xlink="http://www.w3.org/1999/xlink">
<g transform="translate(.5 .5)">
<g>
<path d="M20 45v20m10 -20v20m-10 -10h20" /></g><path d="M40 55h10" /><g>
<path d="M50 55h0.0" /><path d="M463.0 55h0.0" /><g>
<path d="M50.0 55h0.0" /><path d="M333.5 55h0.0" /><path d="M50.0 55h20" /><g>
<path d="M70.0 55h0.0" /><path d="M313.5 55h0.0" /><rect class="group-box" height="68" rx="10" ry="10" width="243.5" x="70" y="36"></rect><g>
<path d="M70.0 55h10.0" /><path d="M303.5 55h10.0" /><g>
<path d="M80.0 55h0.0" /><path d="M174.0 55h0.0" /><path d="M80.0 55h20" /><g class="non-terminal ">
<path d="M100.0 55h0.0" /><path d="M154.0 55h0.0" /><rect height="22" width="54" x="100" y="44"></rect><text x="127" y="59">attr</text></g><path d="M154.0 55h20" /><path d="M80.0 55a10 10 0 0 1 10 10v10a10 10 0 0 0 10 10" /><g class="terminal ">
<path d="M100.0 85h0.0" /><path d="M154.0 85h0.0" /><rect height="22" rx="10" ry="10" width="54" x="100" y="74"></rect><text x="127" y="89">NAME</text></g><path d="M154.0 85a10 10 0 0 0 10 -10v-10a10 10 0 0 1 10 -10" /></g><path d="M174.0 55h10" /><g class="terminal ">
<path d="M184.0 55h0.0" /><path d="M229.5 55h0.0" /><rect height="22" rx="10" ry="10" width="45.5" x="184" y="44"></rect><text x="206.75" y="59">&apos;.&apos;</text></g><path d="M229.5 55h10" /><path d="M239.5 55h10" /><g class="terminal ">
<path d="M249.5 55h0.0" /><path d="M303.5 55h0.0" /><rect height="22" rx="10" ry="10" width="54" x="249.5" y="44"></rect><text x="276.5" y="59">NAME</text></g></g><g class="non-terminal ">
<path d="M70.0 28h0.0" /><path d="M108.0 28h0.0" /><text class="comment" x="89" y="33">attr</text></g></g><path d="M313.5 55h20" /><path d="M50.0 55a10 10 0 0 1 10 10v48a10 10 0 0 0 10 10" /><g class="terminal ">
<path d="M70.0 123h94.75" /><path d="M218.75 123h94.75" /><rect height="22" rx="10" ry="10" width="54" x="164.75" y="112"></rect><text x="191.75" y="127">NAME</text></g><path d="M313.5 123a10 10 0 0 0 10 -10v-48a10 10 0 0 1 10 -10" /></g><path d="M333.5 55h10" /><g class="terminal ">
<path d="M343.5 55h0.0" /><path d="M389.0 55h0.0" /><rect height="22" rx="10" ry="10" width="45.5" x="343.5" y="44"></rect><text x="366.25" y="59">&apos;.&apos;</text></g><path d="M389.0 55h10" /><path d="M399.0 55h10" /><g class="terminal ">
<path d="M409.0 55h0.0" /><path d="M463.0 55h0.0" /><rect height="22" rx="10" ry="10" width="54" x="409" y="44"></rect><text x="436" y="59">NAME</text></g></g><path d="M463.0 55h10" /><path d="M 473.0 55 h 20 m -10 -10 v 20 m 10 -20 v 20"></path></g><style>/* <![CDATA[ */
	svg.railroad-diagram {
		background-color:hsl(30,20%,95%);
	}
	svg.railroad-diagram path {
		stroke-width:3;
		stroke:black;
		fill:rgba(0,0,0,0);
	}
	svg.railroad-diagram text {
		font:bold 14px monospace;
		text-anchor:middle;
	}
	svg.railroad-diagram text.label{
		text-anchor:start;
	}
	svg.railroad-diagram text.comment{
		font:italic 12px monospace;
	}
	svg.railroad-diagram rect{
		stroke-width:3;
		stroke:black;
		fill:hsl(120,100%,90%);
	}
	svg.railroad-diagram rect.group-box {
		stroke: gray;
		stroke-dasharray: 10 5;
		fill: none;
	}

/* ]]> */
</style></svg>