<svg class="railroad-diagram" height="422" viewBox="0 0 249.0 422" width="249.0" xmlns="http://www.w3.org/2000/svg" xmlns:xlink="http://www.w3.org/1999/xlink">
<g transform="translate(.5 .5)">
<g>
<path d="M20 21v20m10 -20v20m-10 -10h86.5" /><text style="text-anchor:start" x="20" y="16">augassign</text></g><g>
<path d="M106.5 31h0.0" /><path d="M209.0 31h0.0" /><path d="M106.5 31h20" /><g class="terminal ">
<path d="M126.5 31h4.25" /><path d="M184.75 31h4.25" /><rect height="22" rx="10" ry="10" width="54" x="130.75" y="20"></rect><text x="157.75" y="35">&apos;+=&apos;</text></g><path d="M189.0 31h20" /><path d="M106.5 31a10 10 0 0 1 10 10v10a10 10 0 0 0 10 10" /><g class="terminal ">
<path d="M126.5 61h4.25" /><path d="M184.75 61h4.25" /><rect height="22" rx="10" ry="10" width="54" x="130.75" y="50"></rect><text x="157.75" y="65">&apos;-=&apos;</text></g><path d="M189.0 61a10 10 0 0 0 10 -10v-10a10 10 0 0 1 10 -10" /><path d="M106.5 31a10 10 0 0 1 10 10v40a10 10 0 0 0 10 10" /><g class="terminal ">
<path d="M126.5 91h4.25" /><path d="M184.75 91h4.25" /><rect height="22" rx="10" ry="10" width="54" x="130.75" y="80"></rect><text x="157.75" y="95">&apos;*=&apos;</text></g><path d="M189.0 91a10 10 0 0 0 10 -10v-40a10 10 0 0 1 10 -10" /><path d="M106.5 31a10 10 0 0 1 10 10v70a10 10 0 0 0 10 10" /><g class="terminal ">
<path d="M126.5 121h4.25" /><path d="M184.75 121h4.25" /><rect height="22" rx="10" ry="10" width="54" x="130.75" y="110"></rect><text x="157.75" y="125">&apos;@=&apos;</text></g><path d="M189.0 121a10 10 0 0 0 10 -10v-70a10 10 0 0 1 10 -10" /><path d="M106.5 31a10 10 0 0 1 10 10v100a10 10 0 0 0 10 10" /><g class="terminal ">
<path d="M126.5 151h4.25" /><path d="M184.75 151h4.25" /><rect height="22" rx="10" ry="10" width="54" x="130.75" y="140"></rect><text x="157.75" y="155">&apos;/=&apos;</text></g><path d="M189.0 151a10 10 0 0 0 10 -10v-100a10 10 0 0 1 10 -10" /><path d="M106.5 31a10 10 0 0 1 10 10v130a10 10 0 0 0 10 10" /><g class="terminal ">
<path d="M126.5 181h4.25" /><path d="M184.75 181h4.25" /><rect height="22" rx="10" ry="10" width="54" x="130.75" y="170"></rect><text x="157.75" y="185">&apos;%=&apos;</text></g><path d="M189.0 181a10 10 0 0 0 10 -10v-130a10 10 0 0 1 10 -10" /><path d="M106.5 31a10 10 0 0 1 10 10v160a10 10 0 0 0 10 10" /><g class="terminal ">
<path d="M126.5 211h4.25" /><path d="M184.75 211h4.25" /><rect height="22" rx="10" ry="10" width="54" x="130.75" y="200"></rect><text x="157.75" y="215">&apos;&amp;=&apos;</text></g><path d="M189.0 211a10 10 0 0 0 10 -10v-160a10 10 0 0 1 10 -10" /><path d="M106.5 31a10 10 0 0 1 10 10v190a10 10 0 0 0 10 10" /><g class="terminal ">
<path d="M126.5 241h4.25" /><path d="M184.75 241h4.25" /><rect height="22" rx="10" ry="10" width="54" x="130.75" y="230"></rect><text x="157.75" y="245">&apos;|=&apos;</text></g><path d="M189.0 241a10 10 0 0 0 10 -10v-190a10 10 0 0 1 10 -10" /><path d="M106.5 31a10 10 0 0 1 10 10v220a10 10 0 0 0 10 10" /><g class="terminal ">
<path d="M126.5 271h4.25" /><path d="M184.75 271h4.25" /><rect height="22" rx="10" ry="10" width="54" x="130.75" y="260"></rect><text x="157.75" y="275">&apos;^=&apos;</text></g><path d="M189.0 271a10 10 0 0 0 10 -10v-220a10 10 0 0 1 10 -10" /><path d="M106.5 31a10 10 0 0 1 10 10v250a10 10 0 0 0 10 10" /><g class="terminal ">
<path d="M126.5 301h0.0" /><path d="M189.0 301h0.0" /><rect height="22" rx="10" ry="10" width="62.5" x="126.5" y="290"></rect><text x="157.75" y="305">&apos;&lt;&lt;=&apos;</text></g><path d="M189.0 301a10 10 0 0 0 10 -10v-250a10 10 0 0 1 10 -10" /><path d="M106.5 31a10 10 0 0 1 10 10v280a10 10 0 0 0 10 10" /><g class="terminal ">
<path d="M126.5 331h0.0" /><path d="M189.0 331h0.0" /><rect height="22" rx="10" ry="10" width="62.5" x="126.5" y="320"></rect><text x="157.75" y="335">&apos;>>=&apos;</text></g><path d="M189.0 331a10 10 0 0 0 10 -10v-280a10 10 0 0 1 10 -10" /><path d="M106.5 31a10 10 0 0 1 10 10v310a10 10 0 0 0 10 10" /><g class="terminal ">
<path d="M126.5 361h0.0" /><path d="M189.0 361h0.0" /><rect height="22" rx="10" ry="10" width="62.5" x="126.5" y="350"></rect><text x="157.75" y="365">&apos;**=&apos;</text></g><path d="M189.0 361a10 10 0 0 0 10 -10v-310a10 10 0 0 1 10 -10" /><path d="M106.5 31a10 10 0 0 1 10 10v340a10 10 0 0 0 10 10" /><g class="terminal ">
<path d="M126.5 391h0.0" /><path d="M189.0 391h0.0" /><rect height="22" rx="10" ry="10" width="62.5" x="126.5" y="380"></rect><text x="157.75" y="395">&apos;//=&apos;</text></g><path d="M189.0 391a10 10 0 0 0 10 -10v-340a10 10 0 0 1 10 -10" /></g><path d="M 209.0 31 h 20 m -10 -10 v 20 m 10 -20 v 20"></path></g><style>/* <![CDATA[ */
	svg.railroad-diagram {
		background-color:hsl(30,20%,95%);
	}
	svg.railroad-diagram path {
		stroke-width:3;
		stroke:black;
		fill:rgba(0,0,0,0);
	}
	svg.railroad-diagram text {
		font:bold 14px monospace;
		text-anchor:middle;
	}
	svg.railroad-diagram text.label{
		text-anchor:start;
	}
	svg.railroad-diagram text.comment{
		font:italic 12px monospace;
	}
	svg.railroad-diagram rect{
		stroke-width:3;
		stroke:black;
		fill:hsl(120,100%,90%);
	}
	svg.railroad-diagram rect.group-box {
		stroke: gray;
		stroke-dasharray: 10 5;
		fill: none;
	}

/* ]]> */
</style></svg>