<svg class="railroad-diagram" height="71" viewBox="0 0 409.5 71" width="409.5" xmlns="http://www.w3.org/2000/svg" xmlns:xlink="http://www.w3.org/1999/xlink">
<g transform="translate(.5 .5)">
<g>
<path d="M20 30v20m10 -20v20m-10 -10h120.5" /><text style="text-anchor:start" x="20" y="25">await_primary</text></g><path d="M140.5 40h10" /><g>
<path d="M150.5 40h0.0" /><path d="M359.5 40h0.0" /><g>
<path d="M150.5 40h0.0" /><path d="M270.0 40h0.0" /><path d="M150.5 40a10 10 0 0 0 10 -10v0a10 10 0 0 1 10 -10" /><g>
<path d="M170.5 20h79.5" /></g><path d="M250.0 20a10 10 0 0 1 10 10v0a10 10 0 0 0 10 10" /><path d="M150.5 40h20" /><g class="terminal ">
<path d="M170.5 40h0.0" /><path d="M250.0 40h0.0" /><rect height="22" rx="10" ry="10" width="79.5" x="170.5" y="29"></rect><text x="210.25" y="44">&apos;await&apos;</text></g><path d="M250.0 40h20" /></g><path d="M270.0 40h10" /><g class="non-terminal ">
<path d="M280.0 40h0.0" /><path d="M359.5 40h0.0" /><rect height="22" width="79.5" x="280" y="29"></rect><text x="319.75" y="44">primary</text></g></g><path d="M359.5 40h10" /><path d="M 369.5 40 h 20 m -10 -10 v 20 m 10 -20 v 20"></path></g><style>/* <![CDATA[ */
	svg.railroad-diagram {
		background-color:hsl(30,20%,95%);
	}
	svg.railroad-diagram path {
		stroke-width:3;
		stroke:black;
		fill:rgba(0,0,0,0);
	}
	svg.railroad-diagram text {
		font:bold 14px monospace;
		text-anchor:middle;
	}
	svg.railroad-diagram text.label{
		text-anchor:start;
	}
	svg.railroad-diagram text.comment{
		font:italic 12px monospace;
	}
	svg.railroad-diagram rect{
		stroke-width:3;
		stroke:black;
		fill:hsl(120,100%,90%);
	}
	svg.railroad-diagram rect.group-box {
		stroke: gray;
		stroke-dasharray: 10 5;
		fill: none;
	}

/* ]]> */
</style></svg>