<svg class="railroad-diagram" height="135" viewBox="0 0 923.5 135" width="923.5" xmlns="http://www.w3.org/2000/svg" xmlns:xlink="http://www.w3.org/1999/xlink">
<g transform="translate(.5 .5)">
<g>
<path d="M20 78v20m10 -20v20m-10 -10h20" /></g><path d="M40 88h10" /><g>
<path d="M50 88h0.0" /><path d="M873.5 88h0.0" /><g>
<path d="M50.0 88h0.0" /><path d="M260.5 88h0.0" /><path d="M50.0 88a10 10 0 0 0 10 -10v0a10 10 0 0 1 10 -10" /><g>
<path d="M70.0 68h170.5" /></g><path d="M240.5 68a10 10 0 0 1 10 10v0a10 10 0 0 0 10 10" /><path d="M50.0 88h20" /><g>
<path d="M70.0 88h0.0" /><path d="M240.5 88h0.0" /><g class="non-terminal ">
<path d="M70.0 88h0.0" /><path d="M175.0 88h0.0" /><rect height="22" width="105" x="70" y="77"></rect><text x="122.5" y="92">bitwise_or</text></g><path d="M175.0 88h10" /><path d="M185.0 88h10" /><g class="terminal ">
<path d="M195.0 88h0.0" /><path d="M240.5 88h0.0" /><rect height="22" rx="10" ry="10" width="45.5" x="195" y="77"></rect><text x="217.75" y="92">&apos;|&apos;</text></g></g><path d="M240.5 88h20" /></g><path d="M260.5 88h10" /><g>
<path d="M270.5 88h0.0" /><path d="M873.5 88h0.0" /><rect class="group-box" height="79" rx="10" ry="10" width="603" x="270.5" y="36"></rect><g>
<path d="M270.5 88h10.0" /><path d="M863.5 88h10.0" /><g>
<path d="M280.5 88h0.0" /><path d="M499.5 88h0.0" /><path d="M280.5 88a10 10 0 0 0 10 -10v0a10 10 0 0 1 10 -10" /><g>
<path d="M300.5 68h179.0" /></g><path d="M479.5 68a10 10 0 0 1 10 10v0a10 10 0 0 0 10 10" /><path d="M280.5 88h20" /><g>
<path d="M300.5 88h0.0" /><path d="M479.5 88h0.0" /><g class="non-terminal ">
<path d="M300.5 88h0.0" /><path d="M414.0 88h0.0" /><rect height="22" width="113.5" x="300.5" y="77"></rect><text x="357.25" y="92">bitwise_xor</text></g><path d="M414.0 88h10" /><path d="M424.0 88h10" /><g class="terminal ">
<path d="M434.0 88h0.0" /><path d="M479.5 88h0.0" /><rect height="22" rx="10" ry="10" width="45.5" x="434" y="77"></rect><text x="456.75" y="92">&apos;^&apos;</text></g></g><path d="M479.5 88h20" /></g><path d="M499.5 88h10" /><g>
<path d="M509.5 88h0.0" /><path d="M863.5 88h0.0" /><rect class="group-box" height="47" rx="10" ry="10" width="354" x="509.5" y="60"></rect><g>
<path d="M509.5 88h10.0" /><path d="M853.5 88h10.0" /><g>
<path d="M519.5 88h0.0" /><path d="M738.5 88h0.0" /><path d="M519.5 88a10 10 0 0 0 10 -10v0a10 10 0 0 1 10 -10" /><g>
<path d="M539.5 68h179.0" /></g><path d="M718.5 68a10 10 0 0 1 10 10v0a10 10 0 0 0 10 10" /><path d="M519.5 88h20" /><g>
<path d="M539.5 88h0.0" /><path d="M718.5 88h0.0" /><g class="non-terminal ">
<path d="M539.5 88h0.0" /><path d="M653.0 88h0.0" /><rect height="22" width="113.5" x="539.5" y="77"></rect><text x="596.25" y="92">bitwise_and</text></g><path d="M653.0 88h10" /><path d="M663.0 88h10" /><g class="terminal ">
<path d="M673.0 88h0.0" /><path d="M718.5 88h0.0" /><rect height="22" rx="10" ry="10" width="45.5" x="673" y="77"></rect><text x="695.75" y="92">&apos;&amp;&apos;</text></g></g><path d="M718.5 88h20" /></g><path d="M738.5 88h10" /><g class="non-terminal ">
<path d="M748.5 88h0.0" /><path d="M853.5 88h0.0" /><rect height="22" width="105" x="748.5" y="77"></rect><text x="801" y="92">shift_expr</text></g></g><g class="non-terminal ">
<path d="M509.5 52h0.0" /><path d="M596.5 52h0.0" /><text class="comment" x="553" y="57">bitwise_and</text></g></g></g><g class="non-terminal ">
<path d="M270.5 28h0.0" /><path d="M357.5 28h0.0" /><text class="comment" x="314" y="33">bitwise_xor</text></g></g></g><path d="M873.5 88h10" /><path d="M 883.5 88 h 20 m -10 -10 v 20 m 10 -20 v 20"></path></g><style>/* <![CDATA[ */
	svg.railroad-diagram {
		background-color:hsl(30,20%,95%);
	}
	svg.railroad-diagram path {
		stroke-width:3;
		stroke:black;
		fill:rgba(0,0,0,0);
	}
	svg.railroad-diagram text {
		font:bold 14px monospace;
		text-anchor:middle;
	}
	svg.railroad-diagram text.label{
		text-anchor:start;
	}
	svg.railroad-diagram text.comment{
		font:italic 12px monospace;
	}
	svg.railroad-diagram rect{
		stroke-width:3;
		stroke:black;
		fill:hsl(120,100%,90%);
	}
	svg.railroad-diagram rect.group-box {
		stroke: gray;
		stroke-dasharray: 10 5;
		fill: none;
	}

/* ]]> */
</style></svg>