<svg class="railroad-diagram" height="71" viewBox="0 0 517.5 71" width="517.5" xmlns="http://www.w3.org/2000/svg" xmlns:xlink="http://www.w3.org/1999/xlink">
<g transform="translate(.5 .5)">
<g>
<path d="M20 30v20m10 -20v20m-10 -10h103.5" /><text style="text-anchor:start" x="20" y="25">bitwise_and</text></g><path d="M123.5 40h10" /><g>
<path d="M133.5 40h0.0" /><path d="M467.5 40h0.0" /><g>
<path d="M133.5 40h0.0" /><path d="M352.5 40h0.0" /><path d="M133.5 40a10 10 0 0 0 10 -10v0a10 10 0 0 1 10 -10" /><g>
<path d="M153.5 20h179.0" /></g><path d="M332.5 20a10 10 0 0 1 10 10v0a10 10 0 0 0 10 10" /><path d="M133.5 40h20" /><g>
<path d="M153.5 40h0.0" /><path d="M332.5 40h0.0" /><g class="non-terminal ">
<path d="M153.5 40h0.0" /><path d="M267.0 40h0.0" /><rect height="22" width="113.5" x="153.5" y="29"></rect><text x="210.25" y="44">bitwise_and</text></g><path d="M267.0 40h10" /><path d="M277.0 40h10" /><g class="terminal ">
<path d="M287.0 40h0.0" /><path d="M332.5 40h0.0" /><rect height="22" rx="10" ry="10" width="45.5" x="287" y="29"></rect><text x="309.75" y="44">&apos;&amp;&apos;</text></g></g><path d="M332.5 40h20" /></g><path d="M352.5 40h10" /><g class="non-terminal ">
<path d="M362.5 40h0.0" /><path d="M467.5 40h0.0" /><rect height="22" width="105" x="362.5" y="29"></rect><text x="415" y="44">shift_expr</text></g></g><path d="M467.5 40h10" /><path d="M 477.5 40 h 20 m -10 -10 v 20 m 10 -20 v 20"></path></g><style>/* <![CDATA[ */
	svg.railroad-diagram {
		background-color:hsl(30,20%,95%);
	}
	svg.railroad-diagram path {
		stroke-width:3;
		stroke:black;
		fill:rgba(0,0,0,0);
	}
	svg.railroad-diagram text {
		font:bold 14px monospace;
		text-anchor:middle;
	}
	svg.railroad-diagram text.label{
		text-anchor:start;
	}
	svg.railroad-diagram text.comment{
		font:italic 12px monospace;
	}
	svg.railroad-diagram rect{
		stroke-width:3;
		stroke:black;
		fill:hsl(120,100%,90%);
	}
	svg.railroad-diagram rect.group-box {
		stroke: gray;
		stroke-dasharray: 10 5;
		fill: none;
	}

/* ]]> */
</style></svg>