<svg class="railroad-diagram" height="101" viewBox="0 0 518.0 101" width="518.0" xmlns="http://www.w3.org/2000/svg" xmlns:xlink="http://www.w3.org/1999/xlink">
<g transform="translate(.5 .5)">
<g>
<path d="M20 21v20m10 -20v20m-10 -10h20" /></g><g>
<path d="M40 31h0.0" /><path d="M478.0 31h0.0" /><path d="M40.0 31h20" /><g>
<path d="M60.0 31h0.0" /><path d="M458.0 31h0.0" /><g class="terminal ">
<path d="M60.0 31h0.0" /><path d="M139.5 31h0.0" /><rect height="22" rx="10" ry="10" width="79.5" x="60" y="20"></rect><text x="99.75" y="35">NEWLINE</text></g><path d="M139.5 31h10" /><path d="M149.5 31h10" /><g class="terminal ">
<path d="M159.5 31h0.0" /><path d="M230.5 31h0.0" /><rect height="22" rx="10" ry="10" width="71" x="159.5" y="20"></rect><text x="195" y="35">INDENT</text></g><path d="M230.5 31h10" /><path d="M240.5 31h10" /><g>
<path d="M250.5 31h0.0" /><path d="M367.0 31h0.0" /><path d="M250.5 31h10" /><g class="non-terminal ">
<path d="M260.5 31h0.0" /><path d="M357.0 31h0.0" /><rect height="22" width="96.5" x="260.5" y="20"></rect><text x="308.75" y="35">statement</text></g><path d="M357.0 31h10" /><path d="M260.5 31a10 10 0 0 0 -10 10v0a10 10 0 0 0 10 10" /><g>
<path d="M260.5 51h96.5" /></g><path d="M357.0 51a10 10 0 0 0 10 -10v0a10 10 0 0 0 -10 -10" /></g><path d="M367.0 31h10" /><path d="M377.0 31h10" /><g class="terminal ">
<path d="M387.0 31h0.0" /><path d="M458.0 31h0.0" /><rect height="22" rx="10" ry="10" width="71" x="387" y="20"></rect><text x="422.5" y="35">DEDENT</text></g></g><path d="M458.0 31h20" /><path d="M40.0 31a10 10 0 0 1 10 10v19a10 10 0 0 0 10 10" /><g class="non-terminal ">
<path d="M60.0 70h138.0" /><path d="M320.0 70h138.0" /><rect height="22" width="122" x="198" y="59"></rect><text x="259" y="74">simple_stmts</text></g><path d="M458.0 70a10 10 0 0 0 10 -10v-19a10 10 0 0 1 10 -10" /></g><path d="M 478.0 31 h 20 m -10 -10 v 20 m 10 -20 v 20"></path></g><style>/* <![CDATA[ */
	svg.railroad-diagram {
		background-color:hsl(30,20%,95%);
	}
	svg.railroad-diagram path {
		stroke-width:3;
		stroke:black;
		fill:rgba(0,0,0,0);
	}
	svg.railroad-diagram text {
		font:bold 14px monospace;
		text-anchor:middle;
	}
	svg.railroad-diagram text.label{
		text-anchor:start;
	}
	svg.railroad-diagram text.comment{
		font:italic 12px monospace;
	}
	svg.railroad-diagram rect{
		stroke-width:3;
		stroke:black;
		fill:hsl(120,100%,90%);
	}
	svg.railroad-diagram rect.group-box {
		stroke: gray;
		stroke-dasharray: 10 5;
		fill: none;
	}

/* ]]> */
</style></svg>