<svg class="railroad-diagram" height="101" viewBox="0 0 550.5 101" width="550.5" xmlns="http://www.w3.org/2000/svg" xmlns:xlink="http://www.w3.org/1999/xlink">
<g transform="translate(.5 .5)">
<g>
<path d="M20 21v20m10 -20v20m-10 -10h52.5" /><text style="text-anchor:start" x="20" y="16">block</text></g><g>
<path d="M72.5 31h0.0" /><path d="M510.5 31h0.0" /><path d="M72.5 31h20" /><g>
<path d="M92.5 31h0.0" /><path d="M490.5 31h0.0" /><g class="terminal ">
<path d="M92.5 31h0.0" /><path d="M172.0 31h0.0" /><rect height="22" rx="10" ry="10" width="79.5" x="92.5" y="20"></rect><text x="132.25" y="35">NEWLINE</text></g><path d="M172.0 31h10" /><path d="M182.0 31h10" /><g class="terminal ">
<path d="M192.0 31h0.0" /><path d="M263.0 31h0.0" /><rect height="22" rx="10" ry="10" width="71" x="192" y="20"></rect><text x="227.5" y="35">INDENT</text></g><path d="M263.0 31h10" /><path d="M273.0 31h10" /><g>
<path d="M283.0 31h0.0" /><path d="M399.5 31h0.0" /><path d="M283.0 31h10" /><g class="non-terminal ">
<path d="M293.0 31h0.0" /><path d="M389.5 31h0.0" /><rect height="22" width="96.5" x="293" y="20"></rect><text x="341.25" y="35">statement</text></g><path d="M389.5 31h10" /><path d="M293.0 31a10 10 0 0 0 -10 10v0a10 10 0 0 0 10 10" /><g>
<path d="M293.0 51h96.5" /></g><path d="M389.5 51a10 10 0 0 0 10 -10v0a10 10 0 0 0 -10 -10" /></g><path d="M399.5 31h10" /><path d="M409.5 31h10" /><g class="terminal ">
<path d="M419.5 31h0.0" /><path d="M490.5 31h0.0" /><rect height="22" rx="10" ry="10" width="71" x="419.5" y="20"></rect><text x="455" y="35">DEDENT</text></g></g><path d="M490.5 31h20" /><path d="M72.5 31a10 10 0 0 1 10 10v19a10 10 0 0 0 10 10" /><g class="non-terminal ">
<path d="M92.5 70h138.0" /><path d="M352.5 70h138.0" /><rect height="22" width="122" x="230.5" y="59"></rect><text x="291.5" y="74">simple_stmts</text></g><path d="M490.5 70a10 10 0 0 0 10 -10v-19a10 10 0 0 1 10 -10" /></g><path d="M 510.5 31 h 20 m -10 -10 v 20 m 10 -20 v 20"></path></g><style>/* <![CDATA[ */
	svg.railroad-diagram {
		background-color:hsl(30,20%,95%);
	}
	svg.railroad-diagram path {
		stroke-width:3;
		stroke:black;
		fill:rgba(0,0,0,0);
	}
	svg.railroad-diagram text {
		font:bold 14px monospace;
		text-anchor:middle;
	}
	svg.railroad-diagram text.label{
		text-anchor:start;
	}
	svg.railroad-diagram text.comment{
		font:italic 12px monospace;
	}
	svg.railroad-diagram rect{
		stroke-width:3;
		stroke:black;
		fill:hsl(120,100%,90%);
	}
	svg.railroad-diagram rect.group-box {
		stroke: gray;
		stroke-dasharray: 10 5;
		fill: none;
	}

/* ]]> */
</style></svg>