<svg class="railroad-diagram" height="71" viewBox="0 0 604.5 71" width="604.5" xmlns="http://www.w3.org/2000/svg" xmlns:xlink="http://www.w3.org/1999/xlink">
<g transform="translate(.5 .5)">
<g>
<path d="M20 30v20m10 -20v20m-10 -10h95.0" /><text style="text-anchor:start" x="20" y="25">case_block</text></g><path d="M115.0 40h10" /><g>
<path d="M125.0 40h0.0" /><path d="M554.5 40h0.0" /><g class="terminal ">
<path d="M125.0 40h0.0" /><path d="M196.0 40h0.0" /><rect height="22" rx="10" ry="10" width="71" x="125" y="29"></rect><text x="160.5" y="44">&quot;case&quot;</text></g><path d="M196.0 40h10" /><path d="M206.0 40h10" /><g class="non-terminal ">
<path d="M216.0 40h0.0" /><path d="M304.0 40h0.0" /><rect height="22" width="88" x="216" y="29"></rect><text x="260" y="44">patterns</text></g><path d="M304.0 40h10" /><g>
<path d="M314.0 40h0.0" /><path d="M416.5 40h0.0" /><path d="M314.0 40a10 10 0 0 0 10 -10v0a10 10 0 0 1 10 -10" /><g>
<path d="M334.0 20h62.5" /></g><path d="M396.5 20a10 10 0 0 1 10 10v0a10 10 0 0 0 10 10" /><path d="M314.0 40h20" /><g class="non-terminal ">
<path d="M334.0 40h0.0" /><path d="M396.5 40h0.0" /><rect height="22" width="62.5" x="334" y="29"></rect><text x="365.25" y="44">guard</text></g><path d="M396.5 40h20" /></g><path d="M416.5 40h10" /><g class="terminal ">
<path d="M426.5 40h0.0" /><path d="M472.0 40h0.0" /><rect height="22" rx="10" ry="10" width="45.5" x="426.5" y="29"></rect><text x="449.25" y="44">&apos;:&apos;</text></g><path d="M472.0 40h10" /><path d="M482.0 40h10" /><g class="non-terminal ">
<path d="M492.0 40h0.0" /><path d="M554.5 40h0.0" /><rect height="22" width="62.5" x="492" y="29"></rect><text x="523.25" y="44">block</text></g></g><path d="M554.5 40h10" /><path d="M 564.5 40 h 20 m -10 -10 v 20 m 10 -20 v 20"></path></g><style>/* <![CDATA[ */
	svg.railroad-diagram {
		background-color:hsl(30,20%,95%);
	}
	svg.railroad-diagram path {
		stroke-width:3;
		stroke:black;
		fill:rgba(0,0,0,0);
	}
	svg.railroad-diagram text {
		font:bold 14px monospace;
		text-anchor:middle;
	}
	svg.railroad-diagram text.label{
		text-anchor:start;
	}
	svg.railroad-diagram text.comment{
		font:italic 12px monospace;
	}
	svg.railroad-diagram rect{
		stroke-width:3;
		stroke:black;
		fill:hsl(120,100%,90%);
	}
	svg.railroad-diagram rect.group-box {
		stroke: gray;
		stroke-dasharray: 10 5;
		fill: none;
	}

/* ]]> */
</style></svg>