<svg class="railroad-diagram" height="79" viewBox="0 0 997.5 79" width="997.5" xmlns="http://www.w3.org/2000/svg" xmlns:xlink="http://www.w3.org/1999/xlink">
<g transform="translate(.5 .5)">
<g>
<path d="M20 38v20m10 -20v20m-10 -10h20" /></g><path d="M40 48h10" /><g>
<path d="M50 48h0.0" /><path d="M947.5 48h0.0" /><g>
<path d="M50.0 48h0.0" /><path d="M195.0 48h0.0" /><path d="M50.0 48a10 10 0 0 0 10 -10v0a10 10 0 0 1 10 -10" /><g>
<path d="M70.0 28h105.0" /></g><path d="M175.0 28a10 10 0 0 1 10 10v0a10 10 0 0 0 10 10" /><path d="M50.0 48h20" /><g class="non-terminal ">
<path d="M70.0 48h0.0" /><path d="M175.0 48h0.0" /><rect height="22" width="105" x="70" y="37"></rect><text x="122.5" y="52">decorators</text></g><path d="M175.0 48h20" /></g><path d="M195.0 48h10" /><g class="terminal ">
<path d="M205.0 48h0.0" /><path d="M284.5 48h0.0" /><rect height="22" rx="10" ry="10" width="79.5" x="205" y="37"></rect><text x="244.75" y="52">&apos;class&apos;</text></g><path d="M284.5 48h10" /><path d="M294.5 48h10" /><g class="terminal ">
<path d="M304.5 48h0.0" /><path d="M358.5 48h0.0" /><rect height="22" rx="10" ry="10" width="54" x="304.5" y="37"></rect><text x="331.5" y="52">NAME</text></g><path d="M358.5 48h10" /><g>
<path d="M368.5 48h0.0" /><path d="M522.0 48h0.0" /><path d="M368.5 48a10 10 0 0 0 10 -10v0a10 10 0 0 1 10 -10" /><g>
<path d="M388.5 28h113.5" /></g><path d="M502.0 28a10 10 0 0 1 10 10v0a10 10 0 0 0 10 10" /><path d="M368.5 48h20" /><g class="non-terminal ">
<path d="M388.5 48h0.0" /><path d="M502.0 48h0.0" /><rect height="22" width="113.5" x="388.5" y="37"></rect><text x="445.25" y="52">type_params</text></g><path d="M502.0 48h20" /></g><g>
<path d="M522.0 48h0.0" /><path d="M809.5 48h0.0" /><path d="M522.0 48a10 10 0 0 0 10 -10v-8a10 10 0 0 1 10 -10" /><g>
<path d="M542.0 20h247.5" /></g><path d="M789.5 20a10 10 0 0 1 10 10v8a10 10 0 0 0 10 10" /><path d="M522.0 48h20" /><g>
<path d="M542.0 48h0.0" /><path d="M789.5 48h0.0" /><g class="terminal ">
<path d="M542.0 48h0.0" /><path d="M587.5 48h0.0" /><rect height="22" rx="10" ry="10" width="45.5" x="542" y="37"></rect><text x="564.75" y="52">&apos;(&apos;</text></g><path d="M587.5 48h10" /><g>
<path d="M597.5 48h0.0" /><path d="M734.0 48h0.0" /><path d="M597.5 48a10 10 0 0 0 10 -10v0a10 10 0 0 1 10 -10" /><g>
<path d="M617.5 28h96.5" /></g><path d="M714.0 28a10 10 0 0 1 10 10v0a10 10 0 0 0 10 10" /><path d="M597.5 48h20" /><g class="non-terminal ">
<path d="M617.5 48h0.0" /><path d="M714.0 48h0.0" /><rect height="22" width="96.5" x="617.5" y="37"></rect><text x="665.75" y="52">arguments</text></g><path d="M714.0 48h20" /></g><path d="M734.0 48h10" /><g class="terminal ">
<path d="M744.0 48h0.0" /><path d="M789.5 48h0.0" /><rect height="22" rx="10" ry="10" width="45.5" x="744" y="37"></rect><text x="766.75" y="52">&apos;)&apos;</text></g></g><path d="M789.5 48h20" /></g><path d="M809.5 48h10" /><g class="terminal ">
<path d="M819.5 48h0.0" /><path d="M865.0 48h0.0" /><rect height="22" rx="10" ry="10" width="45.5" x="819.5" y="37"></rect><text x="842.25" y="52">&apos;:&apos;</text></g><path d="M865.0 48h10" /><path d="M875.0 48h10" /><g class="non-terminal ">
<path d="M885.0 48h0.0" /><path d="M947.5 48h0.0" /><rect height="22" width="62.5" x="885" y="37"></rect><text x="916.25" y="52">block</text></g></g><path d="M947.5 48h10" /><path d="M 957.5 48 h 20 m -10 -10 v 20 m 10 -20 v 20"></path></g><style>/* <![CDATA[ */
	svg.railroad-diagram {
		background-color:hsl(30,20%,95%);
	}
	svg.railroad-diagram path {
		stroke-width:3;
		stroke:black;
		fill:rgba(0,0,0,0);
	}
	svg.railroad-diagram text {
		font:bold 14px monospace;
		text-anchor:middle;
	}
	svg.railroad-diagram text.label{
		text-anchor:start;
	}
	svg.railroad-diagram text.comment{
		font:italic 12px monospace;
	}
	svg.railroad-diagram rect{
		stroke-width:3;
		stroke:black;
		fill:hsl(120,100%,90%);
	}
	svg.railroad-diagram rect.group-box {
		stroke: gray;
		stroke-dasharray: 10 5;
		fill: none;
	}

/* ]]> */
</style></svg>