<svg class="railroad-diagram" height="79" viewBox="0 0 1064.0 79" width="1064.0" xmlns="http://www.w3.org/2000/svg" xmlns:xlink="http://www.w3.org/1999/xlink">
<g transform="translate(.5 .5)">
<g>
<path d="M20 38v20m10 -20v20m-10 -10h86.5" /><text style="text-anchor:start" x="20" y="33">class_def</text></g><path d="M106.5 48h10" /><g>
<path d="M116.5 48h0.0" /><path d="M1014.0 48h0.0" /><g>
<path d="M116.5 48h0.0" /><path d="M261.5 48h0.0" /><path d="M116.5 48a10 10 0 0 0 10 -10v0a10 10 0 0 1 10 -10" /><g>
<path d="M136.5 28h105.0" /></g><path d="M241.5 28a10 10 0 0 1 10 10v0a10 10 0 0 0 10 10" /><path d="M116.5 48h20" /><g class="non-terminal ">
<path d="M136.5 48h0.0" /><path d="M241.5 48h0.0" /><rect height="22" width="105" x="136.5" y="37"></rect><text x="189" y="52">decorators</text></g><path d="M241.5 48h20" /></g><path d="M261.5 48h10" /><g class="terminal ">
<path d="M271.5 48h0.0" /><path d="M351.0 48h0.0" /><rect height="22" rx="10" ry="10" width="79.5" x="271.5" y="37"></rect><text x="311.25" y="52">&apos;class&apos;</text></g><path d="M351.0 48h10" /><path d="M361.0 48h10" /><g class="terminal ">
<path d="M371.0 48h0.0" /><path d="M425.0 48h0.0" /><rect height="22" rx="10" ry="10" width="54" x="371" y="37"></rect><text x="398" y="52">NAME</text></g><path d="M425.0 48h10" /><g>
<path d="M435.0 48h0.0" /><path d="M588.5 48h0.0" /><path d="M435.0 48a10 10 0 0 0 10 -10v0a10 10 0 0 1 10 -10" /><g>
<path d="M455.0 28h113.5" /></g><path d="M568.5 28a10 10 0 0 1 10 10v0a10 10 0 0 0 10 10" /><path d="M435.0 48h20" /><g class="non-terminal ">
<path d="M455.0 48h0.0" /><path d="M568.5 48h0.0" /><rect height="22" width="113.5" x="455" y="37"></rect><text x="511.75" y="52">type_params</text></g><path d="M568.5 48h20" /></g><g>
<path d="M588.5 48h0.0" /><path d="M876.0 48h0.0" /><path d="M588.5 48a10 10 0 0 0 10 -10v-8a10 10 0 0 1 10 -10" /><g>
<path d="M608.5 20h247.5" /></g><path d="M856.0 20a10 10 0 0 1 10 10v8a10 10 0 0 0 10 10" /><path d="M588.5 48h20" /><g>
<path d="M608.5 48h0.0" /><path d="M856.0 48h0.0" /><g class="terminal ">
<path d="M608.5 48h0.0" /><path d="M654.0 48h0.0" /><rect height="22" rx="10" ry="10" width="45.5" x="608.5" y="37"></rect><text x="631.25" y="52">&apos;(&apos;</text></g><path d="M654.0 48h10" /><g>
<path d="M664.0 48h0.0" /><path d="M800.5 48h0.0" /><path d="M664.0 48a10 10 0 0 0 10 -10v0a10 10 0 0 1 10 -10" /><g>
<path d="M684.0 28h96.5" /></g><path d="M780.5 28a10 10 0 0 1 10 10v0a10 10 0 0 0 10 10" /><path d="M664.0 48h20" /><g class="non-terminal ">
<path d="M684.0 48h0.0" /><path d="M780.5 48h0.0" /><rect height="22" width="96.5" x="684" y="37"></rect><text x="732.25" y="52">arguments</text></g><path d="M780.5 48h20" /></g><path d="M800.5 48h10" /><g class="terminal ">
<path d="M810.5 48h0.0" /><path d="M856.0 48h0.0" /><rect height="22" rx="10" ry="10" width="45.5" x="810.5" y="37"></rect><text x="833.25" y="52">&apos;)&apos;</text></g></g><path d="M856.0 48h20" /></g><path d="M876.0 48h10" /><g class="terminal ">
<path d="M886.0 48h0.0" /><path d="M931.5 48h0.0" /><rect height="22" rx="10" ry="10" width="45.5" x="886" y="37"></rect><text x="908.75" y="52">&apos;:&apos;</text></g><path d="M931.5 48h10" /><path d="M941.5 48h10" /><g class="non-terminal ">
<path d="M951.5 48h0.0" /><path d="M1014.0 48h0.0" /><rect height="22" width="62.5" x="951.5" y="37"></rect><text x="982.75" y="52">block</text></g></g><path d="M1014.0 48h10" /><path d="M 1024.0 48 h 20 m -10 -10 v 20 m 10 -20 v 20"></path></g><style>/* <![CDATA[ */
	svg.railroad-diagram {
		background-color:hsl(30,20%,95%);
	}
	svg.railroad-diagram path {
		stroke-width:3;
		stroke:black;
		fill:rgba(0,0,0,0);
	}
	svg.railroad-diagram text {
		font:bold 14px monospace;
		text-anchor:middle;
	}
	svg.railroad-diagram text.label{
		text-anchor:start;
	}
	svg.railroad-diagram text.comment{
		font:italic 12px monospace;
	}
	svg.railroad-diagram rect{
		stroke-width:3;
		stroke:black;
		fill:hsl(120,100%,90%);
	}
	svg.railroad-diagram rect.group-box {
		stroke: gray;
		stroke-dasharray: 10 5;
		fill: none;
	}

/* ]]> */
</style></svg>