<svg class="railroad-diagram" height="201" viewBox="0 0 954.5 201" width="954.5" xmlns="http://www.w3.org/2000/svg" xmlns:xlink="http://www.w3.org/1999/xlink">
<g transform="translate(.5 .5)">
<g>
<path d="M20 38v20m10 -20v20m-10 -10h20" /></g><path d="M40 48h10" /><g>
<path d="M50 48h0.0" /><path d="M904.5 48h0.0" /><g>
<path d="M50.0 48h0.0" /><path d="M144.0 48h0.0" /><path d="M50.0 48h20" /><g class="non-terminal ">
<path d="M70.0 48h0.0" /><path d="M124.0 48h0.0" /><rect height="22" width="54" x="70" y="37"></rect><text x="97" y="52">attr</text></g><path d="M124.0 48h20" /><path d="M50.0 48a10 10 0 0 1 10 10v10a10 10 0 0 0 10 10" /><g class="terminal ">
<path d="M70.0 78h0.0" /><path d="M124.0 78h0.0" /><rect height="22" rx="10" ry="10" width="54" x="70" y="67"></rect><text x="97" y="82">NAME</text></g><path d="M124.0 78a10 10 0 0 0 10 -10v-10a10 10 0 0 1 10 -10" /></g><path d="M144.0 48h10" /><g class="terminal ">
<path d="M154.0 48h0.0" /><path d="M199.5 48h0.0" /><rect height="22" rx="10" ry="10" width="45.5" x="154" y="37"></rect><text x="176.75" y="52">&apos;(&apos;</text></g><path d="M199.5 48h10" /><g>
<path d="M209.5 48h0.0" /><path d="M849.0 48h0.0" /><path d="M209.5 48a10 10 0 0 0 10 -10v-8a10 10 0 0 1 10 -10" /><g>
<path d="M229.5 20h599.5" /></g><path d="M829.0 20a10 10 0 0 1 10 10v8a10 10 0 0 0 10 10" /><path d="M209.5 48h20" /><g>
<path d="M229.5 48h0.0" /><path d="M829.0 48h0.0" /><g>
<path d="M229.5 48h0.0" /><path d="M743.5 48h0.0" /><path d="M229.5 48h20" /><g>
<path d="M249.5 48h187.25" /><path d="M536.25 48h187.25" /><path d="M436.75 48h10" /><g class="non-terminal ">
<path d="M446.75 48h0.0" /><path d="M526.25 48h0.0" /><rect height="22" width="79.5" x="446.75" y="37"></rect><text x="486.5" y="52">pattern</text></g><path d="M526.25 48h10" /><path d="M446.75 48a10 10 0 0 0 -10 10v10a10 10 0 0 0 10 10" /><g class="terminal ">
<path d="M446.75 78h17.0" /><path d="M509.25 78h17.0" /><rect height="22" rx="10" ry="10" width="45.5" x="463.75" y="67"></rect><text x="486.5" y="82">&apos;,&apos;</text></g><path d="M526.25 78a10 10 0 0 0 10 -10v-10a10 10 0 0 0 -10 -10" /></g><path d="M723.5 48h20" /><path d="M229.5 48a10 10 0 0 1 10 10v64a10 10 0 0 0 10 10" /><g>
<path d="M249.5 132h0.0" /><path d="M723.5 132h0.0" /><g>
<path d="M249.5 132h0.0" /><path d="M454.5 132h0.0" /><path d="M249.5 132a10 10 0 0 0 10 -10v0a10 10 0 0 1 10 -10" /><g>
<path d="M269.5 112h165.0" /></g><path d="M434.5 112a10 10 0 0 1 10 10v0a10 10 0 0 0 10 10" /><path d="M249.5 132h20" /><g>
<path d="M269.5 132h0.0" /><path d="M434.5 132h0.0" /><g>
<path d="M269.5 132h0.0" /><path d="M369.0 132h0.0" /><path d="M269.5 132h10" /><g class="non-terminal ">
<path d="M279.5 132h0.0" /><path d="M359.0 132h0.0" /><rect height="22" width="79.5" x="279.5" y="121"></rect><text x="319.25" y="136">pattern</text></g><path d="M359.0 132h10" /><path d="M279.5 132a10 10 0 0 0 -10 10v10a10 10 0 0 0 10 10" /><g class="terminal ">
<path d="M279.5 162h17.0" /><path d="M342.0 162h17.0" /><rect height="22" rx="10" ry="10" width="45.5" x="296.5" y="151"></rect><text x="319.25" y="166">&apos;,&apos;</text></g><path d="M359.0 162a10 10 0 0 0 10 -10v-10a10 10 0 0 0 -10 -10" /></g><path d="M369.0 132h10" /><path d="M379.0 132h10" /><g class="terminal ">
<path d="M389.0 132h0.0" /><path d="M434.5 132h0.0" /><rect height="22" rx="10" ry="10" width="45.5" x="389" y="121"></rect><text x="411.75" y="136">&apos;,&apos;</text></g></g><path d="M434.5 132h20" /></g><path d="M454.5 132h10" /><g>
<path d="M464.5 132h0.0" /><path d="M723.5 132h0.0" /><rect class="group-box" height="68" rx="10" ry="10" width="259" x="464.5" y="113"></rect><g>
<path d="M464.5 132h10.0" /><path d="M713.5 132h10.0" /><path d="M474.5 132h10" /><g>
<path d="M484.5 132h0.0" /><path d="M703.5 132h0.0" /><g class="terminal ">
<path d="M484.5 132h0.0" /><path d="M538.5 132h0.0" /><rect height="22" rx="10" ry="10" width="54" x="484.5" y="121"></rect><text x="511.5" y="136">NAME</text></g><path d="M538.5 132h10" /><path d="M548.5 132h10" /><g class="terminal ">
<path d="M558.5 132h0.0" /><path d="M604.0 132h0.0" /><rect height="22" rx="10" ry="10" width="45.5" x="558.5" y="121"></rect><text x="581.25" y="136">&apos;=&apos;</text></g><path d="M604.0 132h10" /><path d="M614.0 132h10" /><g class="non-terminal ">
<path d="M624.0 132h0.0" /><path d="M703.5 132h0.0" /><rect height="22" width="79.5" x="624" y="121"></rect><text x="663.75" y="136">pattern</text></g></g><path d="M703.5 132h10" /><path d="M484.5 132a10 10 0 0 0 -10 10v10a10 10 0 0 0 10 10" /><g class="terminal ">
<path d="M484.5 162h86.75" /><path d="M616.75 162h86.75" /><rect height="22" rx="10" ry="10" width="45.5" x="571.25" y="151"></rect><text x="594" y="166">&apos;,&apos;</text></g><path d="M703.5 162a10 10 0 0 0 10 -10v-10a10 10 0 0 0 -10 -10" /></g><g class="non-terminal ">
<path d="M464.5 105h0.0" /><path d="M586.5 105h0.0" /><text class="comment" x="525.5" y="110">keyword_patterns</text></g></g></g><path d="M723.5 132a10 10 0 0 0 10 -10v-64a10 10 0 0 1 10 -10" /></g><g>
<path d="M743.5 48h0.0" /><path d="M829.0 48h0.0" /><path d="M743.5 48a10 10 0 0 0 10 -10v0a10 10 0 0 1 10 -10" /><g>
<path d="M763.5 28h45.5" /></g><path d="M809.0 28a10 10 0 0 1 10 10v0a10 10 0 0 0 10 10" /><path d="M743.5 48h20" /><g class="terminal ">
<path d="M763.5 48h0.0" /><path d="M809.0 48h0.0" /><rect height="22" rx="10" ry="10" width="45.5" x="763.5" y="37"></rect><text x="786.25" y="52">&apos;,&apos;</text></g><path d="M809.0 48h20" /></g></g><path d="M829.0 48h20" /></g><path d="M849.0 48h10" /><g class="terminal ">
<path d="M859.0 48h0.0" /><path d="M904.5 48h0.0" /><rect height="22" rx="10" ry="10" width="45.5" x="859" y="37"></rect><text x="881.75" y="52">&apos;)&apos;</text></g></g><path d="M904.5 48h10" /><path d="M 914.5 48 h 20 m -10 -10 v 20 m 10 -20 v 20"></path></g><style>/* <![CDATA[ */
	svg.railroad-diagram {
		background-color:hsl(30,20%,95%);
	}
	svg.railroad-diagram path {
		stroke-width:3;
		stroke:black;
		fill:rgba(0,0,0,0);
	}
	svg.railroad-diagram text {
		font:bold 14px monospace;
		text-anchor:middle;
	}
	svg.railroad-diagram text.label{
		text-anchor:start;
	}
	svg.railroad-diagram text.comment{
		font:italic 12px monospace;
	}
	svg.railroad-diagram rect{
		stroke-width:3;
		stroke:black;
		fill:hsl(120,100%,90%);
	}
	svg.railroad-diagram rect.group-box {
		stroke: gray;
		stroke-dasharray: 10 5;
		fill: none;
	}

/* ]]> */
</style></svg>