<svg class="railroad-diagram" height="272" viewBox="0 0 327.0 272" width="327.0" xmlns="http://www.w3.org/2000/svg" xmlns:xlink="http://www.w3.org/1999/xlink">
<g transform="translate(.5 .5)">
<g>
<path d="M20 21v20m10 -20v20m-10 -10h20" /></g><g>
<path d="M40 31h0.0" /><path d="M287.0 31h0.0" /><path d="M40.0 31h20" /><g class="non-terminal ">
<path d="M60.0 31h29.75" /><path d="M237.25 31h29.75" /><rect height="22" width="147.5" x="89.75" y="20"></rect><text x="163.5" y="35">literal_pattern</text></g><path d="M267.0 31h20" /><path d="M40.0 31a10 10 0 0 1 10 10v10a10 10 0 0 0 10 10" /><g class="non-terminal ">
<path d="M60.0 61h0.0" /><path d="M267.0 61h0.0" /><rect height="22" width="207" x="60" y="50"></rect><text x="163.5" y="65">pattern_capture_target</text></g><path d="M267.0 61a10 10 0 0 0 10 -10v-10a10 10 0 0 1 10 -10" /><path d="M40.0 31a10 10 0 0 1 10 10v40a10 10 0 0 0 10 10" /><g class="non-terminal ">
<path d="M60.0 91h25.5" /><path d="M241.5 91h25.5" /><rect height="22" width="156" x="85.5" y="80"></rect><text x="163.5" y="95">wildcard_pattern</text></g><path d="M267.0 91a10 10 0 0 0 10 -10v-40a10 10 0 0 1 10 -10" /><path d="M40.0 31a10 10 0 0 1 10 10v70a10 10 0 0 0 10 10" /><g class="non-terminal ">
<path d="M60.0 121h76.5" /><path d="M190.5 121h76.5" /><rect height="22" width="54" x="136.5" y="110"></rect><text x="163.5" y="125">attr</text></g><path d="M267.0 121a10 10 0 0 0 10 -10v-70a10 10 0 0 1 10 -10" /><path d="M40.0 31a10 10 0 0 1 10 10v100a10 10 0 0 0 10 10" /><g class="non-terminal ">
<path d="M60.0 151h38.25" /><path d="M228.75 151h38.25" /><rect height="22" width="130.5" x="98.25" y="140"></rect><text x="163.5" y="155">group_pattern</text></g><path d="M267.0 151a10 10 0 0 0 10 -10v-100a10 10 0 0 1 10 -10" /><path d="M40.0 31a10 10 0 0 1 10 10v130a10 10 0 0 0 10 10" /><g class="non-terminal ">
<path d="M60.0 181h25.5" /><path d="M241.5 181h25.5" /><rect height="22" width="156" x="85.5" y="170"></rect><text x="163.5" y="185">sequence_pattern</text></g><path d="M267.0 181a10 10 0 0 0 10 -10v-130a10 10 0 0 1 10 -10" /><path d="M40.0 31a10 10 0 0 1 10 10v160a10 10 0 0 0 10 10" /><g class="non-terminal ">
<path d="M60.0 211h29.75" /><path d="M237.25 211h29.75" /><rect height="22" width="147.5" x="89.75" y="200"></rect><text x="163.5" y="215">mapping_pattern</text></g><path d="M267.0 211a10 10 0 0 0 10 -10v-160a10 10 0 0 1 10 -10" /><path d="M40.0 31a10 10 0 0 1 10 10v190a10 10 0 0 0 10 10" /><g class="non-terminal ">
<path d="M60.0 241h38.25" /><path d="M228.75 241h38.25" /><rect height="22" width="130.5" x="98.25" y="230"></rect><text x="163.5" y="245">class_pattern</text></g><path d="M267.0 241a10 10 0 0 0 10 -10v-190a10 10 0 0 1 10 -10" /></g><path d="M 287.0 31 h 20 m -10 -10 v 20 m 10 -20 v 20"></path></g><style>/* <![CDATA[ */
	svg.railroad-diagram {
		background-color:hsl(30,20%,95%);
	}
	svg.railroad-diagram path {
		stroke-width:3;
		stroke:black;
		fill:rgba(0,0,0,0);
	}
	svg.railroad-diagram text {
		font:bold 14px monospace;
		text-anchor:middle;
	}
	svg.railroad-diagram text.label{
		text-anchor:start;
	}
	svg.railroad-diagram text.comment{
		font:italic 12px monospace;
	}
	svg.railroad-diagram rect{
		stroke-width:3;
		stroke:black;
		fill:hsl(120,100%,90%);
	}
	svg.railroad-diagram rect.group-box {
		stroke: gray;
		stroke-dasharray: 10 5;
		fill: none;
	}

/* ]]> */
</style></svg>