<svg class="railroad-diagram" height="290" viewBox="0 0 421.5 290" width="421.5" xmlns="http://www.w3.org/2000/svg" xmlns:xlink="http://www.w3.org/1999/xlink">
<g transform="translate(.5 .5)">
<g>
<path d="M20 21v20m10 -20v20m-10 -10h20" /></g><path d="M40 31h10" /><g>
<path d="M50 31h0.0" /><path d="M371.5 31h0.0" /><g>
<path d="M50.0 31h0.0" /><path d="M256.5 31h0.0" /><path d="M50.0 31h20" /><g class="terminal ">
<path d="M70.0 31h56.25" /><path d="M180.25 31h56.25" /><rect height="22" rx="10" ry="10" width="54" x="126.25" y="20"></rect><text x="153.25" y="35">&apos;==&apos;</text></g><path d="M236.5 31h20" /><path d="M50.0 31a10 10 0 0 1 10 10v10a10 10 0 0 0 10 10" /><g class="terminal ">
<path d="M70.0 61h56.25" /><path d="M180.25 61h56.25" /><rect height="22" rx="10" ry="10" width="54" x="126.25" y="50"></rect><text x="153.25" y="65">&apos;!=&apos;</text></g><path d="M236.5 61a10 10 0 0 0 10 -10v-10a10 10 0 0 1 10 -10" /><path d="M50.0 31a10 10 0 0 1 10 10v40a10 10 0 0 0 10 10" /><g class="terminal ">
<path d="M70.0 91h56.25" /><path d="M180.25 91h56.25" /><rect height="22" rx="10" ry="10" width="54" x="126.25" y="80"></rect><text x="153.25" y="95">&apos;&lt;=&apos;</text></g><path d="M236.5 91a10 10 0 0 0 10 -10v-40a10 10 0 0 1 10 -10" /><path d="M50.0 31a10 10 0 0 1 10 10v70a10 10 0 0 0 10 10" /><g class="terminal ">
<path d="M70.0 121h60.5" /><path d="M176.0 121h60.5" /><rect height="22" rx="10" ry="10" width="45.5" x="130.5" y="110"></rect><text x="153.25" y="125">&apos;&lt;&apos;</text></g><path d="M236.5 121a10 10 0 0 0 10 -10v-70a10 10 0 0 1 10 -10" /><path d="M50.0 31a10 10 0 0 1 10 10v100a10 10 0 0 0 10 10" /><g class="terminal ">
<path d="M70.0 151h56.25" /><path d="M180.25 151h56.25" /><rect height="22" rx="10" ry="10" width="54" x="126.25" y="140"></rect><text x="153.25" y="155">&apos;>=&apos;</text></g><path d="M236.5 151a10 10 0 0 0 10 -10v-100a10 10 0 0 1 10 -10" /><path d="M50.0 31a10 10 0 0 1 10 10v130a10 10 0 0 0 10 10" /><g class="terminal ">
<path d="M70.0 181h60.5" /><path d="M176.0 181h60.5" /><rect height="22" rx="10" ry="10" width="45.5" x="130.5" y="170"></rect><text x="153.25" y="185">&apos;>&apos;</text></g><path d="M236.5 181a10 10 0 0 0 10 -10v-130a10 10 0 0 1 10 -10" /><path d="M50.0 31a10 10 0 0 1 10 10v169a10 10 0 0 0 10 10" /><g>
<path d="M70.0 220h0.0" /><path d="M236.5 220h0.0" /><g>
<path d="M70.0 220h0.0" /><path d="M172.5 220h0.0" /><path d="M70.0 220a10 10 0 0 0 10 -10v0a10 10 0 0 1 10 -10" /><g>
<path d="M90.0 200h62.5" /></g><path d="M152.5 200a10 10 0 0 1 10 10v0a10 10 0 0 0 10 10" /><path d="M70.0 220h20" /><g class="terminal ">
<path d="M90.0 220h0.0" /><path d="M152.5 220h0.0" /><rect height="22" rx="10" ry="10" width="62.5" x="90" y="209"></rect><text x="121.25" y="224">&apos;not&apos;</text></g><path d="M152.5 220h20" /></g><path d="M172.5 220h10" /><g class="terminal ">
<path d="M182.5 220h0.0" /><path d="M236.5 220h0.0" /><rect height="22" rx="10" ry="10" width="54" x="182.5" y="209"></rect><text x="209.5" y="224">&apos;in&apos;</text></g></g><path d="M236.5 220a10 10 0 0 0 10 -10v-169a10 10 0 0 1 10 -10" /><path d="M50.0 31a10 10 0 0 1 10 10v208a10 10 0 0 0 10 10" /><g>
<path d="M70.0 259h0.0" /><path d="M236.5 259h0.0" /><g class="terminal ">
<path d="M70.0 259h0.0" /><path d="M124.0 259h0.0" /><rect height="22" rx="10" ry="10" width="54" x="70" y="248"></rect><text x="97" y="263">&apos;is&apos;</text></g><path d="M124.0 259h10" /><g>
<path d="M134.0 259h0.0" /><path d="M236.5 259h0.0" /><path d="M134.0 259a10 10 0 0 0 10 -10v0a10 10 0 0 1 10 -10" /><g>
<path d="M154.0 239h62.5" /></g><path d="M216.5 239a10 10 0 0 1 10 10v0a10 10 0 0 0 10 10" /><path d="M134.0 259h20" /><g class="terminal ">
<path d="M154.0 259h0.0" /><path d="M216.5 259h0.0" /><rect height="22" rx="10" ry="10" width="62.5" x="154" y="248"></rect><text x="185.25" y="263">&apos;not&apos;</text></g><path d="M216.5 259h20" /></g></g><path d="M236.5 259a10 10 0 0 0 10 -10v-208a10 10 0 0 1 10 -10" /></g><path d="M256.5 31h10" /><g class="non-terminal ">
<path d="M266.5 31h0.0" /><path d="M371.5 31h0.0" /><rect height="22" width="105" x="266.5" y="20"></rect><text x="319" y="35">bitwise_or</text></g></g><path d="M371.5 31h10" /><path d="M 381.5 31 h 20 m -10 -10 v 20 m 10 -20 v 20"></path></g><style>/* <![CDATA[ */
	svg.railroad-diagram {
		background-color:hsl(30,20%,95%);
	}
	svg.railroad-diagram path {
		stroke-width:3;
		stroke:black;
		fill:rgba(0,0,0,0);
	}
	svg.railroad-diagram text {
		font:bold 14px monospace;
		text-anchor:middle;
	}
	svg.railroad-diagram text.label{
		text-anchor:start;
	}
	svg.railroad-diagram text.comment{
		font:italic 12px monospace;
	}
	svg.railroad-diagram rect{
		stroke-width:3;
		stroke:black;
		fill:hsl(120,100%,90%);
	}
	svg.railroad-diagram rect.group-box {
		stroke: gray;
		stroke-dasharray: 10 5;
		fill: none;
	}

/* ]]> */
</style></svg>