<svg class="railroad-diagram" height="338" viewBox="0 0 616.5 338" width="616.5" xmlns="http://www.w3.org/2000/svg" xmlns:xlink="http://www.w3.org/1999/xlink">
<g transform="translate(.5 .5)">
<g>
<path d="M20 53v20m10 -20v20m-10 -10h20" /></g><path d="M40 63h10" /><g>
<path d="M50 63h0.0" /><path d="M566.5 63h0.0" /><g class="non-terminal ">
<path d="M50.0 63h0.0" /><path d="M155.0 63h0.0" /><rect height="22" width="105" x="50" y="52"></rect><text x="102.5" y="67">bitwise_or</text></g><path d="M155.0 63h10" /><g>
<path d="M165.0 63h0.0" /><path d="M566.5 63h0.0" /><path d="M165.0 63a10 10 0 0 0 10 -10v-23a10 10 0 0 1 10 -10" /><g>
<path d="M185.0 20h361.5" /></g><path d="M546.5 20a10 10 0 0 1 10 10v23a10 10 0 0 0 10 10" /><path d="M165.0 63h20" /><g>
<path d="M185.0 63h0.0" /><path d="M546.5 63h0.0" /><path d="M185.0 63h10" /><g>
<path d="M195.0 63h0.0" /><path d="M536.5 63h0.0" /><rect class="group-box" height="266" rx="10" ry="10" width="341.5" x="195" y="44"></rect><g>
<path d="M195.0 63h10.0" /><path d="M526.5 63h10.0" /><g>
<path d="M205.0 63h0.0" /><path d="M411.5 63h0.0" /><path d="M205.0 63h20" /><g class="terminal ">
<path d="M225.0 63h56.25" /><path d="M335.25 63h56.25" /><rect height="22" rx="10" ry="10" width="54" x="281.25" y="52"></rect><text x="308.25" y="67">&apos;==&apos;</text></g><path d="M391.5 63h20" /><path d="M205.0 63a10 10 0 0 1 10 10v10a10 10 0 0 0 10 10" /><g class="terminal ">
<path d="M225.0 93h56.25" /><path d="M335.25 93h56.25" /><rect height="22" rx="10" ry="10" width="54" x="281.25" y="82"></rect><text x="308.25" y="97">&apos;!=&apos;</text></g><path d="M391.5 93a10 10 0 0 0 10 -10v-10a10 10 0 0 1 10 -10" /><path d="M205.0 63a10 10 0 0 1 10 10v40a10 10 0 0 0 10 10" /><g class="terminal ">
<path d="M225.0 123h56.25" /><path d="M335.25 123h56.25" /><rect height="22" rx="10" ry="10" width="54" x="281.25" y="112"></rect><text x="308.25" y="127">&apos;&lt;=&apos;</text></g><path d="M391.5 123a10 10 0 0 0 10 -10v-40a10 10 0 0 1 10 -10" /><path d="M205.0 63a10 10 0 0 1 10 10v70a10 10 0 0 0 10 10" /><g class="terminal ">
<path d="M225.0 153h60.5" /><path d="M331.0 153h60.5" /><rect height="22" rx="10" ry="10" width="45.5" x="285.5" y="142"></rect><text x="308.25" y="157">&apos;&lt;&apos;</text></g><path d="M391.5 153a10 10 0 0 0 10 -10v-70a10 10 0 0 1 10 -10" /><path d="M205.0 63a10 10 0 0 1 10 10v100a10 10 0 0 0 10 10" /><g class="terminal ">
<path d="M225.0 183h56.25" /><path d="M335.25 183h56.25" /><rect height="22" rx="10" ry="10" width="54" x="281.25" y="172"></rect><text x="308.25" y="187">&apos;>=&apos;</text></g><path d="M391.5 183a10 10 0 0 0 10 -10v-100a10 10 0 0 1 10 -10" /><path d="M205.0 63a10 10 0 0 1 10 10v130a10 10 0 0 0 10 10" /><g class="terminal ">
<path d="M225.0 213h60.5" /><path d="M331.0 213h60.5" /><rect height="22" rx="10" ry="10" width="45.5" x="285.5" y="202"></rect><text x="308.25" y="217">&apos;>&apos;</text></g><path d="M391.5 213a10 10 0 0 0 10 -10v-130a10 10 0 0 1 10 -10" /><path d="M205.0 63a10 10 0 0 1 10 10v169a10 10 0 0 0 10 10" /><g>
<path d="M225.0 252h0.0" /><path d="M391.5 252h0.0" /><g>
<path d="M225.0 252h0.0" /><path d="M327.5 252h0.0" /><path d="M225.0 252a10 10 0 0 0 10 -10v0a10 10 0 0 1 10 -10" /><g>
<path d="M245.0 232h62.5" /></g><path d="M307.5 232a10 10 0 0 1 10 10v0a10 10 0 0 0 10 10" /><path d="M225.0 252h20" /><g class="terminal ">
<path d="M245.0 252h0.0" /><path d="M307.5 252h0.0" /><rect height="22" rx="10" ry="10" width="62.5" x="245" y="241"></rect><text x="276.25" y="256">&apos;not&apos;</text></g><path d="M307.5 252h20" /></g><path d="M327.5 252h10" /><g class="terminal ">
<path d="M337.5 252h0.0" /><path d="M391.5 252h0.0" /><rect height="22" rx="10" ry="10" width="54" x="337.5" y="241"></rect><text x="364.5" y="256">&apos;in&apos;</text></g></g><path d="M391.5 252a10 10 0 0 0 10 -10v-169a10 10 0 0 1 10 -10" /><path d="M205.0 63a10 10 0 0 1 10 10v208a10 10 0 0 0 10 10" /><g>
<path d="M225.0 291h0.0" /><path d="M391.5 291h0.0" /><g class="terminal ">
<path d="M225.0 291h0.0" /><path d="M279.0 291h0.0" /><rect height="22" rx="10" ry="10" width="54" x="225" y="280"></rect><text x="252" y="295">&apos;is&apos;</text></g><path d="M279.0 291h10" /><g>
<path d="M289.0 291h0.0" /><path d="M391.5 291h0.0" /><path d="M289.0 291a10 10 0 0 0 10 -10v0a10 10 0 0 1 10 -10" /><g>
<path d="M309.0 271h62.5" /></g><path d="M371.5 271a10 10 0 0 1 10 10v0a10 10 0 0 0 10 10" /><path d="M289.0 291h20" /><g class="terminal ">
<path d="M309.0 291h0.0" /><path d="M371.5 291h0.0" /><rect height="22" rx="10" ry="10" width="62.5" x="309" y="280"></rect><text x="340.25" y="295">&apos;not&apos;</text></g><path d="M371.5 291h20" /></g></g><path d="M391.5 291a10 10 0 0 0 10 -10v-208a10 10 0 0 1 10 -10" /></g><path d="M411.5 63h10" /><g class="non-terminal ">
<path d="M421.5 63h0.0" /><path d="M526.5 63h0.0" /><rect height="22" width="105" x="421.5" y="52"></rect><text x="474" y="67">bitwise_or</text></g></g><g class="non-terminal ">
<path d="M195.0 36h0.0" /><path d="M387.0 36h0.0" /><text class="comment" x="291" y="41">compare_op_bitwise_or_pair</text></g></g><path d="M536.5 63h10" /><path d="M195.0 63a10 10 0 0 0 -10 10v235a10 10 0 0 0 10 10" /><g>
<path d="M195.0 318h341.5" /></g><path d="M536.5 318a10 10 0 0 0 10 -10v-235a10 10 0 0 0 -10 -10" /></g><path d="M546.5 63h20" /></g></g><path d="M566.5 63h10" /><path d="M 576.5 63 h 20 m -10 -10 v 20 m 10 -20 v 20"></path></g><style>/* <![CDATA[ */
	svg.railroad-diagram {
		background-color:hsl(30,20%,95%);
	}
	svg.railroad-diagram path {
		stroke-width:3;
		stroke:black;
		fill:rgba(0,0,0,0);
	}
	svg.railroad-diagram text {
		font:bold 14px monospace;
		text-anchor:middle;
	}
	svg.railroad-diagram text.label{
		text-anchor:start;
	}
	svg.railroad-diagram text.comment{
		font:italic 12px monospace;
	}
	svg.railroad-diagram rect{
		stroke-width:3;
		stroke:black;
		fill:hsl(120,100%,90%);
	}
	svg.railroad-diagram rect.group-box {
		stroke: gray;
		stroke-dasharray: 10 5;
		fill: none;
	}

/* ]]> */
</style></svg>