<svg class="railroad-diagram" height="101" viewBox="0 0 552.0 101" width="552.0" xmlns="http://www.w3.org/2000/svg" xmlns:xlink="http://www.w3.org/1999/xlink">
<g transform="translate(.5 .5)">
<g>
<path d="M20 30v20m10 -20v20m-10 -10h129.0" /><text style="text-anchor:start" x="20" y="25">complex_number</text></g><path d="M149.0 40h10" /><g>
<path d="M159.0 40h0.0" /><path d="M502.0 40h0.0" /><g>
<path d="M159.0 40h0.0" /><path d="M244.5 40h0.0" /><path d="M159.0 40a10 10 0 0 0 10 -10v0a10 10 0 0 1 10 -10" /><g>
<path d="M179.0 20h45.5" /></g><path d="M224.5 20a10 10 0 0 1 10 10v0a10 10 0 0 0 10 10" /><path d="M159.0 40h20" /><g class="terminal ">
<path d="M179.0 40h0.0" /><path d="M224.5 40h0.0" /><rect height="22" rx="10" ry="10" width="45.5" x="179" y="29"></rect><text x="201.75" y="44">&apos;-&apos;</text></g><path d="M224.5 40h20" /></g><path d="M244.5 40h10" /><g class="terminal ">
<path d="M254.5 40h0.0" /><path d="M325.5 40h0.0" /><rect height="22" rx="10" ry="10" width="71" x="254.5" y="29"></rect><text x="290" y="44">NUMBER</text></g><path d="M325.5 40h10" /><g>
<path d="M335.5 40h0.0" /><path d="M421.0 40h0.0" /><path d="M335.5 40h20" /><g class="terminal ">
<path d="M355.5 40h0.0" /><path d="M401.0 40h0.0" /><rect height="22" rx="10" ry="10" width="45.5" x="355.5" y="29"></rect><text x="378.25" y="44">&apos;+&apos;</text></g><path d="M401.0 40h20" /><path d="M335.5 40a10 10 0 0 1 10 10v10a10 10 0 0 0 10 10" /><g class="terminal ">
<path d="M355.5 70h0.0" /><path d="M401.0 70h0.0" /><rect height="22" rx="10" ry="10" width="45.5" x="355.5" y="59"></rect><text x="378.25" y="74">&apos;-&apos;</text></g><path d="M401.0 70a10 10 0 0 0 10 -10v-10a10 10 0 0 1 10 -10" /></g><path d="M421.0 40h10" /><g class="terminal ">
<path d="M431.0 40h0.0" /><path d="M502.0 40h0.0" /><rect height="22" rx="10" ry="10" width="71" x="431" y="29"></rect><text x="466.5" y="44">NUMBER</text></g></g><path d="M502.0 40h10" /><path d="M 512.0 40 h 20 m -10 -10 v 20 m 10 -20 v 20"></path></g><style>/* <![CDATA[ */
	svg.railroad-diagram {
		background-color:hsl(30,20%,95%);
	}
	svg.railroad-diagram path {
		stroke-width:3;
		stroke:black;
		fill:rgba(0,0,0,0);
	}
	svg.railroad-diagram text {
		font:bold 14px monospace;
		text-anchor:middle;
	}
	svg.railroad-diagram text.label{
		text-anchor:start;
	}
	svg.railroad-diagram text.comment{
		font:italic 12px monospace;
	}
	svg.railroad-diagram rect{
		stroke-width:3;
		stroke:black;
		fill:hsl(120,100%,90%);
	}
	svg.railroad-diagram rect.group-box {
		stroke: gray;
		stroke-dasharray: 10 5;
		fill: none;
	}

/* ]]> */
</style></svg>