<svg class="railroad-diagram" height="71" viewBox="0 0 441.0 71" width="441.0" xmlns="http://www.w3.org/2000/svg" xmlns:xlink="http://www.w3.org/1999/xlink">
<g transform="translate(.5 .5)">
<g>
<path d="M20 21v20m10 -20v20m-10 -10h20" /></g><path d="M40 31h10" /><g>
<path d="M50 31h0.0" /><path d="M391.0 31h0.0" /><path d="M50.0 31h10" /><g>
<path d="M60.0 31h0.0" /><path d="M381.0 31h0.0" /><g class="terminal ">
<path d="M60.0 31h0.0" /><path d="M105.5 31h0.0" /><rect height="22" rx="10" ry="10" width="45.5" x="60" y="20"></rect><text x="82.75" y="35">&apos;@&apos;</text></g><path d="M105.5 31h10" /><path d="M115.5 31h10" /><g class="non-terminal ">
<path d="M125.5 31h0.0" /><path d="M281.5 31h0.0" /><rect height="22" width="156" x="125.5" y="20"></rect><text x="203.5" y="35">named_expression</text></g><path d="M281.5 31h10" /><path d="M291.5 31h10" /><g class="terminal ">
<path d="M301.5 31h0.0" /><path d="M381.0 31h0.0" /><rect height="22" rx="10" ry="10" width="79.5" x="301.5" y="20"></rect><text x="341.25" y="35">NEWLINE</text></g></g><path d="M381.0 31h10" /><path d="M60.0 31a10 10 0 0 0 -10 10v0a10 10 0 0 0 10 10" /><g>
<path d="M60.0 51h321.0" /></g><path d="M381.0 51a10 10 0 0 0 10 -10v0a10 10 0 0 0 -10 -10" /></g><path d="M391.0 31h10" /><path d="M 401.0 31 h 20 m -10 -10 v 20 m 10 -20 v 20"></path></g><style>/* <![CDATA[ */
	svg.railroad-diagram {
		background-color:hsl(30,20%,95%);
	}
	svg.railroad-diagram path {
		stroke-width:3;
		stroke:black;
		fill:rgba(0,0,0,0);
	}
	svg.railroad-diagram text {
		font:bold 14px monospace;
		text-anchor:middle;
	}
	svg.railroad-diagram text.label{
		text-anchor:start;
	}
	svg.railroad-diagram text.comment{
		font:italic 12px monospace;
	}
	svg.railroad-diagram rect{
		stroke-width:3;
		stroke:black;
		fill:hsl(120,100%,90%);
	}
	svg.railroad-diagram rect.group-box {
		stroke: gray;
		stroke-dasharray: 10 5;
		fill: none;
	}

/* ]]> */
</style></svg>