<svg class="railroad-diagram" height="62" viewBox="0 0 320.0 62" width="320.0" xmlns="http://www.w3.org/2000/svg" xmlns:xlink="http://www.w3.org/1999/xlink">
<g transform="translate(.5 .5)">
<g>
<path d="M20 21v20m10 -20v20m-10 -10h69.5" /><text style="text-anchor:start" x="20" y="16">default</text></g><path d="M89.5 31h10" /><g>
<path d="M99.5 31h0.0" /><path d="M270.0 31h0.0" /><g class="terminal ">
<path d="M99.5 31h0.0" /><path d="M145.0 31h0.0" /><rect height="22" rx="10" ry="10" width="45.5" x="99.5" y="20"></rect><text x="122.25" y="35">&apos;=&apos;</text></g><path d="M145.0 31h10" /><path d="M155.0 31h10" /><g class="non-terminal ">
<path d="M165.0 31h0.0" /><path d="M270.0 31h0.0" /><rect height="22" width="105" x="165" y="20"></rect><text x="217.5" y="35">expression</text></g></g><path d="M270.0 31h10" /><path d="M 280.0 31 h 20 m -10 -10 v 20 m 10 -20 v 20"></path></g><style>/* <![CDATA[ */
	svg.railroad-diagram {
		background-color:hsl(30,20%,95%);
	}
	svg.railroad-diagram path {
		stroke-width:3;
		stroke:black;
		fill:rgba(0,0,0,0);
	}
	svg.railroad-diagram text {
		font:bold 14px monospace;
		text-anchor:middle;
	}
	svg.railroad-diagram text.label{
		text-anchor:start;
	}
	svg.railroad-diagram text.comment{
		font:italic 12px monospace;
	}
	svg.railroad-diagram rect{
		stroke-width:3;
		stroke:black;
		fill:hsl(120,100%,90%);
	}
	svg.railroad-diagram rect.group-box {
		stroke: gray;
		stroke-dasharray: 10 5;
		fill: none;
	}

/* ]]> */
</style></svg>