<svg class="railroad-diagram" height="292" viewBox="0 0 604.0 292" width="604.0" xmlns="http://www.w3.org/2000/svg" xmlns:xlink="http://www.w3.org/1999/xlink">
<g transform="translate(.5 .5)">
<g>
<path d="M20 45v20m10 -20v20m-10 -10h20" /></g><path d="M40 55h10" /><g>
<path d="M50 55h0.0" /><path d="M554.0 55h0.0" /><g>
<path d="M50.0 55h0.0" /><path d="M458.5 55h0.0" /><path d="M50.0 55h10" /><g>
<path d="M60.0 55h0.0" /><path d="M448.5 55h0.0" /><rect class="group-box" height="206" rx="10" ry="10" width="388.5" x="60" y="36"></rect><g>
<path d="M60.0 55h0.0" /><path d="M448.5 55h0.0" /><path d="M60.0 55h20" /><g>
<path d="M80.0 55h0.0" /><path d="M428.5 55h0.0" /><g class="non-terminal ">
<path d="M80.0 55h0.0" /><path d="M176.5 55h0.0" /><rect height="22" width="96.5" x="80" y="44"></rect><text x="128.25" y="59">t_primary</text></g><path d="M176.5 55h10" /><g>
<path d="M186.5 55h0.0" /><path d="M428.5 55h0.0" /><path d="M186.5 55h20" /><g>
<path d="M206.5 55h41.25" /><path d="M367.25 55h41.25" /><g class="terminal ">
<path d="M247.75 55h0.0" /><path d="M293.25 55h0.0" /><rect height="22" rx="10" ry="10" width="45.5" x="247.75" y="44"></rect><text x="270.5" y="59">&apos;.&apos;</text></g><path d="M293.25 55h10" /><path d="M303.25 55h10" /><g class="terminal ">
<path d="M313.25 55h0.0" /><path d="M367.25 55h0.0" /><rect height="22" rx="10" ry="10" width="54" x="313.25" y="44"></rect><text x="340.25" y="59">NAME</text></g></g><path d="M408.5 55h20" /><path d="M186.5 55a10 10 0 0 1 10 10v10a10 10 0 0 0 10 10" /><g>
<path d="M206.5 85h0.0" /><path d="M408.5 85h0.0" /><g class="terminal ">
<path d="M206.5 85h0.0" /><path d="M252.0 85h0.0" /><rect height="22" rx="10" ry="10" width="45.5" x="206.5" y="74"></rect><text x="229.25" y="89">&apos;[&apos;</text></g><path d="M252.0 85h10" /><path d="M262.0 85h10" /><g class="non-terminal ">
<path d="M272.0 85h0.0" /><path d="M343.0 85h0.0" /><rect height="22" width="71" x="272" y="74"></rect><text x="307.5" y="89">slices</text></g><path d="M343.0 85h10" /><path d="M353.0 85h10" /><g class="terminal ">
<path d="M363.0 85h0.0" /><path d="M408.5 85h0.0" /><rect height="22" rx="10" ry="10" width="45.5" x="363" y="74"></rect><text x="385.75" y="89">&apos;]&apos;</text></g></g><path d="M408.5 85a10 10 0 0 0 10 -10v-10a10 10 0 0 1 10 -10" /></g></g><path d="M428.5 55h20" /><path d="M60.0 55a10 10 0 0 1 10 10v40a10 10 0 0 0 10 10" /><g class="terminal ">
<path d="M80.0 115h147.25" /><path d="M281.25 115h147.25" /><rect height="22" rx="10" ry="10" width="54" x="227.25" y="104"></rect><text x="254.25" y="119">NAME</text></g><path d="M428.5 115a10 10 0 0 0 10 -10v-40a10 10 0 0 1 10 -10" /><path d="M60.0 55a10 10 0 0 1 10 10v79a10 10 0 0 0 10 10" /><g>
<path d="M80.0 154h22.0" /><path d="M406.5 154h22.0" /><g class="terminal ">
<path d="M102.0 154h0.0" /><path d="M147.5 154h0.0" /><rect height="22" rx="10" ry="10" width="45.5" x="102" y="143"></rect><text x="124.75" y="158">&apos;(&apos;</text></g><path d="M147.5 154h10" /><g>
<path d="M157.5 154h0.0" /><path d="M351.0 154h0.0" /><path d="M157.5 154a10 10 0 0 0 10 -10v0a10 10 0 0 1 10 -10" /><g>
<path d="M177.5 134h153.5" /></g><path d="M331.0 134a10 10 0 0 1 10 10v0a10 10 0 0 0 10 10" /><path d="M157.5 154h20" /><g>
<path d="M177.5 154h0.0" /><path d="M331.0 154h0.0" /><path d="M177.5 154h20" /><g class="non-terminal ">
<path d="M197.5 154h4.25" /><path d="M306.75 154h4.25" /><rect height="22" width="105" x="201.75" y="143"></rect><text x="254.25" y="158">del_target</text></g><path d="M311.0 154h20" /><path d="M177.5 154a10 10 0 0 1 10 10v10a10 10 0 0 0 10 10" /><g class="non-terminal ">
<path d="M197.5 184h0.0" /><path d="M311.0 184h0.0" /><rect height="22" width="113.5" x="197.5" y="173"></rect><text x="254.25" y="188">del_targets</text></g><path d="M311.0 184a10 10 0 0 0 10 -10v-10a10 10 0 0 1 10 -10" /></g><path d="M331.0 154h20" /></g><path d="M351.0 154h10" /><g class="terminal ">
<path d="M361.0 154h0.0" /><path d="M406.5 154h0.0" /><rect height="22" rx="10" ry="10" width="45.5" x="361" y="143"></rect><text x="383.75" y="158">&apos;)&apos;</text></g></g><path d="M428.5 154a10 10 0 0 0 10 -10v-79a10 10 0 0 1 10 -10" /><path d="M60.0 55a10 10 0 0 1 10 10v148a10 10 0 0 0 10 10" /><g>
<path d="M80.0 223h42.0" /><path d="M386.5 223h42.0" /><g class="terminal ">
<path d="M122.0 223h0.0" /><path d="M167.5 223h0.0" /><rect height="22" rx="10" ry="10" width="45.5" x="122" y="212"></rect><text x="144.75" y="227">&apos;[&apos;</text></g><path d="M167.5 223h10" /><g>
<path d="M177.5 223h0.0" /><path d="M331.0 223h0.0" /><path d="M177.5 223a10 10 0 0 0 10 -10v0a10 10 0 0 1 10 -10" /><g>
<path d="M197.5 203h113.5" /></g><path d="M311.0 203a10 10 0 0 1 10 10v0a10 10 0 0 0 10 10" /><path d="M177.5 223h20" /><g class="non-terminal ">
<path d="M197.5 223h0.0" /><path d="M311.0 223h0.0" /><rect height="22" width="113.5" x="197.5" y="212"></rect><text x="254.25" y="227">del_targets</text></g><path d="M311.0 223h20" /></g><path d="M331.0 223h10" /><g class="terminal ">
<path d="M341.0 223h0.0" /><path d="M386.5 223h0.0" /><rect height="22" rx="10" ry="10" width="45.5" x="341" y="212"></rect><text x="363.75" y="227">&apos;]&apos;</text></g></g><path d="M428.5 223a10 10 0 0 0 10 -10v-148a10 10 0 0 1 10 -10" /></g><g class="non-terminal ">
<path d="M60.0 28h0.0" /><path d="M140.0 28h0.0" /><text class="comment" x="100" y="33">del_target</text></g></g><path d="M448.5 55h10" /><path d="M60.0 55a10 10 0 0 0 -10 10v186a10 10 0 0 0 10 10" /><g class="terminal ">
<path d="M60.0 261h171.5" /><path d="M277.0 261h171.5" /><rect height="22" rx="10" ry="10" width="45.5" x="231.5" y="250"></rect><text x="254.25" y="265">&apos;,&apos;</text></g><path d="M448.5 261a10 10 0 0 0 10 -10v-186a10 10 0 0 0 -10 -10" /></g><path d="M458.5 55h10" /><g>
<path d="M468.5 55h0.0" /><path d="M554.0 55h0.0" /><path d="M468.5 55a10 10 0 0 0 10 -10v0a10 10 0 0 1 10 -10" /><g>
<path d="M488.5 35h45.5" /></g><path d="M534.0 35a10 10 0 0 1 10 10v0a10 10 0 0 0 10 10" /><path d="M468.5 55h20" /><g class="terminal ">
<path d="M488.5 55h0.0" /><path d="M534.0 55h0.0" /><rect height="22" rx="10" ry="10" width="45.5" x="488.5" y="44"></rect><text x="511.25" y="59">&apos;,&apos;</text></g><path d="M534.0 55h20" /></g></g><path d="M554.0 55h10" /><path d="M 564.0 55 h 20 m -10 -10 v 20 m 10 -20 v 20"></path></g><style>/* <![CDATA[ */
	svg.railroad-diagram {
		background-color:hsl(30,20%,95%);
	}
	svg.railroad-diagram path {
		stroke-width:3;
		stroke:black;
		fill:rgba(0,0,0,0);
	}
	svg.railroad-diagram text {
		font:bold 14px monospace;
		text-anchor:middle;
	}
	svg.railroad-diagram text.label{
		text-anchor:start;
	}
	svg.railroad-diagram text.comment{
		font:italic 12px monospace;
	}
	svg.railroad-diagram rect{
		stroke-width:3;
		stroke:black;
		fill:hsl(120,100%,90%);
	}
	svg.railroad-diagram rect.group-box {
		stroke: gray;
		stroke-dasharray: 10 5;
		fill: none;
	}

/* ]]> */
</style></svg>