<svg class="railroad-diagram" height="429" viewBox="0 0 699.5 429" width="699.5" xmlns="http://www.w3.org/2000/svg" xmlns:xlink="http://www.w3.org/1999/xlink">
<g transform="translate(.5 .5)">
<g>
<path d="M20 21v20m10 -20v20m-10 -10h20" /></g><g>
<path d="M40 31h0.0" /><path d="M659.5 31h0.0" /><path d="M40.0 31h20" /><g>
<path d="M60.0 31h115.5" /><path d="M524.0 31h115.5" /><g class="non-terminal ">
<path d="M175.5 31h0.0" /><path d="M272.0 31h0.0" /><rect height="22" width="96.5" x="175.5" y="20"></rect><text x="223.75" y="35">t_primary</text></g><path d="M272.0 31h10" /><g>
<path d="M282.0 31h0.0" /><path d="M524.0 31h0.0" /><path d="M282.0 31h20" /><g>
<path d="M302.0 31h41.25" /><path d="M462.75 31h41.25" /><g class="terminal ">
<path d="M343.25 31h0.0" /><path d="M388.75 31h0.0" /><rect height="22" rx="10" ry="10" width="45.5" x="343.25" y="20"></rect><text x="366" y="35">&apos;.&apos;</text></g><path d="M388.75 31h10" /><path d="M398.75 31h10" /><g class="terminal ">
<path d="M408.75 31h0.0" /><path d="M462.75 31h0.0" /><rect height="22" rx="10" ry="10" width="54" x="408.75" y="20"></rect><text x="435.75" y="35">NAME</text></g></g><path d="M504.0 31h20" /><path d="M282.0 31a10 10 0 0 1 10 10v10a10 10 0 0 0 10 10" /><g>
<path d="M302.0 61h0.0" /><path d="M504.0 61h0.0" /><g class="terminal ">
<path d="M302.0 61h0.0" /><path d="M347.5 61h0.0" /><rect height="22" rx="10" ry="10" width="45.5" x="302" y="50"></rect><text x="324.75" y="65">&apos;[&apos;</text></g><path d="M347.5 61h10" /><path d="M357.5 61h10" /><g class="non-terminal ">
<path d="M367.5 61h0.0" /><path d="M438.5 61h0.0" /><rect height="22" width="71" x="367.5" y="50"></rect><text x="403" y="65">slices</text></g><path d="M438.5 61h10" /><path d="M448.5 61h10" /><g class="terminal ">
<path d="M458.5 61h0.0" /><path d="M504.0 61h0.0" /><rect height="22" rx="10" ry="10" width="45.5" x="458.5" y="50"></rect><text x="481.25" y="65">&apos;]&apos;</text></g></g><path d="M504.0 61a10 10 0 0 0 10 -10v-10a10 10 0 0 1 10 -10" /></g></g><path d="M639.5 31h20" /><path d="M40.0 31a10 10 0 0 1 10 10v40a10 10 0 0 0 10 10" /><g class="terminal ">
<path d="M60.0 91h262.75" /><path d="M376.75 91h262.75" /><rect height="22" rx="10" ry="10" width="54" x="322.75" y="80"></rect><text x="349.75" y="95">NAME</text></g><path d="M639.5 91a10 10 0 0 0 10 -10v-40a10 10 0 0 1 10 -10" /><path d="M40.0 31a10 10 0 0 1 10 10v102a10 10 0 0 0 10 10" /><g>
<path d="M60.0 153h0.0" /><path d="M639.5 153h0.0" /><g class="terminal ">
<path d="M60.0 153h0.0" /><path d="M105.5 153h0.0" /><rect height="22" rx="10" ry="10" width="45.5" x="60" y="142"></rect><text x="82.75" y="157">&apos;(&apos;</text></g><path d="M105.5 153h10" /><g>
<path d="M115.5 153h0.0" /><path d="M584.0 153h0.0" /><path d="M115.5 153a10 10 0 0 0 10 -10v-23a10 10 0 0 1 10 -10" /><g>
<path d="M135.5 110h428.5" /></g><path d="M564.0 110a10 10 0 0 1 10 10v23a10 10 0 0 0 10 10" /><path d="M115.5 153h20" /><g>
<path d="M135.5 153h0.0" /><path d="M564.0 153h0.0" /><path d="M135.5 153h20" /><g>
<path d="M155.5 153h0.0" /><path d="M544.0 153h0.0" /><rect class="group-box" height="206" rx="10" ry="10" width="388.5" x="155.5" y="134"></rect><g>
<path d="M155.5 153h0.0" /><path d="M544.0 153h0.0" /><path d="M155.5 153h20" /><g>
<path d="M175.5 153h0.0" /><path d="M524.0 153h0.0" /><g class="non-terminal ">
<path d="M175.5 153h0.0" /><path d="M272.0 153h0.0" /><rect height="22" width="96.5" x="175.5" y="142"></rect><text x="223.75" y="157">t_primary</text></g><path d="M272.0 153h10" /><g>
<path d="M282.0 153h0.0" /><path d="M524.0 153h0.0" /><path d="M282.0 153h20" /><g>
<path d="M302.0 153h41.25" /><path d="M462.75 153h41.25" /><g class="terminal ">
<path d="M343.25 153h0.0" /><path d="M388.75 153h0.0" /><rect height="22" rx="10" ry="10" width="45.5" x="343.25" y="142"></rect><text x="366" y="157">&apos;.&apos;</text></g><path d="M388.75 153h10" /><path d="M398.75 153h10" /><g class="terminal ">
<path d="M408.75 153h0.0" /><path d="M462.75 153h0.0" /><rect height="22" rx="10" ry="10" width="54" x="408.75" y="142"></rect><text x="435.75" y="157">NAME</text></g></g><path d="M504.0 153h20" /><path d="M282.0 153a10 10 0 0 1 10 10v10a10 10 0 0 0 10 10" /><g>
<path d="M302.0 183h0.0" /><path d="M504.0 183h0.0" /><g class="terminal ">
<path d="M302.0 183h0.0" /><path d="M347.5 183h0.0" /><rect height="22" rx="10" ry="10" width="45.5" x="302" y="172"></rect><text x="324.75" y="187">&apos;[&apos;</text></g><path d="M347.5 183h10" /><path d="M357.5 183h10" /><g class="non-terminal ">
<path d="M367.5 183h0.0" /><path d="M438.5 183h0.0" /><rect height="22" width="71" x="367.5" y="172"></rect><text x="403" y="187">slices</text></g><path d="M438.5 183h10" /><path d="M448.5 183h10" /><g class="terminal ">
<path d="M458.5 183h0.0" /><path d="M504.0 183h0.0" /><rect height="22" rx="10" ry="10" width="45.5" x="458.5" y="172"></rect><text x="481.25" y="187">&apos;]&apos;</text></g></g><path d="M504.0 183a10 10 0 0 0 10 -10v-10a10 10 0 0 1 10 -10" /></g></g><path d="M524.0 153h20" /><path d="M155.5 153a10 10 0 0 1 10 10v40a10 10 0 0 0 10 10" /><g class="terminal ">
<path d="M175.5 213h147.25" /><path d="M376.75 213h147.25" /><rect height="22" rx="10" ry="10" width="54" x="322.75" y="202"></rect><text x="349.75" y="217">NAME</text></g><path d="M524.0 213a10 10 0 0 0 10 -10v-40a10 10 0 0 1 10 -10" /><path d="M155.5 153a10 10 0 0 1 10 10v79a10 10 0 0 0 10 10" /><g>
<path d="M175.5 252h22.0" /><path d="M502.0 252h22.0" /><g class="terminal ">
<path d="M197.5 252h0.0" /><path d="M243.0 252h0.0" /><rect height="22" rx="10" ry="10" width="45.5" x="197.5" y="241"></rect><text x="220.25" y="256">&apos;(&apos;</text></g><path d="M243.0 252h10" /><g>
<path d="M253.0 252h0.0" /><path d="M446.5 252h0.0" /><path d="M253.0 252a10 10 0 0 0 10 -10v0a10 10 0 0 1 10 -10" /><g>
<path d="M273.0 232h153.5" /></g><path d="M426.5 232a10 10 0 0 1 10 10v0a10 10 0 0 0 10 10" /><path d="M253.0 252h20" /><g>
<path d="M273.0 252h0.0" /><path d="M426.5 252h0.0" /><path d="M273.0 252h20" /><g class="non-terminal ">
<path d="M293.0 252h4.25" /><path d="M402.25 252h4.25" /><rect height="22" width="105" x="297.25" y="241"></rect><text x="349.75" y="256">del_target</text></g><path d="M406.5 252h20" /><path d="M273.0 252a10 10 0 0 1 10 10v10a10 10 0 0 0 10 10" /><g class="non-terminal ">
<path d="M293.0 282h0.0" /><path d="M406.5 282h0.0" /><rect height="22" width="113.5" x="293" y="271"></rect><text x="349.75" y="286">del_targets</text></g><path d="M406.5 282a10 10 0 0 0 10 -10v-10a10 10 0 0 1 10 -10" /></g><path d="M426.5 252h20" /></g><path d="M446.5 252h10" /><g class="terminal ">
<path d="M456.5 252h0.0" /><path d="M502.0 252h0.0" /><rect height="22" rx="10" ry="10" width="45.5" x="456.5" y="241"></rect><text x="479.25" y="256">&apos;)&apos;</text></g></g><path d="M524.0 252a10 10 0 0 0 10 -10v-79a10 10 0 0 1 10 -10" /><path d="M155.5 153a10 10 0 0 1 10 10v148a10 10 0 0 0 10 10" /><g>
<path d="M175.5 321h42.0" /><path d="M482.0 321h42.0" /><g class="terminal ">
<path d="M217.5 321h0.0" /><path d="M263.0 321h0.0" /><rect height="22" rx="10" ry="10" width="45.5" x="217.5" y="310"></rect><text x="240.25" y="325">&apos;[&apos;</text></g><path d="M263.0 321h10" /><g>
<path d="M273.0 321h0.0" /><path d="M426.5 321h0.0" /><path d="M273.0 321a10 10 0 0 0 10 -10v0a10 10 0 0 1 10 -10" /><g>
<path d="M293.0 301h113.5" /></g><path d="M406.5 301a10 10 0 0 1 10 10v0a10 10 0 0 0 10 10" /><path d="M273.0 321h20" /><g class="non-terminal ">
<path d="M293.0 321h0.0" /><path d="M406.5 321h0.0" /><rect height="22" width="113.5" x="293" y="310"></rect><text x="349.75" y="325">del_targets</text></g><path d="M406.5 321h20" /></g><path d="M426.5 321h10" /><g class="terminal ">
<path d="M436.5 321h0.0" /><path d="M482.0 321h0.0" /><rect height="22" rx="10" ry="10" width="45.5" x="436.5" y="310"></rect><text x="459.25" y="325">&apos;]&apos;</text></g></g><path d="M524.0 321a10 10 0 0 0 10 -10v-148a10 10 0 0 1 10 -10" /></g><g class="non-terminal ">
<path d="M155.5 126h0.0" /><path d="M235.5 126h0.0" /><text class="comment" x="195.5" y="131">del_target</text></g></g><path d="M544.0 153h20" /><path d="M135.5 153a10 10 0 0 1 10 10v186a10 10 0 0 0 10 10" /><g class="non-terminal ">
<path d="M155.5 359h137.5" /><path d="M406.5 359h137.5" /><rect height="22" width="113.5" x="293" y="348"></rect><text x="349.75" y="363">del_targets</text></g><path d="M544.0 359a10 10 0 0 0 10 -10v-186a10 10 0 0 1 10 -10" /></g><path d="M564.0 153h20" /></g><path d="M584.0 153h10" /><g class="terminal ">
<path d="M594.0 153h0.0" /><path d="M639.5 153h0.0" /><rect height="22" rx="10" ry="10" width="45.5" x="594" y="142"></rect><text x="616.75" y="157">&apos;)&apos;</text></g></g><path d="M639.5 153a10 10 0 0 0 10 -10v-102a10 10 0 0 1 10 -10" /><path d="M40.0 31a10 10 0 0 1 10 10v347a10 10 0 0 0 10 10" /><g>
<path d="M60.0 398h157.5" /><path d="M482.0 398h157.5" /><g class="terminal ">
<path d="M217.5 398h0.0" /><path d="M263.0 398h0.0" /><rect height="22" rx="10" ry="10" width="45.5" x="217.5" y="387"></rect><text x="240.25" y="402">&apos;[&apos;</text></g><path d="M263.0 398h10" /><g>
<path d="M273.0 398h0.0" /><path d="M426.5 398h0.0" /><path d="M273.0 398a10 10 0 0 0 10 -10v0a10 10 0 0 1 10 -10" /><g>
<path d="M293.0 378h113.5" /></g><path d="M406.5 378a10 10 0 0 1 10 10v0a10 10 0 0 0 10 10" /><path d="M273.0 398h20" /><g class="non-terminal ">
<path d="M293.0 398h0.0" /><path d="M406.5 398h0.0" /><rect height="22" width="113.5" x="293" y="387"></rect><text x="349.75" y="402">del_targets</text></g><path d="M406.5 398h20" /></g><path d="M426.5 398h10" /><g class="terminal ">
<path d="M436.5 398h0.0" /><path d="M482.0 398h0.0" /><rect height="22" rx="10" ry="10" width="45.5" x="436.5" y="387"></rect><text x="459.25" y="402">&apos;]&apos;</text></g></g><path d="M639.5 398a10 10 0 0 0 10 -10v-347a10 10 0 0 1 10 -10" /></g><path d="M 659.5 31 h 20 m -10 -10 v 20 m 10 -20 v 20"></path></g><style>/* <![CDATA[ */
	svg.railroad-diagram {
		background-color:hsl(30,20%,95%);
	}
	svg.railroad-diagram path {
		stroke-width:3;
		stroke:black;
		fill:rgba(0,0,0,0);
	}
	svg.railroad-diagram text {
		font:bold 14px monospace;
		text-anchor:middle;
	}
	svg.railroad-diagram text.label{
		text-anchor:start;
	}
	svg.railroad-diagram text.comment{
		font:italic 12px monospace;
	}
	svg.railroad-diagram rect{
		stroke-width:3;
		stroke:black;
		fill:hsl(120,100%,90%);
	}
	svg.railroad-diagram rect.group-box {
		stroke: gray;
		stroke-dasharray: 10 5;
		fill: none;
	}

/* ]]> */
</style></svg>