<svg class="railroad-diagram" height="162" viewBox="0 0 585.5 162" width="585.5" xmlns="http://www.w3.org/2000/svg" xmlns:xlink="http://www.w3.org/1999/xlink">
<g transform="translate(.5 .5)">
<g>
<path d="M20 53v20m10 -20v20m-10 -10h20" /></g><path d="M40 63h10" /><g>
<path d="M50 63h0.0" /><path d="M535.5 63h0.0" /><g class="terminal ">
<path d="M50.0 63h0.0" /><path d="M95.5 63h0.0" /><rect height="22" rx="10" ry="10" width="45.5" x="50" y="52"></rect><text x="72.75" y="67">&apos;{&apos;</text></g><path d="M95.5 63h10" /><g>
<path d="M105.5 63h0.0" /><path d="M480.0 63h0.0" /><path d="M105.5 63a10 10 0 0 0 10 -10v-23a10 10 0 0 1 10 -10" /><g>
<path d="M125.5 20h334.5" /></g><path d="M460.0 20a10 10 0 0 1 10 10v23a10 10 0 0 0 10 10" /><path d="M105.5 63h20" /><g>
<path d="M125.5 63h0.0" /><path d="M460.0 63h0.0" /><g>
<path d="M125.5 63h0.0" /><path d="M364.5 63h0.0" /><path d="M125.5 63h10" /><g>
<path d="M135.5 63h0.0" /><path d="M354.5 63h0.0" /><rect class="group-box" height="68" rx="10" ry="10" width="219" x="135.5" y="44"></rect><g>
<path d="M135.5 63h0.0" /><path d="M354.5 63h0.0" /><path d="M135.5 63h20" /><g>
<path d="M155.5 63h0.0" /><path d="M334.5 63h0.0" /><g class="terminal ">
<path d="M155.5 63h0.0" /><path d="M209.5 63h0.0" /><rect height="22" rx="10" ry="10" width="54" x="155.5" y="52"></rect><text x="182.5" y="67">&apos;**&apos;</text></g><path d="M209.5 63h10" /><path d="M219.5 63h10" /><g class="non-terminal ">
<path d="M229.5 63h0.0" /><path d="M334.5 63h0.0" /><rect height="22" width="105" x="229.5" y="52"></rect><text x="282" y="67">bitwise_or</text></g></g><path d="M334.5 63h20" /><path d="M135.5 63a10 10 0 0 1 10 10v10a10 10 0 0 0 10 10" /><g class="non-terminal ">
<path d="M155.5 93h54.0" /><path d="M280.5 93h54.0" /><rect height="22" width="71" x="209.5" y="82"></rect><text x="245" y="97">kvpair</text></g><path d="M334.5 93a10 10 0 0 0 10 -10v-10a10 10 0 0 1 10 -10" /></g><g class="non-terminal ">
<path d="M135.5 36h0.0" /><path d="M292.5 36h0.0" /><text class="comment" x="214" y="41">double_starred_kvpair</text></g></g><path d="M354.5 63h10" /><path d="M135.5 63a10 10 0 0 0 -10 10v48a10 10 0 0 0 10 10" /><g class="terminal ">
<path d="M135.5 131h86.75" /><path d="M267.75 131h86.75" /><rect height="22" rx="10" ry="10" width="45.5" x="222.25" y="120"></rect><text x="245" y="135">&apos;,&apos;</text></g><path d="M354.5 131a10 10 0 0 0 10 -10v-48a10 10 0 0 0 -10 -10" /></g><path d="M364.5 63h10" /><g>
<path d="M374.5 63h0.0" /><path d="M460.0 63h0.0" /><path d="M374.5 63a10 10 0 0 0 10 -10v0a10 10 0 0 1 10 -10" /><g>
<path d="M394.5 43h45.5" /></g><path d="M440.0 43a10 10 0 0 1 10 10v0a10 10 0 0 0 10 10" /><path d="M374.5 63h20" /><g class="terminal ">
<path d="M394.5 63h0.0" /><path d="M440.0 63h0.0" /><rect height="22" rx="10" ry="10" width="45.5" x="394.5" y="52"></rect><text x="417.25" y="67">&apos;,&apos;</text></g><path d="M440.0 63h20" /></g></g><path d="M460.0 63h20" /></g><path d="M480.0 63h10" /><g class="terminal ">
<path d="M490.0 63h0.0" /><path d="M535.5 63h0.0" /><rect height="22" rx="10" ry="10" width="45.5" x="490" y="52"></rect><text x="512.75" y="67">&apos;}&apos;</text></g></g><path d="M535.5 63h10" /><path d="M 545.5 63 h 20 m -10 -10 v 20 m 10 -20 v 20"></path></g><style>/* <![CDATA[ */
	svg.railroad-diagram {
		background-color:hsl(30,20%,95%);
	}
	svg.railroad-diagram path {
		stroke-width:3;
		stroke:black;
		fill:rgba(0,0,0,0);
	}
	svg.railroad-diagram text {
		font:bold 14px monospace;
		text-anchor:middle;
	}
	svg.railroad-diagram text.label{
		text-anchor:start;
	}
	svg.railroad-diagram text.comment{
		font:italic 12px monospace;
	}
	svg.railroad-diagram rect{
		stroke-width:3;
		stroke:black;
		fill:hsl(120,100%,90%);
	}
	svg.railroad-diagram rect.group-box {
		stroke: gray;
		stroke-dasharray: 10 5;
		fill: none;
	}

/* ]]> */
</style></svg>