<svg class="railroad-diagram" height="62" viewBox="0 0 461.0 62" width="461.0" xmlns="http://www.w3.org/2000/svg" xmlns:xlink="http://www.w3.org/1999/xlink">
<g transform="translate(.5 .5)">
<g>
<path d="M20 21v20m10 -20v20m-10 -10h20" /></g><path d="M40 31h10" /><g>
<path d="M50 31h0.0" /><path d="M411.0 31h0.0" /><g class="terminal ">
<path d="M50.0 31h0.0" /><path d="M95.5 31h0.0" /><rect height="22" rx="10" ry="10" width="45.5" x="50" y="20"></rect><text x="72.75" y="35">&apos;{&apos;</text></g><path d="M95.5 31h10" /><path d="M105.5 31h10" /><g class="non-terminal ">
<path d="M115.5 31h0.0" /><path d="M186.5 31h0.0" /><rect height="22" width="71" x="115.5" y="20"></rect><text x="151" y="35">kvpair</text></g><path d="M186.5 31h10" /><path d="M196.5 31h10" /><g class="non-terminal ">
<path d="M206.5 31h0.0" /><path d="M345.5 31h0.0" /><rect height="22" width="139" x="206.5" y="20"></rect><text x="276" y="35">for_if_clauses</text></g><path d="M345.5 31h10" /><path d="M355.5 31h10" /><g class="terminal ">
<path d="M365.5 31h0.0" /><path d="M411.0 31h0.0" /><rect height="22" rx="10" ry="10" width="45.5" x="365.5" y="20"></rect><text x="388.25" y="35">&apos;}&apos;</text></g></g><path d="M411.0 31h10" /><path d="M 421.0 31 h 20 m -10 -10 v 20 m 10 -20 v 20"></path></g><style>/* <![CDATA[ */
	svg.railroad-diagram {
		background-color:hsl(30,20%,95%);
	}
	svg.railroad-diagram path {
		stroke-width:3;
		stroke:black;
		fill:rgba(0,0,0,0);
	}
	svg.railroad-diagram text {
		font:bold 14px monospace;
		text-anchor:middle;
	}
	svg.railroad-diagram text.label{
		text-anchor:start;
	}
	svg.railroad-diagram text.comment{
		font:italic 12px monospace;
	}
	svg.railroad-diagram rect{
		stroke-width:3;
		stroke:black;
		fill:hsl(120,100%,90%);
	}
	svg.railroad-diagram rect.group-box {
		stroke: gray;
		stroke-dasharray: 10 5;
		fill: none;
	}

/* ]]> */
</style></svg>