<svg class="railroad-diagram" height="62" viewBox="0 0 519.0 62" width="519.0" xmlns="http://www.w3.org/2000/svg" xmlns:xlink="http://www.w3.org/1999/xlink">
<g transform="translate(.5 .5)">
<g>
<path d="M20 21v20m10 -20v20m-10 -10h78.0" /><text style="text-anchor:start" x="20" y="16">dictcomp</text></g><path d="M98.0 31h10" /><g>
<path d="M108.0 31h0.0" /><path d="M469.0 31h0.0" /><g class="terminal ">
<path d="M108.0 31h0.0" /><path d="M153.5 31h0.0" /><rect height="22" rx="10" ry="10" width="45.5" x="108" y="20"></rect><text x="130.75" y="35">&apos;{&apos;</text></g><path d="M153.5 31h10" /><path d="M163.5 31h10" /><g class="non-terminal ">
<path d="M173.5 31h0.0" /><path d="M244.5 31h0.0" /><rect height="22" width="71" x="173.5" y="20"></rect><text x="209" y="35">kvpair</text></g><path d="M244.5 31h10" /><path d="M254.5 31h10" /><g class="non-terminal ">
<path d="M264.5 31h0.0" /><path d="M403.5 31h0.0" /><rect height="22" width="139" x="264.5" y="20"></rect><text x="334" y="35">for_if_clauses</text></g><path d="M403.5 31h10" /><path d="M413.5 31h10" /><g class="terminal ">
<path d="M423.5 31h0.0" /><path d="M469.0 31h0.0" /><rect height="22" rx="10" ry="10" width="45.5" x="423.5" y="20"></rect><text x="446.25" y="35">&apos;}&apos;</text></g></g><path d="M469.0 31h10" /><path d="M 479.0 31 h 20 m -10 -10 v 20 m 10 -20 v 20"></path></g><style>/* <![CDATA[ */
	svg.railroad-diagram {
		background-color:hsl(30,20%,95%);
	}
	svg.railroad-diagram path {
		stroke-width:3;
		stroke:black;
		fill:rgba(0,0,0,0);
	}
	svg.railroad-diagram text {
		font:bold 14px monospace;
		text-anchor:middle;
	}
	svg.railroad-diagram text.label{
		text-anchor:start;
	}
	svg.railroad-diagram text.comment{
		font:italic 12px monospace;
	}
	svg.railroad-diagram rect{
		stroke-width:3;
		stroke:black;
		fill:hsl(120,100%,90%);
	}
	svg.railroad-diagram rect.group-box {
		stroke: gray;
		stroke-dasharray: 10 5;
		fill: none;
	}

/* ]]> */
</style></svg>