<svg class="railroad-diagram" height="92" viewBox="0 0 467.5 92" width="467.5" xmlns="http://www.w3.org/2000/svg" xmlns:xlink="http://www.w3.org/1999/xlink">
<g transform="translate(.5 .5)">
<g>
<path d="M20 21v20m10 -20v20m-10 -10h188.5" /><text style="text-anchor:start" x="20" y="16">double_starred_kvpair</text></g><g>
<path d="M208.5 31h0.0" /><path d="M427.5 31h0.0" /><path d="M208.5 31h20" /><g>
<path d="M228.5 31h0.0" /><path d="M407.5 31h0.0" /><g class="terminal ">
<path d="M228.5 31h0.0" /><path d="M282.5 31h0.0" /><rect height="22" rx="10" ry="10" width="54" x="228.5" y="20"></rect><text x="255.5" y="35">&apos;**&apos;</text></g><path d="M282.5 31h10" /><path d="M292.5 31h10" /><g class="non-terminal ">
<path d="M302.5 31h0.0" /><path d="M407.5 31h0.0" /><rect height="22" width="105" x="302.5" y="20"></rect><text x="355" y="35">bitwise_or</text></g></g><path d="M407.5 31h20" /><path d="M208.5 31a10 10 0 0 1 10 10v10a10 10 0 0 0 10 10" /><g class="non-terminal ">
<path d="M228.5 61h54.0" /><path d="M353.5 61h54.0" /><rect height="22" width="71" x="282.5" y="50"></rect><text x="318" y="65">kvpair</text></g><path d="M407.5 61a10 10 0 0 0 10 -10v-10a10 10 0 0 1 10 -10" /></g><path d="M 427.5 31 h 20 m -10 -10 v 20 m 10 -20 v 20"></path></g><style>/* <![CDATA[ */
	svg.railroad-diagram {
		background-color:hsl(30,20%,95%);
	}
	svg.railroad-diagram path {
		stroke-width:3;
		stroke:black;
		fill:rgba(0,0,0,0);
	}
	svg.railroad-diagram text {
		font:bold 14px monospace;
		text-anchor:middle;
	}
	svg.railroad-diagram text.label{
		text-anchor:start;
	}
	svg.railroad-diagram text.comment{
		font:italic 12px monospace;
	}
	svg.railroad-diagram rect{
		stroke-width:3;
		stroke:black;
		fill:hsl(120,100%,90%);
	}
	svg.railroad-diagram rect.group-box {
		stroke: gray;
		stroke-dasharray: 10 5;
		fill: none;
	}

/* ]]> */
</style></svg>