<svg class="railroad-diagram" height="62" viewBox="0 0 532.5 62" width="532.5" xmlns="http://www.w3.org/2000/svg" xmlns:xlink="http://www.w3.org/1999/xlink">
<g transform="translate(.5 .5)">
<g>
<path d="M20 21v20m10 -20v20m-10 -10h171.5" /><text style="text-anchor:start" x="20" y="16">double_star_pattern</text></g><path d="M191.5 31h10" /><g>
<path d="M201.5 31h0.0" /><path d="M482.5 31h0.0" /><g class="terminal ">
<path d="M201.5 31h0.0" /><path d="M255.5 31h0.0" /><rect height="22" rx="10" ry="10" width="54" x="201.5" y="20"></rect><text x="228.5" y="35">&apos;**&apos;</text></g><path d="M255.5 31h10" /><path d="M265.5 31h10" /><g class="non-terminal ">
<path d="M275.5 31h0.0" /><path d="M482.5 31h0.0" /><rect height="22" width="207" x="275.5" y="20"></rect><text x="379" y="35">pattern_capture_target</text></g></g><path d="M482.5 31h10" /><path d="M 492.5 31 h 20 m -10 -10 v 20 m 10 -20 v 20"></path></g><style>/* <![CDATA[ */
	svg.railroad-diagram {
		background-color:hsl(30,20%,95%);
	}
	svg.railroad-diagram path {
		stroke-width:3;
		stroke:black;
		fill:rgba(0,0,0,0);
	}
	svg.railroad-diagram text {
		font:bold 14px monospace;
		text-anchor:middle;
	}
	svg.railroad-diagram text.label{
		text-anchor:start;
	}
	svg.railroad-diagram text.comment{
		font:italic 12px monospace;
	}
	svg.railroad-diagram rect{
		stroke-width:3;
		stroke:black;
		fill:hsl(120,100%,90%);
	}
	svg.railroad-diagram rect.group-box {
		stroke: gray;
		stroke-dasharray: 10 5;
		fill: none;
	}

/* ]]> */
</style></svg>