<svg class="railroad-diagram" height="171" viewBox="0 0 1195.0 171" width="1195.0" xmlns="http://www.w3.org/2000/svg" xmlns:xlink="http://www.w3.org/1999/xlink">
<g transform="translate(.5 .5)">
<g>
<path d="M20 62v20m10 -20v20m-10 -10h20" /></g><path d="M40 72h10" /><g>
<path d="M50 72h0.0" /><path d="M1145.0 72h0.0" /><g class="terminal ">
<path d="M50.0 72h0.0" /><path d="M121.0 72h0.0" /><rect height="22" rx="10" ry="10" width="71" x="50" y="61"></rect><text x="85.5" y="76">&apos;elif&apos;</text></g><path d="M121.0 72h10" /><path d="M131.0 72h10" /><g class="non-terminal ">
<path d="M141.0 72h0.0" /><path d="M297.0 72h0.0" /><rect height="22" width="156" x="141" y="61"></rect><text x="219" y="76">named_expression</text></g><path d="M297.0 72h10" /><path d="M307.0 72h10" /><g class="terminal ">
<path d="M317.0 72h0.0" /><path d="M362.5 72h0.0" /><rect height="22" rx="10" ry="10" width="45.5" x="317" y="61"></rect><text x="339.75" y="76">&apos;:&apos;</text></g><path d="M362.5 72h10" /><path d="M372.5 72h10" /><g class="non-terminal ">
<path d="M382.5 72h0.0" /><path d="M445.0 72h0.0" /><rect height="22" width="62.5" x="382.5" y="61"></rect><text x="413.75" y="76">block</text></g><path d="M445.0 72h10" /><g>
<path d="M455.0 72h0.0" /><path d="M1145.0 72h0.0" /><path d="M455.0 72a10 10 0 0 0 10 -10v-32a10 10 0 0 1 10 -10" /><g>
<path d="M475.0 20h650.0" /></g><path d="M1125.0 20a10 10 0 0 1 10 10v32a10 10 0 0 0 10 10" /><path d="M455.0 72h20" /><g>
<path d="M475.0 72h0.0" /><path d="M1125.0 72h0.0" /><path d="M475.0 72h20" /><g>
<path d="M495.0 72h0.0" /><path d="M1105.0 72h0.0" /><rect class="group-box" height="77" rx="10" ry="10" width="610" x="495" y="44"></rect><g>
<path d="M495.0 72h10.0" /><path d="M1095.0 72h10.0" /><g class="terminal ">
<path d="M505.0 72h0.0" /><path d="M576.0 72h0.0" /><rect height="22" rx="10" ry="10" width="71" x="505" y="61"></rect><text x="540.5" y="76">&apos;elif&apos;</text></g><path d="M576.0 72h10" /><path d="M586.0 72h10" /><g class="non-terminal ">
<path d="M596.0 72h0.0" /><path d="M752.0 72h0.0" /><rect height="22" width="156" x="596" y="61"></rect><text x="674" y="76">named_expression</text></g><path d="M752.0 72h10" /><path d="M762.0 72h10" /><g class="terminal ">
<path d="M772.0 72h0.0" /><path d="M817.5 72h0.0" /><rect height="22" rx="10" ry="10" width="45.5" x="772" y="61"></rect><text x="794.75" y="76">&apos;:&apos;</text></g><path d="M817.5 72h10" /><path d="M827.5 72h10" /><g class="non-terminal ">
<path d="M837.5 72h0.0" /><path d="M900.0 72h0.0" /><rect height="22" width="62.5" x="837.5" y="61"></rect><text x="868.75" y="76">block</text></g><path d="M900.0 72h10" /><g>
<path d="M910.0 72h0.0" /><path d="M1095.0 72h0.0" /><path d="M910.0 72a10 10 0 0 0 10 -10v0a10 10 0 0 1 10 -10" /><g>
<path d="M930.0 52h145.0" /></g><path d="M1075.0 52a10 10 0 0 1 10 10v0a10 10 0 0 0 10 10" /><path d="M910.0 72h20" /><g>
<path d="M930.0 72h0.0" /><path d="M1075.0 72h0.0" /><path d="M930.0 72h20" /><g class="non-terminal ">
<path d="M950.0 72h4.25" /><path d="M1050.75 72h4.25" /><rect height="22" width="96.5" x="954.25" y="61"></rect><text x="1002.5" y="76">elif_stmt</text></g><path d="M1055.0 72h20" /><path d="M930.0 72a10 10 0 0 1 10 10v10a10 10 0 0 0 10 10" /><g class="non-terminal ">
<path d="M950.0 102h0.0" /><path d="M1055.0 102h0.0" /><rect height="22" width="105" x="950" y="91"></rect><text x="1002.5" y="106">else_block</text></g><path d="M1055.0 102a10 10 0 0 0 10 -10v-10a10 10 0 0 1 10 -10" /></g><path d="M1075.0 72h20" /></g></g><g class="non-terminal ">
<path d="M495.0 36h0.0" /><path d="M568.0 36h0.0" /><text class="comment" x="531.5" y="41">elif_stmt</text></g></g><path d="M1105.0 72h20" /><path d="M475.0 72a10 10 0 0 1 10 10v48a10 10 0 0 0 10 10" /><g class="non-terminal ">
<path d="M495.0 140h252.5" /><path d="M852.5 140h252.5" /><rect height="22" width="105" x="747.5" y="129"></rect><text x="800" y="144">else_block</text></g><path d="M1105.0 140a10 10 0 0 0 10 -10v-48a10 10 0 0 1 10 -10" /></g><path d="M1125.0 72h20" /></g></g><path d="M1145.0 72h10" /><path d="M 1155.0 72 h 20 m -10 -10 v 20 m 10 -20 v 20"></path></g><style>/* <![CDATA[ */
	svg.railroad-diagram {
		background-color:hsl(30,20%,95%);
	}
	svg.railroad-diagram path {
		stroke-width:3;
		stroke:black;
		fill:rgba(0,0,0,0);
	}
	svg.railroad-diagram text {
		font:bold 14px monospace;
		text-anchor:middle;
	}
	svg.railroad-diagram text.label{
		text-anchor:start;
	}
	svg.railroad-diagram text.comment{
		font:italic 12px monospace;
	}
	svg.railroad-diagram rect{
		stroke-width:3;
		stroke:black;
		fill:hsl(120,100%,90%);
	}
	svg.railroad-diagram rect.group-box {
		stroke: gray;
		stroke-dasharray: 10 5;
		fill: none;
	}

/* ]]> */
</style></svg>