<svg class="railroad-diagram" height="79" viewBox="0 0 751.0 79" width="751.0" xmlns="http://www.w3.org/2000/svg" xmlns:xlink="http://www.w3.org/1999/xlink">
<g transform="translate(.5 .5)">
<g>
<path d="M20 38v20m10 -20v20m-10 -10h112.0" /><text style="text-anchor:start" x="20" y="33">except_block</text></g><path d="M132.0 48h10" /><g>
<path d="M142.0 48h0.0" /><path d="M701.0 48h0.0" /><g class="terminal ">
<path d="M142.0 48h0.0" /><path d="M230.0 48h0.0" /><rect height="22" rx="10" ry="10" width="88" x="142" y="37"></rect><text x="186" y="52">&apos;except&apos;</text></g><path d="M230.0 48h10" /><g>
<path d="M240.0 48h0.0" /><path d="M563.0 48h0.0" /><path d="M240.0 48a10 10 0 0 0 10 -10v-8a10 10 0 0 1 10 -10" /><g>
<path d="M260.0 20h283.0" /></g><path d="M543.0 20a10 10 0 0 1 10 10v8a10 10 0 0 0 10 10" /><path d="M240.0 48h20" /><g>
<path d="M260.0 48h0.0" /><path d="M543.0 48h0.0" /><g class="non-terminal ">
<path d="M260.0 48h0.0" /><path d="M365.0 48h0.0" /><rect height="22" width="105" x="260" y="37"></rect><text x="312.5" y="52">expression</text></g><path d="M365.0 48h10" /><g>
<path d="M375.0 48h0.0" /><path d="M543.0 48h0.0" /><path d="M375.0 48a10 10 0 0 0 10 -10v0a10 10 0 0 1 10 -10" /><g>
<path d="M395.0 28h128.0" /></g><path d="M523.0 28a10 10 0 0 1 10 10v0a10 10 0 0 0 10 10" /><path d="M375.0 48h20" /><g>
<path d="M395.0 48h0.0" /><path d="M523.0 48h0.0" /><g class="terminal ">
<path d="M395.0 48h0.0" /><path d="M449.0 48h0.0" /><rect height="22" rx="10" ry="10" width="54" x="395" y="37"></rect><text x="422" y="52">&apos;as&apos;</text></g><path d="M449.0 48h10" /><path d="M459.0 48h10" /><g class="terminal ">
<path d="M469.0 48h0.0" /><path d="M523.0 48h0.0" /><rect height="22" rx="10" ry="10" width="54" x="469" y="37"></rect><text x="496" y="52">NAME</text></g></g><path d="M523.0 48h20" /></g></g><path d="M543.0 48h20" /></g><path d="M563.0 48h10" /><g class="terminal ">
<path d="M573.0 48h0.0" /><path d="M618.5 48h0.0" /><rect height="22" rx="10" ry="10" width="45.5" x="573" y="37"></rect><text x="595.75" y="52">&apos;:&apos;</text></g><path d="M618.5 48h10" /><path d="M628.5 48h10" /><g class="non-terminal ">
<path d="M638.5 48h0.0" /><path d="M701.0 48h0.0" /><rect height="22" width="62.5" x="638.5" y="37"></rect><text x="669.75" y="52">block</text></g></g><path d="M701.0 48h10" /><path d="M 711.0 48 h 20 m -10 -10 v 20 m 10 -20 v 20"></path></g><style>/* <![CDATA[ */
	svg.railroad-diagram {
		background-color:hsl(30,20%,95%);
	}
	svg.railroad-diagram path {
		stroke-width:3;
		stroke:black;
		fill:rgba(0,0,0,0);
	}
	svg.railroad-diagram text {
		font:bold 14px monospace;
		text-anchor:middle;
	}
	svg.railroad-diagram text.label{
		text-anchor:start;
	}
	svg.railroad-diagram text.comment{
		font:italic 12px monospace;
	}
	svg.railroad-diagram rect{
		stroke-width:3;
		stroke:black;
		fill:hsl(120,100%,90%);
	}
	svg.railroad-diagram rect.group-box {
		stroke: gray;
		stroke-dasharray: 10 5;
		fill: none;
	}

/* ]]> */
</style></svg>