<svg class="railroad-diagram" height="171" viewBox="0 0 1189.0 171" width="1189.0" xmlns="http://www.w3.org/2000/svg" xmlns:xlink="http://www.w3.org/1999/xlink">
<g transform="translate(.5 .5)">
<g>
<path d="M20 62v20m10 -20v20m-10 -10h20" /></g><g>
<path d="M40 72h0.0" /><path d="M1149.0 72h0.0" /><path d="M40.0 72h20" /><g>
<path d="M60.0 72h0.0" /><path d="M1129.0 72h0.0" /><g class="non-terminal ">
<path d="M60.0 72h0.0" /><path d="M173.5 72h0.0" /><rect height="22" width="113.5" x="60" y="61"></rect><text x="116.75" y="76">disjunction</text></g><path d="M173.5 72h10" /><g>
<path d="M183.5 72h0.0" /><path d="M1129.0 72h0.0" /><path d="M183.5 72a10 10 0 0 0 10 -10v-32a10 10 0 0 1 10 -10" /><g>
<path d="M203.5 20h905.5" /></g><path d="M1109.0 20a10 10 0 0 1 10 10v32a10 10 0 0 0 10 10" /><path d="M183.5 72h20" /><g>
<path d="M203.5 72h0.0" /><path d="M1109.0 72h0.0" /><g class="terminal ">
<path d="M203.5 72h0.0" /><path d="M257.5 72h0.0" /><rect height="22" rx="10" ry="10" width="54" x="203.5" y="61"></rect><text x="230.5" y="76">&apos;if&apos;</text></g><path d="M257.5 72h10" /><path d="M267.5 72h10" /><g class="non-terminal ">
<path d="M277.5 72h0.0" /><path d="M391.0 72h0.0" /><rect height="22" width="113.5" x="277.5" y="61"></rect><text x="334.25" y="76">disjunction</text></g><path d="M391.0 72h10" /><path d="M401.0 72h10" /><g class="terminal ">
<path d="M411.0 72h0.0" /><path d="M482.0 72h0.0" /><rect height="22" rx="10" ry="10" width="71" x="411" y="61"></rect><text x="446.5" y="76">&apos;else&apos;</text></g><path d="M482.0 72h10" /><path d="M492.0 72h10" /><g>
<path d="M502.0 72h0.0" /><path d="M1109.0 72h0.0" /><rect class="group-box" height="77" rx="10" ry="10" width="607" x="502" y="44"></rect><g>
<path d="M502.0 72h0.0" /><path d="M1109.0 72h0.0" /><path d="M502.0 72h20" /><g>
<path d="M522.0 72h0.0" /><path d="M1089.0 72h0.0" /><g class="non-terminal ">
<path d="M522.0 72h0.0" /><path d="M635.5 72h0.0" /><rect height="22" width="113.5" x="522" y="61"></rect><text x="578.75" y="76">disjunction</text></g><path d="M635.5 72h10" /><g>
<path d="M645.5 72h0.0" /><path d="M1089.0 72h0.0" /><path d="M645.5 72a10 10 0 0 0 10 -10v0a10 10 0 0 1 10 -10" /><g>
<path d="M665.5 52h403.5" /></g><path d="M1069.0 52a10 10 0 0 1 10 10v0a10 10 0 0 0 10 10" /><path d="M645.5 72h20" /><g>
<path d="M665.5 72h0.0" /><path d="M1069.0 72h0.0" /><g class="terminal ">
<path d="M665.5 72h0.0" /><path d="M719.5 72h0.0" /><rect height="22" rx="10" ry="10" width="54" x="665.5" y="61"></rect><text x="692.5" y="76">&apos;if&apos;</text></g><path d="M719.5 72h10" /><path d="M729.5 72h10" /><g class="non-terminal ">
<path d="M739.5 72h0.0" /><path d="M853.0 72h0.0" /><rect height="22" width="113.5" x="739.5" y="61"></rect><text x="796.25" y="76">disjunction</text></g><path d="M853.0 72h10" /><path d="M863.0 72h10" /><g class="terminal ">
<path d="M873.0 72h0.0" /><path d="M944.0 72h0.0" /><rect height="22" rx="10" ry="10" width="71" x="873" y="61"></rect><text x="908.5" y="76">&apos;else&apos;</text></g><path d="M944.0 72h10" /><path d="M954.0 72h10" /><g class="non-terminal ">
<path d="M964.0 72h0.0" /><path d="M1069.0 72h0.0" /><rect height="22" width="105" x="964" y="61"></rect><text x="1016.5" y="76">expression</text></g></g><path d="M1069.0 72h20" /></g></g><path d="M1089.0 72h20" /><path d="M502.0 72a10 10 0 0 1 10 10v10a10 10 0 0 0 10 10" /><g class="non-terminal ">
<path d="M522.0 102h243.75" /><path d="M845.25 102h243.75" /><rect height="22" width="79.5" x="765.75" y="91"></rect><text x="805.5" y="106">lambdef</text></g><path d="M1089.0 102a10 10 0 0 0 10 -10v-10a10 10 0 0 1 10 -10" /></g><g class="non-terminal ">
<path d="M502.0 36h0.0" /><path d="M582.0 36h0.0" /><text class="comment" x="542" y="41">expression</text></g></g></g><path d="M1109.0 72h20" /></g></g><path d="M1129.0 72h20" /><path d="M40.0 72a10 10 0 0 1 10 10v48a10 10 0 0 0 10 10" /><g class="non-terminal ">
<path d="M60.0 140h494.75" /><path d="M634.25 140h494.75" /><rect height="22" width="79.5" x="554.75" y="129"></rect><text x="594.5" y="144">lambdef</text></g><path d="M1129.0 140a10 10 0 0 0 10 -10v-48a10 10 0 0 1 10 -10" /></g><path d="M 1149.0 72 h 20 m -10 -10 v 20 m 10 -20 v 20"></path></g><style>/* <![CDATA[ */
	svg.railroad-diagram {
		background-color:hsl(30,20%,95%);
	}
	svg.railroad-diagram path {
		stroke-width:3;
		stroke:black;
		fill:rgba(0,0,0,0);
	}
	svg.railroad-diagram text {
		font:bold 14px monospace;
		text-anchor:middle;
	}
	svg.railroad-diagram text.label{
		text-anchor:start;
	}
	svg.railroad-diagram text.comment{
		font:italic 12px monospace;
	}
	svg.railroad-diagram rect{
		stroke-width:3;
		stroke:black;
		fill:hsl(120,100%,90%);
	}
	svg.railroad-diagram rect.group-box {
		stroke: gray;
		stroke-dasharray: 10 5;
		fill: none;
	}

/* ]]> */
</style></svg>