<svg class="railroad-diagram" height="101" viewBox="0 0 687.0 101" width="687.0" xmlns="http://www.w3.org/2000/svg" xmlns:xlink="http://www.w3.org/1999/xlink">
<g transform="translate(.5 .5)">
<g>
<path d="M20 30v20m10 -20v20m-10 -10h20" /></g><g>
<path d="M40 40h0.0" /><path d="M647.0 40h0.0" /><path d="M40.0 40h20" /><g>
<path d="M60.0 40h0.0" /><path d="M627.0 40h0.0" /><g class="non-terminal ">
<path d="M60.0 40h0.0" /><path d="M173.5 40h0.0" /><rect height="22" width="113.5" x="60" y="29"></rect><text x="116.75" y="44">disjunction</text></g><path d="M173.5 40h10" /><g>
<path d="M183.5 40h0.0" /><path d="M627.0 40h0.0" /><path d="M183.5 40a10 10 0 0 0 10 -10v0a10 10 0 0 1 10 -10" /><g>
<path d="M203.5 20h403.5" /></g><path d="M607.0 20a10 10 0 0 1 10 10v0a10 10 0 0 0 10 10" /><path d="M183.5 40h20" /><g>
<path d="M203.5 40h0.0" /><path d="M607.0 40h0.0" /><g class="terminal ">
<path d="M203.5 40h0.0" /><path d="M257.5 40h0.0" /><rect height="22" rx="10" ry="10" width="54" x="203.5" y="29"></rect><text x="230.5" y="44">&apos;if&apos;</text></g><path d="M257.5 40h10" /><path d="M267.5 40h10" /><g class="non-terminal ">
<path d="M277.5 40h0.0" /><path d="M391.0 40h0.0" /><rect height="22" width="113.5" x="277.5" y="29"></rect><text x="334.25" y="44">disjunction</text></g><path d="M391.0 40h10" /><path d="M401.0 40h10" /><g class="terminal ">
<path d="M411.0 40h0.0" /><path d="M482.0 40h0.0" /><rect height="22" rx="10" ry="10" width="71" x="411" y="29"></rect><text x="446.5" y="44">&apos;else&apos;</text></g><path d="M482.0 40h10" /><path d="M492.0 40h10" /><g class="non-terminal ">
<path d="M502.0 40h0.0" /><path d="M607.0 40h0.0" /><rect height="22" width="105" x="502" y="29"></rect><text x="554.5" y="44">expression</text></g></g><path d="M607.0 40h20" /></g></g><path d="M627.0 40h20" /><path d="M40.0 40a10 10 0 0 1 10 10v10a10 10 0 0 0 10 10" /><g class="non-terminal ">
<path d="M60.0 70h243.75" /><path d="M383.25 70h243.75" /><rect height="22" width="79.5" x="303.75" y="59"></rect><text x="343.5" y="74">lambdef</text></g><path d="M627.0 70a10 10 0 0 0 10 -10v-10a10 10 0 0 1 10 -10" /></g><path d="M 647.0 40 h 20 m -10 -10 v 20 m 10 -20 v 20"></path></g><style>/* <![CDATA[ */
	svg.railroad-diagram {
		background-color:hsl(30,20%,95%);
	}
	svg.railroad-diagram path {
		stroke-width:3;
		stroke:black;
		fill:rgba(0,0,0,0);
	}
	svg.railroad-diagram text {
		font:bold 14px monospace;
		text-anchor:middle;
	}
	svg.railroad-diagram text.label{
		text-anchor:start;
	}
	svg.railroad-diagram text.comment{
		font:italic 12px monospace;
	}
	svg.railroad-diagram rect{
		stroke-width:3;
		stroke:black;
		fill:hsl(120,100%,90%);
	}
	svg.railroad-diagram rect.group-box {
		stroke: gray;
		stroke-dasharray: 10 5;
		fill: none;
	}

/* ]]> */
</style></svg>