<svg class="railroad-diagram" height="871" viewBox="0 0 6209.0 871" width="6209.0" xmlns="http://www.w3.org/2000/svg" xmlns:xlink="http://www.w3.org/1999/xlink">
<g transform="translate(.5 .5)">
<g>
<path d="M20 382v20m10 -20v20m-10 -10h20" /></g><g>
<path d="M40 392h0.0" /><path d="M6169.0 392h0.0" /><path d="M40.0 392h20" /><g>
<path d="M60.0 392h0.0" /><path d="M6149.0 392h0.0" /><g class="non-terminal ">
<path d="M60.0 392h0.0" /><path d="M173.5 392h0.0" /><rect height="22" width="113.5" x="60" y="381"></rect><text x="116.75" y="396">disjunction</text></g><path d="M173.5 392h10" /><g>
<path d="M183.5 392h0.0" /><path d="M6149.0 392h0.0" /><path d="M183.5 392a10 10 0 0 0 10 -10v-352a10 10 0 0 1 10 -10" /><g>
<path d="M203.5 20h5925.5" /></g><path d="M6129.0 20a10 10 0 0 1 10 10v352a10 10 0 0 0 10 10" /><path d="M183.5 392h20" /><g>
<path d="M203.5 392h0.0" /><path d="M6129.0 392h0.0" /><g class="terminal ">
<path d="M203.5 392h0.0" /><path d="M257.5 392h0.0" /><rect height="22" rx="10" ry="10" width="54" x="203.5" y="381"></rect><text x="230.5" y="396">&apos;if&apos;</text></g><path d="M257.5 392h10" /><path d="M267.5 392h10" /><g class="non-terminal ">
<path d="M277.5 392h0.0" /><path d="M391.0 392h0.0" /><rect height="22" width="113.5" x="277.5" y="381"></rect><text x="334.25" y="396">disjunction</text></g><path d="M391.0 392h10" /><path d="M401.0 392h10" /><g class="terminal ">
<path d="M411.0 392h0.0" /><path d="M482.0 392h0.0" /><rect height="22" rx="10" ry="10" width="71" x="411" y="381"></rect><text x="446.5" y="396">&apos;else&apos;</text></g><path d="M482.0 392h10" /><path d="M492.0 392h10" /><g>
<path d="M502.0 392h0.0" /><path d="M6129.0 392h0.0" /><rect class="group-box" height="777" rx="10" ry="10" width="5627" x="502" y="44"></rect><g>
<path d="M502.0 392h0.0" /><path d="M6129.0 392h0.0" /><path d="M502.0 392h20" /><g>
<path d="M522.0 392h0.0" /><path d="M6109.0 392h0.0" /><g class="non-terminal ">
<path d="M522.0 392h0.0" /><path d="M635.5 392h0.0" /><rect height="22" width="113.5" x="522" y="381"></rect><text x="578.75" y="396">disjunction</text></g><path d="M635.5 392h10" /><g>
<path d="M645.5 392h0.0" /><path d="M6109.0 392h0.0" /><path d="M645.5 392a10 10 0 0 0 10 -10v-320a10 10 0 0 1 10 -10" /><g>
<path d="M665.5 52h5423.5" /></g><path d="M6089.0 52a10 10 0 0 1 10 10v320a10 10 0 0 0 10 10" /><path d="M645.5 392h20" /><g>
<path d="M665.5 392h0.0" /><path d="M6089.0 392h0.0" /><g class="terminal ">
<path d="M665.5 392h0.0" /><path d="M719.5 392h0.0" /><rect height="22" rx="10" ry="10" width="54" x="665.5" y="381"></rect><text x="692.5" y="396">&apos;if&apos;</text></g><path d="M719.5 392h10" /><path d="M729.5 392h10" /><g class="non-terminal ">
<path d="M739.5 392h0.0" /><path d="M853.0 392h0.0" /><rect height="22" width="113.5" x="739.5" y="381"></rect><text x="796.25" y="396">disjunction</text></g><path d="M853.0 392h10" /><path d="M863.0 392h10" /><g class="terminal ">
<path d="M873.0 392h0.0" /><path d="M944.0 392h0.0" /><rect height="22" rx="10" ry="10" width="71" x="873" y="381"></rect><text x="908.5" y="396">&apos;else&apos;</text></g><path d="M944.0 392h10" /><path d="M954.0 392h10" /><g>
<path d="M964.0 392h0.0" /><path d="M6089.0 392h0.0" /><rect class="group-box" height="707" rx="10" ry="10" width="5125" x="964" y="76"></rect><g>
<path d="M964.0 392h0.0" /><path d="M6089.0 392h0.0" /><path d="M964.0 392h20" /><g>
<path d="M984.0 392h0.0" /><path d="M6069.0 392h0.0" /><g class="non-terminal ">
<path d="M984.0 392h0.0" /><path d="M1097.5 392h0.0" /><rect height="22" width="113.5" x="984" y="381"></rect><text x="1040.75" y="396">disjunction</text></g><path d="M1097.5 392h10" /><g>
<path d="M1107.5 392h0.0" /><path d="M6069.0 392h0.0" /><path d="M1107.5 392a10 10 0 0 0 10 -10v-288a10 10 0 0 1 10 -10" /><g>
<path d="M1127.5 84h4921.5" /></g><path d="M6049.0 84a10 10 0 0 1 10 10v288a10 10 0 0 0 10 10" /><path d="M1107.5 392h20" /><g>
<path d="M1127.5 392h0.0" /><path d="M6049.0 392h0.0" /><g class="terminal ">
<path d="M1127.5 392h0.0" /><path d="M1181.5 392h0.0" /><rect height="22" rx="10" ry="10" width="54" x="1127.5" y="381"></rect><text x="1154.5" y="396">&apos;if&apos;</text></g><path d="M1181.5 392h10" /><path d="M1191.5 392h10" /><g class="non-terminal ">
<path d="M1201.5 392h0.0" /><path d="M1315.0 392h0.0" /><rect height="22" width="113.5" x="1201.5" y="381"></rect><text x="1258.25" y="396">disjunction</text></g><path d="M1315.0 392h10" /><path d="M1325.0 392h10" /><g class="terminal ">
<path d="M1335.0 392h0.0" /><path d="M1406.0 392h0.0" /><rect height="22" rx="10" ry="10" width="71" x="1335" y="381"></rect><text x="1370.5" y="396">&apos;else&apos;</text></g><path d="M1406.0 392h10" /><path d="M1416.0 392h10" /><g>
<path d="M1426.0 392h0.0" /><path d="M6049.0 392h0.0" /><rect class="group-box" height="637" rx="10" ry="10" width="4623" x="1426" y="108"></rect><g>
<path d="M1426.0 392h0.0" /><path d="M6049.0 392h0.0" /><path d="M1426.0 392h20" /><g>
<path d="M1446.0 392h0.0" /><path d="M6029.0 392h0.0" /><g class="non-terminal ">
<path d="M1446.0 392h0.0" /><path d="M1559.5 392h0.0" /><rect height="22" width="113.5" x="1446" y="381"></rect><text x="1502.75" y="396">disjunction</text></g><path d="M1559.5 392h10" /><g>
<path d="M1569.5 392h0.0" /><path d="M6029.0 392h0.0" /><path d="M1569.5 392a10 10 0 0 0 10 -10v-256a10 10 0 0 1 10 -10" /><g>
<path d="M1589.5 116h4419.5" /></g><path d="M6009.0 116a10 10 0 0 1 10 10v256a10 10 0 0 0 10 10" /><path d="M1569.5 392h20" /><g>
<path d="M1589.5 392h0.0" /><path d="M6009.0 392h0.0" /><g class="terminal ">
<path d="M1589.5 392h0.0" /><path d="M1643.5 392h0.0" /><rect height="22" rx="10" ry="10" width="54" x="1589.5" y="381"></rect><text x="1616.5" y="396">&apos;if&apos;</text></g><path d="M1643.5 392h10" /><path d="M1653.5 392h10" /><g class="non-terminal ">
<path d="M1663.5 392h0.0" /><path d="M1777.0 392h0.0" /><rect height="22" width="113.5" x="1663.5" y="381"></rect><text x="1720.25" y="396">disjunction</text></g><path d="M1777.0 392h10" /><path d="M1787.0 392h10" /><g class="terminal ">
<path d="M1797.0 392h0.0" /><path d="M1868.0 392h0.0" /><rect height="22" rx="10" ry="10" width="71" x="1797" y="381"></rect><text x="1832.5" y="396">&apos;else&apos;</text></g><path d="M1868.0 392h10" /><path d="M1878.0 392h10" /><g>
<path d="M1888.0 392h0.0" /><path d="M6009.0 392h0.0" /><rect class="group-box" height="567" rx="10" ry="10" width="4121" x="1888" y="140"></rect><g>
<path d="M1888.0 392h0.0" /><path d="M6009.0 392h0.0" /><path d="M1888.0 392h20" /><g>
<path d="M1908.0 392h0.0" /><path d="M5989.0 392h0.0" /><g class="non-terminal ">
<path d="M1908.0 392h0.0" /><path d="M2021.5 392h0.0" /><rect height="22" width="113.5" x="1908" y="381"></rect><text x="1964.75" y="396">disjunction</text></g><path d="M2021.5 392h10" /><g>
<path d="M2031.5 392h0.0" /><path d="M5989.0 392h0.0" /><path d="M2031.5 392a10 10 0 0 0 10 -10v-224a10 10 0 0 1 10 -10" /><g>
<path d="M2051.5 148h3917.5" /></g><path d="M5969.0 148a10 10 0 0 1 10 10v224a10 10 0 0 0 10 10" /><path d="M2031.5 392h20" /><g>
<path d="M2051.5 392h0.0" /><path d="M5969.0 392h0.0" /><g class="terminal ">
<path d="M2051.5 392h0.0" /><path d="M2105.5 392h0.0" /><rect height="22" rx="10" ry="10" width="54" x="2051.5" y="381"></rect><text x="2078.5" y="396">&apos;if&apos;</text></g><path d="M2105.5 392h10" /><path d="M2115.5 392h10" /><g class="non-terminal ">
<path d="M2125.5 392h0.0" /><path d="M2239.0 392h0.0" /><rect height="22" width="113.5" x="2125.5" y="381"></rect><text x="2182.25" y="396">disjunction</text></g><path d="M2239.0 392h10" /><path d="M2249.0 392h10" /><g class="terminal ">
<path d="M2259.0 392h0.0" /><path d="M2330.0 392h0.0" /><rect height="22" rx="10" ry="10" width="71" x="2259" y="381"></rect><text x="2294.5" y="396">&apos;else&apos;</text></g><path d="M2330.0 392h10" /><path d="M2340.0 392h10" /><g>
<path d="M2350.0 392h0.0" /><path d="M5969.0 392h0.0" /><rect class="group-box" height="497" rx="10" ry="10" width="3619" x="2350" y="172"></rect><g>
<path d="M2350.0 392h0.0" /><path d="M5969.0 392h0.0" /><path d="M2350.0 392h20" /><g>
<path d="M2370.0 392h0.0" /><path d="M5949.0 392h0.0" /><g class="non-terminal ">
<path d="M2370.0 392h0.0" /><path d="M2483.5 392h0.0" /><rect height="22" width="113.5" x="2370" y="381"></rect><text x="2426.75" y="396">disjunction</text></g><path d="M2483.5 392h10" /><g>
<path d="M2493.5 392h0.0" /><path d="M5949.0 392h0.0" /><path d="M2493.5 392a10 10 0 0 0 10 -10v-192a10 10 0 0 1 10 -10" /><g>
<path d="M2513.5 180h3415.5" /></g><path d="M5929.0 180a10 10 0 0 1 10 10v192a10 10 0 0 0 10 10" /><path d="M2493.5 392h20" /><g>
<path d="M2513.5 392h0.0" /><path d="M5929.0 392h0.0" /><g class="terminal ">
<path d="M2513.5 392h0.0" /><path d="M2567.5 392h0.0" /><rect height="22" rx="10" ry="10" width="54" x="2513.5" y="381"></rect><text x="2540.5" y="396">&apos;if&apos;</text></g><path d="M2567.5 392h10" /><path d="M2577.5 392h10" /><g class="non-terminal ">
<path d="M2587.5 392h0.0" /><path d="M2701.0 392h0.0" /><rect height="22" width="113.5" x="2587.5" y="381"></rect><text x="2644.25" y="396">disjunction</text></g><path d="M2701.0 392h10" /><path d="M2711.0 392h10" /><g class="terminal ">
<path d="M2721.0 392h0.0" /><path d="M2792.0 392h0.0" /><rect height="22" rx="10" ry="10" width="71" x="2721" y="381"></rect><text x="2756.5" y="396">&apos;else&apos;</text></g><path d="M2792.0 392h10" /><path d="M2802.0 392h10" /><g>
<path d="M2812.0 392h0.0" /><path d="M5929.0 392h0.0" /><rect class="group-box" height="427" rx="10" ry="10" width="3117" x="2812" y="204"></rect><g>
<path d="M2812.0 392h0.0" /><path d="M5929.0 392h0.0" /><path d="M2812.0 392h20" /><g>
<path d="M2832.0 392h0.0" /><path d="M5909.0 392h0.0" /><g class="non-terminal ">
<path d="M2832.0 392h0.0" /><path d="M2945.5 392h0.0" /><rect height="22" width="113.5" x="2832" y="381"></rect><text x="2888.75" y="396">disjunction</text></g><path d="M2945.5 392h10" /><g>
<path d="M2955.5 392h0.0" /><path d="M5909.0 392h0.0" /><path d="M2955.5 392a10 10 0 0 0 10 -10v-160a10 10 0 0 1 10 -10" /><g>
<path d="M2975.5 212h2913.5" /></g><path d="M5889.0 212a10 10 0 0 1 10 10v160a10 10 0 0 0 10 10" /><path d="M2955.5 392h20" /><g>
<path d="M2975.5 392h0.0" /><path d="M5889.0 392h0.0" /><g class="terminal ">
<path d="M2975.5 392h0.0" /><path d="M3029.5 392h0.0" /><rect height="22" rx="10" ry="10" width="54" x="2975.5" y="381"></rect><text x="3002.5" y="396">&apos;if&apos;</text></g><path d="M3029.5 392h10" /><path d="M3039.5 392h10" /><g class="non-terminal ">
<path d="M3049.5 392h0.0" /><path d="M3163.0 392h0.0" /><rect height="22" width="113.5" x="3049.5" y="381"></rect><text x="3106.25" y="396">disjunction</text></g><path d="M3163.0 392h10" /><path d="M3173.0 392h10" /><g class="terminal ">
<path d="M3183.0 392h0.0" /><path d="M3254.0 392h0.0" /><rect height="22" rx="10" ry="10" width="71" x="3183" y="381"></rect><text x="3218.5" y="396">&apos;else&apos;</text></g><path d="M3254.0 392h10" /><path d="M3264.0 392h10" /><g>
<path d="M3274.0 392h0.0" /><path d="M5889.0 392h0.0" /><rect class="group-box" height="357" rx="10" ry="10" width="2615" x="3274" y="236"></rect><g>
<path d="M3274.0 392h0.0" /><path d="M5889.0 392h0.0" /><path d="M3274.0 392h20" /><g>
<path d="M3294.0 392h0.0" /><path d="M5869.0 392h0.0" /><g class="non-terminal ">
<path d="M3294.0 392h0.0" /><path d="M3407.5 392h0.0" /><rect height="22" width="113.5" x="3294" y="381"></rect><text x="3350.75" y="396">disjunction</text></g><path d="M3407.5 392h10" /><g>
<path d="M3417.5 392h0.0" /><path d="M5869.0 392h0.0" /><path d="M3417.5 392a10 10 0 0 0 10 -10v-128a10 10 0 0 1 10 -10" /><g>
<path d="M3437.5 244h2411.5" /></g><path d="M5849.0 244a10 10 0 0 1 10 10v128a10 10 0 0 0 10 10" /><path d="M3417.5 392h20" /><g>
<path d="M3437.5 392h0.0" /><path d="M5849.0 392h0.0" /><g class="terminal ">
<path d="M3437.5 392h0.0" /><path d="M3491.5 392h0.0" /><rect height="22" rx="10" ry="10" width="54" x="3437.5" y="381"></rect><text x="3464.5" y="396">&apos;if&apos;</text></g><path d="M3491.5 392h10" /><path d="M3501.5 392h10" /><g class="non-terminal ">
<path d="M3511.5 392h0.0" /><path d="M3625.0 392h0.0" /><rect height="22" width="113.5" x="3511.5" y="381"></rect><text x="3568.25" y="396">disjunction</text></g><path d="M3625.0 392h10" /><path d="M3635.0 392h10" /><g class="terminal ">
<path d="M3645.0 392h0.0" /><path d="M3716.0 392h0.0" /><rect height="22" rx="10" ry="10" width="71" x="3645" y="381"></rect><text x="3680.5" y="396">&apos;else&apos;</text></g><path d="M3716.0 392h10" /><path d="M3726.0 392h10" /><g>
<path d="M3736.0 392h0.0" /><path d="M5849.0 392h0.0" /><rect class="group-box" height="287" rx="10" ry="10" width="2113" x="3736" y="268"></rect><g>
<path d="M3736.0 392h0.0" /><path d="M5849.0 392h0.0" /><path d="M3736.0 392h20" /><g>
<path d="M3756.0 392h0.0" /><path d="M5829.0 392h0.0" /><g class="non-terminal ">
<path d="M3756.0 392h0.0" /><path d="M3869.5 392h0.0" /><rect height="22" width="113.5" x="3756" y="381"></rect><text x="3812.75" y="396">disjunction</text></g><path d="M3869.5 392h10" /><g>
<path d="M3879.5 392h0.0" /><path d="M5829.0 392h0.0" /><path d="M3879.5 392a10 10 0 0 0 10 -10v-96a10 10 0 0 1 10 -10" /><g>
<path d="M3899.5 276h1909.5" /></g><path d="M5809.0 276a10 10 0 0 1 10 10v96a10 10 0 0 0 10 10" /><path d="M3879.5 392h20" /><g>
<path d="M3899.5 392h0.0" /><path d="M5809.0 392h0.0" /><g class="terminal ">
<path d="M3899.5 392h0.0" /><path d="M3953.5 392h0.0" /><rect height="22" rx="10" ry="10" width="54" x="3899.5" y="381"></rect><text x="3926.5" y="396">&apos;if&apos;</text></g><path d="M3953.5 392h10" /><path d="M3963.5 392h10" /><g class="non-terminal ">
<path d="M3973.5 392h0.0" /><path d="M4087.0 392h0.0" /><rect height="22" width="113.5" x="3973.5" y="381"></rect><text x="4030.25" y="396">disjunction</text></g><path d="M4087.0 392h10" /><path d="M4097.0 392h10" /><g class="terminal ">
<path d="M4107.0 392h0.0" /><path d="M4178.0 392h0.0" /><rect height="22" rx="10" ry="10" width="71" x="4107" y="381"></rect><text x="4142.5" y="396">&apos;else&apos;</text></g><path d="M4178.0 392h10" /><path d="M4188.0 392h10" /><g>
<path d="M4198.0 392h0.0" /><path d="M5809.0 392h0.0" /><rect class="group-box" height="217" rx="10" ry="10" width="1611" x="4198" y="300"></rect><g>
<path d="M4198.0 392h0.0" /><path d="M5809.0 392h0.0" /><path d="M4198.0 392h20" /><g>
<path d="M4218.0 392h0.0" /><path d="M5789.0 392h0.0" /><g class="non-terminal ">
<path d="M4218.0 392h0.0" /><path d="M4331.5 392h0.0" /><rect height="22" width="113.5" x="4218" y="381"></rect><text x="4274.75" y="396">disjunction</text></g><path d="M4331.5 392h10" /><g>
<path d="M4341.5 392h0.0" /><path d="M5789.0 392h0.0" /><path d="M4341.5 392a10 10 0 0 0 10 -10v-64a10 10 0 0 1 10 -10" /><g>
<path d="M4361.5 308h1407.5" /></g><path d="M5769.0 308a10 10 0 0 1 10 10v64a10 10 0 0 0 10 10" /><path d="M4341.5 392h20" /><g>
<path d="M4361.5 392h0.0" /><path d="M5769.0 392h0.0" /><g class="terminal ">
<path d="M4361.5 392h0.0" /><path d="M4415.5 392h0.0" /><rect height="22" rx="10" ry="10" width="54" x="4361.5" y="381"></rect><text x="4388.5" y="396">&apos;if&apos;</text></g><path d="M4415.5 392h10" /><path d="M4425.5 392h10" /><g class="non-terminal ">
<path d="M4435.5 392h0.0" /><path d="M4549.0 392h0.0" /><rect height="22" width="113.5" x="4435.5" y="381"></rect><text x="4492.25" y="396">disjunction</text></g><path d="M4549.0 392h10" /><path d="M4559.0 392h10" /><g class="terminal ">
<path d="M4569.0 392h0.0" /><path d="M4640.0 392h0.0" /><rect height="22" rx="10" ry="10" width="71" x="4569" y="381"></rect><text x="4604.5" y="396">&apos;else&apos;</text></g><path d="M4640.0 392h10" /><path d="M4650.0 392h10" /><g>
<path d="M4660.0 392h0.0" /><path d="M5769.0 392h0.0" /><rect class="group-box" height="147" rx="10" ry="10" width="1109" x="4660" y="332"></rect><g>
<path d="M4660.0 392h0.0" /><path d="M5769.0 392h0.0" /><path d="M4660.0 392h20" /><g>
<path d="M4680.0 392h0.0" /><path d="M5749.0 392h0.0" /><g class="non-terminal ">
<path d="M4680.0 392h0.0" /><path d="M4793.5 392h0.0" /><rect height="22" width="113.5" x="4680" y="381"></rect><text x="4736.75" y="396">disjunction</text></g><path d="M4793.5 392h10" /><g>
<path d="M4803.5 392h0.0" /><path d="M5749.0 392h0.0" /><path d="M4803.5 392a10 10 0 0 0 10 -10v-32a10 10 0 0 1 10 -10" /><g>
<path d="M4823.5 340h905.5" /></g><path d="M5729.0 340a10 10 0 0 1 10 10v32a10 10 0 0 0 10 10" /><path d="M4803.5 392h20" /><g>
<path d="M4823.5 392h0.0" /><path d="M5729.0 392h0.0" /><g class="terminal ">
<path d="M4823.5 392h0.0" /><path d="M4877.5 392h0.0" /><rect height="22" rx="10" ry="10" width="54" x="4823.5" y="381"></rect><text x="4850.5" y="396">&apos;if&apos;</text></g><path d="M4877.5 392h10" /><path d="M4887.5 392h10" /><g class="non-terminal ">
<path d="M4897.5 392h0.0" /><path d="M5011.0 392h0.0" /><rect height="22" width="113.5" x="4897.5" y="381"></rect><text x="4954.25" y="396">disjunction</text></g><path d="M5011.0 392h10" /><path d="M5021.0 392h10" /><g class="terminal ">
<path d="M5031.0 392h0.0" /><path d="M5102.0 392h0.0" /><rect height="22" rx="10" ry="10" width="71" x="5031" y="381"></rect><text x="5066.5" y="396">&apos;else&apos;</text></g><path d="M5102.0 392h10" /><path d="M5112.0 392h10" /><g>
<path d="M5122.0 392h0.0" /><path d="M5729.0 392h0.0" /><rect class="group-box" height="77" rx="10" ry="10" width="607" x="5122" y="364"></rect><g>
<path d="M5122.0 392h0.0" /><path d="M5729.0 392h0.0" /><path d="M5122.0 392h20" /><g>
<path d="M5142.0 392h0.0" /><path d="M5709.0 392h0.0" /><g class="non-terminal ">
<path d="M5142.0 392h0.0" /><path d="M5255.5 392h0.0" /><rect height="22" width="113.5" x="5142" y="381"></rect><text x="5198.75" y="396">disjunction</text></g><path d="M5255.5 392h10" /><g>
<path d="M5265.5 392h0.0" /><path d="M5709.0 392h0.0" /><path d="M5265.5 392a10 10 0 0 0 10 -10v0a10 10 0 0 1 10 -10" /><g>
<path d="M5285.5 372h403.5" /></g><path d="M5689.0 372a10 10 0 0 1 10 10v0a10 10 0 0 0 10 10" /><path d="M5265.5 392h20" /><g>
<path d="M5285.5 392h0.0" /><path d="M5689.0 392h0.0" /><g class="terminal ">
<path d="M5285.5 392h0.0" /><path d="M5339.5 392h0.0" /><rect height="22" rx="10" ry="10" width="54" x="5285.5" y="381"></rect><text x="5312.5" y="396">&apos;if&apos;</text></g><path d="M5339.5 392h10" /><path d="M5349.5 392h10" /><g class="non-terminal ">
<path d="M5359.5 392h0.0" /><path d="M5473.0 392h0.0" /><rect height="22" width="113.5" x="5359.5" y="381"></rect><text x="5416.25" y="396">disjunction</text></g><path d="M5473.0 392h10" /><path d="M5483.0 392h10" /><g class="terminal ">
<path d="M5493.0 392h0.0" /><path d="M5564.0 392h0.0" /><rect height="22" rx="10" ry="10" width="71" x="5493" y="381"></rect><text x="5528.5" y="396">&apos;else&apos;</text></g><path d="M5564.0 392h10" /><path d="M5574.0 392h10" /><g class="non-terminal ">
<path d="M5584.0 392h0.0" /><path d="M5689.0 392h0.0" /><rect height="22" width="105" x="5584" y="381"></rect><text x="5636.5" y="396">expression</text></g></g><path d="M5689.0 392h20" /></g></g><path d="M5709.0 392h20" /><path d="M5122.0 392a10 10 0 0 1 10 10v10a10 10 0 0 0 10 10" /><g class="non-terminal ">
<path d="M5142.0 422h243.75" /><path d="M5465.25 422h243.75" /><rect height="22" width="79.5" x="5385.75" y="411"></rect><text x="5425.5" y="426">lambdef</text></g><path d="M5709.0 422a10 10 0 0 0 10 -10v-10a10 10 0 0 1 10 -10" /></g><g class="non-terminal ">
<path d="M5122.0 356h0.0" /><path d="M5202.0 356h0.0" /><text class="comment" x="5162" y="361">expression</text></g></g></g><path d="M5729.0 392h20" /></g></g><path d="M5749.0 392h20" /><path d="M4660.0 392a10 10 0 0 1 10 10v48a10 10 0 0 0 10 10" /><g class="non-terminal ">
<path d="M4680.0 460h494.75" /><path d="M5254.25 460h494.75" /><rect height="22" width="79.5" x="5174.75" y="449"></rect><text x="5214.5" y="464">lambdef</text></g><path d="M5749.0 460a10 10 0 0 0 10 -10v-48a10 10 0 0 1 10 -10" /></g><g class="non-terminal ">
<path d="M4660.0 324h0.0" /><path d="M4740.0 324h0.0" /><text class="comment" x="4700" y="329">expression</text></g></g></g><path d="M5769.0 392h20" /></g></g><path d="M5789.0 392h20" /><path d="M4198.0 392a10 10 0 0 1 10 10v86a10 10 0 0 0 10 10" /><g class="non-terminal ">
<path d="M4218.0 498h745.75" /><path d="M5043.25 498h745.75" /><rect height="22" width="79.5" x="4963.75" y="487"></rect><text x="5003.5" y="502">lambdef</text></g><path d="M5789.0 498a10 10 0 0 0 10 -10v-86a10 10 0 0 1 10 -10" /></g><g class="non-terminal ">
<path d="M4198.0 292h0.0" /><path d="M4278.0 292h0.0" /><text class="comment" x="4238" y="297">expression</text></g></g></g><path d="M5809.0 392h20" /></g></g><path d="M5829.0 392h20" /><path d="M3736.0 392a10 10 0 0 1 10 10v124a10 10 0 0 0 10 10" /><g class="non-terminal ">
<path d="M3756.0 536h996.75" /><path d="M4832.25 536h996.75" /><rect height="22" width="79.5" x="4752.75" y="525"></rect><text x="4792.5" y="540">lambdef</text></g><path d="M5829.0 536a10 10 0 0 0 10 -10v-124a10 10 0 0 1 10 -10" /></g><g class="non-terminal ">
<path d="M3736.0 260h0.0" /><path d="M3816.0 260h0.0" /><text class="comment" x="3776" y="265">expression</text></g></g></g><path d="M5849.0 392h20" /></g></g><path d="M5869.0 392h20" /><path d="M3274.0 392a10 10 0 0 1 10 10v162a10 10 0 0 0 10 10" /><g class="non-terminal ">
<path d="M3294.0 574h1247.75" /><path d="M4621.25 574h1247.75" /><rect height="22" width="79.5" x="4541.75" y="563"></rect><text x="4581.5" y="578">lambdef</text></g><path d="M5869.0 574a10 10 0 0 0 10 -10v-162a10 10 0 0 1 10 -10" /></g><g class="non-terminal ">
<path d="M3274.0 228h0.0" /><path d="M3354.0 228h0.0" /><text class="comment" x="3314" y="233">expression</text></g></g></g><path d="M5889.0 392h20" /></g></g><path d="M5909.0 392h20" /><path d="M2812.0 392a10 10 0 0 1 10 10v200a10 10 0 0 0 10 10" /><g class="non-terminal ">
<path d="M2832.0 612h1498.75" /><path d="M4410.25 612h1498.75" /><rect height="22" width="79.5" x="4330.75" y="601"></rect><text x="4370.5" y="616">lambdef</text></g><path d="M5909.0 612a10 10 0 0 0 10 -10v-200a10 10 0 0 1 10 -10" /></g><g class="non-terminal ">
<path d="M2812.0 196h0.0" /><path d="M2892.0 196h0.0" /><text class="comment" x="2852" y="201">expression</text></g></g></g><path d="M5929.0 392h20" /></g></g><path d="M5949.0 392h20" /><path d="M2350.0 392a10 10 0 0 1 10 10v238a10 10 0 0 0 10 10" /><g class="non-terminal ">
<path d="M2370.0 650h1749.75" /><path d="M4199.25 650h1749.75" /><rect height="22" width="79.5" x="4119.75" y="639"></rect><text x="4159.5" y="654">lambdef</text></g><path d="M5949.0 650a10 10 0 0 0 10 -10v-238a10 10 0 0 1 10 -10" /></g><g class="non-terminal ">
<path d="M2350.0 164h0.0" /><path d="M2430.0 164h0.0" /><text class="comment" x="2390" y="169">expression</text></g></g></g><path d="M5969.0 392h20" /></g></g><path d="M5989.0 392h20" /><path d="M1888.0 392a10 10 0 0 1 10 10v276a10 10 0 0 0 10 10" /><g class="non-terminal ">
<path d="M1908.0 688h2000.75" /><path d="M3988.25 688h2000.75" /><rect height="22" width="79.5" x="3908.75" y="677"></rect><text x="3948.5" y="692">lambdef</text></g><path d="M5989.0 688a10 10 0 0 0 10 -10v-276a10 10 0 0 1 10 -10" /></g><g class="non-terminal ">
<path d="M1888.0 132h0.0" /><path d="M1968.0 132h0.0" /><text class="comment" x="1928" y="137">expression</text></g></g></g><path d="M6009.0 392h20" /></g></g><path d="M6029.0 392h20" /><path d="M1426.0 392a10 10 0 0 1 10 10v314a10 10 0 0 0 10 10" /><g class="non-terminal ">
<path d="M1446.0 726h2251.75" /><path d="M3777.25 726h2251.75" /><rect height="22" width="79.5" x="3697.75" y="715"></rect><text x="3737.5" y="730">lambdef</text></g><path d="M6029.0 726a10 10 0 0 0 10 -10v-314a10 10 0 0 1 10 -10" /></g><g class="non-terminal ">
<path d="M1426.0 100h0.0" /><path d="M1506.0 100h0.0" /><text class="comment" x="1466" y="105">expression</text></g></g></g><path d="M6049.0 392h20" /></g></g><path d="M6069.0 392h20" /><path d="M964.0 392a10 10 0 0 1 10 10v352a10 10 0 0 0 10 10" /><g class="non-terminal ">
<path d="M984.0 764h2502.75" /><path d="M3566.25 764h2502.75" /><rect height="22" width="79.5" x="3486.75" y="753"></rect><text x="3526.5" y="768">lambdef</text></g><path d="M6069.0 764a10 10 0 0 0 10 -10v-352a10 10 0 0 1 10 -10" /></g><g class="non-terminal ">
<path d="M964.0 68h0.0" /><path d="M1044.0 68h0.0" /><text class="comment" x="1004" y="73">expression</text></g></g></g><path d="M6089.0 392h20" /></g></g><path d="M6109.0 392h20" /><path d="M502.0 392a10 10 0 0 1 10 10v390a10 10 0 0 0 10 10" /><g class="non-terminal ">
<path d="M522.0 802h2753.75" /><path d="M3355.25 802h2753.75" /><rect height="22" width="79.5" x="3275.75" y="791"></rect><text x="3315.5" y="806">lambdef</text></g><path d="M6109.0 802a10 10 0 0 0 10 -10v-390a10 10 0 0 1 10 -10" /></g><g class="non-terminal ">
<path d="M502.0 36h0.0" /><path d="M582.0 36h0.0" /><text class="comment" x="542" y="41">expression</text></g></g></g><path d="M6129.0 392h20" /></g></g><path d="M6149.0 392h20" /><path d="M40.0 392a10 10 0 0 1 10 10v428a10 10 0 0 0 10 10" /><g class="non-terminal ">
<path d="M60.0 840h3004.75" /><path d="M3144.25 840h3004.75" /><rect height="22" width="79.5" x="3064.75" y="829"></rect><text x="3104.5" y="844">lambdef</text></g><path d="M6149.0 840a10 10 0 0 0 10 -10v-428a10 10 0 0 1 10 -10" /></g><path d="M 6169.0 392 h 20 m -10 -10 v 20 m 10 -20 v 20"></path></g><style>/* <![CDATA[ */
	svg.railroad-diagram {
		background-color:hsl(30,20%,95%);
	}
	svg.railroad-diagram path {
		stroke-width:3;
		stroke:black;
		fill:rgba(0,0,0,0);
	}
	svg.railroad-diagram text {
		font:bold 14px monospace;
		text-anchor:middle;
	}
	svg.railroad-diagram text.label{
		text-anchor:start;
	}
	svg.railroad-diagram text.comment{
		font:italic 12px monospace;
	}
	svg.railroad-diagram rect{
		stroke-width:3;
		stroke:black;
		fill:hsl(120,100%,90%);
	}
	svg.railroad-diagram rect.group-box {
		stroke: gray;
		stroke-dasharray: 10 5;
		fill: none;
	}

/* ]]> */
</style></svg>