<svg class="railroad-diagram" height="101" viewBox="0 0 898.0 101" width="898.0" xmlns="http://www.w3.org/2000/svg" xmlns:xlink="http://www.w3.org/1999/xlink">
<g transform="translate(.5 .5)">
<g>
<path d="M20 30v20m10 -20v20m-10 -10h231.0" /><text style="text-anchor:start" x="20" y="25">expression_without_invalid</text></g><g>
<path d="M251.0 40h0.0" /><path d="M858.0 40h0.0" /><path d="M251.0 40h20" /><g>
<path d="M271.0 40h0.0" /><path d="M838.0 40h0.0" /><g class="non-terminal ">
<path d="M271.0 40h0.0" /><path d="M384.5 40h0.0" /><rect height="22" width="113.5" x="271" y="29"></rect><text x="327.75" y="44">disjunction</text></g><path d="M384.5 40h10" /><g>
<path d="M394.5 40h0.0" /><path d="M838.0 40h0.0" /><path d="M394.5 40a10 10 0 0 0 10 -10v0a10 10 0 0 1 10 -10" /><g>
<path d="M414.5 20h403.5" /></g><path d="M818.0 20a10 10 0 0 1 10 10v0a10 10 0 0 0 10 10" /><path d="M394.5 40h20" /><g>
<path d="M414.5 40h0.0" /><path d="M818.0 40h0.0" /><g class="terminal ">
<path d="M414.5 40h0.0" /><path d="M468.5 40h0.0" /><rect height="22" rx="10" ry="10" width="54" x="414.5" y="29"></rect><text x="441.5" y="44">&apos;if&apos;</text></g><path d="M468.5 40h10" /><path d="M478.5 40h10" /><g class="non-terminal ">
<path d="M488.5 40h0.0" /><path d="M602.0 40h0.0" /><rect height="22" width="113.5" x="488.5" y="29"></rect><text x="545.25" y="44">disjunction</text></g><path d="M602.0 40h10" /><path d="M612.0 40h10" /><g class="terminal ">
<path d="M622.0 40h0.0" /><path d="M693.0 40h0.0" /><rect height="22" rx="10" ry="10" width="71" x="622" y="29"></rect><text x="657.5" y="44">&apos;else&apos;</text></g><path d="M693.0 40h10" /><path d="M703.0 40h10" /><g class="non-terminal ">
<path d="M713.0 40h0.0" /><path d="M818.0 40h0.0" /><rect height="22" width="105" x="713" y="29"></rect><text x="765.5" y="44">expression</text></g></g><path d="M818.0 40h20" /></g></g><path d="M838.0 40h20" /><path d="M251.0 40a10 10 0 0 1 10 10v10a10 10 0 0 0 10 10" /><g class="non-terminal ">
<path d="M271.0 70h243.75" /><path d="M594.25 70h243.75" /><rect height="22" width="79.5" x="514.75" y="59"></rect><text x="554.5" y="74">lambdef</text></g><path d="M838.0 70a10 10 0 0 0 10 -10v-10a10 10 0 0 1 10 -10" /></g><path d="M 858.0 40 h 20 m -10 -10 v 20 m 10 -20 v 20"></path></g><style>/* <![CDATA[ */
	svg.railroad-diagram {
		background-color:hsl(30,20%,95%);
	}
	svg.railroad-diagram path {
		stroke-width:3;
		stroke:black;
		fill:rgba(0,0,0,0);
	}
	svg.railroad-diagram text {
		font:bold 14px monospace;
		text-anchor:middle;
	}
	svg.railroad-diagram text.label{
		text-anchor:start;
	}
	svg.railroad-diagram text.comment{
		font:italic 12px monospace;
	}
	svg.railroad-diagram rect{
		stroke-width:3;
		stroke:black;
		fill:hsl(120,100%,90%);
	}
	svg.railroad-diagram rect.group-box {
		stroke: gray;
		stroke-dasharray: 10 5;
		fill: none;
	}

/* ]]> */
</style></svg>