<svg class="railroad-diagram" height="214" viewBox="0 0 422.0 214" width="422.0" xmlns="http://www.w3.org/2000/svg" xmlns:xlink="http://www.w3.org/1999/xlink">
<g transform="translate(.5 .5)">
<g>
<path d="M20 45v20m10 -20v20m-10 -10h20" /></g><g>
<path d="M40 55h0.0" /><path d="M382.0 55h0.0" /><path d="M40.0 55h20" /><g>
<path d="M60.0 55h0.0" /><path d="M362.0 55h0.0" /><g>
<path d="M60.0 55h0.0" /><path d="M145.5 55h0.0" /><path d="M60.0 55h20" /><g class="terminal ">
<path d="M80.0 55h0.0" /><path d="M125.5 55h0.0" /><rect height="22" rx="10" ry="10" width="45.5" x="80" y="44"></rect><text x="102.75" y="59">&apos;+&apos;</text></g><path d="M125.5 55h20" /><path d="M60.0 55a10 10 0 0 1 10 10v10a10 10 0 0 0 10 10" /><g class="terminal ">
<path d="M80.0 85h0.0" /><path d="M125.5 85h0.0" /><rect height="22" rx="10" ry="10" width="45.5" x="80" y="74"></rect><text x="102.75" y="89">&apos;-&apos;</text></g><path d="M125.5 85a10 10 0 0 0 10 -10v-10a10 10 0 0 1 10 -10" /><path d="M60.0 55a10 10 0 0 1 10 10v40a10 10 0 0 0 10 10" /><g class="terminal ">
<path d="M80.0 115h0.0" /><path d="M125.5 115h0.0" /><rect height="22" rx="10" ry="10" width="45.5" x="80" y="104"></rect><text x="102.75" y="119">&apos;~&apos;</text></g><path d="M125.5 115a10 10 0 0 0 10 -10v-40a10 10 0 0 1 10 -10" /></g><path d="M145.5 55h10" /><g>
<path d="M155.5 55h0.0" /><path d="M362.0 55h0.0" /><rect class="group-box" height="128" rx="10" ry="10" width="206.5" x="155.5" y="36"></rect><g>
<path d="M155.5 55h0.0" /><path d="M362.0 55h0.0" /><path d="M155.5 55h20" /><g>
<path d="M175.5 55h0.0" /><path d="M342.0 55h0.0" /><g>
<path d="M175.5 55h0.0" /><path d="M261.0 55h0.0" /><path d="M175.5 55h20" /><g class="terminal ">
<path d="M195.5 55h0.0" /><path d="M241.0 55h0.0" /><rect height="22" rx="10" ry="10" width="45.5" x="195.5" y="44"></rect><text x="218.25" y="59">&apos;+&apos;</text></g><path d="M241.0 55h20" /><path d="M175.5 55a10 10 0 0 1 10 10v10a10 10 0 0 0 10 10" /><g class="terminal ">
<path d="M195.5 85h0.0" /><path d="M241.0 85h0.0" /><rect height="22" rx="10" ry="10" width="45.5" x="195.5" y="74"></rect><text x="218.25" y="89">&apos;-&apos;</text></g><path d="M241.0 85a10 10 0 0 0 10 -10v-10a10 10 0 0 1 10 -10" /><path d="M175.5 55a10 10 0 0 1 10 10v40a10 10 0 0 0 10 10" /><g class="terminal ">
<path d="M195.5 115h0.0" /><path d="M241.0 115h0.0" /><rect height="22" rx="10" ry="10" width="45.5" x="195.5" y="104"></rect><text x="218.25" y="119">&apos;~&apos;</text></g><path d="M241.0 115a10 10 0 0 0 10 -10v-40a10 10 0 0 1 10 -10" /></g><path d="M261.0 55h10" /><g class="non-terminal ">
<path d="M271.0 55h0.0" /><path d="M342.0 55h0.0" /><rect height="22" width="71" x="271" y="44"></rect><text x="306.5" y="59">factor</text></g></g><path d="M342.0 55h20" /><path d="M155.5 55a10 10 0 0 1 10 10v70a10 10 0 0 0 10 10" /><g class="non-terminal ">
<path d="M175.5 145h52.0" /><path d="M290.0 145h52.0" /><rect height="22" width="62.5" x="227.5" y="134"></rect><text x="258.75" y="149">power</text></g><path d="M342.0 145a10 10 0 0 0 10 -10v-70a10 10 0 0 1 10 -10" /></g><g class="non-terminal ">
<path d="M155.5 28h0.0" /><path d="M207.5 28h0.0" /><text class="comment" x="181.5" y="33">factor</text></g></g></g><path d="M362.0 55h20" /><path d="M40.0 55a10 10 0 0 1 10 10v108a10 10 0 0 0 10 10" /><g class="non-terminal ">
<path d="M60.0 183h119.75" /><path d="M242.25 183h119.75" /><rect height="22" width="62.5" x="179.75" y="172"></rect><text x="211" y="187">power</text></g><path d="M362.0 183a10 10 0 0 0 10 -10v-108a10 10 0 0 1 10 -10" /></g><path d="M 382.0 55 h 20 m -10 -10 v 20 m 10 -20 v 20"></path></g><style>/* <![CDATA[ */
	svg.railroad-diagram {
		background-color:hsl(30,20%,95%);
	}
	svg.railroad-diagram path {
		stroke-width:3;
		stroke:black;
		fill:rgba(0,0,0,0);
	}
	svg.railroad-diagram text {
		font:bold 14px monospace;
		text-anchor:middle;
	}
	svg.railroad-diagram text.label{
		text-anchor:start;
	}
	svg.railroad-diagram text.comment{
		font:italic 12px monospace;
	}
	svg.railroad-diagram rect{
		stroke-width:3;
		stroke:black;
		fill:hsl(120,100%,90%);
	}
	svg.railroad-diagram rect.group-box {
		stroke: gray;
		stroke-dasharray: 10 5;
		fill: none;
	}

/* ]]> */
</style></svg>