<svg class="railroad-diagram" height="152" viewBox="0 0 327.5 152" width="327.5" xmlns="http://www.w3.org/2000/svg" xmlns:xlink="http://www.w3.org/1999/xlink">
<g transform="translate(.5 .5)">
<g>
<path d="M20 21v20m10 -20v20m-10 -10h61.0" /><text style="text-anchor:start" x="20" y="16">factor</text></g><g>
<path d="M81.0 31h0.0" /><path d="M287.5 31h0.0" /><path d="M81.0 31h20" /><g>
<path d="M101.0 31h0.0" /><path d="M267.5 31h0.0" /><g>
<path d="M101.0 31h0.0" /><path d="M186.5 31h0.0" /><path d="M101.0 31h20" /><g class="terminal ">
<path d="M121.0 31h0.0" /><path d="M166.5 31h0.0" /><rect height="22" rx="10" ry="10" width="45.5" x="121" y="20"></rect><text x="143.75" y="35">&apos;+&apos;</text></g><path d="M166.5 31h20" /><path d="M101.0 31a10 10 0 0 1 10 10v10a10 10 0 0 0 10 10" /><g class="terminal ">
<path d="M121.0 61h0.0" /><path d="M166.5 61h0.0" /><rect height="22" rx="10" ry="10" width="45.5" x="121" y="50"></rect><text x="143.75" y="65">&apos;-&apos;</text></g><path d="M166.5 61a10 10 0 0 0 10 -10v-10a10 10 0 0 1 10 -10" /><path d="M101.0 31a10 10 0 0 1 10 10v40a10 10 0 0 0 10 10" /><g class="terminal ">
<path d="M121.0 91h0.0" /><path d="M166.5 91h0.0" /><rect height="22" rx="10" ry="10" width="45.5" x="121" y="80"></rect><text x="143.75" y="95">&apos;~&apos;</text></g><path d="M166.5 91a10 10 0 0 0 10 -10v-40a10 10 0 0 1 10 -10" /></g><path d="M186.5 31h10" /><g class="non-terminal ">
<path d="M196.5 31h0.0" /><path d="M267.5 31h0.0" /><rect height="22" width="71" x="196.5" y="20"></rect><text x="232" y="35">factor</text></g></g><path d="M267.5 31h20" /><path d="M81.0 31a10 10 0 0 1 10 10v70a10 10 0 0 0 10 10" /><g class="non-terminal ">
<path d="M101.0 121h52.0" /><path d="M215.5 121h52.0" /><rect height="22" width="62.5" x="153" y="110"></rect><text x="184.25" y="125">power</text></g><path d="M267.5 121a10 10 0 0 0 10 -10v-70a10 10 0 0 1 10 -10" /></g><path d="M 287.5 31 h 20 m -10 -10 v 20 m 10 -20 v 20"></path></g><style>/* <![CDATA[ */
	svg.railroad-diagram {
		background-color:hsl(30,20%,95%);
	}
	svg.railroad-diagram path {
		stroke-width:3;
		stroke:black;
		fill:rgba(0,0,0,0);
	}
	svg.railroad-diagram text {
		font:bold 14px monospace;
		text-anchor:middle;
	}
	svg.railroad-diagram text.label{
		text-anchor:start;
	}
	svg.railroad-diagram text.comment{
		font:italic 12px monospace;
	}
	svg.railroad-diagram rect{
		stroke-width:3;
		stroke:black;
		fill:hsl(120,100%,90%);
	}
	svg.railroad-diagram rect.group-box {
		stroke: gray;
		stroke-dasharray: 10 5;
		fill: none;
	}

/* ]]> */
</style></svg>