<svg class="railroad-diagram" height="80" viewBox="0 0 387.0 80" width="387.0" xmlns="http://www.w3.org/2000/svg" xmlns:xlink="http://www.w3.org/1999/xlink">
<g transform="translate(.5 .5)">
<g>
<path d="M20 30v20m10 -20v20m-10 -10h44.0" /><text style="text-anchor:start" x="20" y="25">file</text></g><path d="M64.0 40h10" /><g>
<path d="M74.0 40h0.0" /><path d="M337.0 40h0.0" /><g>
<path d="M74.0 40h0.0" /><path d="M230.5 40h0.0" /><path d="M74.0 40a10 10 0 0 0 10 -10v0a10 10 0 0 1 10 -10" /><g>
<path d="M94.0 20h116.5" /></g><path d="M210.5 20a10 10 0 0 1 10 10v0a10 10 0 0 0 10 10" /><path d="M74.0 40h20" /><g>
<path d="M94.0 40h0.0" /><path d="M210.5 40h0.0" /><path d="M94.0 40h10" /><g class="non-terminal ">
<path d="M104.0 40h0.0" /><path d="M200.5 40h0.0" /><rect height="22" width="96.5" x="104" y="29"></rect><text x="152.25" y="44">statement</text></g><path d="M200.5 40h10" /><path d="M104.0 40a10 10 0 0 0 -10 10v0a10 10 0 0 0 10 10" /><g>
<path d="M104.0 60h96.5" /></g><path d="M200.5 60a10 10 0 0 0 10 -10v0a10 10 0 0 0 -10 -10" /></g><path d="M210.5 40h20" /></g><path d="M230.5 40h10" /><g class="terminal ">
<path d="M240.5 40h0.0" /><path d="M337.0 40h0.0" /><rect height="22" rx="10" ry="10" width="96.5" x="240.5" y="29"></rect><text x="288.75" y="44">ENDMARKER</text></g></g><path d="M337.0 40h10" /><path d="M 347.0 40 h 20 m -10 -10 v 20 m 10 -20 v 20"></path></g><style>/* <![CDATA[ */
	svg.railroad-diagram {
		background-color:hsl(30,20%,95%);
	}
	svg.railroad-diagram path {
		stroke-width:3;
		stroke:black;
		fill:rgba(0,0,0,0);
	}
	svg.railroad-diagram text {
		font:bold 14px monospace;
		text-anchor:middle;
	}
	svg.railroad-diagram text.label{
		text-anchor:start;
	}
	svg.railroad-diagram text.comment{
		font:italic 12px monospace;
	}
	svg.railroad-diagram rect{
		stroke-width:3;
		stroke:black;
		fill:hsl(120,100%,90%);
	}
	svg.railroad-diagram rect.group-box {
		stroke: gray;
		stroke-dasharray: 10 5;
		fill: none;
	}

/* ]]> */
</style></svg>