<svg class="railroad-diagram" height="71" viewBox="0 0 359.5 71" width="359.5" xmlns="http://www.w3.org/2000/svg" xmlns:xlink="http://www.w3.org/1999/xlink">
<g transform="translate(.5 .5)">
<g>
<path d="M20 21v20m10 -20v20m-10 -10h129.0" /><text style="text-anchor:start" x="20" y="16">for_if_clauses</text></g><path d="M149.0 31h10" /><g>
<path d="M159.0 31h0.0" /><path d="M309.5 31h0.0" /><path d="M159.0 31h10" /><g class="non-terminal ">
<path d="M169.0 31h0.0" /><path d="M299.5 31h0.0" /><rect height="22" width="130.5" x="169" y="20"></rect><text x="234.25" y="35">for_if_clause</text></g><path d="M299.5 31h10" /><path d="M169.0 31a10 10 0 0 0 -10 10v0a10 10 0 0 0 10 10" /><g>
<path d="M169.0 51h130.5" /></g><path d="M299.5 51a10 10 0 0 0 10 -10v0a10 10 0 0 0 -10 -10" /></g><path d="M309.5 31h10" /><path d="M 319.5 31 h 20 m -10 -10 v 20 m 10 -20 v 20"></path></g><style>/* <![CDATA[ */
	svg.railroad-diagram {
		background-color:hsl(30,20%,95%);
	}
	svg.railroad-diagram path {
		stroke-width:3;
		stroke:black;
		fill:rgba(0,0,0,0);
	}
	svg.railroad-diagram text {
		font:bold 14px monospace;
		text-anchor:middle;
	}
	svg.railroad-diagram text.label{
		text-anchor:start;
	}
	svg.railroad-diagram text.comment{
		font:italic 12px monospace;
	}
	svg.railroad-diagram rect{
		stroke-width:3;
		stroke:black;
		fill:hsl(120,100%,90%);
	}
	svg.railroad-diagram rect.group-box {
		stroke: gray;
		stroke-dasharray: 10 5;
		fill: none;
	}

/* ]]> */
</style></svg>