<svg class="railroad-diagram" height="109" viewBox="0 0 681.5 109" width="681.5" xmlns="http://www.w3.org/2000/svg" xmlns:xlink="http://www.w3.org/1999/xlink">
<g transform="translate(.5 .5)">
<g>
<path d="M20 30v20m10 -20v20m-10 -10h20" /></g><path d="M40 40h10" /><g>
<path d="M50 40h0.0" /><path d="M631.5 40h0.0" /><path d="M50.0 40h10" /><g>
<path d="M60.0 40h0.0" /><path d="M621.5 40h0.0" /><g>
<path d="M60.0 40h0.0" /><path d="M179.5 40h0.0" /><path d="M60.0 40a10 10 0 0 0 10 -10v0a10 10 0 0 1 10 -10" /><g>
<path d="M80.0 20h79.5" /></g><path d="M159.5 20a10 10 0 0 1 10 10v0a10 10 0 0 0 10 10" /><path d="M60.0 40h20" /><g class="terminal ">
<path d="M80.0 40h0.0" /><path d="M159.5 40h0.0" /><rect height="22" rx="10" ry="10" width="79.5" x="80" y="29"></rect><text x="119.75" y="44">&apos;async&apos;</text></g><path d="M159.5 40h20" /></g><path d="M179.5 40h10" /><g class="terminal ">
<path d="M189.5 40h0.0" /><path d="M252.0 40h0.0" /><rect height="22" rx="10" ry="10" width="62.5" x="189.5" y="29"></rect><text x="220.75" y="44">&apos;for&apos;</text></g><path d="M252.0 40h10" /><path d="M262.0 40h10" /><g class="non-terminal ">
<path d="M272.0 40h0.0" /><path d="M394.0 40h0.0" /><rect height="22" width="122" x="272" y="29"></rect><text x="333" y="44">star_targets</text></g><path d="M394.0 40h10" /><path d="M404.0 40h10" /><g class="terminal ">
<path d="M414.0 40h0.0" /><path d="M468.0 40h0.0" /><rect height="22" rx="10" ry="10" width="54" x="414" y="29"></rect><text x="441" y="44">&apos;in&apos;</text></g><path d="M468.0 40h10" /><path d="M478.0 40h10" /><g>
<path d="M488.0 40h0.0" /><path d="M621.5 40h0.0" /><path d="M488.0 40h10" /><g class="non-terminal ">
<path d="M498.0 40h0.0" /><path d="M611.5 40h0.0" /><rect height="22" width="113.5" x="498" y="29"></rect><text x="554.75" y="44">disjunction</text></g><path d="M611.5 40h10" /><path d="M498.0 40a10 10 0 0 0 -10 10v10a10 10 0 0 0 10 10" /><g class="terminal ">
<path d="M498.0 70h29.75" /><path d="M581.75 70h29.75" /><rect height="22" rx="10" ry="10" width="54" x="527.75" y="59"></rect><text x="554.75" y="74">&apos;if&apos;</text></g><path d="M611.5 70a10 10 0 0 0 10 -10v-10a10 10 0 0 0 -10 -10" /></g></g><path d="M621.5 40h10" /><path d="M60.0 40a10 10 0 0 0 -10 10v29a10 10 0 0 0 10 10" /><g>
<path d="M60.0 89h561.5" /></g><path d="M621.5 89a10 10 0 0 0 10 -10v-29a10 10 0 0 0 -10 -10" /></g><path d="M631.5 40h10" /><path d="M 641.5 40 h 20 m -10 -10 v 20 m 10 -20 v 20"></path></g><style>/* <![CDATA[ */
	svg.railroad-diagram {
		background-color:hsl(30,20%,95%);
	}
	svg.railroad-diagram path {
		stroke-width:3;
		stroke:black;
		fill:rgba(0,0,0,0);
	}
	svg.railroad-diagram text {
		font:bold 14px monospace;
		text-anchor:middle;
	}
	svg.railroad-diagram text.label{
		text-anchor:start;
	}
	svg.railroad-diagram text.comment{
		font:italic 12px monospace;
	}
	svg.railroad-diagram rect{
		stroke-width:3;
		stroke:black;
		fill:hsl(120,100%,90%);
	}
	svg.railroad-diagram rect.group-box {
		stroke: gray;
		stroke-dasharray: 10 5;
		fill: none;
	}

/* ]]> */
</style></svg>