<svg class="railroad-diagram" height="91" viewBox="0 0 772.0 91" width="772.0" xmlns="http://www.w3.org/2000/svg" xmlns:xlink="http://www.w3.org/1999/xlink">
<g transform="translate(.5 .5)">
<g>
<path d="M20 30v20m10 -20v20m-10 -10h120.5" /><text style="text-anchor:start" x="20" y="25">for_if_clause</text></g><path d="M140.5 40h10" /><g>
<path d="M150.5 40h0.0" /><path d="M722.0 40h0.0" /><g>
<path d="M150.5 40h0.0" /><path d="M270.0 40h0.0" /><path d="M150.5 40a10 10 0 0 0 10 -10v0a10 10 0 0 1 10 -10" /><g>
<path d="M170.5 20h79.5" /></g><path d="M250.0 20a10 10 0 0 1 10 10v0a10 10 0 0 0 10 10" /><path d="M150.5 40h20" /><g class="terminal ">
<path d="M170.5 40h0.0" /><path d="M250.0 40h0.0" /><rect height="22" rx="10" ry="10" width="79.5" x="170.5" y="29"></rect><text x="210.25" y="44">&apos;async&apos;</text></g><path d="M250.0 40h20" /></g><path d="M270.0 40h10" /><g class="terminal ">
<path d="M280.0 40h0.0" /><path d="M342.5 40h0.0" /><rect height="22" rx="10" ry="10" width="62.5" x="280" y="29"></rect><text x="311.25" y="44">&apos;for&apos;</text></g><path d="M342.5 40h10" /><path d="M352.5 40h10" /><g class="non-terminal ">
<path d="M362.5 40h0.0" /><path d="M484.5 40h0.0" /><rect height="22" width="122" x="362.5" y="29"></rect><text x="423.5" y="44">star_targets</text></g><path d="M484.5 40h10" /><path d="M494.5 40h10" /><g class="terminal ">
<path d="M504.5 40h0.0" /><path d="M558.5 40h0.0" /><rect height="22" rx="10" ry="10" width="54" x="504.5" y="29"></rect><text x="531.5" y="44">&apos;in&apos;</text></g><path d="M558.5 40h10" /><g>
<path d="M568.5 40h0.0" /><path d="M722.0 40h0.0" /><path d="M568.5 40h20" /><g>
<path d="M588.5 40h113.5" /></g><path d="M702.0 40h20" /><path d="M568.5 40a10 10 0 0 1 10 10v0a10 10 0 0 0 10 10" /><g class="non-terminal ">
<path d="M588.5 60h0.0" /><path d="M702.0 60h0.0" /><rect height="22" width="113.5" x="588.5" y="49"></rect><text x="645.25" y="64">disjunction</text></g><path d="M702.0 60a10 10 0 0 0 10 -10v0a10 10 0 0 1 10 -10" /></g></g><path d="M722.0 40h10" /><path d="M 732.0 40 h 20 m -10 -10 v 20 m 10 -20 v 20"></path></g><style>/* <![CDATA[ */
	svg.railroad-diagram {
		background-color:hsl(30,20%,95%);
	}
	svg.railroad-diagram path {
		stroke-width:3;
		stroke:black;
		fill:rgba(0,0,0,0);
	}
	svg.railroad-diagram text {
		font:bold 14px monospace;
		text-anchor:middle;
	}
	svg.railroad-diagram text.label{
		text-anchor:start;
	}
	svg.railroad-diagram text.comment{
		font:italic 12px monospace;
	}
	svg.railroad-diagram rect{
		stroke-width:3;
		stroke:black;
		fill:hsl(120,100%,90%);
	}
	svg.railroad-diagram rect.group-box {
		stroke: gray;
		stroke-dasharray: 10 5;
		fill: none;
	}

/* ]]> */
</style></svg>