<svg class="railroad-diagram" height="71" viewBox="0 0 1045.0 71" width="1045.0" xmlns="http://www.w3.org/2000/svg" xmlns:xlink="http://www.w3.org/1999/xlink">
<g transform="translate(.5 .5)">
<g>
<path d="M20 30v20m10 -20v20m-10 -10h78.0" /><text style="text-anchor:start" x="20" y="25">for_stmt</text></g><path d="M98.0 40h10" /><g>
<path d="M108.0 40h0.0" /><path d="M995.0 40h0.0" /><g>
<path d="M108.0 40h0.0" /><path d="M227.5 40h0.0" /><path d="M108.0 40a10 10 0 0 0 10 -10v0a10 10 0 0 1 10 -10" /><g>
<path d="M128.0 20h79.5" /></g><path d="M207.5 20a10 10 0 0 1 10 10v0a10 10 0 0 0 10 10" /><path d="M108.0 40h20" /><g class="terminal ">
<path d="M128.0 40h0.0" /><path d="M207.5 40h0.0" /><rect height="22" rx="10" ry="10" width="79.5" x="128" y="29"></rect><text x="167.75" y="44">&apos;async&apos;</text></g><path d="M207.5 40h20" /></g><path d="M227.5 40h10" /><g class="terminal ">
<path d="M237.5 40h0.0" /><path d="M300.0 40h0.0" /><rect height="22" rx="10" ry="10" width="62.5" x="237.5" y="29"></rect><text x="268.75" y="44">&apos;for&apos;</text></g><path d="M300.0 40h10" /><path d="M310.0 40h10" /><g class="non-terminal ">
<path d="M320.0 40h0.0" /><path d="M442.0 40h0.0" /><rect height="22" width="122" x="320" y="29"></rect><text x="381" y="44">star_targets</text></g><path d="M442.0 40h10" /><path d="M452.0 40h10" /><g class="terminal ">
<path d="M462.0 40h0.0" /><path d="M516.0 40h0.0" /><rect height="22" rx="10" ry="10" width="54" x="462" y="29"></rect><text x="489" y="44">&apos;in&apos;</text></g><path d="M516.0 40h10" /><path d="M526.0 40h10" /><g class="non-terminal ">
<path d="M536.0 40h0.0" /><path d="M692.0 40h0.0" /><rect height="22" width="156" x="536" y="29"></rect><text x="614" y="44">star_expressions</text></g><path d="M692.0 40h10" /><path d="M702.0 40h10" /><g class="terminal ">
<path d="M712.0 40h0.0" /><path d="M757.5 40h0.0" /><rect height="22" rx="10" ry="10" width="45.5" x="712" y="29"></rect><text x="734.75" y="44">&apos;:&apos;</text></g><path d="M757.5 40h10" /><path d="M767.5 40h10" /><g class="non-terminal ">
<path d="M777.5 40h0.0" /><path d="M840.0 40h0.0" /><rect height="22" width="62.5" x="777.5" y="29"></rect><text x="808.75" y="44">block</text></g><path d="M840.0 40h10" /><g>
<path d="M850.0 40h0.0" /><path d="M995.0 40h0.0" /><path d="M850.0 40a10 10 0 0 0 10 -10v0a10 10 0 0 1 10 -10" /><g>
<path d="M870.0 20h105.0" /></g><path d="M975.0 20a10 10 0 0 1 10 10v0a10 10 0 0 0 10 10" /><path d="M850.0 40h20" /><g class="non-terminal ">
<path d="M870.0 40h0.0" /><path d="M975.0 40h0.0" /><rect height="22" width="105" x="870" y="29"></rect><text x="922.5" y="44">else_block</text></g><path d="M975.0 40h20" /></g></g><path d="M995.0 40h10" /><path d="M 1005.0 40 h 20 m -10 -10 v 20 m 10 -20 v 20"></path></g><style>/* <![CDATA[ */
	svg.railroad-diagram {
		background-color:hsl(30,20%,95%);
	}
	svg.railroad-diagram path {
		stroke-width:3;
		stroke:black;
		fill:rgba(0,0,0,0);
	}
	svg.railroad-diagram text {
		font:bold 14px monospace;
		text-anchor:middle;
	}
	svg.railroad-diagram text.label{
		text-anchor:start;
	}
	svg.railroad-diagram text.comment{
		font:italic 12px monospace;
	}
	svg.railroad-diagram rect{
		stroke-width:3;
		stroke:black;
		fill:hsl(120,100%,90%);
	}
	svg.railroad-diagram rect.group-box {
		stroke: gray;
		stroke-dasharray: 10 5;
		fill: none;
	}

/* ]]> */
</style></svg>