<svg class="railroad-diagram" height="71" viewBox="0 0 987.0 71" width="987.0" xmlns="http://www.w3.org/2000/svg" xmlns:xlink="http://www.w3.org/1999/xlink">
<g transform="translate(.5 .5)">
<g>
<path d="M20 30v20m10 -20v20m-10 -10h20" /></g><path d="M40 40h10" /><g>
<path d="M50 40h0.0" /><path d="M937.0 40h0.0" /><g>
<path d="M50.0 40h0.0" /><path d="M169.5 40h0.0" /><path d="M50.0 40a10 10 0 0 0 10 -10v0a10 10 0 0 1 10 -10" /><g>
<path d="M70.0 20h79.5" /></g><path d="M149.5 20a10 10 0 0 1 10 10v0a10 10 0 0 0 10 10" /><path d="M50.0 40h20" /><g class="terminal ">
<path d="M70.0 40h0.0" /><path d="M149.5 40h0.0" /><rect height="22" rx="10" ry="10" width="79.5" x="70" y="29"></rect><text x="109.75" y="44">&apos;async&apos;</text></g><path d="M149.5 40h20" /></g><path d="M169.5 40h10" /><g class="terminal ">
<path d="M179.5 40h0.0" /><path d="M242.0 40h0.0" /><rect height="22" rx="10" ry="10" width="62.5" x="179.5" y="29"></rect><text x="210.75" y="44">&apos;for&apos;</text></g><path d="M242.0 40h10" /><path d="M252.0 40h10" /><g class="non-terminal ">
<path d="M262.0 40h0.0" /><path d="M384.0 40h0.0" /><rect height="22" width="122" x="262" y="29"></rect><text x="323" y="44">star_targets</text></g><path d="M384.0 40h10" /><path d="M394.0 40h10" /><g class="terminal ">
<path d="M404.0 40h0.0" /><path d="M458.0 40h0.0" /><rect height="22" rx="10" ry="10" width="54" x="404" y="29"></rect><text x="431" y="44">&apos;in&apos;</text></g><path d="M458.0 40h10" /><path d="M468.0 40h10" /><g class="non-terminal ">
<path d="M478.0 40h0.0" /><path d="M634.0 40h0.0" /><rect height="22" width="156" x="478" y="29"></rect><text x="556" y="44">star_expressions</text></g><path d="M634.0 40h10" /><path d="M644.0 40h10" /><g class="terminal ">
<path d="M654.0 40h0.0" /><path d="M699.5 40h0.0" /><rect height="22" rx="10" ry="10" width="45.5" x="654" y="29"></rect><text x="676.75" y="44">&apos;:&apos;</text></g><path d="M699.5 40h10" /><path d="M709.5 40h10" /><g class="non-terminal ">
<path d="M719.5 40h0.0" /><path d="M782.0 40h0.0" /><rect height="22" width="62.5" x="719.5" y="29"></rect><text x="750.75" y="44">block</text></g><path d="M782.0 40h10" /><g>
<path d="M792.0 40h0.0" /><path d="M937.0 40h0.0" /><path d="M792.0 40a10 10 0 0 0 10 -10v0a10 10 0 0 1 10 -10" /><g>
<path d="M812.0 20h105.0" /></g><path d="M917.0 20a10 10 0 0 1 10 10v0a10 10 0 0 0 10 10" /><path d="M792.0 40h20" /><g class="non-terminal ">
<path d="M812.0 40h0.0" /><path d="M917.0 40h0.0" /><rect height="22" width="105" x="812" y="29"></rect><text x="864.5" y="44">else_block</text></g><path d="M917.0 40h20" /></g></g><path d="M937.0 40h10" /><path d="M 947.0 40 h 20 m -10 -10 v 20 m 10 -20 v 20"></path></g><style>/* <![CDATA[ */
	svg.railroad-diagram {
		background-color:hsl(30,20%,95%);
	}
	svg.railroad-diagram path {
		stroke-width:3;
		stroke:black;
		fill:rgba(0,0,0,0);
	}
	svg.railroad-diagram text {
		font:bold 14px monospace;
		text-anchor:middle;
	}
	svg.railroad-diagram text.label{
		text-anchor:start;
	}
	svg.railroad-diagram text.comment{
		font:italic 12px monospace;
	}
	svg.railroad-diagram rect{
		stroke-width:3;
		stroke:black;
		fill:hsl(120,100%,90%);
	}
	svg.railroad-diagram rect.group-box {
		stroke: gray;
		stroke-dasharray: 10 5;
		fill: none;
	}

/* ]]> */
</style></svg>