<svg class="railroad-diagram" height="117" viewBox="0 0 1237.0 117" width="1237.0" xmlns="http://www.w3.org/2000/svg" xmlns:xlink="http://www.w3.org/1999/xlink">
<g transform="translate(.5 .5)">
<g>
<path d="M20 38v20m10 -20v20m-10 -10h222.5" /><text style="text-anchor:start" x="20" y="33">fstring_replacement_field</text></g><path d="M242.5 48h10" /><g>
<path d="M252.5 48h0.0" /><path d="M1187.0 48h0.0" /><g class="terminal ">
<path d="M252.5 48h0.0" /><path d="M298.0 48h0.0" /><rect height="22" rx="10" ry="10" width="45.5" x="252.5" y="37"></rect><text x="275.25" y="52">&apos;{&apos;</text></g><path d="M298.0 48h10" /><path d="M308.0 48h10" /><g class="non-terminal ">
<path d="M318.0 48h0.0" /><path d="M448.5 48h0.0" /><rect height="22" width="130.5" x="318" y="37"></rect><text x="383.25" y="52">annotated_rhs</text></g><path d="M448.5 48h10" /><g>
<path d="M458.5 48h0.0" /><path d="M544.0 48h0.0" /><path d="M458.5 48a10 10 0 0 0 10 -10v0a10 10 0 0 1 10 -10" /><g>
<path d="M478.5 28h45.5" /></g><path d="M524.0 28a10 10 0 0 1 10 10v0a10 10 0 0 0 10 10" /><path d="M458.5 48h20" /><g class="terminal ">
<path d="M478.5 48h0.0" /><path d="M524.0 48h0.0" /><rect height="22" rx="10" ry="10" width="45.5" x="478.5" y="37"></rect><text x="501.25" y="52">&apos;=&apos;</text></g><path d="M524.0 48h20" /></g><g>
<path d="M544.0 48h0.0" /><path d="M703.5 48h0.0" /><path d="M544.0 48a10 10 0 0 0 10 -10v0a10 10 0 0 1 10 -10" /><g>
<path d="M564.0 28h119.5" /></g><path d="M683.5 28a10 10 0 0 1 10 10v0a10 10 0 0 0 10 10" /><path d="M544.0 48h20" /><g>
<path d="M564.0 48h0.0" /><path d="M683.5 48h0.0" /><g class="terminal ">
<path d="M564.0 48h0.0" /><path d="M609.5 48h0.0" /><rect height="22" rx="10" ry="10" width="45.5" x="564" y="37"></rect><text x="586.75" y="52">&quot;!&quot;</text></g><path d="M609.5 48h10" /><path d="M619.5 48h10" /><g class="terminal ">
<path d="M629.5 48h0.0" /><path d="M683.5 48h0.0" /><rect height="22" rx="10" ry="10" width="54" x="629.5" y="37"></rect><text x="656.5" y="52">NAME</text></g></g><path d="M683.5 48h20" /></g><g>
<path d="M703.5 48h0.0" /><path d="M1131.5 48h0.0" /><path d="M703.5 48a10 10 0 0 0 10 -10v-8a10 10 0 0 1 10 -10" /><g>
<path d="M723.5 20h388.0" /></g><path d="M1111.5 20a10 10 0 0 1 10 10v8a10 10 0 0 0 10 10" /><path d="M703.5 48h20" /><g>
<path d="M723.5 48h0.0" /><path d="M1111.5 48h0.0" /><g class="terminal ">
<path d="M723.5 48h0.0" /><path d="M769.0 48h0.0" /><rect height="22" rx="10" ry="10" width="45.5" x="723.5" y="37"></rect><text x="746.25" y="52">&apos;:&apos;</text></g><path d="M769.0 48h10" /><g>
<path d="M779.0 48h0.0" /><path d="M1111.5 48h0.0" /><path d="M779.0 48a10 10 0 0 0 10 -10v0a10 10 0 0 1 10 -10" /><g>
<path d="M799.0 28h292.5" /></g><path d="M1091.5 28a10 10 0 0 1 10 10v0a10 10 0 0 0 10 10" /><path d="M779.0 48h20" /><g>
<path d="M799.0 48h0.0" /><path d="M1091.5 48h0.0" /><path d="M799.0 48h10" /><g>
<path d="M809.0 48h0.0" /><path d="M1081.5 48h0.0" /><path d="M809.0 48h20" /><g class="terminal ">
<path d="M829.0 48h46.75" /><path d="M1014.75 48h46.75" /><rect height="22" rx="10" ry="10" width="139" x="875.75" y="37"></rect><text x="945.25" y="52">FSTRING_MIDDLE</text></g><path d="M1061.5 48h20" /><path d="M809.0 48a10 10 0 0 1 10 10v10a10 10 0 0 0 10 10" /><g class="non-terminal ">
<path d="M829.0 78h0.0" /><path d="M1061.5 78h0.0" /><rect height="22" width="232.5" x="829" y="67"></rect><text x="945.25" y="82">fstring_replacement_field</text></g><path d="M1061.5 78a10 10 0 0 0 10 -10v-10a10 10 0 0 1 10 -10" /></g><path d="M1081.5 48h10" /><path d="M809.0 48a10 10 0 0 0 -10 10v29a10 10 0 0 0 10 10" /><g>
<path d="M809.0 97h272.5" /></g><path d="M1081.5 97a10 10 0 0 0 10 -10v-29a10 10 0 0 0 -10 -10" /></g><path d="M1091.5 48h20" /></g></g><path d="M1111.5 48h20" /></g><path d="M1131.5 48h10" /><g class="terminal ">
<path d="M1141.5 48h0.0" /><path d="M1187.0 48h0.0" /><rect height="22" rx="10" ry="10" width="45.5" x="1141.5" y="37"></rect><text x="1164.25" y="52">&apos;}&apos;</text></g></g><path d="M1187.0 48h10" /><path d="M 1197.0 48 h 20 m -10 -10 v 20 m 10 -20 v 20"></path></g><style>/* <![CDATA[ */
	svg.railroad-diagram {
		background-color:hsl(30,20%,95%);
	}
	svg.railroad-diagram path {
		stroke-width:3;
		stroke:black;
		fill:rgba(0,0,0,0);
	}
	svg.railroad-diagram text {
		font:bold 14px monospace;
		text-anchor:middle;
	}
	svg.railroad-diagram text.label{
		text-anchor:start;
	}
	svg.railroad-diagram text.comment{
		font:italic 12px monospace;
	}
	svg.railroad-diagram rect{
		stroke-width:3;
		stroke:black;
		fill:hsl(120,100%,90%);
	}
	svg.railroad-diagram rect.group-box {
		stroke: gray;
		stroke-dasharray: 10 5;
		fill: none;
	}

/* ]]> */
</style></svg>