<svg class="railroad-diagram" height="204" viewBox="0 0 1756.5 204" width="1756.5" xmlns="http://www.w3.org/2000/svg" xmlns:xlink="http://www.w3.org/1999/xlink">
<g transform="translate(.5 .5)">
<g>
<path d="M20 38v20m10 -20v20m-10 -10h20" /></g><path d="M40 48h10" /><g>
<path d="M50 48h0.0" /><path d="M1706.5 48h0.0" /><g class="terminal ">
<path d="M50.0 48h0.0" /><path d="M95.5 48h0.0" /><rect height="22" rx="10" ry="10" width="45.5" x="50" y="37"></rect><text x="72.75" y="52">&apos;{&apos;</text></g><path d="M95.5 48h10" /><path d="M105.5 48h10" /><g class="non-terminal ">
<path d="M115.5 48h0.0" /><path d="M246.0 48h0.0" /><rect height="22" width="130.5" x="115.5" y="37"></rect><text x="180.75" y="52">annotated_rhs</text></g><path d="M246.0 48h10" /><g>
<path d="M256.0 48h0.0" /><path d="M341.5 48h0.0" /><path d="M256.0 48a10 10 0 0 0 10 -10v0a10 10 0 0 1 10 -10" /><g>
<path d="M276.0 28h45.5" /></g><path d="M321.5 28a10 10 0 0 1 10 10v0a10 10 0 0 0 10 10" /><path d="M256.0 48h20" /><g class="terminal ">
<path d="M276.0 48h0.0" /><path d="M321.5 48h0.0" /><rect height="22" rx="10" ry="10" width="45.5" x="276" y="37"></rect><text x="298.75" y="52">&apos;=&apos;</text></g><path d="M321.5 48h20" /></g><g>
<path d="M341.5 48h0.0" /><path d="M501.0 48h0.0" /><path d="M341.5 48a10 10 0 0 0 10 -10v0a10 10 0 0 1 10 -10" /><g>
<path d="M361.5 28h119.5" /></g><path d="M481.0 28a10 10 0 0 1 10 10v0a10 10 0 0 0 10 10" /><path d="M341.5 48h20" /><g>
<path d="M361.5 48h0.0" /><path d="M481.0 48h0.0" /><g class="terminal ">
<path d="M361.5 48h0.0" /><path d="M407.0 48h0.0" /><rect height="22" rx="10" ry="10" width="45.5" x="361.5" y="37"></rect><text x="384.25" y="52">&quot;!&quot;</text></g><path d="M407.0 48h10" /><path d="M417.0 48h10" /><g class="terminal ">
<path d="M427.0 48h0.0" /><path d="M481.0 48h0.0" /><rect height="22" rx="10" ry="10" width="54" x="427" y="37"></rect><text x="454" y="52">NAME</text></g></g><path d="M481.0 48h20" /></g><g>
<path d="M501.0 48h0.0" /><path d="M1651.0 48h0.0" /><path d="M501.0 48a10 10 0 0 0 10 -10v-8a10 10 0 0 1 10 -10" /><g>
<path d="M521.0 20h1110.0" /></g><path d="M1631.0 20a10 10 0 0 1 10 10v8a10 10 0 0 0 10 10" /><path d="M501.0 48h20" /><g>
<path d="M521.0 48h0.0" /><path d="M1631.0 48h0.0" /><g class="terminal ">
<path d="M521.0 48h0.0" /><path d="M566.5 48h0.0" /><rect height="22" rx="10" ry="10" width="45.5" x="521" y="37"></rect><text x="543.75" y="52">&apos;:&apos;</text></g><path d="M566.5 48h10" /><g>
<path d="M576.5 48h0.0" /><path d="M1631.0 48h0.0" /><path d="M576.5 48a10 10 0 0 0 10 -10v0a10 10 0 0 1 10 -10" /><g>
<path d="M596.5 28h1014.5" /></g><path d="M1611.0 28a10 10 0 0 1 10 10v0a10 10 0 0 0 10 10" /><path d="M576.5 48h20" /><g>
<path d="M596.5 48h0.0" /><path d="M1611.0 48h0.0" /><path d="M596.5 48h10" /><g>
<path d="M606.5 48h0.0" /><path d="M1601.0 48h0.0" /><path d="M606.5 48h20" /><g class="terminal ">
<path d="M626.5 48h407.75" /><path d="M1173.25 48h407.75" /><rect height="22" rx="10" ry="10" width="139" x="1034.25" y="37"></rect><text x="1103.75" y="52">FSTRING_MIDDLE</text></g><path d="M1581.0 48h20" /><path d="M606.5 48a10 10 0 0 1 10 10v51a10 10 0 0 0 10 10" /><g>
<path d="M626.5 119h0.0" /><path d="M1581.0 119h0.0" /><rect class="group-box" height="93" rx="10" ry="10" width="954.5" x="626.5" y="83"></rect><g>
<path d="M626.5 119h10.0" /><path d="M1571.0 119h10.0" /><g class="terminal ">
<path d="M636.5 119h0.0" /><path d="M682.0 119h0.0" /><rect height="22" rx="10" ry="10" width="45.5" x="636.5" y="108"></rect><text x="659.25" y="123">&apos;{&apos;</text></g><path d="M682.0 119h10" /><path d="M692.0 119h10" /><g class="non-terminal ">
<path d="M702.0 119h0.0" /><path d="M832.5 119h0.0" /><rect height="22" width="130.5" x="702" y="108"></rect><text x="767.25" y="123">annotated_rhs</text></g><path d="M832.5 119h10" /><g>
<path d="M842.5 119h0.0" /><path d="M928.0 119h0.0" /><path d="M842.5 119a10 10 0 0 0 10 -10v0a10 10 0 0 1 10 -10" /><g>
<path d="M862.5 99h45.5" /></g><path d="M908.0 99a10 10 0 0 1 10 10v0a10 10 0 0 0 10 10" /><path d="M842.5 119h20" /><g class="terminal ">
<path d="M862.5 119h0.0" /><path d="M908.0 119h0.0" /><rect height="22" rx="10" ry="10" width="45.5" x="862.5" y="108"></rect><text x="885.25" y="123">&apos;=&apos;</text></g><path d="M908.0 119h20" /></g><g>
<path d="M928.0 119h0.0" /><path d="M1087.5 119h0.0" /><path d="M928.0 119a10 10 0 0 0 10 -10v0a10 10 0 0 1 10 -10" /><g>
<path d="M948.0 99h119.5" /></g><path d="M1067.5 99a10 10 0 0 1 10 10v0a10 10 0 0 0 10 10" /><path d="M928.0 119h20" /><g>
<path d="M948.0 119h0.0" /><path d="M1067.5 119h0.0" /><g class="terminal ">
<path d="M948.0 119h0.0" /><path d="M993.5 119h0.0" /><rect height="22" rx="10" ry="10" width="45.5" x="948" y="108"></rect><text x="970.75" y="123">&quot;!&quot;</text></g><path d="M993.5 119h10" /><path d="M1003.5 119h10" /><g class="terminal ">
<path d="M1013.5 119h0.0" /><path d="M1067.5 119h0.0" /><rect height="22" rx="10" ry="10" width="54" x="1013.5" y="108"></rect><text x="1040.5" y="123">NAME</text></g></g><path d="M1067.5 119h20" /></g><g>
<path d="M1087.5 119h0.0" /><path d="M1515.5 119h0.0" /><path d="M1087.5 119a10 10 0 0 0 10 -10v-8a10 10 0 0 1 10 -10" /><g>
<path d="M1107.5 91h388.0" /></g><path d="M1495.5 91a10 10 0 0 1 10 10v8a10 10 0 0 0 10 10" /><path d="M1087.5 119h20" /><g>
<path d="M1107.5 119h0.0" /><path d="M1495.5 119h0.0" /><g class="terminal ">
<path d="M1107.5 119h0.0" /><path d="M1153.0 119h0.0" /><rect height="22" rx="10" ry="10" width="45.5" x="1107.5" y="108"></rect><text x="1130.25" y="123">&apos;:&apos;</text></g><path d="M1153.0 119h10" /><g>
<path d="M1163.0 119h0.0" /><path d="M1495.5 119h0.0" /><path d="M1163.0 119a10 10 0 0 0 10 -10v0a10 10 0 0 1 10 -10" /><g>
<path d="M1183.0 99h292.5" /></g><path d="M1475.5 99a10 10 0 0 1 10 10v0a10 10 0 0 0 10 10" /><path d="M1163.0 119h20" /><g>
<path d="M1183.0 119h0.0" /><path d="M1475.5 119h0.0" /><path d="M1183.0 119h10" /><g>
<path d="M1193.0 119h0.0" /><path d="M1465.5 119h0.0" /><path d="M1193.0 119h20" /><g class="terminal ">
<path d="M1213.0 119h46.75" /><path d="M1398.75 119h46.75" /><rect height="22" rx="10" ry="10" width="139" x="1259.75" y="108"></rect><text x="1329.25" y="123">FSTRING_MIDDLE</text></g><path d="M1445.5 119h20" /><path d="M1193.0 119a10 10 0 0 1 10 10v10a10 10 0 0 0 10 10" /><g class="non-terminal ">
<path d="M1213.0 149h0.0" /><path d="M1445.5 149h0.0" /><rect height="22" width="232.5" x="1213" y="138"></rect><text x="1329.25" y="153">fstring_replacement_field</text></g><path d="M1445.5 149a10 10 0 0 0 10 -10v-10a10 10 0 0 1 10 -10" /></g><path d="M1465.5 119h10" /><path d="M1193.0 119a10 10 0 0 0 -10 10v29a10 10 0 0 0 10 10" /><g>
<path d="M1193.0 168h272.5" /></g><path d="M1465.5 168a10 10 0 0 0 10 -10v-29a10 10 0 0 0 -10 -10" /></g><path d="M1475.5 119h20" /></g></g><path d="M1495.5 119h20" /></g><path d="M1515.5 119h10" /><g class="terminal ">
<path d="M1525.5 119h0.0" /><path d="M1571.0 119h0.0" /><rect height="22" rx="10" ry="10" width="45.5" x="1525.5" y="108"></rect><text x="1548.25" y="123">&apos;}&apos;</text></g></g><g class="non-terminal ">
<path d="M626.5 75h0.0" /><path d="M811.5 75h0.0" /><text class="comment" x="719" y="80">fstring_replacement_field</text></g></g><path d="M1581.0 119a10 10 0 0 0 10 -10v-51a10 10 0 0 1 10 -10" /></g><path d="M1601.0 48h10" /><path d="M606.5 48a10 10 0 0 0 -10 10v116a10 10 0 0 0 10 10" /><g>
<path d="M606.5 184h994.5" /></g><path d="M1601.0 184a10 10 0 0 0 10 -10v-116a10 10 0 0 0 -10 -10" /></g><path d="M1611.0 48h20" /></g></g><path d="M1631.0 48h20" /></g><path d="M1651.0 48h10" /><g class="terminal ">
<path d="M1661.0 48h0.0" /><path d="M1706.5 48h0.0" /><rect height="22" rx="10" ry="10" width="45.5" x="1661" y="37"></rect><text x="1683.75" y="52">&apos;}&apos;</text></g></g><path d="M1706.5 48h10" /><path d="M 1716.5 48 h 20 m -10 -10 v 20 m 10 -20 v 20"></path></g><style>/* <![CDATA[ */
	svg.railroad-diagram {
		background-color:hsl(30,20%,95%);
	}
	svg.railroad-diagram path {
		stroke-width:3;
		stroke:black;
		fill:rgba(0,0,0,0);
	}
	svg.railroad-diagram text {
		font:bold 14px monospace;
		text-anchor:middle;
	}
	svg.railroad-diagram text.label{
		text-anchor:start;
	}
	svg.railroad-diagram text.comment{
		font:italic 12px monospace;
	}
	svg.railroad-diagram rect{
		stroke-width:3;
		stroke:black;
		fill:hsl(120,100%,90%);
	}
	svg.railroad-diagram rect.group-box {
		stroke: gray;
		stroke-dasharray: 10 5;
		fill: none;
	}

/* ]]> */
</style></svg>