<svg class="railroad-diagram" height="238" viewBox="0 0 1451.5 238" width="1451.5" xmlns="http://www.w3.org/2000/svg" xmlns:xlink="http://www.w3.org/1999/xlink">
<g transform="translate(.5 .5)">
<g>
<path d="M20 38v20m10 -20v20m-10 -10h20" /></g><path d="M40 48h10" /><g>
<path d="M50 48h0.0" /><path d="M1401.5 48h0.0" /><g class="terminal ">
<path d="M50.0 48h0.0" /><path d="M95.5 48h0.0" /><rect height="22" rx="10" ry="10" width="45.5" x="50" y="37"></rect><text x="72.75" y="52">&apos;(&apos;</text></g><path d="M95.5 48h10" /><g>
<path d="M105.5 48h0.0" /><path d="M891.0 48h0.0" /><path d="M105.5 48a10 10 0 0 0 10 -10v-8a10 10 0 0 1 10 -10" /><g>
<path d="M125.5 20h745.5" /></g><path d="M871.0 20a10 10 0 0 1 10 10v8a10 10 0 0 0 10 10" /><path d="M105.5 48h20" /><g>
<path d="M125.5 48h0.0" /><path d="M871.0 48h0.0" /><path d="M125.5 48h20" /><g>
<path d="M145.5 48h0.0" /><path d="M851.0 48h0.0" /><g>
<path d="M145.5 48h0.0" /><path d="M270.5 48h0.0" /><path d="M145.5 48h10" /><g class="non-terminal ">
<path d="M155.5 48h0.0" /><path d="M260.5 48h0.0" /><rect height="22" width="105" x="155.5" y="37"></rect><text x="208" y="52">expression</text></g><path d="M260.5 48h10" /><path d="M155.5 48a10 10 0 0 0 -10 10v10a10 10 0 0 0 10 10" /><g class="terminal ">
<path d="M155.5 78h29.75" /><path d="M230.75 78h29.75" /><rect height="22" rx="10" ry="10" width="45.5" x="185.25" y="67"></rect><text x="208" y="82">&apos;,&apos;</text></g><path d="M260.5 78a10 10 0 0 0 10 -10v-10a10 10 0 0 0 -10 -10" /></g><path d="M270.5 48h10" /><path d="M280.5 48h10" /><g class="terminal ">
<path d="M290.5 48h0.0" /><path d="M336.0 48h0.0" /><rect height="22" rx="10" ry="10" width="45.5" x="290.5" y="37"></rect><text x="313.25" y="52">&apos;,&apos;</text></g><path d="M336.0 48h10" /><g>
<path d="M346.0 48h0.0" /><path d="M851.0 48h0.0" /><path d="M346.0 48h20" /><g>
<path d="M366.0 48h0.0" /><path d="M831.0 48h0.0" /><g class="terminal ">
<path d="M366.0 48h0.0" /><path d="M411.5 48h0.0" /><rect height="22" rx="10" ry="10" width="45.5" x="366" y="37"></rect><text x="388.75" y="52">&apos;*&apos;</text></g><path d="M411.5 48h10" /><path d="M421.5 48h10" /><g class="non-terminal ">
<path d="M431.5 48h0.0" /><path d="M536.5 48h0.0" /><rect height="22" width="105" x="431.5" y="37"></rect><text x="484" y="52">expression</text></g><path d="M536.5 48h10" /><g>
<path d="M546.5 48h0.0" /><path d="M831.0 48h0.0" /><path d="M546.5 48a10 10 0 0 0 10 -10v0a10 10 0 0 1 10 -10" /><g>
<path d="M566.5 28h244.5" /></g><path d="M811.0 28a10 10 0 0 1 10 10v0a10 10 0 0 0 10 10" /><path d="M546.5 48h20" /><g>
<path d="M566.5 48h0.0" /><path d="M811.0 48h0.0" /><g class="terminal ">
<path d="M566.5 48h0.0" /><path d="M612.0 48h0.0" /><rect height="22" rx="10" ry="10" width="45.5" x="566.5" y="37"></rect><text x="589.25" y="52">&apos;,&apos;</text></g><path d="M612.0 48h10" /><path d="M622.0 48h10" /><g class="terminal ">
<path d="M632.0 48h0.0" /><path d="M686.0 48h0.0" /><rect height="22" rx="10" ry="10" width="54" x="632" y="37"></rect><text x="659" y="52">&apos;**&apos;</text></g><path d="M686.0 48h10" /><path d="M696.0 48h10" /><g class="non-terminal ">
<path d="M706.0 48h0.0" /><path d="M811.0 48h0.0" /><rect height="22" width="105" x="706" y="37"></rect><text x="758.5" y="52">expression</text></g></g><path d="M811.0 48h20" /></g></g><path d="M831.0 48h20" /><path d="M346.0 48a10 10 0 0 1 10 10v10a10 10 0 0 0 10 10" /><g>
<path d="M366.0 78h143.0" /><path d="M688.0 78h143.0" /><g class="terminal ">
<path d="M509.0 78h0.0" /><path d="M563.0 78h0.0" /><rect height="22" rx="10" ry="10" width="54" x="509" y="67"></rect><text x="536" y="82">&apos;**&apos;</text></g><path d="M563.0 78h10" /><path d="M573.0 78h10" /><g class="non-terminal ">
<path d="M583.0 78h0.0" /><path d="M688.0 78h0.0" /><rect height="22" width="105" x="583" y="67"></rect><text x="635.5" y="82">expression</text></g></g><path d="M831.0 78a10 10 0 0 0 10 -10v-10a10 10 0 0 1 10 -10" /></g></g><path d="M851.0 48h20" /><path d="M125.5 48a10 10 0 0 1 10 10v49a10 10 0 0 0 10 10" /><g>
<path d="M145.5 117h120.25" /><path d="M730.75 117h120.25" /><g class="terminal ">
<path d="M265.75 117h0.0" /><path d="M311.25 117h0.0" /><rect height="22" rx="10" ry="10" width="45.5" x="265.75" y="106"></rect><text x="288.5" y="121">&apos;*&apos;</text></g><path d="M311.25 117h10" /><path d="M321.25 117h10" /><g class="non-terminal ">
<path d="M331.25 117h0.0" /><path d="M436.25 117h0.0" /><rect height="22" width="105" x="331.25" y="106"></rect><text x="383.75" y="121">expression</text></g><path d="M436.25 117h10" /><g>
<path d="M446.25 117h0.0" /><path d="M730.75 117h0.0" /><path d="M446.25 117a10 10 0 0 0 10 -10v0a10 10 0 0 1 10 -10" /><g>
<path d="M466.25 97h244.5" /></g><path d="M710.75 97a10 10 0 0 1 10 10v0a10 10 0 0 0 10 10" /><path d="M446.25 117h20" /><g>
<path d="M466.25 117h0.0" /><path d="M710.75 117h0.0" /><g class="terminal ">
<path d="M466.25 117h0.0" /><path d="M511.75 117h0.0" /><rect height="22" rx="10" ry="10" width="45.5" x="466.25" y="106"></rect><text x="489" y="121">&apos;,&apos;</text></g><path d="M511.75 117h10" /><path d="M521.75 117h10" /><g class="terminal ">
<path d="M531.75 117h0.0" /><path d="M585.75 117h0.0" /><rect height="22" rx="10" ry="10" width="54" x="531.75" y="106"></rect><text x="558.75" y="121">&apos;**&apos;</text></g><path d="M585.75 117h10" /><path d="M595.75 117h10" /><g class="non-terminal ">
<path d="M605.75 117h0.0" /><path d="M710.75 117h0.0" /><rect height="22" width="105" x="605.75" y="106"></rect><text x="658.25" y="121">expression</text></g></g><path d="M710.75 117h20" /></g></g><path d="M851.0 117a10 10 0 0 0 10 -10v-49a10 10 0 0 1 10 -10" /><path d="M125.5 48a10 10 0 0 1 10 10v79a10 10 0 0 0 10 10" /><g>
<path d="M145.5 147h263.25" /><path d="M587.75 147h263.25" /><g class="terminal ">
<path d="M408.75 147h0.0" /><path d="M462.75 147h0.0" /><rect height="22" rx="10" ry="10" width="54" x="408.75" y="136"></rect><text x="435.75" y="151">&apos;**&apos;</text></g><path d="M462.75 147h10" /><path d="M472.75 147h10" /><g class="non-terminal ">
<path d="M482.75 147h0.0" /><path d="M587.75 147h0.0" /><rect height="22" width="105" x="482.75" y="136"></rect><text x="535.25" y="151">expression</text></g></g><path d="M851.0 147a10 10 0 0 0 10 -10v-79a10 10 0 0 1 10 -10" /><path d="M125.5 48a10 10 0 0 1 10 10v109a10 10 0 0 0 10 10" /><g>
<path d="M145.5 177h290.25" /><path d="M560.75 177h290.25" /><path d="M435.75 177h10" /><g class="non-terminal ">
<path d="M445.75 177h0.0" /><path d="M550.75 177h0.0" /><rect height="22" width="105" x="445.75" y="166"></rect><text x="498.25" y="181">expression</text></g><path d="M550.75 177h10" /><path d="M445.75 177a10 10 0 0 0 -10 10v10a10 10 0 0 0 10 10" /><g class="terminal ">
<path d="M445.75 207h29.75" /><path d="M521.0 207h29.75" /><rect height="22" rx="10" ry="10" width="45.5" x="475.5" y="196"></rect><text x="498.25" y="211">&apos;,&apos;</text></g><path d="M550.75 207a10 10 0 0 0 10 -10v-10a10 10 0 0 0 -10 -10" /></g><path d="M851.0 177a10 10 0 0 0 10 -10v-109a10 10 0 0 1 10 -10" /></g><path d="M871.0 48h20" /></g><path d="M891.0 48h10" /><g class="terminal ">
<path d="M901.0 48h0.0" /><path d="M946.5 48h0.0" /><rect height="22" rx="10" ry="10" width="45.5" x="901" y="37"></rect><text x="923.75" y="52">&apos;)&apos;</text></g><path d="M946.5 48h10" /><path d="M956.5 48h10" /><g class="terminal ">
<path d="M966.5 48h0.0" /><path d="M1020.5 48h0.0" /><rect height="22" rx="10" ry="10" width="54" x="966.5" y="37"></rect><text x="993.5" y="52">&apos;->&apos;</text></g><path d="M1020.5 48h10" /><path d="M1030.5 48h10" /><g class="non-terminal ">
<path d="M1040.5 48h0.0" /><path d="M1145.5 48h0.0" /><rect height="22" width="105" x="1040.5" y="37"></rect><text x="1093" y="52">expression</text></g><path d="M1145.5 48h10" /><g>
<path d="M1155.5 48h0.0" /><path d="M1295.0 48h0.0" /><path d="M1155.5 48a10 10 0 0 0 10 -10v0a10 10 0 0 1 10 -10" /><g>
<path d="M1175.5 28h99.5" /></g><path d="M1275.0 28a10 10 0 0 1 10 10v0a10 10 0 0 0 10 10" /><path d="M1155.5 48h20" /><g>
<path d="M1175.5 48h0.0" /><path d="M1275.0 48h0.0" /><path d="M1175.5 48h10" /><g class="terminal ">
<path d="M1185.5 48h0.0" /><path d="M1265.0 48h0.0" /><rect height="22" rx="10" ry="10" width="79.5" x="1185.5" y="37"></rect><text x="1225.25" y="52">NEWLINE</text></g><path d="M1265.0 48h10" /><path d="M1185.5 48a10 10 0 0 0 -10 10v0a10 10 0 0 0 10 10" /><g>
<path d="M1185.5 68h79.5" /></g><path d="M1265.0 68a10 10 0 0 0 10 -10v0a10 10 0 0 0 -10 -10" /></g><path d="M1275.0 48h20" /></g><path d="M1295.0 48h10" /><g class="terminal ">
<path d="M1305.0 48h0.0" /><path d="M1401.5 48h0.0" /><rect height="22" rx="10" ry="10" width="96.5" x="1305" y="37"></rect><text x="1353.25" y="52">ENDMARKER</text></g></g><path d="M1401.5 48h10" /><path d="M 1411.5 48 h 20 m -10 -10 v 20 m 10 -20 v 20"></path></g><style>/* <![CDATA[ */
	svg.railroad-diagram {
		background-color:hsl(30,20%,95%);
	}
	svg.railroad-diagram path {
		stroke-width:3;
		stroke:black;
		fill:rgba(0,0,0,0);
	}
	svg.railroad-diagram text {
		font:bold 14px monospace;
		text-anchor:middle;
	}
	svg.railroad-diagram text.label{
		text-anchor:start;
	}
	svg.railroad-diagram text.comment{
		font:italic 12px monospace;
	}
	svg.railroad-diagram rect{
		stroke-width:3;
		stroke:black;
		fill:hsl(120,100%,90%);
	}
	svg.railroad-diagram rect.group-box {
		stroke: gray;
		stroke-dasharray: 10 5;
		fill: none;
	}

/* ]]> */
</style></svg>