<svg class="railroad-diagram" height="217" viewBox="0 0 1461.5 217" width="1461.5" xmlns="http://www.w3.org/2000/svg" xmlns:xlink="http://www.w3.org/1999/xlink">
<g transform="translate(.5 .5)">
<g>
<path d="M20 38v20m10 -20v20m-10 -10h20" /></g><path d="M40 48h10" /><g>
<path d="M50 48h0.0" /><path d="M1411.5 48h0.0" /><g class="terminal ">
<path d="M50.0 48h0.0" /><path d="M95.5 48h0.0" /><rect height="22" rx="10" ry="10" width="45.5" x="50" y="37"></rect><text x="72.75" y="52">&apos;(&apos;</text></g><path d="M95.5 48h10" /><g>
<path d="M105.5 48h0.0" /><path d="M901.0 48h0.0" /><path d="M105.5 48a10 10 0 0 0 10 -10v-8a10 10 0 0 1 10 -10" /><g>
<path d="M125.5 20h755.5" /></g><path d="M881.0 20a10 10 0 0 1 10 10v8a10 10 0 0 0 10 10" /><path d="M105.5 48h20" /><g>
<path d="M125.5 48h0.0" /><path d="M881.0 48h0.0" /><path d="M125.5 48h20" /><g>
<path d="M145.5 48h0.0" /><path d="M861.0 48h0.0" /><g>
<path d="M145.5 48h0.0" /><path d="M290.5 48h0.0" /><path d="M145.5 48h20" /><g>
<path d="M165.5 48h105.0" /></g><path d="M270.5 48h20" /><path d="M145.5 48a10 10 0 0 1 10 10v0a10 10 0 0 0 10 10" /><g class="non-terminal ">
<path d="M165.5 68h0.0" /><path d="M270.5 68h0.0" /><rect height="22" width="105" x="165.5" y="57"></rect><text x="218" y="72">expression</text></g><path d="M270.5 68a10 10 0 0 0 10 -10v0a10 10 0 0 1 10 -10" /></g><path d="M290.5 48h10" /><g class="terminal ">
<path d="M300.5 48h0.0" /><path d="M346.0 48h0.0" /><rect height="22" rx="10" ry="10" width="45.5" x="300.5" y="37"></rect><text x="323.25" y="52">&apos;,&apos;</text></g><path d="M346.0 48h10" /><g>
<path d="M356.0 48h0.0" /><path d="M861.0 48h0.0" /><path d="M356.0 48h20" /><g>
<path d="M376.0 48h0.0" /><path d="M841.0 48h0.0" /><g class="terminal ">
<path d="M376.0 48h0.0" /><path d="M421.5 48h0.0" /><rect height="22" rx="10" ry="10" width="45.5" x="376" y="37"></rect><text x="398.75" y="52">&apos;*&apos;</text></g><path d="M421.5 48h10" /><path d="M431.5 48h10" /><g class="non-terminal ">
<path d="M441.5 48h0.0" /><path d="M546.5 48h0.0" /><rect height="22" width="105" x="441.5" y="37"></rect><text x="494" y="52">expression</text></g><path d="M546.5 48h10" /><g>
<path d="M556.5 48h0.0" /><path d="M841.0 48h0.0" /><path d="M556.5 48a10 10 0 0 0 10 -10v0a10 10 0 0 1 10 -10" /><g>
<path d="M576.5 28h244.5" /></g><path d="M821.0 28a10 10 0 0 1 10 10v0a10 10 0 0 0 10 10" /><path d="M556.5 48h20" /><g>
<path d="M576.5 48h0.0" /><path d="M821.0 48h0.0" /><g class="terminal ">
<path d="M576.5 48h0.0" /><path d="M622.0 48h0.0" /><rect height="22" rx="10" ry="10" width="45.5" x="576.5" y="37"></rect><text x="599.25" y="52">&apos;,&apos;</text></g><path d="M622.0 48h10" /><path d="M632.0 48h10" /><g class="terminal ">
<path d="M642.0 48h0.0" /><path d="M696.0 48h0.0" /><rect height="22" rx="10" ry="10" width="54" x="642" y="37"></rect><text x="669" y="52">&apos;**&apos;</text></g><path d="M696.0 48h10" /><path d="M706.0 48h10" /><g class="non-terminal ">
<path d="M716.0 48h0.0" /><path d="M821.0 48h0.0" /><rect height="22" width="105" x="716" y="37"></rect><text x="768.5" y="52">expression</text></g></g><path d="M821.0 48h20" /></g></g><path d="M841.0 48h20" /><path d="M356.0 48a10 10 0 0 1 10 10v10a10 10 0 0 0 10 10" /><g>
<path d="M376.0 78h143.0" /><path d="M698.0 78h143.0" /><g class="terminal ">
<path d="M519.0 78h0.0" /><path d="M573.0 78h0.0" /><rect height="22" rx="10" ry="10" width="54" x="519" y="67"></rect><text x="546" y="82">&apos;**&apos;</text></g><path d="M573.0 78h10" /><path d="M583.0 78h10" /><g class="non-terminal ">
<path d="M593.0 78h0.0" /><path d="M698.0 78h0.0" /><rect height="22" width="105" x="593" y="67"></rect><text x="645.5" y="82">expression</text></g></g><path d="M841.0 78a10 10 0 0 0 10 -10v-10a10 10 0 0 1 10 -10" /></g></g><path d="M861.0 48h20" /><path d="M125.5 48a10 10 0 0 1 10 10v49a10 10 0 0 0 10 10" /><g>
<path d="M145.5 117h125.25" /><path d="M735.75 117h125.25" /><g class="terminal ">
<path d="M270.75 117h0.0" /><path d="M316.25 117h0.0" /><rect height="22" rx="10" ry="10" width="45.5" x="270.75" y="106"></rect><text x="293.5" y="121">&apos;*&apos;</text></g><path d="M316.25 117h10" /><path d="M326.25 117h10" /><g class="non-terminal ">
<path d="M336.25 117h0.0" /><path d="M441.25 117h0.0" /><rect height="22" width="105" x="336.25" y="106"></rect><text x="388.75" y="121">expression</text></g><path d="M441.25 117h10" /><g>
<path d="M451.25 117h0.0" /><path d="M735.75 117h0.0" /><path d="M451.25 117a10 10 0 0 0 10 -10v0a10 10 0 0 1 10 -10" /><g>
<path d="M471.25 97h244.5" /></g><path d="M715.75 97a10 10 0 0 1 10 10v0a10 10 0 0 0 10 10" /><path d="M451.25 117h20" /><g>
<path d="M471.25 117h0.0" /><path d="M715.75 117h0.0" /><g class="terminal ">
<path d="M471.25 117h0.0" /><path d="M516.75 117h0.0" /><rect height="22" rx="10" ry="10" width="45.5" x="471.25" y="106"></rect><text x="494" y="121">&apos;,&apos;</text></g><path d="M516.75 117h10" /><path d="M526.75 117h10" /><g class="terminal ">
<path d="M536.75 117h0.0" /><path d="M590.75 117h0.0" /><rect height="22" rx="10" ry="10" width="54" x="536.75" y="106"></rect><text x="563.75" y="121">&apos;**&apos;</text></g><path d="M590.75 117h10" /><path d="M600.75 117h10" /><g class="non-terminal ">
<path d="M610.75 117h0.0" /><path d="M715.75 117h0.0" /><rect height="22" width="105" x="610.75" y="106"></rect><text x="663.25" y="121">expression</text></g></g><path d="M715.75 117h20" /></g></g><path d="M861.0 117a10 10 0 0 0 10 -10v-49a10 10 0 0 1 10 -10" /><path d="M125.5 48a10 10 0 0 1 10 10v79a10 10 0 0 0 10 10" /><g>
<path d="M145.5 147h268.25" /><path d="M592.75 147h268.25" /><g class="terminal ">
<path d="M413.75 147h0.0" /><path d="M467.75 147h0.0" /><rect height="22" rx="10" ry="10" width="54" x="413.75" y="136"></rect><text x="440.75" y="151">&apos;**&apos;</text></g><path d="M467.75 147h10" /><path d="M477.75 147h10" /><g class="non-terminal ">
<path d="M487.75 147h0.0" /><path d="M592.75 147h0.0" /><rect height="22" width="105" x="487.75" y="136"></rect><text x="540.25" y="151">expression</text></g></g><path d="M861.0 147a10 10 0 0 0 10 -10v-79a10 10 0 0 1 10 -10" /><path d="M125.5 48a10 10 0 0 1 10 10v98a10 10 0 0 0 10 10" /><g>
<path d="M145.5 166h285.25" /><path d="M575.75 166h285.25" /><path d="M430.75 166h20" /><g>
<path d="M450.75 166h105.0" /></g><path d="M555.75 166h20" /><path d="M430.75 166a10 10 0 0 1 10 10v0a10 10 0 0 0 10 10" /><g class="non-terminal ">
<path d="M450.75 186h0.0" /><path d="M555.75 186h0.0" /><rect height="22" width="105" x="450.75" y="175"></rect><text x="503.25" y="190">expression</text></g><path d="M555.75 186a10 10 0 0 0 10 -10v0a10 10 0 0 1 10 -10" /></g><path d="M861.0 166a10 10 0 0 0 10 -10v-98a10 10 0 0 1 10 -10" /></g><path d="M881.0 48h20" /></g><path d="M901.0 48h10" /><g class="terminal ">
<path d="M911.0 48h0.0" /><path d="M956.5 48h0.0" /><rect height="22" rx="10" ry="10" width="45.5" x="911" y="37"></rect><text x="933.75" y="52">&apos;)&apos;</text></g><path d="M956.5 48h10" /><path d="M966.5 48h10" /><g class="terminal ">
<path d="M976.5 48h0.0" /><path d="M1030.5 48h0.0" /><rect height="22" rx="10" ry="10" width="54" x="976.5" y="37"></rect><text x="1003.5" y="52">&apos;->&apos;</text></g><path d="M1030.5 48h10" /><path d="M1040.5 48h10" /><g class="non-terminal ">
<path d="M1050.5 48h0.0" /><path d="M1155.5 48h0.0" /><rect height="22" width="105" x="1050.5" y="37"></rect><text x="1103" y="52">expression</text></g><path d="M1155.5 48h10" /><g>
<path d="M1165.5 48h0.0" /><path d="M1305.0 48h0.0" /><path d="M1165.5 48a10 10 0 0 0 10 -10v0a10 10 0 0 1 10 -10" /><g>
<path d="M1185.5 28h99.5" /></g><path d="M1285.0 28a10 10 0 0 1 10 10v0a10 10 0 0 0 10 10" /><path d="M1165.5 48h20" /><g>
<path d="M1185.5 48h0.0" /><path d="M1285.0 48h0.0" /><path d="M1185.5 48h10" /><g class="terminal ">
<path d="M1195.5 48h0.0" /><path d="M1275.0 48h0.0" /><rect height="22" rx="10" ry="10" width="79.5" x="1195.5" y="37"></rect><text x="1235.25" y="52">NEWLINE</text></g><path d="M1275.0 48h10" /><path d="M1195.5 48a10 10 0 0 0 -10 10v0a10 10 0 0 0 10 10" /><g>
<path d="M1195.5 68h79.5" /></g><path d="M1275.0 68a10 10 0 0 0 10 -10v0a10 10 0 0 0 -10 -10" /></g><path d="M1285.0 48h20" /></g><path d="M1305.0 48h10" /><g class="terminal ">
<path d="M1315.0 48h0.0" /><path d="M1411.5 48h0.0" /><rect height="22" rx="10" ry="10" width="96.5" x="1315" y="37"></rect><text x="1363.25" y="52">ENDMARKER</text></g></g><path d="M1411.5 48h10" /><path d="M 1421.5 48 h 20 m -10 -10 v 20 m 10 -20 v 20"></path></g><style>/* <![CDATA[ */
	svg.railroad-diagram {
		background-color:hsl(30,20%,95%);
	}
	svg.railroad-diagram path {
		stroke-width:3;
		stroke:black;
		fill:rgba(0,0,0,0);
	}
	svg.railroad-diagram text {
		font:bold 14px monospace;
		text-anchor:middle;
	}
	svg.railroad-diagram text.label{
		text-anchor:start;
	}
	svg.railroad-diagram text.comment{
		font:italic 12px monospace;
	}
	svg.railroad-diagram rect{
		stroke-width:3;
		stroke:black;
		fill:hsl(120,100%,90%);
	}
	svg.railroad-diagram rect.group-box {
		stroke: gray;
		stroke-dasharray: 10 5;
		fill: none;
	}

/* ]]> */
</style></svg>