<svg class="railroad-diagram" height="437" viewBox="0 0 2567.0 437" width="2567.0" xmlns="http://www.w3.org/2000/svg" xmlns:xlink="http://www.w3.org/1999/xlink">
<g transform="translate(.5 .5)">
<g>
<path d="M20 77v20m10 -20v20m-10 -10h20" /></g><path d="M40 87h10" /><g>
<path d="M50 87h0.0" /><path d="M2517.0 87h0.0" /><g>
<path d="M50.0 87h0.0" /><path d="M451.0 87h0.0" /><path d="M50.0 87a10 10 0 0 0 10 -10v-23a10 10 0 0 1 10 -10" /><g>
<path d="M70.0 44h361.0" /></g><path d="M431.0 44a10 10 0 0 1 10 10v23a10 10 0 0 0 10 10" /><path d="M50.0 87h20" /><g>
<path d="M70.0 87h0.0" /><path d="M431.0 87h0.0" /><rect class="group-box" height="47" rx="10" ry="10" width="361" x="70" y="68"></rect><g>
<path d="M70.0 87h10.0" /><path d="M421.0 87h10.0" /><path d="M80.0 87h10" /><g>
<path d="M90.0 87h0.0" /><path d="M411.0 87h0.0" /><g class="terminal ">
<path d="M90.0 87h0.0" /><path d="M135.5 87h0.0" /><rect height="22" rx="10" ry="10" width="45.5" x="90" y="76"></rect><text x="112.75" y="91">&apos;@&apos;</text></g><path d="M135.5 87h10" /><path d="M145.5 87h10" /><g class="non-terminal ">
<path d="M155.5 87h0.0" /><path d="M311.5 87h0.0" /><rect height="22" width="156" x="155.5" y="76"></rect><text x="233.5" y="91">named_expression</text></g><path d="M311.5 87h10" /><path d="M321.5 87h10" /><g class="terminal ">
<path d="M331.5 87h0.0" /><path d="M411.0 87h0.0" /><rect height="22" rx="10" ry="10" width="79.5" x="331.5" y="76"></rect><text x="371.25" y="91">NEWLINE</text></g></g><path d="M411.0 87h10" /><path d="M90.0 87a10 10 0 0 0 -10 10v0a10 10 0 0 0 10 10" /><g>
<path d="M90.0 107h321.0" /></g><path d="M411.0 107a10 10 0 0 0 10 -10v0a10 10 0 0 0 -10 -10" /></g><g class="non-terminal ">
<path d="M70.0 60h0.0" /><path d="M150.0 60h0.0" /><text class="comment" x="110" y="65">decorators</text></g></g><path d="M431.0 87h20" /></g><g>
<path d="M451.0 87h0.0" /><path d="M570.5 87h0.0" /><path d="M451.0 87a10 10 0 0 0 10 -10v0a10 10 0 0 1 10 -10" /><g>
<path d="M471.0 67h79.5" /></g><path d="M550.5 67a10 10 0 0 1 10 10v0a10 10 0 0 0 10 10" /><path d="M451.0 87h20" /><g class="terminal ">
<path d="M471.0 87h0.0" /><path d="M550.5 87h0.0" /><rect height="22" rx="10" ry="10" width="79.5" x="471" y="76"></rect><text x="510.75" y="91">&apos;async&apos;</text></g><path d="M550.5 87h20" /></g><path d="M570.5 87h10" /><g class="terminal ">
<path d="M580.5 87h0.0" /><path d="M643.0 87h0.0" /><rect height="22" rx="10" ry="10" width="62.5" x="580.5" y="76"></rect><text x="611.75" y="91">&apos;def&apos;</text></g><path d="M643.0 87h10" /><path d="M653.0 87h10" /><g class="terminal ">
<path d="M663.0 87h0.0" /><path d="M717.0 87h0.0" /><rect height="22" rx="10" ry="10" width="54" x="663" y="76"></rect><text x="690" y="91">NAME</text></g><path d="M717.0 87h10" /><g>
<path d="M727.0 87h0.0" /><path d="M880.5 87h0.0" /><path d="M727.0 87a10 10 0 0 0 10 -10v0a10 10 0 0 1 10 -10" /><g>
<path d="M747.0 67h113.5" /></g><path d="M860.5 67a10 10 0 0 1 10 10v0a10 10 0 0 0 10 10" /><path d="M727.0 87h20" /><g class="non-terminal ">
<path d="M747.0 87h0.0" /><path d="M860.5 87h0.0" /><rect height="22" width="113.5" x="747" y="76"></rect><text x="803.75" y="91">type_params</text></g><path d="M860.5 87h20" /></g><path d="M880.5 87h10" /><g class="terminal ">
<path d="M890.5 87h0.0" /><path d="M936.0 87h0.0" /><rect height="22" rx="10" ry="10" width="45.5" x="890.5" y="76"></rect><text x="913.25" y="91">&apos;(&apos;</text></g><path d="M936.0 87h10" /><g>
<path d="M946.0 87h0.0" /><path d="M2094.5 87h0.0" /><path d="M946.0 87a10 10 0 0 0 10 -10v-47a10 10 0 0 1 10 -10" /><g>
<path d="M966.0 20h1108.5" /></g><path d="M2074.5 20a10 10 0 0 1 10 10v47a10 10 0 0 0 10 10" /><path d="M946.0 87h20" /><g>
<path d="M966.0 87h0.0" /><path d="M2074.5 87h0.0" /><rect class="group-box" height="373" rx="10" ry="10" width="1108.5" x="966" y="44"></rect><g>
<path d="M966.0 87h0.0" /><path d="M2074.5 87h0.0" /><path d="M966.0 87h20" /><g>
<path d="M986.0 87h0.0" /><path d="M2054.5 87h0.0" /><g>
<path d="M986.0 87h0.0" /><path d="M1926.5 87h0.0" /><path d="M986.0 87h20" /><g>
<path d="M1006.0 87h0.0" /><path d="M1906.5 87h0.0" /><g>
<path d="M1006.0 87h0.0" /><path d="M1673.5 87h0.0" /><path d="M1006.0 87h20" /><g>
<path d="M1026.0 87h8.5" /><path d="M1645.0 87h8.5" /><g>
<path d="M1034.5 87h0.0" /><path d="M1419.0 87h0.0" /><rect class="group-box" height="100" rx="10" ry="10" width="384.5" x="1034.5" y="68"></rect><g>
<path d="M1034.5 87h10.0" /><path d="M1409.0 87h10.0" /><g>
<path d="M1044.5 87h0.0" /><path d="M1220.5 87h0.0" /><path d="M1044.5 87h10" /><g class="non-terminal ">
<path d="M1054.5 87h0.0" /><path d="M1210.5 87h0.0" /><rect height="22" width="156" x="1054.5" y="76"></rect><text x="1132.5" y="91">param_no_default</text></g><path d="M1210.5 87h10" /><path d="M1054.5 87a10 10 0 0 0 -10 10v0a10 10 0 0 0 10 10" /><g>
<path d="M1054.5 107h156.0" /></g><path d="M1210.5 107a10 10 0 0 0 10 -10v0a10 10 0 0 0 -10 -10" /></g><path d="M1220.5 87h10" /><path d="M1230.5 87h10" /><g class="terminal ">
<path d="M1240.5 87h0.0" /><path d="M1286.0 87h0.0" /><rect height="22" rx="10" ry="10" width="45.5" x="1240.5" y="76"></rect><text x="1263.25" y="91">&apos;/&apos;</text></g><path d="M1286.0 87h10" /><g>
<path d="M1296.0 87h0.0" /><path d="M1409.0 87h0.0" /><path d="M1296.0 87h20" /><g class="terminal ">
<path d="M1316.0 87h13.75" /><path d="M1375.25 87h13.75" /><rect height="22" rx="10" ry="10" width="45.5" x="1329.75" y="76"></rect><text x="1352.5" y="91">&apos;,&apos;</text></g><path d="M1389.0 87h20" /><path d="M1296.0 87a10 10 0 0 1 10 10v34a10 10 0 0 0 10 10" /><g>
<path d="M1316.0 141h0.0" /><path d="M1389.0 141h0.0" /><rect class="group-box" height="38" rx="10" ry="10" width="73" x="1316" y="122"></rect><g class="terminal ">
<path d="M1316.0 141h13.75" /><path d="M1375.25 141h13.75" /><rect height="22" rx="10" ry="10" width="45.5" x="1329.75" y="130"></rect><text x="1352.5" y="145">&apos;)&apos;</text></g><g class="non-terminal ">
<path d="M1316.0 114h0.0" /><path d="M1389.0 114h0.0" /><text class="comment" x="1352.5" y="119">lookahead</text></g></g><path d="M1389.0 141a10 10 0 0 0 10 -10v-34a10 10 0 0 1 10 -10" /></g></g><g class="non-terminal ">
<path d="M1034.5 60h0.0" /><path d="M1156.5 60h0.0" /><text class="comment" x="1095.5" y="65">slash_no_default</text></g></g><path d="M1419.0 87h10" /><g>
<path d="M1429.0 87h0.0" /><path d="M1645.0 87h0.0" /><path d="M1429.0 87a10 10 0 0 0 10 -10v0a10 10 0 0 1 10 -10" /><g>
<path d="M1449.0 67h176.0" /></g><path d="M1625.0 67a10 10 0 0 1 10 10v0a10 10 0 0 0 10 10" /><path d="M1429.0 87h20" /><g>
<path d="M1449.0 87h0.0" /><path d="M1625.0 87h0.0" /><path d="M1449.0 87h10" /><g class="non-terminal ">
<path d="M1459.0 87h0.0" /><path d="M1615.0 87h0.0" /><rect height="22" width="156" x="1459" y="76"></rect><text x="1537" y="91">param_no_default</text></g><path d="M1615.0 87h10" /><path d="M1459.0 87a10 10 0 0 0 -10 10v0a10 10 0 0 0 10 10" /><g>
<path d="M1459.0 107h156.0" /></g><path d="M1615.0 107a10 10 0 0 0 10 -10v0a10 10 0 0 0 -10 -10" /></g><path d="M1625.0 87h20" /></g></g><path d="M1653.5 87h20" /><path d="M1006.0 87a10 10 0 0 1 10 10v113a10 10 0 0 0 10 10" /><g>
<path d="M1026.0 220h0.0" /><path d="M1653.5 220h0.0" /><rect class="group-box" height="109" rx="10" ry="10" width="627.5" x="1026" y="192"></rect><g>
<path d="M1026.0 220h10.0" /><path d="M1643.5 220h10.0" /><g>
<path d="M1036.0 220h0.0" /><path d="M1252.0 220h0.0" /><path d="M1036.0 220a10 10 0 0 0 10 -10v0a10 10 0 0 1 10 -10" /><g>
<path d="M1056.0 200h176.0" /></g><path d="M1232.0 200a10 10 0 0 1 10 10v0a10 10 0 0 0 10 10" /><path d="M1036.0 220h20" /><g>
<path d="M1056.0 220h0.0" /><path d="M1232.0 220h0.0" /><path d="M1056.0 220h10" /><g class="non-terminal ">
<path d="M1066.0 220h0.0" /><path d="M1222.0 220h0.0" /><rect height="22" width="156" x="1066" y="209"></rect><text x="1144" y="224">param_no_default</text></g><path d="M1222.0 220h10" /><path d="M1066.0 220a10 10 0 0 0 -10 10v0a10 10 0 0 0 10 10" /><g>
<path d="M1066.0 240h156.0" /></g><path d="M1222.0 240a10 10 0 0 0 10 -10v0a10 10 0 0 0 -10 -10" /></g><path d="M1232.0 220h20" /></g><path d="M1252.0 220h10" /><g>
<path d="M1262.0 220h0.0" /><path d="M1455.0 220h0.0" /><path d="M1262.0 220h10" /><g class="non-terminal ">
<path d="M1272.0 220h0.0" /><path d="M1445.0 220h0.0" /><rect height="22" width="173" x="1272" y="209"></rect><text x="1358.5" y="224">param_with_default</text></g><path d="M1445.0 220h10" /><path d="M1272.0 220a10 10 0 0 0 -10 10v0a10 10 0 0 0 10 10" /><g>
<path d="M1272.0 240h173.0" /></g><path d="M1445.0 240a10 10 0 0 0 10 -10v0a10 10 0 0 0 -10 -10" /></g><path d="M1455.0 220h10" /><path d="M1465.0 220h10" /><g class="terminal ">
<path d="M1475.0 220h0.0" /><path d="M1520.5 220h0.0" /><rect height="22" rx="10" ry="10" width="45.5" x="1475" y="209"></rect><text x="1497.75" y="224">&apos;/&apos;</text></g><path d="M1520.5 220h10" /><g>
<path d="M1530.5 220h0.0" /><path d="M1643.5 220h0.0" /><path d="M1530.5 220h20" /><g class="terminal ">
<path d="M1550.5 220h13.75" /><path d="M1609.75 220h13.75" /><rect height="22" rx="10" ry="10" width="45.5" x="1564.25" y="209"></rect><text x="1587" y="224">&apos;,&apos;</text></g><path d="M1623.5 220h20" /><path d="M1530.5 220a10 10 0 0 1 10 10v34a10 10 0 0 0 10 10" /><g>
<path d="M1550.5 274h0.0" /><path d="M1623.5 274h0.0" /><rect class="group-box" height="38" rx="10" ry="10" width="73" x="1550.5" y="255"></rect><g class="terminal ">
<path d="M1550.5 274h13.75" /><path d="M1609.75 274h13.75" /><rect height="22" rx="10" ry="10" width="45.5" x="1564.25" y="263"></rect><text x="1587" y="278">&apos;)&apos;</text></g><g class="non-terminal ">
<path d="M1550.5 247h0.0" /><path d="M1623.5 247h0.0" /><text class="comment" x="1587" y="252">lookahead</text></g></g><path d="M1623.5 274a10 10 0 0 0 10 -10v-34a10 10 0 0 1 10 -10" /></g></g><g class="non-terminal ">
<path d="M1026.0 184h0.0" /><path d="M1162.0 184h0.0" /><text class="comment" x="1094" y="189">slash_with_default</text></g></g><path d="M1653.5 220a10 10 0 0 0 10 -10v-113a10 10 0 0 1 10 -10" /><path d="M1006.0 87a10 10 0 0 1 10 10v213a10 10 0 0 0 10 10" /><g>
<path d="M1026.0 320h225.75" /><path d="M1427.75 320h225.75" /><path d="M1251.75 320h10" /><g class="non-terminal ">
<path d="M1261.75 320h0.0" /><path d="M1417.75 320h0.0" /><rect height="22" width="156" x="1261.75" y="309"></rect><text x="1339.75" y="324">param_no_default</text></g><path d="M1417.75 320h10" /><path d="M1261.75 320a10 10 0 0 0 -10 10v0a10 10 0 0 0 10 10" /><g>
<path d="M1261.75 340h156.0" /></g><path d="M1417.75 340a10 10 0 0 0 10 -10v0a10 10 0 0 0 -10 -10" /></g><path d="M1653.5 320a10 10 0 0 0 10 -10v-213a10 10 0 0 1 10 -10" /></g><g>
<path d="M1673.5 87h0.0" /><path d="M1906.5 87h0.0" /><path d="M1673.5 87a10 10 0 0 0 10 -10v0a10 10 0 0 1 10 -10" /><g>
<path d="M1693.5 67h193.0" /></g><path d="M1886.5 67a10 10 0 0 1 10 10v0a10 10 0 0 0 10 10" /><path d="M1673.5 87h20" /><g>
<path d="M1693.5 87h0.0" /><path d="M1886.5 87h0.0" /><path d="M1693.5 87h10" /><g class="non-terminal ">
<path d="M1703.5 87h0.0" /><path d="M1876.5 87h0.0" /><rect height="22" width="173" x="1703.5" y="76"></rect><text x="1790" y="91">param_with_default</text></g><path d="M1876.5 87h10" /><path d="M1703.5 87a10 10 0 0 0 -10 10v0a10 10 0 0 0 10 10" /><g>
<path d="M1703.5 107h173.0" /></g><path d="M1876.5 107a10 10 0 0 0 10 -10v0a10 10 0 0 0 -10 -10" /></g><path d="M1886.5 87h20" /></g></g><path d="M1906.5 87h20" /><path d="M986.0 87a10 10 0 0 1 10 10v252a10 10 0 0 0 10 10" /><g>
<path d="M1006.0 359h353.75" /><path d="M1552.75 359h353.75" /><path d="M1359.75 359h10" /><g class="non-terminal ">
<path d="M1369.75 359h0.0" /><path d="M1542.75 359h0.0" /><rect height="22" width="173" x="1369.75" y="348"></rect><text x="1456.25" y="363">param_with_default</text></g><path d="M1542.75 359h10" /><path d="M1369.75 359a10 10 0 0 0 -10 10v0a10 10 0 0 0 10 10" /><g>
<path d="M1369.75 379h173.0" /></g><path d="M1542.75 379a10 10 0 0 0 10 -10v0a10 10 0 0 0 -10 -10" /></g><path d="M1906.5 359a10 10 0 0 0 10 -10v-252a10 10 0 0 1 10 -10" /></g><g>
<path d="M1926.5 87h0.0" /><path d="M2054.5 87h0.0" /><path d="M1926.5 87a10 10 0 0 0 10 -10v0a10 10 0 0 1 10 -10" /><g>
<path d="M1946.5 67h88.0" /></g><path d="M2034.5 67a10 10 0 0 1 10 10v0a10 10 0 0 0 10 10" /><path d="M1926.5 87h20" /><g class="non-terminal ">
<path d="M1946.5 87h0.0" /><path d="M2034.5 87h0.0" /><rect height="22" width="88" x="1946.5" y="76"></rect><text x="1990.5" y="91">star_etc</text></g><path d="M2034.5 87h20" /></g></g><path d="M2054.5 87h20" /><path d="M966.0 87a10 10 0 0 1 10 10v291a10 10 0 0 0 10 10" /><g class="non-terminal ">
<path d="M986.0 398h490.25" /><path d="M1564.25 398h490.25" /><rect height="22" width="88" x="1476.25" y="387"></rect><text x="1520.25" y="402">star_etc</text></g><path d="M2054.5 398a10 10 0 0 0 10 -10v-291a10 10 0 0 1 10 -10" /></g><g class="non-terminal ">
<path d="M966.0 36h0.0" /><path d="M1046.0 36h0.0" /><text class="comment" x="1006" y="41">parameters</text></g></g><path d="M2074.5 87h20" /></g><path d="M2094.5 87h10" /><g class="terminal ">
<path d="M2104.5 87h0.0" /><path d="M2150.0 87h0.0" /><rect height="22" rx="10" ry="10" width="45.5" x="2104.5" y="76"></rect><text x="2127.25" y="91">&apos;)&apos;</text></g><path d="M2150.0 87h10" /><g>
<path d="M2160.0 87h0.0" /><path d="M2379.0 87h0.0" /><path d="M2160.0 87a10 10 0 0 0 10 -10v0a10 10 0 0 1 10 -10" /><g>
<path d="M2180.0 67h179.0" /></g><path d="M2359.0 67a10 10 0 0 1 10 10v0a10 10 0 0 0 10 10" /><path d="M2160.0 87h20" /><g>
<path d="M2180.0 87h0.0" /><path d="M2359.0 87h0.0" /><g class="terminal ">
<path d="M2180.0 87h0.0" /><path d="M2234.0 87h0.0" /><rect height="22" rx="10" ry="10" width="54" x="2180" y="76"></rect><text x="2207" y="91">&apos;->&apos;</text></g><path d="M2234.0 87h10" /><path d="M2244.0 87h10" /><g class="non-terminal ">
<path d="M2254.0 87h0.0" /><path d="M2359.0 87h0.0" /><rect height="22" width="105" x="2254" y="76"></rect><text x="2306.5" y="91">expression</text></g></g><path d="M2359.0 87h20" /></g><path d="M2379.0 87h10" /><g class="terminal ">
<path d="M2389.0 87h0.0" /><path d="M2434.5 87h0.0" /><rect height="22" rx="10" ry="10" width="45.5" x="2389" y="76"></rect><text x="2411.75" y="91">&apos;:&apos;</text></g><path d="M2434.5 87h10" /><path d="M2444.5 87h10" /><g class="non-terminal ">
<path d="M2454.5 87h0.0" /><path d="M2517.0 87h0.0" /><rect height="22" width="62.5" x="2454.5" y="76"></rect><text x="2485.75" y="91">block</text></g></g><path d="M2517.0 87h10" /><path d="M 2527.0 87 h 20 m -10 -10 v 20 m 10 -20 v 20"></path></g><style>/* <![CDATA[ */
	svg.railroad-diagram {
		background-color:hsl(30,20%,95%);
	}
	svg.railroad-diagram path {
		stroke-width:3;
		stroke:black;
		fill:rgba(0,0,0,0);
	}
	svg.railroad-diagram text {
		font:bold 14px monospace;
		text-anchor:middle;
	}
	svg.railroad-diagram text.label{
		text-anchor:start;
	}
	svg.railroad-diagram text.comment{
		font:italic 12px monospace;
	}
	svg.railroad-diagram rect{
		stroke-width:3;
		stroke:black;
		fill:hsl(120,100%,90%);
	}
	svg.railroad-diagram rect.group-box {
		stroke: gray;
		stroke-dasharray: 10 5;
		fill: none;
	}

/* ]]> */
</style></svg>