<svg class="railroad-diagram" height="258" viewBox="0 0 2321.5 258" width="2321.5" xmlns="http://www.w3.org/2000/svg" xmlns:xlink="http://www.w3.org/1999/xlink">
<g transform="translate(.5 .5)">
<g>
<path d="M20 62v20m10 -20v20m-10 -10h20" /></g><path d="M40 72h10" /><g>
<path d="M50 72h0.0" /><path d="M2271.5 72h0.0" /><g>
<path d="M50.0 72h0.0" /><path d="M451.0 72h0.0" /><path d="M50.0 72a10 10 0 0 0 10 -10v-23a10 10 0 0 1 10 -10" /><g>
<path d="M70.0 29h361.0" /></g><path d="M431.0 29a10 10 0 0 1 10 10v23a10 10 0 0 0 10 10" /><path d="M50.0 72h20" /><g>
<path d="M70.0 72h0.0" /><path d="M431.0 72h0.0" /><rect class="group-box" height="47" rx="10" ry="10" width="361" x="70" y="53"></rect><g>
<path d="M70.0 72h10.0" /><path d="M421.0 72h10.0" /><path d="M80.0 72h10" /><g>
<path d="M90.0 72h0.0" /><path d="M411.0 72h0.0" /><g class="terminal ">
<path d="M90.0 72h0.0" /><path d="M135.5 72h0.0" /><rect height="22" rx="10" ry="10" width="45.5" x="90" y="61"></rect><text x="112.75" y="76">&apos;@&apos;</text></g><path d="M135.5 72h10" /><path d="M145.5 72h10" /><g class="non-terminal ">
<path d="M155.5 72h0.0" /><path d="M311.5 72h0.0" /><rect height="22" width="156" x="155.5" y="61"></rect><text x="233.5" y="76">named_expression</text></g><path d="M311.5 72h10" /><path d="M321.5 72h10" /><g class="terminal ">
<path d="M331.5 72h0.0" /><path d="M411.0 72h0.0" /><rect height="22" rx="10" ry="10" width="79.5" x="331.5" y="61"></rect><text x="371.25" y="76">NEWLINE</text></g></g><path d="M411.0 72h10" /><path d="M90.0 72a10 10 0 0 0 -10 10v0a10 10 0 0 0 10 10" /><g>
<path d="M90.0 92h321.0" /></g><path d="M411.0 92a10 10 0 0 0 10 -10v0a10 10 0 0 0 -10 -10" /></g><g class="non-terminal ">
<path d="M70.0 45h0.0" /><path d="M150.0 45h0.0" /><text class="comment" x="110" y="50">decorators</text></g></g><path d="M431.0 72h20" /></g><g>
<path d="M451.0 72h0.0" /><path d="M570.5 72h0.0" /><path d="M451.0 72a10 10 0 0 0 10 -10v0a10 10 0 0 1 10 -10" /><g>
<path d="M471.0 52h79.5" /></g><path d="M550.5 52a10 10 0 0 1 10 10v0a10 10 0 0 0 10 10" /><path d="M451.0 72h20" /><g class="terminal ">
<path d="M471.0 72h0.0" /><path d="M550.5 72h0.0" /><rect height="22" rx="10" ry="10" width="79.5" x="471" y="61"></rect><text x="510.75" y="76">&apos;async&apos;</text></g><path d="M550.5 72h20" /></g><path d="M570.5 72h10" /><g class="terminal ">
<path d="M580.5 72h0.0" /><path d="M643.0 72h0.0" /><rect height="22" rx="10" ry="10" width="62.5" x="580.5" y="61"></rect><text x="611.75" y="76">&apos;def&apos;</text></g><path d="M643.0 72h10" /><path d="M653.0 72h10" /><g class="terminal ">
<path d="M663.0 72h0.0" /><path d="M717.0 72h0.0" /><rect height="22" rx="10" ry="10" width="54" x="663" y="61"></rect><text x="690" y="76">NAME</text></g><path d="M717.0 72h10" /><g>
<path d="M727.0 72h0.0" /><path d="M880.5 72h0.0" /><path d="M727.0 72a10 10 0 0 0 10 -10v0a10 10 0 0 1 10 -10" /><g>
<path d="M747.0 52h113.5" /></g><path d="M860.5 52a10 10 0 0 1 10 10v0a10 10 0 0 0 10 10" /><path d="M727.0 72h20" /><g class="non-terminal ">
<path d="M747.0 72h0.0" /><path d="M860.5 72h0.0" /><rect height="22" width="113.5" x="747" y="61"></rect><text x="803.75" y="76">type_params</text></g><path d="M860.5 72h20" /></g><path d="M880.5 72h10" /><g class="terminal ">
<path d="M890.5 72h0.0" /><path d="M936.0 72h0.0" /><rect height="22" rx="10" ry="10" width="45.5" x="890.5" y="61"></rect><text x="913.25" y="76">&apos;(&apos;</text></g><path d="M936.0 72h10" /><g>
<path d="M946.0 72h0.0" /><path d="M1849.0 72h0.0" /><path d="M946.0 72a10 10 0 0 0 10 -10v-32a10 10 0 0 1 10 -10" /><g>
<path d="M966.0 20h863.0" /></g><path d="M1829.0 20a10 10 0 0 1 10 10v32a10 10 0 0 0 10 10" /><path d="M946.0 72h20" /><g>
<path d="M966.0 72h0.0" /><path d="M1829.0 72h0.0" /><rect class="group-box" height="194" rx="10" ry="10" width="863" x="966" y="44"></rect><g>
<path d="M966.0 72h0.0" /><path d="M1829.0 72h0.0" /><path d="M966.0 72h20" /><g>
<path d="M986.0 72h0.0" /><path d="M1809.0 72h0.0" /><g>
<path d="M986.0 72h0.0" /><path d="M1681.0 72h0.0" /><path d="M986.0 72h20" /><g>
<path d="M1006.0 72h0.0" /><path d="M1661.0 72h0.0" /><g>
<path d="M1006.0 72h0.0" /><path d="M1428.0 72h0.0" /><path d="M1006.0 72h20" /><g>
<path d="M1026.0 72h0.0" /><path d="M1408.0 72h0.0" /><g class="non-terminal ">
<path d="M1026.0 72h0.0" /><path d="M1182.0 72h0.0" /><rect height="22" width="156" x="1026" y="61"></rect><text x="1104" y="76">slash_no_default</text></g><path d="M1182.0 72h10" /><g>
<path d="M1192.0 72h0.0" /><path d="M1408.0 72h0.0" /><path d="M1192.0 72a10 10 0 0 0 10 -10v0a10 10 0 0 1 10 -10" /><g>
<path d="M1212.0 52h176.0" /></g><path d="M1388.0 52a10 10 0 0 1 10 10v0a10 10 0 0 0 10 10" /><path d="M1192.0 72h20" /><g>
<path d="M1212.0 72h0.0" /><path d="M1388.0 72h0.0" /><path d="M1212.0 72h10" /><g class="non-terminal ">
<path d="M1222.0 72h0.0" /><path d="M1378.0 72h0.0" /><rect height="22" width="156" x="1222" y="61"></rect><text x="1300" y="76">param_no_default</text></g><path d="M1378.0 72h10" /><path d="M1222.0 72a10 10 0 0 0 -10 10v0a10 10 0 0 0 10 10" /><g>
<path d="M1222.0 92h156.0" /></g><path d="M1378.0 92a10 10 0 0 0 10 -10v0a10 10 0 0 0 -10 -10" /></g><path d="M1388.0 72h20" /></g></g><path d="M1408.0 72h20" /><path d="M1006.0 72a10 10 0 0 1 10 10v19a10 10 0 0 0 10 10" /><g class="non-terminal ">
<path d="M1026.0 111h104.5" /><path d="M1303.5 111h104.5" /><rect height="22" width="173" x="1130.5" y="100"></rect><text x="1217" y="115">slash_with_default</text></g><path d="M1408.0 111a10 10 0 0 0 10 -10v-19a10 10 0 0 1 10 -10" /><path d="M1006.0 72a10 10 0 0 1 10 10v49a10 10 0 0 0 10 10" /><g>
<path d="M1026.0 141h103.0" /><path d="M1305.0 141h103.0" /><path d="M1129.0 141h10" /><g class="non-terminal ">
<path d="M1139.0 141h0.0" /><path d="M1295.0 141h0.0" /><rect height="22" width="156" x="1139" y="130"></rect><text x="1217" y="145">param_no_default</text></g><path d="M1295.0 141h10" /><path d="M1139.0 141a10 10 0 0 0 -10 10v0a10 10 0 0 0 10 10" /><g>
<path d="M1139.0 161h156.0" /></g><path d="M1295.0 161a10 10 0 0 0 10 -10v0a10 10 0 0 0 -10 -10" /></g><path d="M1408.0 141a10 10 0 0 0 10 -10v-49a10 10 0 0 1 10 -10" /></g><g>
<path d="M1428.0 72h0.0" /><path d="M1661.0 72h0.0" /><path d="M1428.0 72a10 10 0 0 0 10 -10v0a10 10 0 0 1 10 -10" /><g>
<path d="M1448.0 52h193.0" /></g><path d="M1641.0 52a10 10 0 0 1 10 10v0a10 10 0 0 0 10 10" /><path d="M1428.0 72h20" /><g>
<path d="M1448.0 72h0.0" /><path d="M1641.0 72h0.0" /><path d="M1448.0 72h10" /><g class="non-terminal ">
<path d="M1458.0 72h0.0" /><path d="M1631.0 72h0.0" /><rect height="22" width="173" x="1458" y="61"></rect><text x="1544.5" y="76">param_with_default</text></g><path d="M1631.0 72h10" /><path d="M1458.0 72a10 10 0 0 0 -10 10v0a10 10 0 0 0 10 10" /><g>
<path d="M1458.0 92h173.0" /></g><path d="M1631.0 92a10 10 0 0 0 10 -10v0a10 10 0 0 0 -10 -10" /></g><path d="M1641.0 72h20" /></g></g><path d="M1661.0 72h20" /><path d="M986.0 72a10 10 0 0 1 10 10v88a10 10 0 0 0 10 10" /><g>
<path d="M1006.0 180h231.0" /><path d="M1430.0 180h231.0" /><path d="M1237.0 180h10" /><g class="non-terminal ">
<path d="M1247.0 180h0.0" /><path d="M1420.0 180h0.0" /><rect height="22" width="173" x="1247" y="169"></rect><text x="1333.5" y="184">param_with_default</text></g><path d="M1420.0 180h10" /><path d="M1247.0 180a10 10 0 0 0 -10 10v0a10 10 0 0 0 10 10" /><g>
<path d="M1247.0 200h173.0" /></g><path d="M1420.0 200a10 10 0 0 0 10 -10v0a10 10 0 0 0 -10 -10" /></g><path d="M1661.0 180a10 10 0 0 0 10 -10v-88a10 10 0 0 1 10 -10" /></g><g>
<path d="M1681.0 72h0.0" /><path d="M1809.0 72h0.0" /><path d="M1681.0 72a10 10 0 0 0 10 -10v0a10 10 0 0 1 10 -10" /><g>
<path d="M1701.0 52h88.0" /></g><path d="M1789.0 52a10 10 0 0 1 10 10v0a10 10 0 0 0 10 10" /><path d="M1681.0 72h20" /><g class="non-terminal ">
<path d="M1701.0 72h0.0" /><path d="M1789.0 72h0.0" /><rect height="22" width="88" x="1701" y="61"></rect><text x="1745" y="76">star_etc</text></g><path d="M1789.0 72h20" /></g></g><path d="M1809.0 72h20" /><path d="M966.0 72a10 10 0 0 1 10 10v127a10 10 0 0 0 10 10" /><g class="non-terminal ">
<path d="M986.0 219h367.5" /><path d="M1441.5 219h367.5" /><rect height="22" width="88" x="1353.5" y="208"></rect><text x="1397.5" y="223">star_etc</text></g><path d="M1809.0 219a10 10 0 0 0 10 -10v-127a10 10 0 0 1 10 -10" /></g><g class="non-terminal ">
<path d="M966.0 36h0.0" /><path d="M1046.0 36h0.0" /><text class="comment" x="1006" y="41">parameters</text></g></g><path d="M1829.0 72h20" /></g><path d="M1849.0 72h10" /><g class="terminal ">
<path d="M1859.0 72h0.0" /><path d="M1904.5 72h0.0" /><rect height="22" rx="10" ry="10" width="45.5" x="1859" y="61"></rect><text x="1881.75" y="76">&apos;)&apos;</text></g><path d="M1904.5 72h10" /><g>
<path d="M1914.5 72h0.0" /><path d="M2133.5 72h0.0" /><path d="M1914.5 72a10 10 0 0 0 10 -10v0a10 10 0 0 1 10 -10" /><g>
<path d="M1934.5 52h179.0" /></g><path d="M2113.5 52a10 10 0 0 1 10 10v0a10 10 0 0 0 10 10" /><path d="M1914.5 72h20" /><g>
<path d="M1934.5 72h0.0" /><path d="M2113.5 72h0.0" /><g class="terminal ">
<path d="M1934.5 72h0.0" /><path d="M1988.5 72h0.0" /><rect height="22" rx="10" ry="10" width="54" x="1934.5" y="61"></rect><text x="1961.5" y="76">&apos;->&apos;</text></g><path d="M1988.5 72h10" /><path d="M1998.5 72h10" /><g class="non-terminal ">
<path d="M2008.5 72h0.0" /><path d="M2113.5 72h0.0" /><rect height="22" width="105" x="2008.5" y="61"></rect><text x="2061" y="76">expression</text></g></g><path d="M2113.5 72h20" /></g><path d="M2133.5 72h10" /><g class="terminal ">
<path d="M2143.5 72h0.0" /><path d="M2189.0 72h0.0" /><rect height="22" rx="10" ry="10" width="45.5" x="2143.5" y="61"></rect><text x="2166.25" y="76">&apos;:&apos;</text></g><path d="M2189.0 72h10" /><path d="M2199.0 72h10" /><g class="non-terminal ">
<path d="M2209.0 72h0.0" /><path d="M2271.5 72h0.0" /><rect height="22" width="62.5" x="2209" y="61"></rect><text x="2240.25" y="76">block</text></g></g><path d="M2271.5 72h10" /><path d="M 2281.5 72 h 20 m -10 -10 v 20 m 10 -20 v 20"></path></g><style>/* <![CDATA[ */
	svg.railroad-diagram {
		background-color:hsl(30,20%,95%);
	}
	svg.railroad-diagram path {
		stroke-width:3;
		stroke:black;
		fill:rgba(0,0,0,0);
	}
	svg.railroad-diagram text {
		font:bold 14px monospace;
		text-anchor:middle;
	}
	svg.railroad-diagram text.label{
		text-anchor:start;
	}
	svg.railroad-diagram text.comment{
		font:italic 12px monospace;
	}
	svg.railroad-diagram rect{
		stroke-width:3;
		stroke:black;
		fill:hsl(120,100%,90%);
	}
	svg.railroad-diagram rect.group-box {
		stroke: gray;
		stroke-dasharray: 10 5;
		fill: none;
	}

/* ]]> */
</style></svg>