<svg class="railroad-diagram" height="92" viewBox="0 0 649.5 92" width="649.5" xmlns="http://www.w3.org/2000/svg" xmlns:xlink="http://www.w3.org/1999/xlink">
<g transform="translate(.5 .5)">
<g>
<path d="M20 21v20m10 -20v20m-10 -10h61.0" /><text style="text-anchor:start" x="20" y="16">genexp</text></g><path d="M81.0 31h10" /><g>
<path d="M91.0 31h0.0" /><path d="M599.5 31h0.0" /><g class="terminal ">
<path d="M91.0 31h0.0" /><path d="M136.5 31h0.0" /><rect height="22" rx="10" ry="10" width="45.5" x="91" y="20"></rect><text x="113.75" y="35">&apos;(&apos;</text></g><path d="M136.5 31h10" /><g>
<path d="M146.5 31h0.0" /><path d="M385.0 31h0.0" /><path d="M146.5 31h20" /><g class="non-terminal ">
<path d="M166.5 31h0.0" /><path d="M365.0 31h0.0" /><rect height="22" width="198.5" x="166.5" y="20"></rect><text x="265.75" y="35">assignment_expression</text></g><path d="M365.0 31h20" /><path d="M146.5 31a10 10 0 0 1 10 10v10a10 10 0 0 0 10 10" /><g class="non-terminal ">
<path d="M166.5 61h46.75" /><path d="M318.25 61h46.75" /><rect height="22" width="105" x="213.25" y="50"></rect><text x="265.75" y="65">expression</text></g><path d="M365.0 61a10 10 0 0 0 10 -10v-10a10 10 0 0 1 10 -10" /></g><path d="M385.0 31h10" /><g class="non-terminal ">
<path d="M395.0 31h0.0" /><path d="M534.0 31h0.0" /><rect height="22" width="139" x="395" y="20"></rect><text x="464.5" y="35">for_if_clauses</text></g><path d="M534.0 31h10" /><path d="M544.0 31h10" /><g class="terminal ">
<path d="M554.0 31h0.0" /><path d="M599.5 31h0.0" /><rect height="22" rx="10" ry="10" width="45.5" x="554" y="20"></rect><text x="576.75" y="35">&apos;)&apos;</text></g></g><path d="M599.5 31h10" /><path d="M 609.5 31 h 20 m -10 -10 v 20 m 10 -20 v 20"></path></g><style>/* <![CDATA[ */
	svg.railroad-diagram {
		background-color:hsl(30,20%,95%);
	}
	svg.railroad-diagram path {
		stroke-width:3;
		stroke:black;
		fill:rgba(0,0,0,0);
	}
	svg.railroad-diagram text {
		font:bold 14px monospace;
		text-anchor:middle;
	}
	svg.railroad-diagram text.label{
		text-anchor:start;
	}
	svg.railroad-diagram text.comment{
		font:italic 12px monospace;
	}
	svg.railroad-diagram rect{
		stroke-width:3;
		stroke:black;
		fill:hsl(120,100%,90%);
	}
	svg.railroad-diagram rect.group-box {
		stroke: gray;
		stroke-dasharray: 10 5;
		fill: none;
	}

/* ]]> */
</style></svg>