<svg class="railroad-diagram" height="82" viewBox="0 0 292.0 82" width="292.0" xmlns="http://www.w3.org/2000/svg" xmlns:xlink="http://www.w3.org/1999/xlink">
<g transform="translate(.5 .5)">
<g>
<path d="M20 21v20m10 -20v20m-10 -10h20" /></g><path d="M40 31h10" /><g>
<path d="M50 31h0.0" /><path d="M242.0 31h0.0" /><g class="terminal ">
<path d="M50.0 31h0.0" /><path d="M138.0 31h0.0" /><rect height="22" rx="10" ry="10" width="88" x="50" y="20"></rect><text x="94" y="35">&apos;global&apos;</text></g><path d="M138.0 31h10" /><g>
<path d="M148.0 31h0.0" /><path d="M242.0 31h0.0" /><path d="M148.0 31h20" /><g>
<path d="M168.0 31h54.0" /></g><path d="M222.0 31h20" /><path d="M148.0 31a10 10 0 0 1 10 10v0a10 10 0 0 0 10 10" /><g class="terminal ">
<path d="M168.0 51h0.0" /><path d="M222.0 51h0.0" /><rect height="22" rx="10" ry="10" width="54" x="168" y="40"></rect><text x="195" y="55">NAME</text></g><path d="M222.0 51a10 10 0 0 0 10 -10v0a10 10 0 0 1 10 -10" /></g></g><path d="M242.0 31h10" /><path d="M 252.0 31 h 20 m -10 -10 v 20 m 10 -20 v 20"></path></g><style>/* <![CDATA[ */
	svg.railroad-diagram {
		background-color:hsl(30,20%,95%);
	}
	svg.railroad-diagram path {
		stroke-width:3;
		stroke:black;
		fill:rgba(0,0,0,0);
	}
	svg.railroad-diagram text {
		font:bold 14px monospace;
		text-anchor:middle;
	}
	svg.railroad-diagram text.label{
		text-anchor:start;
	}
	svg.railroad-diagram text.comment{
		font:italic 12px monospace;
	}
	svg.railroad-diagram rect{
		stroke-width:3;
		stroke:black;
		fill:hsl(120,100%,90%);
	}
	svg.railroad-diagram rect.group-box {
		stroke: gray;
		stroke-dasharray: 10 5;
		fill: none;
	}

/* ]]> */
</style></svg>