<svg class="railroad-diagram" height="154" viewBox="0 0 489.5 154" width="489.5" xmlns="http://www.w3.org/2000/svg" xmlns:xlink="http://www.w3.org/1999/xlink">
<g transform="translate(.5 .5)">
<g>
<path d="M20 21v20m10 -20v20m-10 -10h20" /></g><path d="M40 31h10" /><g>
<path d="M50 31h0.0" /><path d="M439.5 31h0.0" /><g class="terminal ">
<path d="M50.0 31h0.0" /><path d="M95.5 31h0.0" /><rect height="22" rx="10" ry="10" width="45.5" x="50" y="20"></rect><text x="72.75" y="35">&apos;(&apos;</text></g><path d="M95.5 31h10" /><g>
<path d="M105.5 31h0.0" /><path d="M384.0 31h0.0" /><path d="M105.5 31h20" /><g class="non-terminal ">
<path d="M125.5 31h66.75" /><path d="M297.25 31h66.75" /><rect height="22" width="105" x="192.25" y="20"></rect><text x="244.75" y="35">yield_expr</text></g><path d="M364.0 31h20" /><path d="M105.5 31a10 10 0 0 1 10 10v34a10 10 0 0 0 10 10" /><g>
<path d="M125.5 85h0.0" /><path d="M364.0 85h0.0" /><rect class="group-box" height="68" rx="10" ry="10" width="238.5" x="125.5" y="66"></rect><g>
<path d="M125.5 85h0.0" /><path d="M364.0 85h0.0" /><path d="M125.5 85h20" /><g class="non-terminal ">
<path d="M145.5 85h0.0" /><path d="M344.0 85h0.0" /><rect height="22" width="198.5" x="145.5" y="74"></rect><text x="244.75" y="89">assignment_expression</text></g><path d="M344.0 85h20" /><path d="M125.5 85a10 10 0 0 1 10 10v10a10 10 0 0 0 10 10" /><g class="non-terminal ">
<path d="M145.5 115h46.75" /><path d="M297.25 115h46.75" /><rect height="22" width="105" x="192.25" y="104"></rect><text x="244.75" y="119">expression</text></g><path d="M344.0 115a10 10 0 0 0 10 -10v-10a10 10 0 0 1 10 -10" /></g><g class="non-terminal ">
<path d="M125.5 58h0.0" /><path d="M247.5 58h0.0" /><text class="comment" x="186.5" y="63">named_expression</text></g></g><path d="M364.0 85a10 10 0 0 0 10 -10v-34a10 10 0 0 1 10 -10" /></g><path d="M384.0 31h10" /><g class="terminal ">
<path d="M394.0 31h0.0" /><path d="M439.5 31h0.0" /><rect height="22" rx="10" ry="10" width="45.5" x="394" y="20"></rect><text x="416.75" y="35">&apos;)&apos;</text></g></g><path d="M439.5 31h10" /><path d="M 449.5 31 h 20 m -10 -10 v 20 m 10 -20 v 20"></path></g><style>/* <![CDATA[ */
	svg.railroad-diagram {
		background-color:hsl(30,20%,95%);
	}
	svg.railroad-diagram path {
		stroke-width:3;
		stroke:black;
		fill:rgba(0,0,0,0);
	}
	svg.railroad-diagram text {
		font:bold 14px monospace;
		text-anchor:middle;
	}
	svg.railroad-diagram text.label{
		text-anchor:start;
	}
	svg.railroad-diagram text.comment{
		font:italic 12px monospace;
	}
	svg.railroad-diagram rect{
		stroke-width:3;
		stroke:black;
		fill:hsl(120,100%,90%);
	}
	svg.railroad-diagram rect.group-box {
		stroke: gray;
		stroke-dasharray: 10 5;
		fill: none;
	}

/* ]]> */
</style></svg>