<svg class="railroad-diagram" height="171" viewBox="0 0 1178.0 171" width="1178.0" xmlns="http://www.w3.org/2000/svg" xmlns:xlink="http://www.w3.org/1999/xlink">
<g transform="translate(.5 .5)">
<g>
<path d="M20 62v20m10 -20v20m-10 -10h20" /></g><path d="M40 72h10" /><g>
<path d="M50 72h0.0" /><path d="M1128.0 72h0.0" /><g class="terminal ">
<path d="M50.0 72h0.0" /><path d="M104.0 72h0.0" /><rect height="22" rx="10" ry="10" width="54" x="50" y="61"></rect><text x="77" y="76">&apos;if&apos;</text></g><path d="M104.0 72h10" /><path d="M114.0 72h10" /><g class="non-terminal ">
<path d="M124.0 72h0.0" /><path d="M280.0 72h0.0" /><rect height="22" width="156" x="124" y="61"></rect><text x="202" y="76">named_expression</text></g><path d="M280.0 72h10" /><path d="M290.0 72h10" /><g class="terminal ">
<path d="M300.0 72h0.0" /><path d="M345.5 72h0.0" /><rect height="22" rx="10" ry="10" width="45.5" x="300" y="61"></rect><text x="322.75" y="76">&apos;:&apos;</text></g><path d="M345.5 72h10" /><path d="M355.5 72h10" /><g class="non-terminal ">
<path d="M365.5 72h0.0" /><path d="M428.0 72h0.0" /><rect height="22" width="62.5" x="365.5" y="61"></rect><text x="396.75" y="76">block</text></g><path d="M428.0 72h10" /><g>
<path d="M438.0 72h0.0" /><path d="M1128.0 72h0.0" /><path d="M438.0 72a10 10 0 0 0 10 -10v-32a10 10 0 0 1 10 -10" /><g>
<path d="M458.0 20h650.0" /></g><path d="M1108.0 20a10 10 0 0 1 10 10v32a10 10 0 0 0 10 10" /><path d="M438.0 72h20" /><g>
<path d="M458.0 72h0.0" /><path d="M1108.0 72h0.0" /><path d="M458.0 72h20" /><g>
<path d="M478.0 72h0.0" /><path d="M1088.0 72h0.0" /><rect class="group-box" height="77" rx="10" ry="10" width="610" x="478" y="44"></rect><g>
<path d="M478.0 72h10.0" /><path d="M1078.0 72h10.0" /><g class="terminal ">
<path d="M488.0 72h0.0" /><path d="M559.0 72h0.0" /><rect height="22" rx="10" ry="10" width="71" x="488" y="61"></rect><text x="523.5" y="76">&apos;elif&apos;</text></g><path d="M559.0 72h10" /><path d="M569.0 72h10" /><g class="non-terminal ">
<path d="M579.0 72h0.0" /><path d="M735.0 72h0.0" /><rect height="22" width="156" x="579" y="61"></rect><text x="657" y="76">named_expression</text></g><path d="M735.0 72h10" /><path d="M745.0 72h10" /><g class="terminal ">
<path d="M755.0 72h0.0" /><path d="M800.5 72h0.0" /><rect height="22" rx="10" ry="10" width="45.5" x="755" y="61"></rect><text x="777.75" y="76">&apos;:&apos;</text></g><path d="M800.5 72h10" /><path d="M810.5 72h10" /><g class="non-terminal ">
<path d="M820.5 72h0.0" /><path d="M883.0 72h0.0" /><rect height="22" width="62.5" x="820.5" y="61"></rect><text x="851.75" y="76">block</text></g><path d="M883.0 72h10" /><g>
<path d="M893.0 72h0.0" /><path d="M1078.0 72h0.0" /><path d="M893.0 72a10 10 0 0 0 10 -10v0a10 10 0 0 1 10 -10" /><g>
<path d="M913.0 52h145.0" /></g><path d="M1058.0 52a10 10 0 0 1 10 10v0a10 10 0 0 0 10 10" /><path d="M893.0 72h20" /><g>
<path d="M913.0 72h0.0" /><path d="M1058.0 72h0.0" /><path d="M913.0 72h20" /><g class="non-terminal ">
<path d="M933.0 72h4.25" /><path d="M1033.75 72h4.25" /><rect height="22" width="96.5" x="937.25" y="61"></rect><text x="985.5" y="76">elif_stmt</text></g><path d="M1038.0 72h20" /><path d="M913.0 72a10 10 0 0 1 10 10v10a10 10 0 0 0 10 10" /><g class="non-terminal ">
<path d="M933.0 102h0.0" /><path d="M1038.0 102h0.0" /><rect height="22" width="105" x="933" y="91"></rect><text x="985.5" y="106">else_block</text></g><path d="M1038.0 102a10 10 0 0 0 10 -10v-10a10 10 0 0 1 10 -10" /></g><path d="M1058.0 72h20" /></g></g><g class="non-terminal ">
<path d="M478.0 36h0.0" /><path d="M551.0 36h0.0" /><text class="comment" x="514.5" y="41">elif_stmt</text></g></g><path d="M1088.0 72h20" /><path d="M458.0 72a10 10 0 0 1 10 10v48a10 10 0 0 0 10 10" /><g class="non-terminal ">
<path d="M478.0 140h252.5" /><path d="M835.5 140h252.5" /><rect height="22" width="105" x="730.5" y="129"></rect><text x="783" y="144">else_block</text></g><path d="M1088.0 140a10 10 0 0 0 10 -10v-48a10 10 0 0 1 10 -10" /></g><path d="M1108.0 72h20" /></g></g><path d="M1128.0 72h10" /><path d="M 1138.0 72 h 20 m -10 -10 v 20 m 10 -20 v 20"></path></g><style>/* <![CDATA[ */
	svg.railroad-diagram {
		background-color:hsl(30,20%,95%);
	}
	svg.railroad-diagram path {
		stroke-width:3;
		stroke:black;
		fill:rgba(0,0,0,0);
	}
	svg.railroad-diagram text {
		font:bold 14px monospace;
		text-anchor:middle;
	}
	svg.railroad-diagram text.label{
		text-anchor:start;
	}
	svg.railroad-diagram text.comment{
		font:italic 12px monospace;
	}
	svg.railroad-diagram rect{
		stroke-width:3;
		stroke:black;
		fill:hsl(120,100%,90%);
	}
	svg.railroad-diagram rect.group-box {
		stroke: gray;
		stroke-dasharray: 10 5;
		fill: none;
	}

/* ]]> */
</style></svg>