<svg class="railroad-diagram" height="101" viewBox="0 0 722.5 101" width="722.5" xmlns="http://www.w3.org/2000/svg" xmlns:xlink="http://www.w3.org/1999/xlink">
<g transform="translate(.5 .5)">
<g>
<path d="M20 30v20m10 -20v20m-10 -10h69.5" /><text style="text-anchor:start" x="20" y="25">if_stmt</text></g><path d="M89.5 40h10" /><g>
<path d="M99.5 40h0.0" /><path d="M672.5 40h0.0" /><g class="terminal ">
<path d="M99.5 40h0.0" /><path d="M153.5 40h0.0" /><rect height="22" rx="10" ry="10" width="54" x="99.5" y="29"></rect><text x="126.5" y="44">&apos;if&apos;</text></g><path d="M153.5 40h10" /><path d="M163.5 40h10" /><g class="non-terminal ">
<path d="M173.5 40h0.0" /><path d="M329.5 40h0.0" /><rect height="22" width="156" x="173.5" y="29"></rect><text x="251.5" y="44">named_expression</text></g><path d="M329.5 40h10" /><path d="M339.5 40h10" /><g class="terminal ">
<path d="M349.5 40h0.0" /><path d="M395.0 40h0.0" /><rect height="22" rx="10" ry="10" width="45.5" x="349.5" y="29"></rect><text x="372.25" y="44">&apos;:&apos;</text></g><path d="M395.0 40h10" /><path d="M405.0 40h10" /><g class="non-terminal ">
<path d="M415.0 40h0.0" /><path d="M477.5 40h0.0" /><rect height="22" width="62.5" x="415" y="29"></rect><text x="446.25" y="44">block</text></g><path d="M477.5 40h10" /><g>
<path d="M487.5 40h0.0" /><path d="M672.5 40h0.0" /><path d="M487.5 40a10 10 0 0 0 10 -10v0a10 10 0 0 1 10 -10" /><g>
<path d="M507.5 20h145.0" /></g><path d="M652.5 20a10 10 0 0 1 10 10v0a10 10 0 0 0 10 10" /><path d="M487.5 40h20" /><g>
<path d="M507.5 40h0.0" /><path d="M652.5 40h0.0" /><path d="M507.5 40h20" /><g class="non-terminal ">
<path d="M527.5 40h4.25" /><path d="M628.25 40h4.25" /><rect height="22" width="96.5" x="531.75" y="29"></rect><text x="580" y="44">elif_stmt</text></g><path d="M632.5 40h20" /><path d="M507.5 40a10 10 0 0 1 10 10v10a10 10 0 0 0 10 10" /><g class="non-terminal ">
<path d="M527.5 70h0.0" /><path d="M632.5 70h0.0" /><rect height="22" width="105" x="527.5" y="59"></rect><text x="580" y="74">else_block</text></g><path d="M632.5 70a10 10 0 0 0 10 -10v-10a10 10 0 0 1 10 -10" /></g><path d="M652.5 40h20" /></g></g><path d="M672.5 40h10" /><path d="M 682.5 40 h 20 m -10 -10 v 20 m 10 -20 v 20"></path></g><style>/* <![CDATA[ */
	svg.railroad-diagram {
		background-color:hsl(30,20%,95%);
	}
	svg.railroad-diagram path {
		stroke-width:3;
		stroke:black;
		fill:rgba(0,0,0,0);
	}
	svg.railroad-diagram text {
		font:bold 14px monospace;
		text-anchor:middle;
	}
	svg.railroad-diagram text.label{
		text-anchor:start;
	}
	svg.railroad-diagram text.comment{
		font:italic 12px monospace;
	}
	svg.railroad-diagram rect{
		stroke-width:3;
		stroke:black;
		fill:hsl(120,100%,90%);
	}
	svg.railroad-diagram rect.group-box {
		stroke: gray;
		stroke-dasharray: 10 5;
		fill: none;
	}

/* ]]> */
</style></svg>