<svg class="railroad-diagram" height="101" viewBox="0 0 673.0 101" width="673.0" xmlns="http://www.w3.org/2000/svg" xmlns:xlink="http://www.w3.org/1999/xlink">
<g transform="translate(.5 .5)">
<g>
<path d="M20 30v20m10 -20v20m-10 -10h20" /></g><path d="M40 40h10" /><g>
<path d="M50 40h0.0" /><path d="M623.0 40h0.0" /><g class="terminal ">
<path d="M50.0 40h0.0" /><path d="M104.0 40h0.0" /><rect height="22" rx="10" ry="10" width="54" x="50" y="29"></rect><text x="77" y="44">&apos;if&apos;</text></g><path d="M104.0 40h10" /><path d="M114.0 40h10" /><g class="non-terminal ">
<path d="M124.0 40h0.0" /><path d="M280.0 40h0.0" /><rect height="22" width="156" x="124" y="29"></rect><text x="202" y="44">named_expression</text></g><path d="M280.0 40h10" /><path d="M290.0 40h10" /><g class="terminal ">
<path d="M300.0 40h0.0" /><path d="M345.5 40h0.0" /><rect height="22" rx="10" ry="10" width="45.5" x="300" y="29"></rect><text x="322.75" y="44">&apos;:&apos;</text></g><path d="M345.5 40h10" /><path d="M355.5 40h10" /><g class="non-terminal ">
<path d="M365.5 40h0.0" /><path d="M428.0 40h0.0" /><rect height="22" width="62.5" x="365.5" y="29"></rect><text x="396.75" y="44">block</text></g><path d="M428.0 40h10" /><g>
<path d="M438.0 40h0.0" /><path d="M623.0 40h0.0" /><path d="M438.0 40a10 10 0 0 0 10 -10v0a10 10 0 0 1 10 -10" /><g>
<path d="M458.0 20h145.0" /></g><path d="M603.0 20a10 10 0 0 1 10 10v0a10 10 0 0 0 10 10" /><path d="M438.0 40h20" /><g>
<path d="M458.0 40h0.0" /><path d="M603.0 40h0.0" /><path d="M458.0 40h20" /><g class="non-terminal ">
<path d="M478.0 40h4.25" /><path d="M578.75 40h4.25" /><rect height="22" width="96.5" x="482.25" y="29"></rect><text x="530.5" y="44">elif_stmt</text></g><path d="M583.0 40h20" /><path d="M458.0 40a10 10 0 0 1 10 10v10a10 10 0 0 0 10 10" /><g class="non-terminal ">
<path d="M478.0 70h0.0" /><path d="M583.0 70h0.0" /><rect height="22" width="105" x="478" y="59"></rect><text x="530.5" y="74">else_block</text></g><path d="M583.0 70a10 10 0 0 0 10 -10v-10a10 10 0 0 1 10 -10" /></g><path d="M603.0 40h20" /></g></g><path d="M623.0 40h10" /><path d="M 633.0 40 h 20 m -10 -10 v 20 m 10 -20 v 20"></path></g><style>/* <![CDATA[ */
	svg.railroad-diagram {
		background-color:hsl(30,20%,95%);
	}
	svg.railroad-diagram path {
		stroke-width:3;
		stroke:black;
		fill:rgba(0,0,0,0);
	}
	svg.railroad-diagram text {
		font:bold 14px monospace;
		text-anchor:middle;
	}
	svg.railroad-diagram text.label{
		text-anchor:start;
	}
	svg.railroad-diagram text.comment{
		font:italic 12px monospace;
	}
	svg.railroad-diagram rect{
		stroke-width:3;
		stroke:black;
		fill:hsl(120,100%,90%);
	}
	svg.railroad-diagram rect.group-box {
		stroke: gray;
		stroke-dasharray: 10 5;
		fill: none;
	}

/* ]]> */
</style></svg>