<svg class="railroad-diagram" height="246" viewBox="0 0 826.5 246" width="826.5" xmlns="http://www.w3.org/2000/svg" xmlns:xlink="http://www.w3.org/1999/xlink">
<g transform="translate(.5 .5)">
<g>
<path d="M20 30v20m10 -20v20m-10 -10h20" /></g><g>
<path d="M40 40h0.0" /><path d="M786.5 40h0.0" /><path d="M40.0 40h20" /><g>
<path d="M60.0 40h143.5" /><path d="M623.0 40h143.5" /><g class="terminal ">
<path d="M203.5 40h0.0" /><path d="M291.5 40h0.0" /><rect height="22" rx="10" ry="10" width="88" x="203.5" y="29"></rect><text x="247.5" y="44">&apos;import&apos;</text></g><path d="M291.5 40h10" /><path d="M301.5 40h10" /><g>
<path d="M311.5 40h0.0" /><path d="M623.0 40h0.0" /><path d="M311.5 40h10" /><g>
<path d="M321.5 40h0.0" /><path d="M613.0 40h0.0" /><g class="non-terminal ">
<path d="M321.5 40h0.0" /><path d="M435.0 40h0.0" /><rect height="22" width="113.5" x="321.5" y="29"></rect><text x="378.25" y="44">dotted_name</text></g><path d="M435.0 40h10" /><g>
<path d="M445.0 40h0.0" /><path d="M613.0 40h0.0" /><path d="M445.0 40a10 10 0 0 0 10 -10v0a10 10 0 0 1 10 -10" /><g>
<path d="M465.0 20h128.0" /></g><path d="M593.0 20a10 10 0 0 1 10 10v0a10 10 0 0 0 10 10" /><path d="M445.0 40h20" /><g>
<path d="M465.0 40h0.0" /><path d="M593.0 40h0.0" /><g class="terminal ">
<path d="M465.0 40h0.0" /><path d="M519.0 40h0.0" /><rect height="22" rx="10" ry="10" width="54" x="465" y="29"></rect><text x="492" y="44">&apos;as&apos;</text></g><path d="M519.0 40h10" /><path d="M529.0 40h10" /><g class="terminal ">
<path d="M539.0 40h0.0" /><path d="M593.0 40h0.0" /><rect height="22" rx="10" ry="10" width="54" x="539" y="29"></rect><text x="566" y="44">NAME</text></g></g><path d="M593.0 40h20" /></g></g><path d="M613.0 40h10" /><path d="M321.5 40a10 10 0 0 0 -10 10v10a10 10 0 0 0 10 10" /><g class="terminal ">
<path d="M321.5 70h123.0" /><path d="M490.0 70h123.0" /><rect height="22" rx="10" ry="10" width="45.5" x="444.5" y="59"></rect><text x="467.25" y="74">&apos;,&apos;</text></g><path d="M613.0 70a10 10 0 0 0 10 -10v-10a10 10 0 0 0 -10 -10" /></g></g><path d="M766.5 40h20" /><path d="M40.0 40a10 10 0 0 1 10 10v49a10 10 0 0 0 10 10" /><g>
<path d="M60.0 109h0.0" /><path d="M766.5 109h0.0" /><g class="terminal ">
<path d="M60.0 109h0.0" /><path d="M131.0 109h0.0" /><rect height="22" rx="10" ry="10" width="71" x="60" y="98"></rect><text x="95.5" y="113">&apos;from&apos;</text></g><path d="M131.0 109h10" /><g>
<path d="M141.0 109h0.0" /><path d="M467.0 109h0.0" /><path d="M141.0 109h20" /><g>
<path d="M161.0 109h0.0" /><path d="M447.0 109h0.0" /><g>
<path d="M161.0 109h0.0" /><path d="M323.5 109h0.0" /><path d="M161.0 109a10 10 0 0 0 10 -10v0a10 10 0 0 1 10 -10" /><g>
<path d="M181.0 89h122.5" /></g><path d="M303.5 89a10 10 0 0 1 10 10v0a10 10 0 0 0 10 10" /><path d="M161.0 109h20" /><g>
<path d="M181.0 109h0.0" /><path d="M303.5 109h0.0" /><path d="M181.0 109h10" /><g>
<path d="M191.0 109h0.0" /><path d="M293.5 109h0.0" /><path d="M191.0 109h20" /><g class="terminal ">
<path d="M211.0 109h8.5" /><path d="M265.0 109h8.5" /><rect height="22" rx="10" ry="10" width="45.5" x="219.5" y="98"></rect><text x="242.25" y="113">&apos;.&apos;</text></g><path d="M273.5 109h20" /><path d="M191.0 109a10 10 0 0 1 10 10v10a10 10 0 0 0 10 10" /><g class="terminal ">
<path d="M211.0 139h0.0" /><path d="M273.5 139h0.0" /><rect height="22" rx="10" ry="10" width="62.5" x="211" y="128"></rect><text x="242.25" y="143">&apos;...&apos;</text></g><path d="M273.5 139a10 10 0 0 0 10 -10v-10a10 10 0 0 1 10 -10" /></g><path d="M293.5 109h10" /><path d="M191.0 109a10 10 0 0 0 -10 10v29a10 10 0 0 0 10 10" /><g>
<path d="M191.0 158h102.5" /></g><path d="M293.5 158a10 10 0 0 0 10 -10v-29a10 10 0 0 0 -10 -10" /></g><path d="M303.5 109h20" /></g><path d="M323.5 109h10" /><g class="non-terminal ">
<path d="M333.5 109h0.0" /><path d="M447.0 109h0.0" /><rect height="22" width="113.5" x="333.5" y="98"></rect><text x="390.25" y="113">dotted_name</text></g></g><path d="M447.0 109h20" /><path d="M141.0 109a10 10 0 0 1 10 10v48a10 10 0 0 0 10 10" /><g>
<path d="M161.0 177h81.75" /><path d="M365.25 177h81.75" /><path d="M242.75 177h10" /><g>
<path d="M252.75 177h0.0" /><path d="M355.25 177h0.0" /><path d="M252.75 177h20" /><g class="terminal ">
<path d="M272.75 177h8.5" /><path d="M326.75 177h8.5" /><rect height="22" rx="10" ry="10" width="45.5" x="281.25" y="166"></rect><text x="304" y="181">&apos;.&apos;</text></g><path d="M335.25 177h20" /><path d="M252.75 177a10 10 0 0 1 10 10v10a10 10 0 0 0 10 10" /><g class="terminal ">
<path d="M272.75 207h0.0" /><path d="M335.25 207h0.0" /><rect height="22" rx="10" ry="10" width="62.5" x="272.75" y="196"></rect><text x="304" y="211">&apos;...&apos;</text></g><path d="M335.25 207a10 10 0 0 0 10 -10v-10a10 10 0 0 1 10 -10" /></g><path d="M355.25 177h10" /><path d="M252.75 177a10 10 0 0 0 -10 10v29a10 10 0 0 0 10 10" /><g>
<path d="M252.75 226h102.5" /></g><path d="M355.25 226a10 10 0 0 0 10 -10v-29a10 10 0 0 0 -10 -10" /></g><path d="M447.0 177a10 10 0 0 0 10 -10v-48a10 10 0 0 1 10 -10" /></g><path d="M467.0 109h10" /><g class="terminal ">
<path d="M477.0 109h0.0" /><path d="M565.0 109h0.0" /><rect height="22" rx="10" ry="10" width="88" x="477" y="98"></rect><text x="521" y="113">&apos;import&apos;</text></g><path d="M565.0 109h10" /><path d="M575.0 109h10" /><g class="non-terminal ">
<path d="M585.0 109h0.0" /><path d="M766.5 109h0.0" /><rect height="22" width="181.5" x="585" y="98"></rect><text x="675.75" y="113">import_from_targets</text></g></g><path d="M766.5 109a10 10 0 0 0 10 -10v-49a10 10 0 0 1 10 -10" /></g><path d="M 786.5 40 h 20 m -10 -10 v 20 m 10 -20 v 20"></path></g><style>/* <![CDATA[ */
	svg.railroad-diagram {
		background-color:hsl(30,20%,95%);
	}
	svg.railroad-diagram path {
		stroke-width:3;
		stroke:black;
		fill:rgba(0,0,0,0);
	}
	svg.railroad-diagram text {
		font:bold 14px monospace;
		text-anchor:middle;
	}
	svg.railroad-diagram text.label{
		text-anchor:start;
	}
	svg.railroad-diagram text.comment{
		font:italic 12px monospace;
	}
	svg.railroad-diagram rect{
		stroke-width:3;
		stroke:black;
		fill:hsl(120,100%,90%);
	}
	svg.railroad-diagram rect.group-box {
		stroke: gray;
		stroke-dasharray: 10 5;
		fill: none;
	}

/* ]]> */
</style></svg>