<svg class="railroad-diagram" height="200" viewBox="0 0 588.5 200" width="588.5" xmlns="http://www.w3.org/2000/svg" xmlns:xlink="http://www.w3.org/1999/xlink">
<g transform="translate(.5 .5)">
<g>
<path d="M20 30v20m10 -20v20m-10 -10h20" /></g><g>
<path d="M40 40h0.0" /><path d="M548.5 40h0.0" /><path d="M40.0 40h20" /><g>
<path d="M60.0 40h0.0" /><path d="M528.5 40h0.0" /><g class="terminal ">
<path d="M60.0 40h0.0" /><path d="M105.5 40h0.0" /><rect height="22" rx="10" ry="10" width="45.5" x="60" y="29"></rect><text x="82.75" y="44">&apos;(&apos;</text></g><path d="M105.5 40h10" /><path d="M115.5 40h10" /><g>
<path d="M125.5 40h0.0" /><path d="M377.5 40h0.0" /><path d="M125.5 40h10" /><g>
<path d="M135.5 40h0.0" /><path d="M367.5 40h0.0" /><g class="terminal ">
<path d="M135.5 40h0.0" /><path d="M189.5 40h0.0" /><rect height="22" rx="10" ry="10" width="54" x="135.5" y="29"></rect><text x="162.5" y="44">NAME</text></g><path d="M189.5 40h10" /><g>
<path d="M199.5 40h0.0" /><path d="M367.5 40h0.0" /><path d="M199.5 40a10 10 0 0 0 10 -10v0a10 10 0 0 1 10 -10" /><g>
<path d="M219.5 20h128.0" /></g><path d="M347.5 20a10 10 0 0 1 10 10v0a10 10 0 0 0 10 10" /><path d="M199.5 40h20" /><g>
<path d="M219.5 40h0.0" /><path d="M347.5 40h0.0" /><g class="terminal ">
<path d="M219.5 40h0.0" /><path d="M273.5 40h0.0" /><rect height="22" rx="10" ry="10" width="54" x="219.5" y="29"></rect><text x="246.5" y="44">&apos;as&apos;</text></g><path d="M273.5 40h10" /><path d="M283.5 40h10" /><g class="terminal ">
<path d="M293.5 40h0.0" /><path d="M347.5 40h0.0" /><rect height="22" rx="10" ry="10" width="54" x="293.5" y="29"></rect><text x="320.5" y="44">NAME</text></g></g><path d="M347.5 40h20" /></g></g><path d="M367.5 40h10" /><path d="M135.5 40a10 10 0 0 0 -10 10v10a10 10 0 0 0 10 10" /><g class="terminal ">
<path d="M135.5 70h93.25" /><path d="M274.25 70h93.25" /><rect height="22" rx="10" ry="10" width="45.5" x="228.75" y="59"></rect><text x="251.5" y="74">&apos;,&apos;</text></g><path d="M367.5 70a10 10 0 0 0 10 -10v-10a10 10 0 0 0 -10 -10" /></g><path d="M377.5 40h10" /><g>
<path d="M387.5 40h0.0" /><path d="M473.0 40h0.0" /><path d="M387.5 40a10 10 0 0 0 10 -10v0a10 10 0 0 1 10 -10" /><g>
<path d="M407.5 20h45.5" /></g><path d="M453.0 20a10 10 0 0 1 10 10v0a10 10 0 0 0 10 10" /><path d="M387.5 40h20" /><g class="terminal ">
<path d="M407.5 40h0.0" /><path d="M453.0 40h0.0" /><rect height="22" rx="10" ry="10" width="45.5" x="407.5" y="29"></rect><text x="430.25" y="44">&apos;,&apos;</text></g><path d="M453.0 40h20" /></g><path d="M473.0 40h10" /><g class="terminal ">
<path d="M483.0 40h0.0" /><path d="M528.5 40h0.0" /><rect height="22" rx="10" ry="10" width="45.5" x="483" y="29"></rect><text x="505.75" y="44">&apos;)&apos;</text></g></g><path d="M528.5 40h20" /><path d="M40.0 40a10 10 0 0 1 10 10v49a10 10 0 0 0 10 10" /><g>
<path d="M60.0 109h108.25" /><path d="M420.25 109h108.25" /><path d="M168.25 109h10" /><g>
<path d="M178.25 109h0.0" /><path d="M410.25 109h0.0" /><g class="terminal ">
<path d="M178.25 109h0.0" /><path d="M232.25 109h0.0" /><rect height="22" rx="10" ry="10" width="54" x="178.25" y="98"></rect><text x="205.25" y="113">NAME</text></g><path d="M232.25 109h10" /><g>
<path d="M242.25 109h0.0" /><path d="M410.25 109h0.0" /><path d="M242.25 109a10 10 0 0 0 10 -10v0a10 10 0 0 1 10 -10" /><g>
<path d="M262.25 89h128.0" /></g><path d="M390.25 89a10 10 0 0 1 10 10v0a10 10 0 0 0 10 10" /><path d="M242.25 109h20" /><g>
<path d="M262.25 109h0.0" /><path d="M390.25 109h0.0" /><g class="terminal ">
<path d="M262.25 109h0.0" /><path d="M316.25 109h0.0" /><rect height="22" rx="10" ry="10" width="54" x="262.25" y="98"></rect><text x="289.25" y="113">&apos;as&apos;</text></g><path d="M316.25 109h10" /><path d="M326.25 109h10" /><g class="terminal ">
<path d="M336.25 109h0.0" /><path d="M390.25 109h0.0" /><rect height="22" rx="10" ry="10" width="54" x="336.25" y="98"></rect><text x="363.25" y="113">NAME</text></g></g><path d="M390.25 109h20" /></g></g><path d="M410.25 109h10" /><path d="M178.25 109a10 10 0 0 0 -10 10v10a10 10 0 0 0 10 10" /><g class="terminal ">
<path d="M178.25 139h93.25" /><path d="M317.0 139h93.25" /><rect height="22" rx="10" ry="10" width="45.5" x="271.5" y="128"></rect><text x="294.25" y="143">&apos;,&apos;</text></g><path d="M410.25 139a10 10 0 0 0 10 -10v-10a10 10 0 0 0 -10 -10" /></g><path d="M528.5 109a10 10 0 0 0 10 -10v-49a10 10 0 0 1 10 -10" /><path d="M40.0 40a10 10 0 0 1 10 10v109a10 10 0 0 0 10 10" /><g class="terminal ">
<path d="M60.0 169h211.5" /><path d="M317.0 169h211.5" /><rect height="22" rx="10" ry="10" width="45.5" x="271.5" y="158"></rect><text x="294.25" y="173">&apos;*&apos;</text></g><path d="M528.5 169a10 10 0 0 0 10 -10v-109a10 10 0 0 1 10 -10" /></g><path d="M 548.5 40 h 20 m -10 -10 v 20 m 10 -20 v 20"></path></g><style>/* <![CDATA[ */
	svg.railroad-diagram {
		background-color:hsl(30,20%,95%);
	}
	svg.railroad-diagram path {
		stroke-width:3;
		stroke:black;
		fill:rgba(0,0,0,0);
	}
	svg.railroad-diagram text {
		font:bold 14px monospace;
		text-anchor:middle;
	}
	svg.railroad-diagram text.label{
		text-anchor:start;
	}
	svg.railroad-diagram text.comment{
		font:italic 12px monospace;
	}
	svg.railroad-diagram rect{
		stroke-width:3;
		stroke:black;
		fill:hsl(120,100%,90%);
	}
	svg.railroad-diagram rect.group-box {
		stroke: gray;
		stroke-dasharray: 10 5;
		fill: none;
	}

/* ]]> */
</style></svg>