<svg class="railroad-diagram" height="176" viewBox="0 0 740.0 176" width="740.0" xmlns="http://www.w3.org/2000/svg" xmlns:xlink="http://www.w3.org/1999/xlink">
<g transform="translate(.5 .5)">
<g>
<path d="M20 30v20m10 -20v20m-10 -10h171.5" /><text style="text-anchor:start" x="20" y="25">import_from_targets</text></g><g>
<path d="M191.5 40h0.0" /><path d="M700.0 40h0.0" /><path d="M191.5 40h20" /><g>
<path d="M211.5 40h0.0" /><path d="M680.0 40h0.0" /><g class="terminal ">
<path d="M211.5 40h0.0" /><path d="M257.0 40h0.0" /><rect height="22" rx="10" ry="10" width="45.5" x="211.5" y="29"></rect><text x="234.25" y="44">&apos;(&apos;</text></g><path d="M257.0 40h10" /><g>
<path d="M267.0 40h0.0" /><path d="M539.0 40h0.0" /><path d="M267.0 40h20" /><g>
<path d="M287.0 40h232.0" /></g><path d="M519.0 40h20" /><path d="M267.0 40a10 10 0 0 1 10 10v8a10 10 0 0 0 10 10" /><g>
<path d="M287.0 68h0.0" /><path d="M519.0 68h0.0" /><g class="terminal ">
<path d="M287.0 68h0.0" /><path d="M341.0 68h0.0" /><rect height="22" rx="10" ry="10" width="54" x="287" y="57"></rect><text x="314" y="72">NAME</text></g><path d="M341.0 68h10" /><g>
<path d="M351.0 68h0.0" /><path d="M519.0 68h0.0" /><path d="M351.0 68a10 10 0 0 0 10 -10v0a10 10 0 0 1 10 -10" /><g>
<path d="M371.0 48h128.0" /></g><path d="M499.0 48a10 10 0 0 1 10 10v0a10 10 0 0 0 10 10" /><path d="M351.0 68h20" /><g>
<path d="M371.0 68h0.0" /><path d="M499.0 68h0.0" /><g class="terminal ">
<path d="M371.0 68h0.0" /><path d="M425.0 68h0.0" /><rect height="22" rx="10" ry="10" width="54" x="371" y="57"></rect><text x="398" y="72">&apos;as&apos;</text></g><path d="M425.0 68h10" /><path d="M435.0 68h10" /><g class="terminal ">
<path d="M445.0 68h0.0" /><path d="M499.0 68h0.0" /><rect height="22" rx="10" ry="10" width="54" x="445" y="57"></rect><text x="472" y="72">NAME</text></g></g><path d="M499.0 68h20" /></g></g><path d="M519.0 68a10 10 0 0 0 10 -10v-8a10 10 0 0 1 10 -10" /></g><g>
<path d="M539.0 40h0.0" /><path d="M624.5 40h0.0" /><path d="M539.0 40a10 10 0 0 0 10 -10v0a10 10 0 0 1 10 -10" /><g>
<path d="M559.0 20h45.5" /></g><path d="M604.5 20a10 10 0 0 1 10 10v0a10 10 0 0 0 10 10" /><path d="M539.0 40h20" /><g class="terminal ">
<path d="M559.0 40h0.0" /><path d="M604.5 40h0.0" /><rect height="22" rx="10" ry="10" width="45.5" x="559" y="29"></rect><text x="581.75" y="44">&apos;,&apos;</text></g><path d="M604.5 40h20" /></g><path d="M624.5 40h10" /><g class="terminal ">
<path d="M634.5 40h0.0" /><path d="M680.0 40h0.0" /><rect height="22" rx="10" ry="10" width="45.5" x="634.5" y="29"></rect><text x="657.25" y="44">&apos;)&apos;</text></g></g><path d="M680.0 40h20" /><path d="M191.5 40a10 10 0 0 1 10 10v27a10 10 0 0 0 10 10" /><g>
<path d="M211.5 87h98.25" /><path d="M581.75 87h98.25" /><path d="M309.75 87h20" /><g>
<path d="M329.75 87h232.0" /></g><path d="M561.75 87h20" /><path d="M309.75 87a10 10 0 0 1 10 10v8a10 10 0 0 0 10 10" /><g>
<path d="M329.75 115h0.0" /><path d="M561.75 115h0.0" /><g class="terminal ">
<path d="M329.75 115h0.0" /><path d="M383.75 115h0.0" /><rect height="22" rx="10" ry="10" width="54" x="329.75" y="104"></rect><text x="356.75" y="119">NAME</text></g><path d="M383.75 115h10" /><g>
<path d="M393.75 115h0.0" /><path d="M561.75 115h0.0" /><path d="M393.75 115a10 10 0 0 0 10 -10v0a10 10 0 0 1 10 -10" /><g>
<path d="M413.75 95h128.0" /></g><path d="M541.75 95a10 10 0 0 1 10 10v0a10 10 0 0 0 10 10" /><path d="M393.75 115h20" /><g>
<path d="M413.75 115h0.0" /><path d="M541.75 115h0.0" /><g class="terminal ">
<path d="M413.75 115h0.0" /><path d="M467.75 115h0.0" /><rect height="22" rx="10" ry="10" width="54" x="413.75" y="104"></rect><text x="440.75" y="119">&apos;as&apos;</text></g><path d="M467.75 115h10" /><path d="M477.75 115h10" /><g class="terminal ">
<path d="M487.75 115h0.0" /><path d="M541.75 115h0.0" /><rect height="22" rx="10" ry="10" width="54" x="487.75" y="104"></rect><text x="514.75" y="119">NAME</text></g></g><path d="M541.75 115h20" /></g></g><path d="M561.75 115a10 10 0 0 0 10 -10v-8a10 10 0 0 1 10 -10" /></g><path d="M680.0 87a10 10 0 0 0 10 -10v-27a10 10 0 0 1 10 -10" /><path d="M191.5 40a10 10 0 0 1 10 10v85a10 10 0 0 0 10 10" /><g class="terminal ">
<path d="M211.5 145h211.5" /><path d="M468.5 145h211.5" /><rect height="22" rx="10" ry="10" width="45.5" x="423" y="134"></rect><text x="445.75" y="149">&apos;*&apos;</text></g><path d="M680.0 145a10 10 0 0 0 10 -10v-85a10 10 0 0 1 10 -10" /></g><path d="M 700.0 40 h 20 m -10 -10 v 20 m 10 -20 v 20"></path></g><style>/* <![CDATA[ */
	svg.railroad-diagram {
		background-color:hsl(30,20%,95%);
	}
	svg.railroad-diagram path {
		stroke-width:3;
		stroke:black;
		fill:rgba(0,0,0,0);
	}
	svg.railroad-diagram text {
		font:bold 14px monospace;
		text-anchor:middle;
	}
	svg.railroad-diagram text.label{
		text-anchor:start;
	}
	svg.railroad-diagram text.comment{
		font:italic 12px monospace;
	}
	svg.railroad-diagram rect{
		stroke-width:3;
		stroke:black;
		fill:hsl(120,100%,90%);
	}
	svg.railroad-diagram rect.group-box {
		stroke: gray;
		stroke-dasharray: 10 5;
		fill: none;
	}

/* ]]> */
</style></svg>