<svg class="railroad-diagram" height="301" viewBox="0 0 1153.5 301" width="1153.5" xmlns="http://www.w3.org/2000/svg" xmlns:xlink="http://www.w3.org/1999/xlink">
<g transform="translate(.5 .5)">
<g>
<path d="M20 30v20m10 -20v20m-10 -10h20" /></g><g>
<path d="M40 40h0.0" /><path d="M1113.5 40h0.0" /><path d="M40.0 40h20" /><g>
<path d="M60.0 40h307.0" /><path d="M786.5 40h307.0" /><g class="terminal ">
<path d="M367.0 40h0.0" /><path d="M455.0 40h0.0" /><rect height="22" rx="10" ry="10" width="88" x="367" y="29"></rect><text x="411" y="44">&apos;import&apos;</text></g><path d="M455.0 40h10" /><path d="M465.0 40h10" /><g>
<path d="M475.0 40h0.0" /><path d="M786.5 40h0.0" /><path d="M475.0 40h10" /><g>
<path d="M485.0 40h0.0" /><path d="M776.5 40h0.0" /><g class="non-terminal ">
<path d="M485.0 40h0.0" /><path d="M598.5 40h0.0" /><rect height="22" width="113.5" x="485" y="29"></rect><text x="541.75" y="44">dotted_name</text></g><path d="M598.5 40h10" /><g>
<path d="M608.5 40h0.0" /><path d="M776.5 40h0.0" /><path d="M608.5 40a10 10 0 0 0 10 -10v0a10 10 0 0 1 10 -10" /><g>
<path d="M628.5 20h128.0" /></g><path d="M756.5 20a10 10 0 0 1 10 10v0a10 10 0 0 0 10 10" /><path d="M608.5 40h20" /><g>
<path d="M628.5 40h0.0" /><path d="M756.5 40h0.0" /><g class="terminal ">
<path d="M628.5 40h0.0" /><path d="M682.5 40h0.0" /><rect height="22" rx="10" ry="10" width="54" x="628.5" y="29"></rect><text x="655.5" y="44">&apos;as&apos;</text></g><path d="M682.5 40h10" /><path d="M692.5 40h10" /><g class="terminal ">
<path d="M702.5 40h0.0" /><path d="M756.5 40h0.0" /><rect height="22" rx="10" ry="10" width="54" x="702.5" y="29"></rect><text x="729.5" y="44">NAME</text></g></g><path d="M756.5 40h20" /></g></g><path d="M776.5 40h10" /><path d="M485.0 40a10 10 0 0 0 -10 10v10a10 10 0 0 0 10 10" /><g class="terminal ">
<path d="M485.0 70h123.0" /><path d="M653.5 70h123.0" /><rect height="22" rx="10" ry="10" width="45.5" x="608" y="59"></rect><text x="630.75" y="74">&apos;,&apos;</text></g><path d="M776.5 70a10 10 0 0 0 10 -10v-10a10 10 0 0 0 -10 -10" /></g></g><path d="M1093.5 40h20" /><path d="M40.0 40a10 10 0 0 1 10 10v73a10 10 0 0 0 10 10" /><g>
<path d="M60.0 133h0.0" /><path d="M1093.5 133h0.0" /><g class="terminal ">
<path d="M60.0 133h0.0" /><path d="M131.0 133h0.0" /><rect height="22" rx="10" ry="10" width="71" x="60" y="122"></rect><text x="95.5" y="137">&apos;from&apos;</text></g><path d="M131.0 133h10" /><g>
<path d="M141.0 133h0.0" /><path d="M467.0 133h0.0" /><path d="M141.0 133h20" /><g>
<path d="M161.0 133h0.0" /><path d="M447.0 133h0.0" /><g>
<path d="M161.0 133h0.0" /><path d="M323.5 133h0.0" /><path d="M161.0 133a10 10 0 0 0 10 -10v0a10 10 0 0 1 10 -10" /><g>
<path d="M181.0 113h122.5" /></g><path d="M303.5 113a10 10 0 0 1 10 10v0a10 10 0 0 0 10 10" /><path d="M161.0 133h20" /><g>
<path d="M181.0 133h0.0" /><path d="M303.5 133h0.0" /><path d="M181.0 133h10" /><g>
<path d="M191.0 133h0.0" /><path d="M293.5 133h0.0" /><path d="M191.0 133h20" /><g class="terminal ">
<path d="M211.0 133h8.5" /><path d="M265.0 133h8.5" /><rect height="22" rx="10" ry="10" width="45.5" x="219.5" y="122"></rect><text x="242.25" y="137">&apos;.&apos;</text></g><path d="M273.5 133h20" /><path d="M191.0 133a10 10 0 0 1 10 10v10a10 10 0 0 0 10 10" /><g class="terminal ">
<path d="M211.0 163h0.0" /><path d="M273.5 163h0.0" /><rect height="22" rx="10" ry="10" width="62.5" x="211" y="152"></rect><text x="242.25" y="167">&apos;...&apos;</text></g><path d="M273.5 163a10 10 0 0 0 10 -10v-10a10 10 0 0 1 10 -10" /></g><path d="M293.5 133h10" /><path d="M191.0 133a10 10 0 0 0 -10 10v29a10 10 0 0 0 10 10" /><g>
<path d="M191.0 182h102.5" /></g><path d="M293.5 182a10 10 0 0 0 10 -10v-29a10 10 0 0 0 -10 -10" /></g><path d="M303.5 133h20" /></g><path d="M323.5 133h10" /><g class="non-terminal ">
<path d="M333.5 133h0.0" /><path d="M447.0 133h0.0" /><rect height="22" width="113.5" x="333.5" y="122"></rect><text x="390.25" y="137">dotted_name</text></g></g><path d="M447.0 133h20" /><path d="M141.0 133a10 10 0 0 1 10 10v48a10 10 0 0 0 10 10" /><g>
<path d="M161.0 201h81.75" /><path d="M365.25 201h81.75" /><path d="M242.75 201h10" /><g>
<path d="M252.75 201h0.0" /><path d="M355.25 201h0.0" /><path d="M252.75 201h20" /><g class="terminal ">
<path d="M272.75 201h8.5" /><path d="M326.75 201h8.5" /><rect height="22" rx="10" ry="10" width="45.5" x="281.25" y="190"></rect><text x="304" y="205">&apos;.&apos;</text></g><path d="M335.25 201h20" /><path d="M252.75 201a10 10 0 0 1 10 10v10a10 10 0 0 0 10 10" /><g class="terminal ">
<path d="M272.75 231h0.0" /><path d="M335.25 231h0.0" /><rect height="22" rx="10" ry="10" width="62.5" x="272.75" y="220"></rect><text x="304" y="235">&apos;...&apos;</text></g><path d="M335.25 231a10 10 0 0 0 10 -10v-10a10 10 0 0 1 10 -10" /></g><path d="M355.25 201h10" /><path d="M252.75 201a10 10 0 0 0 -10 10v29a10 10 0 0 0 10 10" /><g>
<path d="M252.75 250h102.5" /></g><path d="M355.25 250a10 10 0 0 0 10 -10v-29a10 10 0 0 0 -10 -10" /></g><path d="M447.0 201a10 10 0 0 0 10 -10v-48a10 10 0 0 1 10 -10" /></g><path d="M467.0 133h10" /><g class="terminal ">
<path d="M477.0 133h0.0" /><path d="M565.0 133h0.0" /><rect height="22" rx="10" ry="10" width="88" x="477" y="122"></rect><text x="521" y="137">&apos;import&apos;</text></g><path d="M565.0 133h10" /><path d="M575.0 133h10" /><g>
<path d="M585.0 133h0.0" /><path d="M1093.5 133h0.0" /><rect class="group-box" height="176" rx="10" ry="10" width="508.5" x="585" y="105"></rect><g>
<path d="M585.0 133h0.0" /><path d="M1093.5 133h0.0" /><path d="M585.0 133h20" /><g>
<path d="M605.0 133h0.0" /><path d="M1073.5 133h0.0" /><g class="terminal ">
<path d="M605.0 133h0.0" /><path d="M650.5 133h0.0" /><rect height="22" rx="10" ry="10" width="45.5" x="605" y="122"></rect><text x="627.75" y="137">&apos;(&apos;</text></g><path d="M650.5 133h10" /><path d="M660.5 133h10" /><g>
<path d="M670.5 133h0.0" /><path d="M922.5 133h0.0" /><path d="M670.5 133h10" /><g>
<path d="M680.5 133h0.0" /><path d="M912.5 133h0.0" /><g class="terminal ">
<path d="M680.5 133h0.0" /><path d="M734.5 133h0.0" /><rect height="22" rx="10" ry="10" width="54" x="680.5" y="122"></rect><text x="707.5" y="137">NAME</text></g><path d="M734.5 133h10" /><g>
<path d="M744.5 133h0.0" /><path d="M912.5 133h0.0" /><path d="M744.5 133a10 10 0 0 0 10 -10v0a10 10 0 0 1 10 -10" /><g>
<path d="M764.5 113h128.0" /></g><path d="M892.5 113a10 10 0 0 1 10 10v0a10 10 0 0 0 10 10" /><path d="M744.5 133h20" /><g>
<path d="M764.5 133h0.0" /><path d="M892.5 133h0.0" /><g class="terminal ">
<path d="M764.5 133h0.0" /><path d="M818.5 133h0.0" /><rect height="22" rx="10" ry="10" width="54" x="764.5" y="122"></rect><text x="791.5" y="137">&apos;as&apos;</text></g><path d="M818.5 133h10" /><path d="M828.5 133h10" /><g class="terminal ">
<path d="M838.5 133h0.0" /><path d="M892.5 133h0.0" /><rect height="22" rx="10" ry="10" width="54" x="838.5" y="122"></rect><text x="865.5" y="137">NAME</text></g></g><path d="M892.5 133h20" /></g></g><path d="M912.5 133h10" /><path d="M680.5 133a10 10 0 0 0 -10 10v10a10 10 0 0 0 10 10" /><g class="terminal ">
<path d="M680.5 163h93.25" /><path d="M819.25 163h93.25" /><rect height="22" rx="10" ry="10" width="45.5" x="773.75" y="152"></rect><text x="796.5" y="167">&apos;,&apos;</text></g><path d="M912.5 163a10 10 0 0 0 10 -10v-10a10 10 0 0 0 -10 -10" /></g><path d="M922.5 133h10" /><g>
<path d="M932.5 133h0.0" /><path d="M1018.0 133h0.0" /><path d="M932.5 133a10 10 0 0 0 10 -10v0a10 10 0 0 1 10 -10" /><g>
<path d="M952.5 113h45.5" /></g><path d="M998.0 113a10 10 0 0 1 10 10v0a10 10 0 0 0 10 10" /><path d="M932.5 133h20" /><g class="terminal ">
<path d="M952.5 133h0.0" /><path d="M998.0 133h0.0" /><rect height="22" rx="10" ry="10" width="45.5" x="952.5" y="122"></rect><text x="975.25" y="137">&apos;,&apos;</text></g><path d="M998.0 133h20" /></g><path d="M1018.0 133h10" /><g class="terminal ">
<path d="M1028.0 133h0.0" /><path d="M1073.5 133h0.0" /><rect height="22" rx="10" ry="10" width="45.5" x="1028" y="122"></rect><text x="1050.75" y="137">&apos;)&apos;</text></g></g><path d="M1073.5 133h20" /><path d="M585.0 133a10 10 0 0 1 10 10v49a10 10 0 0 0 10 10" /><g>
<path d="M605.0 202h108.25" /><path d="M965.25 202h108.25" /><path d="M713.25 202h10" /><g>
<path d="M723.25 202h0.0" /><path d="M955.25 202h0.0" /><g class="terminal ">
<path d="M723.25 202h0.0" /><path d="M777.25 202h0.0" /><rect height="22" rx="10" ry="10" width="54" x="723.25" y="191"></rect><text x="750.25" y="206">NAME</text></g><path d="M777.25 202h10" /><g>
<path d="M787.25 202h0.0" /><path d="M955.25 202h0.0" /><path d="M787.25 202a10 10 0 0 0 10 -10v0a10 10 0 0 1 10 -10" /><g>
<path d="M807.25 182h128.0" /></g><path d="M935.25 182a10 10 0 0 1 10 10v0a10 10 0 0 0 10 10" /><path d="M787.25 202h20" /><g>
<path d="M807.25 202h0.0" /><path d="M935.25 202h0.0" /><g class="terminal ">
<path d="M807.25 202h0.0" /><path d="M861.25 202h0.0" /><rect height="22" rx="10" ry="10" width="54" x="807.25" y="191"></rect><text x="834.25" y="206">&apos;as&apos;</text></g><path d="M861.25 202h10" /><path d="M871.25 202h10" /><g class="terminal ">
<path d="M881.25 202h0.0" /><path d="M935.25 202h0.0" /><rect height="22" rx="10" ry="10" width="54" x="881.25" y="191"></rect><text x="908.25" y="206">NAME</text></g></g><path d="M935.25 202h20" /></g></g><path d="M955.25 202h10" /><path d="M723.25 202a10 10 0 0 0 -10 10v10a10 10 0 0 0 10 10" /><g class="terminal ">
<path d="M723.25 232h93.25" /><path d="M862.0 232h93.25" /><rect height="22" rx="10" ry="10" width="45.5" x="816.5" y="221"></rect><text x="839.25" y="236">&apos;,&apos;</text></g><path d="M955.25 232a10 10 0 0 0 10 -10v-10a10 10 0 0 0 -10 -10" /></g><path d="M1073.5 202a10 10 0 0 0 10 -10v-49a10 10 0 0 1 10 -10" /><path d="M585.0 133a10 10 0 0 1 10 10v109a10 10 0 0 0 10 10" /><g class="terminal ">
<path d="M605.0 262h211.5" /><path d="M862.0 262h211.5" /><rect height="22" rx="10" ry="10" width="45.5" x="816.5" y="251"></rect><text x="839.25" y="266">&apos;*&apos;</text></g><path d="M1073.5 262a10 10 0 0 0 10 -10v-109a10 10 0 0 1 10 -10" /></g><g class="non-terminal ">
<path d="M585.0 97h0.0" /><path d="M728.0 97h0.0" /><text class="comment" x="656.5" y="102">import_from_targets</text></g></g></g><path d="M1093.5 133a10 10 0 0 0 10 -10v-73a10 10 0 0 1 10 -10" /></g><path d="M 1113.5 40 h 20 m -10 -10 v 20 m 10 -20 v 20"></path></g><style>/* <![CDATA[ */
	svg.railroad-diagram {
		background-color:hsl(30,20%,95%);
	}
	svg.railroad-diagram path {
		stroke-width:3;
		stroke:black;
		fill:rgba(0,0,0,0);
	}
	svg.railroad-diagram text {
		font:bold 14px monospace;
		text-anchor:middle;
	}
	svg.railroad-diagram text.label{
		text-anchor:start;
	}
	svg.railroad-diagram text.comment{
		font:italic 12px monospace;
	}
	svg.railroad-diagram rect{
		stroke-width:3;
		stroke:black;
		fill:hsl(120,100%,90%);
	}
	svg.railroad-diagram rect.group-box {
		stroke: gray;
		stroke-dasharray: 10 5;
		fill: none;
	}

/* ]]> */
</style></svg>