<svg class="railroad-diagram" height="176" viewBox="0 0 588.5 176" width="588.5" xmlns="http://www.w3.org/2000/svg" xmlns:xlink="http://www.w3.org/1999/xlink">
<g transform="translate(.5 .5)">
<g>
<path d="M20 30v20m10 -20v20m-10 -10h20" /></g><g>
<path d="M40 40h0.0" /><path d="M548.5 40h0.0" /><path d="M40.0 40h20" /><g>
<path d="M60.0 40h0.0" /><path d="M528.5 40h0.0" /><g class="terminal ">
<path d="M60.0 40h0.0" /><path d="M105.5 40h0.0" /><rect height="22" rx="10" ry="10" width="45.5" x="60" y="29"></rect><text x="82.75" y="44">&apos;(&apos;</text></g><path d="M105.5 40h10" /><g>
<path d="M115.5 40h0.0" /><path d="M387.5 40h0.0" /><path d="M115.5 40h20" /><g>
<path d="M135.5 40h232.0" /></g><path d="M367.5 40h20" /><path d="M115.5 40a10 10 0 0 1 10 10v8a10 10 0 0 0 10 10" /><g>
<path d="M135.5 68h0.0" /><path d="M367.5 68h0.0" /><g class="terminal ">
<path d="M135.5 68h0.0" /><path d="M189.5 68h0.0" /><rect height="22" rx="10" ry="10" width="54" x="135.5" y="57"></rect><text x="162.5" y="72">NAME</text></g><path d="M189.5 68h10" /><g>
<path d="M199.5 68h0.0" /><path d="M367.5 68h0.0" /><path d="M199.5 68a10 10 0 0 0 10 -10v0a10 10 0 0 1 10 -10" /><g>
<path d="M219.5 48h128.0" /></g><path d="M347.5 48a10 10 0 0 1 10 10v0a10 10 0 0 0 10 10" /><path d="M199.5 68h20" /><g>
<path d="M219.5 68h0.0" /><path d="M347.5 68h0.0" /><g class="terminal ">
<path d="M219.5 68h0.0" /><path d="M273.5 68h0.0" /><rect height="22" rx="10" ry="10" width="54" x="219.5" y="57"></rect><text x="246.5" y="72">&apos;as&apos;</text></g><path d="M273.5 68h10" /><path d="M283.5 68h10" /><g class="terminal ">
<path d="M293.5 68h0.0" /><path d="M347.5 68h0.0" /><rect height="22" rx="10" ry="10" width="54" x="293.5" y="57"></rect><text x="320.5" y="72">NAME</text></g></g><path d="M347.5 68h20" /></g></g><path d="M367.5 68a10 10 0 0 0 10 -10v-8a10 10 0 0 1 10 -10" /></g><g>
<path d="M387.5 40h0.0" /><path d="M473.0 40h0.0" /><path d="M387.5 40a10 10 0 0 0 10 -10v0a10 10 0 0 1 10 -10" /><g>
<path d="M407.5 20h45.5" /></g><path d="M453.0 20a10 10 0 0 1 10 10v0a10 10 0 0 0 10 10" /><path d="M387.5 40h20" /><g class="terminal ">
<path d="M407.5 40h0.0" /><path d="M453.0 40h0.0" /><rect height="22" rx="10" ry="10" width="45.5" x="407.5" y="29"></rect><text x="430.25" y="44">&apos;,&apos;</text></g><path d="M453.0 40h20" /></g><path d="M473.0 40h10" /><g class="terminal ">
<path d="M483.0 40h0.0" /><path d="M528.5 40h0.0" /><rect height="22" rx="10" ry="10" width="45.5" x="483" y="29"></rect><text x="505.75" y="44">&apos;)&apos;</text></g></g><path d="M528.5 40h20" /><path d="M40.0 40a10 10 0 0 1 10 10v27a10 10 0 0 0 10 10" /><g>
<path d="M60.0 87h98.25" /><path d="M430.25 87h98.25" /><path d="M158.25 87h20" /><g>
<path d="M178.25 87h232.0" /></g><path d="M410.25 87h20" /><path d="M158.25 87a10 10 0 0 1 10 10v8a10 10 0 0 0 10 10" /><g>
<path d="M178.25 115h0.0" /><path d="M410.25 115h0.0" /><g class="terminal ">
<path d="M178.25 115h0.0" /><path d="M232.25 115h0.0" /><rect height="22" rx="10" ry="10" width="54" x="178.25" y="104"></rect><text x="205.25" y="119">NAME</text></g><path d="M232.25 115h10" /><g>
<path d="M242.25 115h0.0" /><path d="M410.25 115h0.0" /><path d="M242.25 115a10 10 0 0 0 10 -10v0a10 10 0 0 1 10 -10" /><g>
<path d="M262.25 95h128.0" /></g><path d="M390.25 95a10 10 0 0 1 10 10v0a10 10 0 0 0 10 10" /><path d="M242.25 115h20" /><g>
<path d="M262.25 115h0.0" /><path d="M390.25 115h0.0" /><g class="terminal ">
<path d="M262.25 115h0.0" /><path d="M316.25 115h0.0" /><rect height="22" rx="10" ry="10" width="54" x="262.25" y="104"></rect><text x="289.25" y="119">&apos;as&apos;</text></g><path d="M316.25 115h10" /><path d="M326.25 115h10" /><g class="terminal ">
<path d="M336.25 115h0.0" /><path d="M390.25 115h0.0" /><rect height="22" rx="10" ry="10" width="54" x="336.25" y="104"></rect><text x="363.25" y="119">NAME</text></g></g><path d="M390.25 115h20" /></g></g><path d="M410.25 115a10 10 0 0 0 10 -10v-8a10 10 0 0 1 10 -10" /></g><path d="M528.5 87a10 10 0 0 0 10 -10v-27a10 10 0 0 1 10 -10" /><path d="M40.0 40a10 10 0 0 1 10 10v85a10 10 0 0 0 10 10" /><g class="terminal ">
<path d="M60.0 145h211.5" /><path d="M317.0 145h211.5" /><rect height="22" rx="10" ry="10" width="45.5" x="271.5" y="134"></rect><text x="294.25" y="149">&apos;*&apos;</text></g><path d="M528.5 145a10 10 0 0 0 10 -10v-85a10 10 0 0 1 10 -10" /></g><path d="M 548.5 40 h 20 m -10 -10 v 20 m 10 -20 v 20"></path></g><style>/* <![CDATA[ */
	svg.railroad-diagram {
		background-color:hsl(30,20%,95%);
	}
	svg.railroad-diagram path {
		stroke-width:3;
		stroke:black;
		fill:rgba(0,0,0,0);
	}
	svg.railroad-diagram text {
		font:bold 14px monospace;
		text-anchor:middle;
	}
	svg.railroad-diagram text.label{
		text-anchor:start;
	}
	svg.railroad-diagram text.comment{
		font:italic 12px monospace;
	}
	svg.railroad-diagram rect{
		stroke-width:3;
		stroke:black;
		fill:hsl(120,100%,90%);
	}
	svg.railroad-diagram rect.group-box {
		stroke: gray;
		stroke-dasharray: 10 5;
		fill: none;
	}

/* ]]> */
</style></svg>