<svg class="railroad-diagram" height="152" viewBox="0 0 350.0 152" width="350.0" xmlns="http://www.w3.org/2000/svg" xmlns:xlink="http://www.w3.org/1999/xlink">
<g transform="translate(.5 .5)">
<g>
<path d="M20 21v20m10 -20v20m-10 -10h20" /></g><g>
<path d="M40 31h0.0" /><path d="M310.0 31h0.0" /><path d="M40.0 31h20" /><g>
<path d="M60.0 31h0.0" /><path d="M290.0 31h0.0" /><g class="non-terminal ">
<path d="M60.0 31h0.0" /><path d="M190.5 31h0.0" /><rect height="22" width="130.5" x="60" y="20"></rect><text x="125.25" y="35">compound_stmt</text></g><path d="M190.5 31h10" /><path d="M200.5 31h10" /><g class="terminal ">
<path d="M210.5 31h0.0" /><path d="M290.0 31h0.0" /><rect height="22" rx="10" ry="10" width="79.5" x="210.5" y="20"></rect><text x="250.25" y="35">NEWLINE</text></g></g><path d="M290.0 31h20" /><path d="M40.0 31a10 10 0 0 1 10 10v10a10 10 0 0 0 10 10" /><g class="non-terminal ">
<path d="M60.0 61h54.0" /><path d="M236.0 61h54.0" /><rect height="22" width="122" x="114" y="50"></rect><text x="175" y="65">simple_stmts</text></g><path d="M290.0 61a10 10 0 0 0 10 -10v-10a10 10 0 0 1 10 -10" /><path d="M40.0 31a10 10 0 0 1 10 10v40a10 10 0 0 0 10 10" /><g class="terminal ">
<path d="M60.0 91h75.25" /><path d="M214.75 91h75.25" /><rect height="22" rx="10" ry="10" width="79.5" x="135.25" y="80"></rect><text x="175" y="95">NEWLINE</text></g><path d="M290.0 91a10 10 0 0 0 10 -10v-40a10 10 0 0 1 10 -10" /><path d="M40.0 31a10 10 0 0 1 10 10v70a10 10 0 0 0 10 10" /><g class="terminal ">
<path d="M60.0 121h66.75" /><path d="M223.25 121h66.75" /><rect height="22" rx="10" ry="10" width="96.5" x="126.75" y="110"></rect><text x="175" y="125">ENDMARKER</text></g><path d="M290.0 121a10 10 0 0 0 10 -10v-70a10 10 0 0 1 10 -10" /></g><path d="M 310.0 31 h 20 m -10 -10 v 20 m 10 -20 v 20"></path></g><style>/* <![CDATA[ */
	svg.railroad-diagram {
		background-color:hsl(30,20%,95%);
	}
	svg.railroad-diagram path {
		stroke-width:3;
		stroke:black;
		fill:rgba(0,0,0,0);
	}
	svg.railroad-diagram text {
		font:bold 14px monospace;
		text-anchor:middle;
	}
	svg.railroad-diagram text.label{
		text-anchor:start;
	}
	svg.railroad-diagram text.comment{
		font:italic 12px monospace;
	}
	svg.railroad-diagram rect{
		stroke-width:3;
		stroke:black;
		fill:hsl(120,100%,90%);
	}
	svg.railroad-diagram rect.group-box {
		stroke: gray;
		stroke-dasharray: 10 5;
		fill: none;
	}

/* ]]> */
</style></svg>