<svg class="railroad-diagram" height="154" viewBox="0 0 482.5 154" width="482.5" xmlns="http://www.w3.org/2000/svg" xmlns:xlink="http://www.w3.org/1999/xlink">
<g transform="translate(.5 .5)">
<g>
<path d="M20 45v20m10 -20v20m-10 -10h20" /></g><path d="M40 55h10" /><g>
<path d="M50 55h0.0" /><path d="M432.5 55h0.0" /><path d="M50.0 55h10" /><g>
<path d="M60.0 55h0.0" /><path d="M422.5 55h0.0" /><rect class="group-box" height="68" rx="10" ry="10" width="362.5" x="60" y="36"></rect><g>
<path d="M60.0 55h10.0" /><path d="M412.5 55h10.0" /><g>
<path d="M70.0 55h0.0" /><path d="M257.5 55h0.0" /><path d="M70.0 55h20" /><g class="non-terminal ">
<path d="M90.0 55h0.0" /><path d="M237.5 55h0.0" /><rect height="22" width="147.5" x="90" y="44"></rect><text x="163.75" y="59">literal_pattern</text></g><path d="M237.5 55h20" /><path d="M70.0 55a10 10 0 0 1 10 10v10a10 10 0 0 0 10 10" /><g class="non-terminal ">
<path d="M90.0 85h46.75" /><path d="M190.75 85h46.75" /><rect height="22" width="54" x="136.75" y="74"></rect><text x="163.75" y="89">attr</text></g><path d="M237.5 85a10 10 0 0 0 10 -10v-10a10 10 0 0 1 10 -10" /></g><path d="M257.5 55h10" /><g class="terminal ">
<path d="M267.5 55h0.0" /><path d="M313.0 55h0.0" /><rect height="22" rx="10" ry="10" width="45.5" x="267.5" y="44"></rect><text x="290.25" y="59">&apos;:&apos;</text></g><path d="M313.0 55h10" /><path d="M323.0 55h10" /><g class="non-terminal ">
<path d="M333.0 55h0.0" /><path d="M412.5 55h0.0" /><rect height="22" width="79.5" x="333" y="44"></rect><text x="372.75" y="59">pattern</text></g></g><g class="non-terminal ">
<path d="M60.0 28h0.0" /><path d="M189.0 28h0.0" /><text class="comment" x="124.5" y="33">key_value_pattern</text></g></g><path d="M422.5 55h10" /><path d="M60.0 55a10 10 0 0 0 -10 10v48a10 10 0 0 0 10 10" /><g class="terminal ">
<path d="M60.0 123h158.5" /><path d="M264.0 123h158.5" /><rect height="22" rx="10" ry="10" width="45.5" x="218.5" y="112"></rect><text x="241.25" y="127">&apos;,&apos;</text></g><path d="M422.5 123a10 10 0 0 0 10 -10v-48a10 10 0 0 0 -10 -10" /></g><path d="M432.5 55h10" /><path d="M 442.5 55 h 20 m -10 -10 v 20 m 10 -20 v 20"></path></g><style>/* <![CDATA[ */
	svg.railroad-diagram {
		background-color:hsl(30,20%,95%);
	}
	svg.railroad-diagram path {
		stroke-width:3;
		stroke:black;
		fill:rgba(0,0,0,0);
	}
	svg.railroad-diagram text {
		font:bold 14px monospace;
		text-anchor:middle;
	}
	svg.railroad-diagram text.label{
		text-anchor:start;
	}
	svg.railroad-diagram text.comment{
		font:italic 12px monospace;
	}
	svg.railroad-diagram rect{
		stroke-width:3;
		stroke:black;
		fill:hsl(120,100%,90%);
	}
	svg.railroad-diagram rect.group-box {
		stroke: gray;
		stroke-dasharray: 10 5;
		fill: none;
	}

/* ]]> */
</style></svg>