<svg class="railroad-diagram" height="81" viewBox="0 0 284.5 81" width="284.5" xmlns="http://www.w3.org/2000/svg" xmlns:xlink="http://www.w3.org/1999/xlink">
<g transform="translate(.5 .5)">
<g>
<path d="M20 20v20m10 -20v20m-10 -10h20" /></g><g>
<path d="M40 30h0.0" /><path d="M244.5 30h0.0" /><path d="M40.0 30h20" /><g>
<path d="M60.0 30h164.5" /></g><path d="M224.5 30h20" /><path d="M40.0 30a10 10 0 0 1 10 10v0a10 10 0 0 0 10 10" /><g class="non-terminal ">
<path d="M60.0 50h0.0" /><path d="M224.5 50h0.0" /><rect height="22" width="164.5" x="60" y="39"></rect><text x="142.25" y="54">key_value_pattern</text></g><path d="M224.5 50a10 10 0 0 0 10 -10v0a10 10 0 0 1 10 -10" /></g><path d="M 244.5 30 h 20 m -10 -10 v 20 m 10 -20 v 20"></path></g><style>/* <![CDATA[ */
	svg.railroad-diagram {
		background-color:hsl(30,20%,95%);
	}
	svg.railroad-diagram path {
		stroke-width:3;
		stroke:black;
		fill:rgba(0,0,0,0);
	}
	svg.railroad-diagram text {
		font:bold 14px monospace;
		text-anchor:middle;
	}
	svg.railroad-diagram text.label{
		text-anchor:start;
	}
	svg.railroad-diagram text.comment{
		font:italic 12px monospace;
	}
	svg.railroad-diagram rect{
		stroke-width:3;
		stroke:black;
		fill:hsl(120,100%,90%);
	}
	svg.railroad-diagram rect.group-box {
		stroke: gray;
		stroke-dasharray: 10 5;
		fill: none;
	}

/* ]]> */
</style></svg>