<svg class="railroad-diagram" height="92" viewBox="0 0 442.5 92" width="442.5" xmlns="http://www.w3.org/2000/svg" xmlns:xlink="http://www.w3.org/1999/xlink">
<g transform="translate(.5 .5)">
<g>
<path d="M20 21v20m10 -20v20m-10 -10h20" /></g><path d="M40 31h10" /><g>
<path d="M50 31h0.0" /><path d="M392.5 31h0.0" /><g>
<path d="M50.0 31h0.0" /><path d="M237.5 31h0.0" /><path d="M50.0 31h20" /><g class="non-terminal ">
<path d="M70.0 31h0.0" /><path d="M217.5 31h0.0" /><rect height="22" width="147.5" x="70" y="20"></rect><text x="143.75" y="35">literal_pattern</text></g><path d="M217.5 31h20" /><path d="M50.0 31a10 10 0 0 1 10 10v10a10 10 0 0 0 10 10" /><g class="non-terminal ">
<path d="M70.0 61h46.75" /><path d="M170.75 61h46.75" /><rect height="22" width="54" x="116.75" y="50"></rect><text x="143.75" y="65">attr</text></g><path d="M217.5 61a10 10 0 0 0 10 -10v-10a10 10 0 0 1 10 -10" /></g><path d="M237.5 31h10" /><g class="terminal ">
<path d="M247.5 31h0.0" /><path d="M293.0 31h0.0" /><rect height="22" rx="10" ry="10" width="45.5" x="247.5" y="20"></rect><text x="270.25" y="35">&apos;:&apos;</text></g><path d="M293.0 31h10" /><path d="M303.0 31h10" /><g class="non-terminal ">
<path d="M313.0 31h0.0" /><path d="M392.5 31h0.0" /><rect height="22" width="79.5" x="313" y="20"></rect><text x="352.75" y="35">pattern</text></g></g><path d="M392.5 31h10" /><path d="M 402.5 31 h 20 m -10 -10 v 20 m 10 -20 v 20"></path></g><style>/* <![CDATA[ */
	svg.railroad-diagram {
		background-color:hsl(30,20%,95%);
	}
	svg.railroad-diagram path {
		stroke-width:3;
		stroke:black;
		fill:rgba(0,0,0,0);
	}
	svg.railroad-diagram text {
		font:bold 14px monospace;
		text-anchor:middle;
	}
	svg.railroad-diagram text.label{
		text-anchor:start;
	}
	svg.railroad-diagram text.comment{
		font:italic 12px monospace;
	}
	svg.railroad-diagram rect{
		stroke-width:3;
		stroke:black;
		fill:hsl(120,100%,90%);
	}
	svg.railroad-diagram rect.group-box {
		stroke: gray;
		stroke-dasharray: 10 5;
		fill: none;
	}

/* ]]> */
</style></svg>