<svg class="railroad-diagram" height="92" viewBox="0 0 577.0 92" width="577.0" xmlns="http://www.w3.org/2000/svg" xmlns:xlink="http://www.w3.org/1999/xlink">
<g transform="translate(.5 .5)">
<g>
<path d="M20 21v20m10 -20v20m-10 -10h154.5" /><text style="text-anchor:start" x="20" y="16">key_value_pattern</text></g><path d="M174.5 31h10" /><g>
<path d="M184.5 31h0.0" /><path d="M527.0 31h0.0" /><g>
<path d="M184.5 31h0.0" /><path d="M372.0 31h0.0" /><path d="M184.5 31h20" /><g class="non-terminal ">
<path d="M204.5 31h0.0" /><path d="M352.0 31h0.0" /><rect height="22" width="147.5" x="204.5" y="20"></rect><text x="278.25" y="35">literal_pattern</text></g><path d="M352.0 31h20" /><path d="M184.5 31a10 10 0 0 1 10 10v10a10 10 0 0 0 10 10" /><g class="non-terminal ">
<path d="M204.5 61h46.75" /><path d="M305.25 61h46.75" /><rect height="22" width="54" x="251.25" y="50"></rect><text x="278.25" y="65">attr</text></g><path d="M352.0 61a10 10 0 0 0 10 -10v-10a10 10 0 0 1 10 -10" /></g><path d="M372.0 31h10" /><g class="terminal ">
<path d="M382.0 31h0.0" /><path d="M427.5 31h0.0" /><rect height="22" rx="10" ry="10" width="45.5" x="382" y="20"></rect><text x="404.75" y="35">&apos;:&apos;</text></g><path d="M427.5 31h10" /><path d="M437.5 31h10" /><g class="non-terminal ">
<path d="M447.5 31h0.0" /><path d="M527.0 31h0.0" /><rect height="22" width="79.5" x="447.5" y="20"></rect><text x="487.25" y="35">pattern</text></g></g><path d="M527.0 31h10" /><path d="M 537.0 31 h 20 m -10 -10 v 20 m 10 -20 v 20"></path></g><style>/* <![CDATA[ */
	svg.railroad-diagram {
		background-color:hsl(30,20%,95%);
	}
	svg.railroad-diagram path {
		stroke-width:3;
		stroke:black;
		fill:rgba(0,0,0,0);
	}
	svg.railroad-diagram text {
		font:bold 14px monospace;
		text-anchor:middle;
	}
	svg.railroad-diagram text.label{
		text-anchor:start;
	}
	svg.railroad-diagram text.comment{
		font:italic 12px monospace;
	}
	svg.railroad-diagram rect{
		stroke-width:3;
		stroke:black;
		fill:hsl(120,100%,90%);
	}
	svg.railroad-diagram rect.group-box {
		stroke: gray;
		stroke-dasharray: 10 5;
		fill: none;
	}

/* ]]> */
</style></svg>