<svg class="railroad-diagram" height="81" viewBox="0 0 465.0 81" width="465.0" xmlns="http://www.w3.org/2000/svg" xmlns:xlink="http://www.w3.org/1999/xlink">
<g transform="translate(.5 .5)">
<g>
<path d="M20 20v20m10 -20v20m-10 -10h146.0" /><text style="text-anchor:start" x="20" y="15">keyword_patterns</text></g><g>
<path d="M166.0 30h0.0" /><path d="M425.0 30h0.0" /><path d="M166.0 30h20" /><g>
<path d="M186.0 30h219.0" /></g><path d="M405.0 30h20" /><path d="M166.0 30a10 10 0 0 1 10 10v0a10 10 0 0 0 10 10" /><g>
<path d="M186.0 50h0.0" /><path d="M405.0 50h0.0" /><g class="terminal ">
<path d="M186.0 50h0.0" /><path d="M240.0 50h0.0" /><rect height="22" rx="10" ry="10" width="54" x="186" y="39"></rect><text x="213" y="54">NAME</text></g><path d="M240.0 50h10" /><path d="M250.0 50h10" /><g class="terminal ">
<path d="M260.0 50h0.0" /><path d="M305.5 50h0.0" /><rect height="22" rx="10" ry="10" width="45.5" x="260" y="39"></rect><text x="282.75" y="54">&apos;=&apos;</text></g><path d="M305.5 50h10" /><path d="M315.5 50h10" /><g class="non-terminal ">
<path d="M325.5 50h0.0" /><path d="M405.0 50h0.0" /><rect height="22" width="79.5" x="325.5" y="39"></rect><text x="365.25" y="54">pattern</text></g></g><path d="M405.0 50a10 10 0 0 0 10 -10v0a10 10 0 0 1 10 -10" /></g><path d="M 425.0 30 h 20 m -10 -10 v 20 m 10 -20 v 20"></path></g><style>/* <![CDATA[ */
	svg.railroad-diagram {
		background-color:hsl(30,20%,95%);
	}
	svg.railroad-diagram path {
		stroke-width:3;
		stroke:black;
		fill:rgba(0,0,0,0);
	}
	svg.railroad-diagram text {
		font:bold 14px monospace;
		text-anchor:middle;
	}
	svg.railroad-diagram text.label{
		text-anchor:start;
	}
	svg.railroad-diagram text.comment{
		font:italic 12px monospace;
	}
	svg.railroad-diagram rect{
		stroke-width:3;
		stroke:black;
		fill:hsl(120,100%,90%);
	}
	svg.railroad-diagram rect.group-box {
		stroke: gray;
		stroke-dasharray: 10 5;
		fill: none;
	}

/* ]]> */
</style></svg>