<svg class="railroad-diagram" height="191" viewBox="0 0 765.5 191" width="765.5" xmlns="http://www.w3.org/2000/svg" xmlns:xlink="http://www.w3.org/1999/xlink">
<g transform="translate(.5 .5)">
<g>
<path d="M20 30v20m10 -20v20m-10 -10h20" /></g><g>
<path d="M40 40h0.0" /><path d="M725.5 40h0.0" /><path d="M40.0 40h20" /><g>
<path d="M60.0 40h0.0" /><path d="M705.5 40h0.0" /><g>
<path d="M60.0 40h0.0" /><path d="M354.5 40h0.0" /><path d="M60.0 40h10" /><g>
<path d="M70.0 40h0.0" /><path d="M344.5 40h0.0" /><g>
<path d="M70.0 40h0.0" /><path d="M229.5 40h0.0" /><path d="M70.0 40h20" /><g>
<path d="M90.0 40h0.0" /><path d="M209.5 40h0.0" /><g class="terminal ">
<path d="M90.0 40h0.0" /><path d="M144.0 40h0.0" /><rect height="22" rx="10" ry="10" width="54" x="90" y="29"></rect><text x="117" y="44">NAME</text></g><path d="M144.0 40h10" /><path d="M154.0 40h10" /><g class="terminal ">
<path d="M164.0 40h0.0" /><path d="M209.5 40h0.0" /><rect height="22" rx="10" ry="10" width="45.5" x="164" y="29"></rect><text x="186.75" y="44">&apos;=&apos;</text></g></g><path d="M209.5 40h20" /><path d="M70.0 40a10 10 0 0 1 10 10v10a10 10 0 0 0 10 10" /><g class="terminal ">
<path d="M90.0 70h37.0" /><path d="M172.5 70h37.0" /><rect height="22" rx="10" ry="10" width="45.5" x="127" y="59"></rect><text x="149.75" y="74">&apos;*&apos;</text></g><path d="M209.5 70a10 10 0 0 0 10 -10v-10a10 10 0 0 1 10 -10" /></g><path d="M229.5 40h10" /><g class="non-terminal ">
<path d="M239.5 40h0.0" /><path d="M344.5 40h0.0" /><rect height="22" width="105" x="239.5" y="29"></rect><text x="292" y="44">expression</text></g></g><path d="M344.5 40h10" /><path d="M70.0 40a10 10 0 0 0 -10 10v40a10 10 0 0 0 10 10" /><g class="terminal ">
<path d="M70.0 100h114.5" /><path d="M230.0 100h114.5" /><rect height="22" rx="10" ry="10" width="45.5" x="184.5" y="89"></rect><text x="207.25" y="104">&apos;,&apos;</text></g><path d="M344.5 100a10 10 0 0 0 10 -10v-40a10 10 0 0 0 -10 -10" /></g><path d="M354.5 40h10" /><g>
<path d="M364.5 40h0.0" /><path d="M705.5 40h0.0" /><path d="M364.5 40a10 10 0 0 0 10 -10v0a10 10 0 0 1 10 -10" /><g>
<path d="M384.5 20h301.0" /></g><path d="M685.5 20a10 10 0 0 1 10 10v0a10 10 0 0 0 10 10" /><path d="M364.5 40h20" /><g>
<path d="M384.5 40h0.0" /><path d="M685.5 40h0.0" /><g class="terminal ">
<path d="M384.5 40h0.0" /><path d="M430.0 40h0.0" /><rect height="22" rx="10" ry="10" width="45.5" x="384.5" y="29"></rect><text x="407.25" y="44">&apos;,&apos;</text></g><path d="M430.0 40h10" /><path d="M440.0 40h10" /><g>
<path d="M450.0 40h0.0" /><path d="M685.5 40h0.0" /><path d="M450.0 40h10" /><g class="non-terminal ">
<path d="M460.0 40h0.0" /><path d="M675.5 40h0.0" /><rect height="22" width="215.5" x="460" y="29"></rect><text x="567.75" y="44">kwarg_or_double_starred</text></g><path d="M675.5 40h10" /><path d="M460.0 40a10 10 0 0 0 -10 10v10a10 10 0 0 0 10 10" /><g class="terminal ">
<path d="M460.0 70h85.0" /><path d="M590.5 70h85.0" /><rect height="22" rx="10" ry="10" width="45.5" x="545" y="59"></rect><text x="567.75" y="74">&apos;,&apos;</text></g><path d="M675.5 70a10 10 0 0 0 10 -10v-10a10 10 0 0 0 -10 -10" /></g></g><path d="M685.5 40h20" /></g></g><path d="M705.5 40h20" /><path d="M40.0 40a10 10 0 0 1 10 10v70a10 10 0 0 0 10 10" /><g>
<path d="M60.0 130h205.0" /><path d="M500.5 130h205.0" /><path d="M265.0 130h10" /><g class="non-terminal ">
<path d="M275.0 130h0.0" /><path d="M490.5 130h0.0" /><rect height="22" width="215.5" x="275" y="119"></rect><text x="382.75" y="134">kwarg_or_double_starred</text></g><path d="M490.5 130h10" /><path d="M275.0 130a10 10 0 0 0 -10 10v10a10 10 0 0 0 10 10" /><g class="terminal ">
<path d="M275.0 160h85.0" /><path d="M405.5 160h85.0" /><rect height="22" rx="10" ry="10" width="45.5" x="360" y="149"></rect><text x="382.75" y="164">&apos;,&apos;</text></g><path d="M490.5 160a10 10 0 0 0 10 -10v-10a10 10 0 0 0 -10 -10" /></g><path d="M705.5 130a10 10 0 0 0 10 -10v-70a10 10 0 0 1 10 -10" /></g><path d="M 725.5 40 h 20 m -10 -10 v 20 m 10 -20 v 20"></path></g><style>/* <![CDATA[ */
	svg.railroad-diagram {
		background-color:hsl(30,20%,95%);
	}
	svg.railroad-diagram path {
		stroke-width:3;
		stroke:black;
		fill:rgba(0,0,0,0);
	}
	svg.railroad-diagram text {
		font:bold 14px monospace;
		text-anchor:middle;
	}
	svg.railroad-diagram text.label{
		text-anchor:start;
	}
	svg.railroad-diagram text.comment{
		font:italic 12px monospace;
	}
	svg.railroad-diagram rect{
		stroke-width:3;
		stroke:black;
		fill:hsl(120,100%,90%);
	}
	svg.railroad-diagram rect.group-box {
		stroke: gray;
		stroke-dasharray: 10 5;
		fill: none;
	}

/* ]]> */
</style></svg>