<svg class="railroad-diagram" height="160" viewBox="0 0 785.5 160" width="785.5" xmlns="http://www.w3.org/2000/svg" xmlns:xlink="http://www.w3.org/1999/xlink">
<g transform="translate(.5 .5)">
<g>
<path d="M20 30v20m10 -20v20m-10 -10h20" /></g><g>
<path d="M40 40h0.0" /><path d="M745.5 40h0.0" /><path d="M40.0 40h20" /><g>
<path d="M60.0 40h0.0" /><path d="M725.5 40h0.0" /><g>
<path d="M60.0 40h0.0" /><path d="M374.5 40h0.0" /><path d="M60.0 40h20" /><g>
<path d="M80.0 40h274.5" /></g><path d="M354.5 40h20" /><path d="M60.0 40a10 10 0 0 1 10 10v0a10 10 0 0 0 10 10" /><g>
<path d="M80.0 60h0.0" /><path d="M354.5 60h0.0" /><g>
<path d="M80.0 60h0.0" /><path d="M239.5 60h0.0" /><path d="M80.0 60h20" /><g>
<path d="M100.0 60h0.0" /><path d="M219.5 60h0.0" /><g class="terminal ">
<path d="M100.0 60h0.0" /><path d="M154.0 60h0.0" /><rect height="22" rx="10" ry="10" width="54" x="100" y="49"></rect><text x="127" y="64">NAME</text></g><path d="M154.0 60h10" /><path d="M164.0 60h10" /><g class="terminal ">
<path d="M174.0 60h0.0" /><path d="M219.5 60h0.0" /><rect height="22" rx="10" ry="10" width="45.5" x="174" y="49"></rect><text x="196.75" y="64">&apos;=&apos;</text></g></g><path d="M219.5 60h20" /><path d="M80.0 60a10 10 0 0 1 10 10v10a10 10 0 0 0 10 10" /><g class="terminal ">
<path d="M100.0 90h37.0" /><path d="M182.5 90h37.0" /><rect height="22" rx="10" ry="10" width="45.5" x="137" y="79"></rect><text x="159.75" y="94">&apos;*&apos;</text></g><path d="M219.5 90a10 10 0 0 0 10 -10v-10a10 10 0 0 1 10 -10" /></g><path d="M239.5 60h10" /><g class="non-terminal ">
<path d="M249.5 60h0.0" /><path d="M354.5 60h0.0" /><rect height="22" width="105" x="249.5" y="49"></rect><text x="302" y="64">expression</text></g></g><path d="M354.5 60a10 10 0 0 0 10 -10v0a10 10 0 0 1 10 -10" /></g><g>
<path d="M374.5 40h0.0" /><path d="M725.5 40h0.0" /><path d="M374.5 40a10 10 0 0 0 10 -10v0a10 10 0 0 1 10 -10" /><g>
<path d="M394.5 20h311.0" /></g><path d="M705.5 20a10 10 0 0 1 10 10v0a10 10 0 0 0 10 10" /><path d="M374.5 40h20" /><g>
<path d="M394.5 40h0.0" /><path d="M705.5 40h0.0" /><g class="terminal ">
<path d="M394.5 40h0.0" /><path d="M440.0 40h0.0" /><rect height="22" rx="10" ry="10" width="45.5" x="394.5" y="29"></rect><text x="417.25" y="44">&apos;,&apos;</text></g><path d="M440.0 40h10" /><g>
<path d="M450.0 40h0.0" /><path d="M705.5 40h0.0" /><path d="M450.0 40h20" /><g>
<path d="M470.0 40h215.5" /></g><path d="M685.5 40h20" /><path d="M450.0 40a10 10 0 0 1 10 10v0a10 10 0 0 0 10 10" /><g class="non-terminal ">
<path d="M470.0 60h0.0" /><path d="M685.5 60h0.0" /><rect height="22" width="215.5" x="470" y="49"></rect><text x="577.75" y="64">kwarg_or_double_starred</text></g><path d="M685.5 60a10 10 0 0 0 10 -10v0a10 10 0 0 1 10 -10" /></g></g><path d="M705.5 40h20" /></g></g><path d="M725.5 40h20" /><path d="M40.0 40a10 10 0 0 1 10 10v49a10 10 0 0 0 10 10" /><g>
<path d="M60.0 109h205.0" /><path d="M520.5 109h205.0" /><path d="M265.0 109h20" /><g>
<path d="M285.0 109h215.5" /></g><path d="M500.5 109h20" /><path d="M265.0 109a10 10 0 0 1 10 10v0a10 10 0 0 0 10 10" /><g class="non-terminal ">
<path d="M285.0 129h0.0" /><path d="M500.5 129h0.0" /><rect height="22" width="215.5" x="285" y="118"></rect><text x="392.75" y="133">kwarg_or_double_starred</text></g><path d="M500.5 129a10 10 0 0 0 10 -10v0a10 10 0 0 1 10 -10" /></g><path d="M725.5 109a10 10 0 0 0 10 -10v-49a10 10 0 0 1 10 -10" /></g><path d="M 745.5 40 h 20 m -10 -10 v 20 m 10 -20 v 20"></path></g><style>/* <![CDATA[ */
	svg.railroad-diagram {
		background-color:hsl(30,20%,95%);
	}
	svg.railroad-diagram path {
		stroke-width:3;
		stroke:black;
		fill:rgba(0,0,0,0);
	}
	svg.railroad-diagram text {
		font:bold 14px monospace;
		text-anchor:middle;
	}
	svg.railroad-diagram text.label{
		text-anchor:start;
	}
	svg.railroad-diagram text.comment{
		font:italic 12px monospace;
	}
	svg.railroad-diagram rect{
		stroke-width:3;
		stroke:black;
		fill:hsl(120,100%,90%);
	}
	svg.railroad-diagram rect.group-box {
		stroke: gray;
		stroke-dasharray: 10 5;
		fill: none;
	}

/* ]]> */
</style></svg>