<svg class="railroad-diagram" height="92" viewBox="0 0 374.5 92" width="374.5" xmlns="http://www.w3.org/2000/svg" xmlns:xlink="http://www.w3.org/1999/xlink">
<g transform="translate(.5 .5)">
<g>
<path d="M20 21v20m10 -20v20m-10 -10h20" /></g><path d="M40 31h10" /><g>
<path d="M50 31h0.0" /><path d="M324.5 31h0.0" /><g>
<path d="M50.0 31h0.0" /><path d="M209.5 31h0.0" /><path d="M50.0 31h20" /><g>
<path d="M70.0 31h0.0" /><path d="M189.5 31h0.0" /><g class="terminal ">
<path d="M70.0 31h0.0" /><path d="M124.0 31h0.0" /><rect height="22" rx="10" ry="10" width="54" x="70" y="20"></rect><text x="97" y="35">NAME</text></g><path d="M124.0 31h10" /><path d="M134.0 31h10" /><g class="terminal ">
<path d="M144.0 31h0.0" /><path d="M189.5 31h0.0" /><rect height="22" rx="10" ry="10" width="45.5" x="144" y="20"></rect><text x="166.75" y="35">&apos;=&apos;</text></g></g><path d="M189.5 31h20" /><path d="M50.0 31a10 10 0 0 1 10 10v10a10 10 0 0 0 10 10" /><g class="terminal ">
<path d="M70.0 61h32.75" /><path d="M156.75 61h32.75" /><rect height="22" rx="10" ry="10" width="54" x="102.75" y="50"></rect><text x="129.75" y="65">&apos;**&apos;</text></g><path d="M189.5 61a10 10 0 0 0 10 -10v-10a10 10 0 0 1 10 -10" /></g><path d="M209.5 31h10" /><g class="non-terminal ">
<path d="M219.5 31h0.0" /><path d="M324.5 31h0.0" /><rect height="22" width="105" x="219.5" y="20"></rect><text x="272" y="35">expression</text></g></g><path d="M324.5 31h10" /><path d="M 334.5 31 h 20 m -10 -10 v 20 m 10 -20 v 20"></path></g><style>/* <![CDATA[ */
	svg.railroad-diagram {
		background-color:hsl(30,20%,95%);
	}
	svg.railroad-diagram path {
		stroke-width:3;
		stroke:black;
		fill:rgba(0,0,0,0);
	}
	svg.railroad-diagram text {
		font:bold 14px monospace;
		text-anchor:middle;
	}
	svg.railroad-diagram text.label{
		text-anchor:start;
	}
	svg.railroad-diagram text.comment{
		font:italic 12px monospace;
	}
	svg.railroad-diagram rect{
		stroke-width:3;
		stroke:black;
		fill:hsl(120,100%,90%);
	}
	svg.railroad-diagram rect.group-box {
		stroke: gray;
		stroke-dasharray: 10 5;
		fill: none;
	}

/* ]]> */
</style></svg>