<svg class="railroad-diagram" height="71" viewBox="0 0 598.5 71" width="598.5" xmlns="http://www.w3.org/2000/svg" xmlns:xlink="http://www.w3.org/1999/xlink">
<g transform="translate(.5 .5)">
<g>
<path d="M20 30v20m10 -20v20m-10 -10h69.5" /><text style="text-anchor:start" x="20" y="25">lambdef</text></g><path d="M89.5 40h10" /><g>
<path d="M99.5 40h0.0" /><path d="M548.5 40h0.0" /><g class="terminal ">
<path d="M99.5 40h0.0" /><path d="M187.5 40h0.0" /><rect height="22" rx="10" ry="10" width="88" x="99.5" y="29"></rect><text x="143.5" y="44">&apos;lambda&apos;</text></g><path d="M187.5 40h10" /><g>
<path d="M197.5 40h0.0" /><path d="M368.0 40h0.0" /><path d="M197.5 40a10 10 0 0 0 10 -10v0a10 10 0 0 1 10 -10" /><g>
<path d="M217.5 20h130.5" /></g><path d="M348.0 20a10 10 0 0 1 10 10v0a10 10 0 0 0 10 10" /><path d="M197.5 40h20" /><g class="non-terminal ">
<path d="M217.5 40h0.0" /><path d="M348.0 40h0.0" /><rect height="22" width="130.5" x="217.5" y="29"></rect><text x="282.75" y="44">lambda_params</text></g><path d="M348.0 40h20" /></g><path d="M368.0 40h10" /><g class="terminal ">
<path d="M378.0 40h0.0" /><path d="M423.5 40h0.0" /><rect height="22" rx="10" ry="10" width="45.5" x="378" y="29"></rect><text x="400.75" y="44">&apos;:&apos;</text></g><path d="M423.5 40h10" /><path d="M433.5 40h10" /><g class="non-terminal ">
<path d="M443.5 40h0.0" /><path d="M548.5 40h0.0" /><rect height="22" width="105" x="443.5" y="29"></rect><text x="496" y="44">expression</text></g></g><path d="M548.5 40h10" /><path d="M 558.5 40 h 20 m -10 -10 v 20 m 10 -20 v 20"></path></g><style>/* <![CDATA[ */
	svg.railroad-diagram {
		background-color:hsl(30,20%,95%);
	}
	svg.railroad-diagram path {
		stroke-width:3;
		stroke:black;
		fill:rgba(0,0,0,0);
	}
	svg.railroad-diagram text {
		font:bold 14px monospace;
		text-anchor:middle;
	}
	svg.railroad-diagram text.label{
		text-anchor:start;
	}
	svg.railroad-diagram text.comment{
		font:italic 12px monospace;
	}
	svg.railroad-diagram rect{
		stroke-width:3;
		stroke:black;
		fill:hsl(120,100%,90%);
	}
	svg.railroad-diagram rect.group-box {
		stroke: gray;
		stroke-dasharray: 10 5;
		fill: none;
	}

/* ]]> */
</style></svg>