<svg class="railroad-diagram" height="141" viewBox="0 0 832.0 141" width="832.0" xmlns="http://www.w3.org/2000/svg" xmlns:xlink="http://www.w3.org/1999/xlink">
<g transform="translate(.5 .5)">
<g>
<path d="M20 30v20m10 -20v20m-10 -10h20" /></g><path d="M40 40h10" /><g>
<path d="M50 40h0.0" /><path d="M782.0 40h0.0" /><g>
<path d="M50.0 40h0.0" /><path d="M287.0 40h0.0" /><path d="M50.0 40a10 10 0 0 0 10 -10v0a10 10 0 0 1 10 -10" /><g>
<path d="M70.0 20h197.0" /></g><path d="M267.0 20a10 10 0 0 1 10 10v0a10 10 0 0 0 10 10" /><path d="M50.0 40h20" /><g>
<path d="M70.0 40h0.0" /><path d="M267.0 40h0.0" /><path d="M70.0 40h10" /><g>
<path d="M80.0 40h0.0" /><path d="M257.0 40h0.0" /><g class="terminal ">
<path d="M80.0 40h0.0" /><path d="M134.0 40h0.0" /><rect height="22" rx="10" ry="10" width="54" x="80" y="29"></rect><text x="107" y="44">NAME</text></g><path d="M134.0 40h10" /><g>
<path d="M144.0 40h0.0" /><path d="M257.0 40h0.0" /><path d="M144.0 40h20" /><g class="terminal ">
<path d="M164.0 40h13.75" /><path d="M223.25 40h13.75" /><rect height="22" rx="10" ry="10" width="45.5" x="177.75" y="29"></rect><text x="200.5" y="44">&apos;,&apos;</text></g><path d="M237.0 40h20" /><path d="M144.0 40a10 10 0 0 1 10 10v34a10 10 0 0 0 10 10" /><g>
<path d="M164.0 94h0.0" /><path d="M237.0 94h0.0" /><rect class="group-box" height="38" rx="10" ry="10" width="73" x="164" y="75"></rect><g class="terminal ">
<path d="M164.0 94h13.75" /><path d="M223.25 94h13.75" /><rect height="22" rx="10" ry="10" width="45.5" x="177.75" y="83"></rect><text x="200.5" y="98">&apos;:&apos;</text></g><g class="non-terminal ">
<path d="M164.0 67h0.0" /><path d="M237.0 67h0.0" /><text class="comment" x="200.5" y="72">lookahead</text></g></g><path d="M237.0 94a10 10 0 0 0 10 -10v-34a10 10 0 0 1 10 -10" /></g></g><path d="M257.0 40h10" /><path d="M80.0 40a10 10 0 0 0 -10 10v61a10 10 0 0 0 10 10" /><g>
<path d="M80.0 121h177.0" /></g><path d="M257.0 121a10 10 0 0 0 10 -10v-61a10 10 0 0 0 -10 -10" /></g><path d="M267.0 40h20" /></g><path d="M287.0 40h10" /><g>
<path d="M297.0 40h0.0" /><path d="M593.5 40h0.0" /><path d="M297.0 40h10" /><g>
<path d="M307.0 40h0.0" /><path d="M583.5 40h0.0" /><g class="terminal ">
<path d="M307.0 40h0.0" /><path d="M361.0 40h0.0" /><rect height="22" rx="10" ry="10" width="54" x="307" y="29"></rect><text x="334" y="44">NAME</text></g><path d="M361.0 40h10" /><path d="M371.0 40h10" /><g class="non-terminal ">
<path d="M381.0 40h0.0" /><path d="M460.5 40h0.0" /><rect height="22" width="79.5" x="381" y="29"></rect><text x="420.75" y="44">default</text></g><path d="M460.5 40h10" /><g>
<path d="M470.5 40h0.0" /><path d="M583.5 40h0.0" /><path d="M470.5 40h20" /><g class="terminal ">
<path d="M490.5 40h13.75" /><path d="M549.75 40h13.75" /><rect height="22" rx="10" ry="10" width="45.5" x="504.25" y="29"></rect><text x="527" y="44">&apos;,&apos;</text></g><path d="M563.5 40h20" /><path d="M470.5 40a10 10 0 0 1 10 10v34a10 10 0 0 0 10 10" /><g>
<path d="M490.5 94h0.0" /><path d="M563.5 94h0.0" /><rect class="group-box" height="38" rx="10" ry="10" width="73" x="490.5" y="75"></rect><g class="terminal ">
<path d="M490.5 94h13.75" /><path d="M549.75 94h13.75" /><rect height="22" rx="10" ry="10" width="45.5" x="504.25" y="83"></rect><text x="527" y="98">&apos;:&apos;</text></g><g class="non-terminal ">
<path d="M490.5 67h0.0" /><path d="M563.5 67h0.0" /><text class="comment" x="527" y="72">lookahead</text></g></g><path d="M563.5 94a10 10 0 0 0 10 -10v-34a10 10 0 0 1 10 -10" /></g></g><path d="M583.5 40h10" /><path d="M307.0 40a10 10 0 0 0 -10 10v61a10 10 0 0 0 10 10" /><g>
<path d="M307.0 121h276.5" /></g><path d="M583.5 121a10 10 0 0 0 10 -10v-61a10 10 0 0 0 -10 -10" /></g><path d="M593.5 40h10" /><path d="M603.5 40h10" /><g class="terminal ">
<path d="M613.5 40h0.0" /><path d="M659.0 40h0.0" /><rect height="22" rx="10" ry="10" width="45.5" x="613.5" y="29"></rect><text x="636.25" y="44">&apos;/&apos;</text></g><path d="M659.0 40h10" /><g>
<path d="M669.0 40h0.0" /><path d="M782.0 40h0.0" /><path d="M669.0 40h20" /><g class="terminal ">
<path d="M689.0 40h13.75" /><path d="M748.25 40h13.75" /><rect height="22" rx="10" ry="10" width="45.5" x="702.75" y="29"></rect><text x="725.5" y="44">&apos;,&apos;</text></g><path d="M762.0 40h20" /><path d="M669.0 40a10 10 0 0 1 10 10v34a10 10 0 0 0 10 10" /><g>
<path d="M689.0 94h0.0" /><path d="M762.0 94h0.0" /><rect class="group-box" height="38" rx="10" ry="10" width="73" x="689" y="75"></rect><g class="terminal ">
<path d="M689.0 94h13.75" /><path d="M748.25 94h13.75" /><rect height="22" rx="10" ry="10" width="45.5" x="702.75" y="83"></rect><text x="725.5" y="98">&apos;:&apos;</text></g><g class="non-terminal ">
<path d="M689.0 67h0.0" /><path d="M762.0 67h0.0" /><text class="comment" x="725.5" y="72">lookahead</text></g></g><path d="M762.0 94a10 10 0 0 0 10 -10v-34a10 10 0 0 1 10 -10" /></g></g><path d="M782.0 40h10" /><path d="M 792.0 40 h 20 m -10 -10 v 20 m 10 -20 v 20"></path></g><style>/* <![CDATA[ */
	svg.railroad-diagram {
		background-color:hsl(30,20%,95%);
	}
	svg.railroad-diagram path {
		stroke-width:3;
		stroke:black;
		fill:rgba(0,0,0,0);
	}
	svg.railroad-diagram text {
		font:bold 14px monospace;
		text-anchor:middle;
	}
	svg.railroad-diagram text.label{
		text-anchor:start;
	}
	svg.railroad-diagram text.comment{
		font:italic 12px monospace;
	}
	svg.railroad-diagram rect{
		stroke-width:3;
		stroke:black;
		fill:hsl(120,100%,90%);
	}
	svg.railroad-diagram rect.group-box {
		stroke: gray;
		stroke-dasharray: 10 5;
		fill: none;
	}

/* ]]> */
</style></svg>