<svg class="railroad-diagram" height="423" viewBox="0 0 1139.5 423" width="1139.5" xmlns="http://www.w3.org/2000/svg" xmlns:xlink="http://www.w3.org/1999/xlink">
<g transform="translate(.5 .5)">
<g>
<path d="M20 30v20m10 -20v20m-10 -10h20" /></g><g>
<path d="M40 40h0.0" /><path d="M1099.5 40h0.0" /><path d="M40.0 40h20" /><g>
<path d="M60.0 40h0.0" /><path d="M1079.5 40h0.0" /><g>
<path d="M60.0 40h0.0" /><path d="M892.0 40h0.0" /><path d="M60.0 40h20" /><g>
<path d="M80.0 40h0.0" /><path d="M872.0 40h0.0" /><g>
<path d="M80.0 40h0.0" /><path d="M535.5 40h0.0" /><path d="M80.0 40h20" /><g>
<path d="M100.0 40h0.0" /><path d="M515.5 40h0.0" /><g>
<path d="M100.0 40h0.0" /><path d="M297.0 40h0.0" /><path d="M100.0 40h10" /><g>
<path d="M110.0 40h0.0" /><path d="M287.0 40h0.0" /><g class="terminal ">
<path d="M110.0 40h0.0" /><path d="M164.0 40h0.0" /><rect height="22" rx="10" ry="10" width="54" x="110" y="29"></rect><text x="137" y="44">NAME</text></g><path d="M164.0 40h10" /><g>
<path d="M174.0 40h0.0" /><path d="M287.0 40h0.0" /><path d="M174.0 40h20" /><g class="terminal ">
<path d="M194.0 40h13.75" /><path d="M253.25 40h13.75" /><rect height="22" rx="10" ry="10" width="45.5" x="207.75" y="29"></rect><text x="230.5" y="44">&apos;,&apos;</text></g><path d="M267.0 40h20" /><path d="M174.0 40a10 10 0 0 1 10 10v34a10 10 0 0 0 10 10" /><g>
<path d="M194.0 94h0.0" /><path d="M267.0 94h0.0" /><rect class="group-box" height="38" rx="10" ry="10" width="73" x="194" y="75"></rect><g class="terminal ">
<path d="M194.0 94h13.75" /><path d="M253.25 94h13.75" /><rect height="22" rx="10" ry="10" width="45.5" x="207.75" y="83"></rect><text x="230.5" y="98">&apos;:&apos;</text></g><g class="non-terminal ">
<path d="M194.0 67h0.0" /><path d="M267.0 67h0.0" /><text class="comment" x="230.5" y="72">lookahead</text></g></g><path d="M267.0 94a10 10 0 0 0 10 -10v-34a10 10 0 0 1 10 -10" /></g></g><path d="M287.0 40h10" /><path d="M110.0 40a10 10 0 0 0 -10 10v61a10 10 0 0 0 10 10" /><g>
<path d="M110.0 121h177.0" /></g><path d="M287.0 121a10 10 0 0 0 10 -10v-61a10 10 0 0 0 -10 -10" /></g><path d="M297.0 40h10" /><path d="M307.0 40h10" /><g class="terminal ">
<path d="M317.0 40h0.0" /><path d="M362.5 40h0.0" /><rect height="22" rx="10" ry="10" width="45.5" x="317" y="29"></rect><text x="339.75" y="44">&apos;/&apos;</text></g><path d="M362.5 40h10" /><path d="M372.5 40h10" /><g>
<path d="M382.5 40h0.0" /><path d="M515.5 40h0.0" /><path d="M382.5 40h10" /><g>
<path d="M392.5 40h0.0" /><path d="M505.5 40h0.0" /><path d="M392.5 40h20" /><g class="terminal ">
<path d="M412.5 40h13.75" /><path d="M471.75 40h13.75" /><rect height="22" rx="10" ry="10" width="45.5" x="426.25" y="29"></rect><text x="449" y="44">&apos;,&apos;</text></g><path d="M485.5 40h20" /><path d="M392.5 40a10 10 0 0 1 10 10v34a10 10 0 0 0 10 10" /><g>
<path d="M412.5 94h0.0" /><path d="M485.5 94h0.0" /><rect class="group-box" height="38" rx="10" ry="10" width="73" x="412.5" y="75"></rect><g class="terminal ">
<path d="M412.5 94h13.75" /><path d="M471.75 94h13.75" /><rect height="22" rx="10" ry="10" width="45.5" x="426.25" y="83"></rect><text x="449" y="98">&apos;:&apos;</text></g><g class="non-terminal ">
<path d="M412.5 67h0.0" /><path d="M485.5 67h0.0" /><text class="comment" x="449" y="72">lookahead</text></g></g><path d="M485.5 94a10 10 0 0 0 10 -10v-34a10 10 0 0 1 10 -10" /></g><path d="M505.5 40h10" /><path d="M392.5 40a10 10 0 0 0 -10 10v72a10 10 0 0 0 10 10" /><g class="terminal ">
<path d="M392.5 132h29.5" /><path d="M476.0 132h29.5" /><rect height="22" rx="10" ry="10" width="54" x="422" y="121"></rect><text x="449" y="136">NAME</text></g><path d="M505.5 132a10 10 0 0 0 10 -10v-72a10 10 0 0 0 -10 -10" /></g></g><path d="M515.5 40h20" /><path d="M80.0 40a10 10 0 0 1 10 10v102a10 10 0 0 0 10 10" /><g class="non-terminal ">
<path d="M100.0 162h91.5" /><path d="M424.0 162h91.5" /><rect height="22" width="232.5" x="191.5" y="151"></rect><text x="307.75" y="166">lambda_slash_with_default</text></g><path d="M515.5 162a10 10 0 0 0 10 -10v-102a10 10 0 0 1 10 -10" /><path d="M80.0 40a10 10 0 0 1 10 10v132a10 10 0 0 0 10 10" /><g>
<path d="M100.0 192h109.25" /><path d="M406.25 192h109.25" /><path d="M209.25 192h10" /><g>
<path d="M219.25 192h0.0" /><path d="M396.25 192h0.0" /><g class="terminal ">
<path d="M219.25 192h0.0" /><path d="M273.25 192h0.0" /><rect height="22" rx="10" ry="10" width="54" x="219.25" y="181"></rect><text x="246.25" y="196">NAME</text></g><path d="M273.25 192h10" /><g>
<path d="M283.25 192h0.0" /><path d="M396.25 192h0.0" /><path d="M283.25 192h20" /><g class="terminal ">
<path d="M303.25 192h13.75" /><path d="M362.5 192h13.75" /><rect height="22" rx="10" ry="10" width="45.5" x="317" y="181"></rect><text x="339.75" y="196">&apos;,&apos;</text></g><path d="M376.25 192h20" /><path d="M283.25 192a10 10 0 0 1 10 10v34a10 10 0 0 0 10 10" /><g>
<path d="M303.25 246h0.0" /><path d="M376.25 246h0.0" /><rect class="group-box" height="38" rx="10" ry="10" width="73" x="303.25" y="227"></rect><g class="terminal ">
<path d="M303.25 246h13.75" /><path d="M362.5 246h13.75" /><rect height="22" rx="10" ry="10" width="45.5" x="317" y="235"></rect><text x="339.75" y="250">&apos;:&apos;</text></g><g class="non-terminal ">
<path d="M303.25 219h0.0" /><path d="M376.25 219h0.0" /><text class="comment" x="339.75" y="224">lookahead</text></g></g><path d="M376.25 246a10 10 0 0 0 10 -10v-34a10 10 0 0 1 10 -10" /></g></g><path d="M396.25 192h10" /><path d="M219.25 192a10 10 0 0 0 -10 10v61a10 10 0 0 0 10 10" /><g>
<path d="M219.25 273h177.0" /></g><path d="M396.25 273a10 10 0 0 0 10 -10v-61a10 10 0 0 0 -10 -10" /></g><path d="M515.5 192a10 10 0 0 0 10 -10v-132a10 10 0 0 1 10 -10" /></g><g>
<path d="M535.5 40h0.0" /><path d="M872.0 40h0.0" /><path d="M535.5 40a10 10 0 0 0 10 -10v0a10 10 0 0 1 10 -10" /><g>
<path d="M555.5 20h296.5" /></g><path d="M852.0 20a10 10 0 0 1 10 10v0a10 10 0 0 0 10 10" /><path d="M535.5 40h20" /><g>
<path d="M555.5 40h0.0" /><path d="M852.0 40h0.0" /><path d="M555.5 40h10" /><g>
<path d="M565.5 40h0.0" /><path d="M842.0 40h0.0" /><g class="terminal ">
<path d="M565.5 40h0.0" /><path d="M619.5 40h0.0" /><rect height="22" rx="10" ry="10" width="54" x="565.5" y="29"></rect><text x="592.5" y="44">NAME</text></g><path d="M619.5 40h10" /><path d="M629.5 40h10" /><g class="non-terminal ">
<path d="M639.5 40h0.0" /><path d="M719.0 40h0.0" /><rect height="22" width="79.5" x="639.5" y="29"></rect><text x="679.25" y="44">default</text></g><path d="M719.0 40h10" /><g>
<path d="M729.0 40h0.0" /><path d="M842.0 40h0.0" /><path d="M729.0 40h20" /><g class="terminal ">
<path d="M749.0 40h13.75" /><path d="M808.25 40h13.75" /><rect height="22" rx="10" ry="10" width="45.5" x="762.75" y="29"></rect><text x="785.5" y="44">&apos;,&apos;</text></g><path d="M822.0 40h20" /><path d="M729.0 40a10 10 0 0 1 10 10v34a10 10 0 0 0 10 10" /><g>
<path d="M749.0 94h0.0" /><path d="M822.0 94h0.0" /><rect class="group-box" height="38" rx="10" ry="10" width="73" x="749" y="75"></rect><g class="terminal ">
<path d="M749.0 94h13.75" /><path d="M808.25 94h13.75" /><rect height="22" rx="10" ry="10" width="45.5" x="762.75" y="83"></rect><text x="785.5" y="98">&apos;:&apos;</text></g><g class="non-terminal ">
<path d="M749.0 67h0.0" /><path d="M822.0 67h0.0" /><text class="comment" x="785.5" y="72">lookahead</text></g></g><path d="M822.0 94a10 10 0 0 0 10 -10v-34a10 10 0 0 1 10 -10" /></g></g><path d="M842.0 40h10" /><path d="M565.5 40a10 10 0 0 0 -10 10v61a10 10 0 0 0 10 10" /><g>
<path d="M565.5 121h276.5" /></g><path d="M842.0 121a10 10 0 0 0 10 -10v-61a10 10 0 0 0 -10 -10" /></g><path d="M852.0 40h20" /></g></g><path d="M872.0 40h20" /><path d="M60.0 40a10 10 0 0 1 10 10v232a10 10 0 0 0 10 10" /><g>
<path d="M80.0 292h247.75" /><path d="M624.25 292h247.75" /><path d="M327.75 292h10" /><g>
<path d="M337.75 292h0.0" /><path d="M614.25 292h0.0" /><g class="terminal ">
<path d="M337.75 292h0.0" /><path d="M391.75 292h0.0" /><rect height="22" rx="10" ry="10" width="54" x="337.75" y="281"></rect><text x="364.75" y="296">NAME</text></g><path d="M391.75 292h10" /><path d="M401.75 292h10" /><g class="non-terminal ">
<path d="M411.75 292h0.0" /><path d="M491.25 292h0.0" /><rect height="22" width="79.5" x="411.75" y="281"></rect><text x="451.5" y="296">default</text></g><path d="M491.25 292h10" /><g>
<path d="M501.25 292h0.0" /><path d="M614.25 292h0.0" /><path d="M501.25 292h20" /><g class="terminal ">
<path d="M521.25 292h13.75" /><path d="M580.5 292h13.75" /><rect height="22" rx="10" ry="10" width="45.5" x="535" y="281"></rect><text x="557.75" y="296">&apos;,&apos;</text></g><path d="M594.25 292h20" /><path d="M501.25 292a10 10 0 0 1 10 10v34a10 10 0 0 0 10 10" /><g>
<path d="M521.25 346h0.0" /><path d="M594.25 346h0.0" /><rect class="group-box" height="38" rx="10" ry="10" width="73" x="521.25" y="327"></rect><g class="terminal ">
<path d="M521.25 346h13.75" /><path d="M580.5 346h13.75" /><rect height="22" rx="10" ry="10" width="45.5" x="535" y="335"></rect><text x="557.75" y="350">&apos;:&apos;</text></g><g class="non-terminal ">
<path d="M521.25 319h0.0" /><path d="M594.25 319h0.0" /><text class="comment" x="557.75" y="324">lookahead</text></g></g><path d="M594.25 346a10 10 0 0 0 10 -10v-34a10 10 0 0 1 10 -10" /></g></g><path d="M614.25 292h10" /><path d="M337.75 292a10 10 0 0 0 -10 10v61a10 10 0 0 0 10 10" /><g>
<path d="M337.75 373h276.5" /></g><path d="M614.25 373a10 10 0 0 0 10 -10v-61a10 10 0 0 0 -10 -10" /></g><path d="M872.0 292a10 10 0 0 0 10 -10v-232a10 10 0 0 1 10 -10" /></g><g>
<path d="M892.0 40h0.0" /><path d="M1079.5 40h0.0" /><path d="M892.0 40a10 10 0 0 0 10 -10v0a10 10 0 0 1 10 -10" /><g>
<path d="M912.0 20h147.5" /></g><path d="M1059.5 20a10 10 0 0 1 10 10v0a10 10 0 0 0 10 10" /><path d="M892.0 40h20" /><g class="non-terminal ">
<path d="M912.0 40h0.0" /><path d="M1059.5 40h0.0" /><rect height="22" width="147.5" x="912" y="29"></rect><text x="985.75" y="44">lambda_star_etc</text></g><path d="M1059.5 40h20" /></g></g><path d="M1079.5 40h20" /><path d="M40.0 40a10 10 0 0 1 10 10v332a10 10 0 0 0 10 10" /><g class="non-terminal ">
<path d="M60.0 392h436.0" /><path d="M643.5 392h436.0" /><rect height="22" width="147.5" x="496" y="381"></rect><text x="569.75" y="396">lambda_star_etc</text></g><path d="M1079.5 392a10 10 0 0 0 10 -10v-332a10 10 0 0 1 10 -10" /></g><path d="M 1099.5 40 h 20 m -10 -10 v 20 m 10 -20 v 20"></path></g><style>/* <![CDATA[ */
	svg.railroad-diagram {
		background-color:hsl(30,20%,95%);
	}
	svg.railroad-diagram path {
		stroke-width:3;
		stroke:black;
		fill:rgba(0,0,0,0);
	}
	svg.railroad-diagram text {
		font:bold 14px monospace;
		text-anchor:middle;
	}
	svg.railroad-diagram text.label{
		text-anchor:start;
	}
	svg.railroad-diagram text.comment{
		font:italic 12px monospace;
	}
	svg.railroad-diagram rect{
		stroke-width:3;
		stroke:black;
		fill:hsl(120,100%,90%);
	}
	svg.railroad-diagram rect.group-box {
		stroke: gray;
		stroke-dasharray: 10 5;
		fill: none;
	}

/* ]]> */
</style></svg>