<svg class="railroad-diagram" height="141" viewBox="0 0 1034.5 141" width="1034.5" xmlns="http://www.w3.org/2000/svg" xmlns:xlink="http://www.w3.org/1999/xlink">
<g transform="translate(.5 .5)">
<g>
<path d="M20 30v20m10 -20v20m-10 -10h222.5" /><text style="text-anchor:start" x="20" y="25">lambda_slash_with_default</text></g><path d="M242.5 40h10" /><g>
<path d="M252.5 40h0.0" /><path d="M984.5 40h0.0" /><g>
<path d="M252.5 40h0.0" /><path d="M489.5 40h0.0" /><path d="M252.5 40a10 10 0 0 0 10 -10v0a10 10 0 0 1 10 -10" /><g>
<path d="M272.5 20h197.0" /></g><path d="M469.5 20a10 10 0 0 1 10 10v0a10 10 0 0 0 10 10" /><path d="M252.5 40h20" /><g>
<path d="M272.5 40h0.0" /><path d="M469.5 40h0.0" /><path d="M272.5 40h10" /><g>
<path d="M282.5 40h0.0" /><path d="M459.5 40h0.0" /><g class="terminal ">
<path d="M282.5 40h0.0" /><path d="M336.5 40h0.0" /><rect height="22" rx="10" ry="10" width="54" x="282.5" y="29"></rect><text x="309.5" y="44">NAME</text></g><path d="M336.5 40h10" /><g>
<path d="M346.5 40h0.0" /><path d="M459.5 40h0.0" /><path d="M346.5 40h20" /><g class="terminal ">
<path d="M366.5 40h13.75" /><path d="M425.75 40h13.75" /><rect height="22" rx="10" ry="10" width="45.5" x="380.25" y="29"></rect><text x="403" y="44">&apos;,&apos;</text></g><path d="M439.5 40h20" /><path d="M346.5 40a10 10 0 0 1 10 10v34a10 10 0 0 0 10 10" /><g>
<path d="M366.5 94h0.0" /><path d="M439.5 94h0.0" /><rect class="group-box" height="38" rx="10" ry="10" width="73" x="366.5" y="75"></rect><g class="terminal ">
<path d="M366.5 94h13.75" /><path d="M425.75 94h13.75" /><rect height="22" rx="10" ry="10" width="45.5" x="380.25" y="83"></rect><text x="403" y="98">&apos;:&apos;</text></g><g class="non-terminal ">
<path d="M366.5 67h0.0" /><path d="M439.5 67h0.0" /><text class="comment" x="403" y="72">lookahead</text></g></g><path d="M439.5 94a10 10 0 0 0 10 -10v-34a10 10 0 0 1 10 -10" /></g></g><path d="M459.5 40h10" /><path d="M282.5 40a10 10 0 0 0 -10 10v61a10 10 0 0 0 10 10" /><g>
<path d="M282.5 121h177.0" /></g><path d="M459.5 121a10 10 0 0 0 10 -10v-61a10 10 0 0 0 -10 -10" /></g><path d="M469.5 40h20" /></g><path d="M489.5 40h10" /><g>
<path d="M499.5 40h0.0" /><path d="M796.0 40h0.0" /><path d="M499.5 40h10" /><g>
<path d="M509.5 40h0.0" /><path d="M786.0 40h0.0" /><g class="terminal ">
<path d="M509.5 40h0.0" /><path d="M563.5 40h0.0" /><rect height="22" rx="10" ry="10" width="54" x="509.5" y="29"></rect><text x="536.5" y="44">NAME</text></g><path d="M563.5 40h10" /><path d="M573.5 40h10" /><g class="non-terminal ">
<path d="M583.5 40h0.0" /><path d="M663.0 40h0.0" /><rect height="22" width="79.5" x="583.5" y="29"></rect><text x="623.25" y="44">default</text></g><path d="M663.0 40h10" /><g>
<path d="M673.0 40h0.0" /><path d="M786.0 40h0.0" /><path d="M673.0 40h20" /><g class="terminal ">
<path d="M693.0 40h13.75" /><path d="M752.25 40h13.75" /><rect height="22" rx="10" ry="10" width="45.5" x="706.75" y="29"></rect><text x="729.5" y="44">&apos;,&apos;</text></g><path d="M766.0 40h20" /><path d="M673.0 40a10 10 0 0 1 10 10v34a10 10 0 0 0 10 10" /><g>
<path d="M693.0 94h0.0" /><path d="M766.0 94h0.0" /><rect class="group-box" height="38" rx="10" ry="10" width="73" x="693" y="75"></rect><g class="terminal ">
<path d="M693.0 94h13.75" /><path d="M752.25 94h13.75" /><rect height="22" rx="10" ry="10" width="45.5" x="706.75" y="83"></rect><text x="729.5" y="98">&apos;:&apos;</text></g><g class="non-terminal ">
<path d="M693.0 67h0.0" /><path d="M766.0 67h0.0" /><text class="comment" x="729.5" y="72">lookahead</text></g></g><path d="M766.0 94a10 10 0 0 0 10 -10v-34a10 10 0 0 1 10 -10" /></g></g><path d="M786.0 40h10" /><path d="M509.5 40a10 10 0 0 0 -10 10v61a10 10 0 0 0 10 10" /><g>
<path d="M509.5 121h276.5" /></g><path d="M786.0 121a10 10 0 0 0 10 -10v-61a10 10 0 0 0 -10 -10" /></g><path d="M796.0 40h10" /><path d="M806.0 40h10" /><g class="terminal ">
<path d="M816.0 40h0.0" /><path d="M861.5 40h0.0" /><rect height="22" rx="10" ry="10" width="45.5" x="816" y="29"></rect><text x="838.75" y="44">&apos;/&apos;</text></g><path d="M861.5 40h10" /><g>
<path d="M871.5 40h0.0" /><path d="M984.5 40h0.0" /><path d="M871.5 40h20" /><g class="terminal ">
<path d="M891.5 40h13.75" /><path d="M950.75 40h13.75" /><rect height="22" rx="10" ry="10" width="45.5" x="905.25" y="29"></rect><text x="928" y="44">&apos;,&apos;</text></g><path d="M964.5 40h20" /><path d="M871.5 40a10 10 0 0 1 10 10v34a10 10 0 0 0 10 10" /><g>
<path d="M891.5 94h0.0" /><path d="M964.5 94h0.0" /><rect class="group-box" height="38" rx="10" ry="10" width="73" x="891.5" y="75"></rect><g class="terminal ">
<path d="M891.5 94h13.75" /><path d="M950.75 94h13.75" /><rect height="22" rx="10" ry="10" width="45.5" x="905.25" y="83"></rect><text x="928" y="98">&apos;:&apos;</text></g><g class="non-terminal ">
<path d="M891.5 67h0.0" /><path d="M964.5 67h0.0" /><text class="comment" x="928" y="72">lookahead</text></g></g><path d="M964.5 94a10 10 0 0 0 10 -10v-34a10 10 0 0 1 10 -10" /></g></g><path d="M984.5 40h10" /><path d="M 994.5 40 h 20 m -10 -10 v 20 m 10 -20 v 20"></path></g><style>/* <![CDATA[ */
	svg.railroad-diagram {
		background-color:hsl(30,20%,95%);
	}
	svg.railroad-diagram path {
		stroke-width:3;
		stroke:black;
		fill:rgba(0,0,0,0);
	}
	svg.railroad-diagram text {
		font:bold 14px monospace;
		text-anchor:middle;
	}
	svg.railroad-diagram text.label{
		text-anchor:start;
	}
	svg.railroad-diagram text.comment{
		font:italic 12px monospace;
	}
	svg.railroad-diagram rect{
		stroke-width:3;
		stroke:black;
		fill:hsl(120,100%,90%);
	}
	svg.railroad-diagram rect.group-box {
		stroke: gray;
		stroke-dasharray: 10 5;
		fill: none;
	}

/* ]]> */
</style></svg>