<svg class="railroad-diagram" height="413" viewBox="0 0 1149.5 413" width="1149.5" xmlns="http://www.w3.org/2000/svg" xmlns:xlink="http://www.w3.org/1999/xlink">
<g transform="translate(.5 .5)">
<g>
<path d="M20 30v20m10 -20v20m-10 -10h20" /></g><g>
<path d="M40 40h0.0" /><path d="M1109.5 40h0.0" /><path d="M40.0 40h20" /><g>
<path d="M60.0 40h0.0" /><path d="M1089.5 40h0.0" /><g>
<path d="M60.0 40h0.0" /><path d="M902.0 40h0.0" /><path d="M60.0 40h20" /><g>
<path d="M80.0 40h0.0" /><path d="M882.0 40h0.0" /><g>
<path d="M80.0 40h0.0" /><path d="M545.5 40h0.0" /><path d="M80.0 40h20" /><g>
<path d="M100.0 40h0.0" /><path d="M525.5 40h0.0" /><g>
<path d="M100.0 40h0.0" /><path d="M297.0 40h0.0" /><path d="M100.0 40h10" /><g>
<path d="M110.0 40h0.0" /><path d="M287.0 40h0.0" /><g class="terminal ">
<path d="M110.0 40h0.0" /><path d="M164.0 40h0.0" /><rect height="22" rx="10" ry="10" width="54" x="110" y="29"></rect><text x="137" y="44">NAME</text></g><path d="M164.0 40h10" /><g>
<path d="M174.0 40h0.0" /><path d="M287.0 40h0.0" /><path d="M174.0 40h20" /><g class="terminal ">
<path d="M194.0 40h13.75" /><path d="M253.25 40h13.75" /><rect height="22" rx="10" ry="10" width="45.5" x="207.75" y="29"></rect><text x="230.5" y="44">&apos;,&apos;</text></g><path d="M267.0 40h20" /><path d="M174.0 40a10 10 0 0 1 10 10v34a10 10 0 0 0 10 10" /><g>
<path d="M194.0 94h0.0" /><path d="M267.0 94h0.0" /><rect class="group-box" height="38" rx="10" ry="10" width="73" x="194" y="75"></rect><g class="terminal ">
<path d="M194.0 94h13.75" /><path d="M253.25 94h13.75" /><rect height="22" rx="10" ry="10" width="45.5" x="207.75" y="83"></rect><text x="230.5" y="98">&apos;:&apos;</text></g><g class="non-terminal ">
<path d="M194.0 67h0.0" /><path d="M267.0 67h0.0" /><text class="comment" x="230.5" y="72">lookahead</text></g></g><path d="M267.0 94a10 10 0 0 0 10 -10v-34a10 10 0 0 1 10 -10" /></g></g><path d="M287.0 40h10" /><path d="M110.0 40a10 10 0 0 0 -10 10v61a10 10 0 0 0 10 10" /><g>
<path d="M110.0 121h177.0" /></g><path d="M287.0 121a10 10 0 0 0 10 -10v-61a10 10 0 0 0 -10 -10" /></g><path d="M297.0 40h10" /><path d="M307.0 40h10" /><g class="terminal ">
<path d="M317.0 40h0.0" /><path d="M362.5 40h0.0" /><rect height="22" rx="10" ry="10" width="45.5" x="317" y="29"></rect><text x="339.75" y="44">&apos;/&apos;</text></g><path d="M362.5 40h10" /><g>
<path d="M372.5 40h0.0" /><path d="M525.5 40h0.0" /><path d="M372.5 40h20" /><g>
<path d="M392.5 40h113" /></g><path d="M505.5 40h20" /><path d="M372.5 40a10 10 0 0 1 10 10v0a10 10 0 0 0 10 10" /><g>
<path d="M392.5 60h0.0" /><path d="M505.5 60h0.0" /><path d="M392.5 60h20" /><g class="terminal ">
<path d="M412.5 60h13.75" /><path d="M471.75 60h13.75" /><rect height="22" rx="10" ry="10" width="45.5" x="426.25" y="49"></rect><text x="449" y="64">&apos;,&apos;</text></g><path d="M485.5 60h20" /><path d="M392.5 60a10 10 0 0 1 10 10v34a10 10 0 0 0 10 10" /><g>
<path d="M412.5 114h0.0" /><path d="M485.5 114h0.0" /><rect class="group-box" height="38" rx="10" ry="10" width="73" x="412.5" y="95"></rect><g class="terminal ">
<path d="M412.5 114h13.75" /><path d="M471.75 114h13.75" /><rect height="22" rx="10" ry="10" width="45.5" x="426.25" y="103"></rect><text x="449" y="118">&apos;:&apos;</text></g><g class="non-terminal ">
<path d="M412.5 87h0.0" /><path d="M485.5 87h0.0" /><text class="comment" x="449" y="92">lookahead</text></g></g><path d="M485.5 114a10 10 0 0 0 10 -10v-34a10 10 0 0 1 10 -10" /></g><path d="M505.5 60a10 10 0 0 0 10 -10v0a10 10 0 0 1 10 -10" /></g></g><path d="M525.5 40h20" /><path d="M80.0 40a10 10 0 0 1 10 10v92a10 10 0 0 0 10 10" /><g class="non-terminal ">
<path d="M100.0 152h96.5" /><path d="M429.0 152h96.5" /><rect height="22" width="232.5" x="196.5" y="141"></rect><text x="312.75" y="156">lambda_slash_with_default</text></g><path d="M525.5 152a10 10 0 0 0 10 -10v-92a10 10 0 0 1 10 -10" /><path d="M80.0 40a10 10 0 0 1 10 10v122a10 10 0 0 0 10 10" /><g>
<path d="M100.0 182h114.25" /><path d="M411.25 182h114.25" /><path d="M214.25 182h10" /><g>
<path d="M224.25 182h0.0" /><path d="M401.25 182h0.0" /><g class="terminal ">
<path d="M224.25 182h0.0" /><path d="M278.25 182h0.0" /><rect height="22" rx="10" ry="10" width="54" x="224.25" y="171"></rect><text x="251.25" y="186">NAME</text></g><path d="M278.25 182h10" /><g>
<path d="M288.25 182h0.0" /><path d="M401.25 182h0.0" /><path d="M288.25 182h20" /><g class="terminal ">
<path d="M308.25 182h13.75" /><path d="M367.5 182h13.75" /><rect height="22" rx="10" ry="10" width="45.5" x="322" y="171"></rect><text x="344.75" y="186">&apos;,&apos;</text></g><path d="M381.25 182h20" /><path d="M288.25 182a10 10 0 0 1 10 10v34a10 10 0 0 0 10 10" /><g>
<path d="M308.25 236h0.0" /><path d="M381.25 236h0.0" /><rect class="group-box" height="38" rx="10" ry="10" width="73" x="308.25" y="217"></rect><g class="terminal ">
<path d="M308.25 236h13.75" /><path d="M367.5 236h13.75" /><rect height="22" rx="10" ry="10" width="45.5" x="322" y="225"></rect><text x="344.75" y="240">&apos;:&apos;</text></g><g class="non-terminal ">
<path d="M308.25 209h0.0" /><path d="M381.25 209h0.0" /><text class="comment" x="344.75" y="214">lookahead</text></g></g><path d="M381.25 236a10 10 0 0 0 10 -10v-34a10 10 0 0 1 10 -10" /></g></g><path d="M401.25 182h10" /><path d="M224.25 182a10 10 0 0 0 -10 10v61a10 10 0 0 0 10 10" /><g>
<path d="M224.25 263h177.0" /></g><path d="M401.25 263a10 10 0 0 0 10 -10v-61a10 10 0 0 0 -10 -10" /></g><path d="M525.5 182a10 10 0 0 0 10 -10v-122a10 10 0 0 1 10 -10" /></g><g>
<path d="M545.5 40h0.0" /><path d="M882.0 40h0.0" /><path d="M545.5 40a10 10 0 0 0 10 -10v0a10 10 0 0 1 10 -10" /><g>
<path d="M565.5 20h296.5" /></g><path d="M862.0 20a10 10 0 0 1 10 10v0a10 10 0 0 0 10 10" /><path d="M545.5 40h20" /><g>
<path d="M565.5 40h0.0" /><path d="M862.0 40h0.0" /><path d="M565.5 40h10" /><g>
<path d="M575.5 40h0.0" /><path d="M852.0 40h0.0" /><g class="terminal ">
<path d="M575.5 40h0.0" /><path d="M629.5 40h0.0" /><rect height="22" rx="10" ry="10" width="54" x="575.5" y="29"></rect><text x="602.5" y="44">NAME</text></g><path d="M629.5 40h10" /><path d="M639.5 40h10" /><g class="non-terminal ">
<path d="M649.5 40h0.0" /><path d="M729.0 40h0.0" /><rect height="22" width="79.5" x="649.5" y="29"></rect><text x="689.25" y="44">default</text></g><path d="M729.0 40h10" /><g>
<path d="M739.0 40h0.0" /><path d="M852.0 40h0.0" /><path d="M739.0 40h20" /><g class="terminal ">
<path d="M759.0 40h13.75" /><path d="M818.25 40h13.75" /><rect height="22" rx="10" ry="10" width="45.5" x="772.75" y="29"></rect><text x="795.5" y="44">&apos;,&apos;</text></g><path d="M832.0 40h20" /><path d="M739.0 40a10 10 0 0 1 10 10v34a10 10 0 0 0 10 10" /><g>
<path d="M759.0 94h0.0" /><path d="M832.0 94h0.0" /><rect class="group-box" height="38" rx="10" ry="10" width="73" x="759" y="75"></rect><g class="terminal ">
<path d="M759.0 94h13.75" /><path d="M818.25 94h13.75" /><rect height="22" rx="10" ry="10" width="45.5" x="772.75" y="83"></rect><text x="795.5" y="98">&apos;:&apos;</text></g><g class="non-terminal ">
<path d="M759.0 67h0.0" /><path d="M832.0 67h0.0" /><text class="comment" x="795.5" y="72">lookahead</text></g></g><path d="M832.0 94a10 10 0 0 0 10 -10v-34a10 10 0 0 1 10 -10" /></g></g><path d="M852.0 40h10" /><path d="M575.5 40a10 10 0 0 0 -10 10v61a10 10 0 0 0 10 10" /><g>
<path d="M575.5 121h276.5" /></g><path d="M852.0 121a10 10 0 0 0 10 -10v-61a10 10 0 0 0 -10 -10" /></g><path d="M862.0 40h20" /></g></g><path d="M882.0 40h20" /><path d="M60.0 40a10 10 0 0 1 10 10v222a10 10 0 0 0 10 10" /><g>
<path d="M80.0 282h252.75" /><path d="M629.25 282h252.75" /><path d="M332.75 282h10" /><g>
<path d="M342.75 282h0.0" /><path d="M619.25 282h0.0" /><g class="terminal ">
<path d="M342.75 282h0.0" /><path d="M396.75 282h0.0" /><rect height="22" rx="10" ry="10" width="54" x="342.75" y="271"></rect><text x="369.75" y="286">NAME</text></g><path d="M396.75 282h10" /><path d="M406.75 282h10" /><g class="non-terminal ">
<path d="M416.75 282h0.0" /><path d="M496.25 282h0.0" /><rect height="22" width="79.5" x="416.75" y="271"></rect><text x="456.5" y="286">default</text></g><path d="M496.25 282h10" /><g>
<path d="M506.25 282h0.0" /><path d="M619.25 282h0.0" /><path d="M506.25 282h20" /><g class="terminal ">
<path d="M526.25 282h13.75" /><path d="M585.5 282h13.75" /><rect height="22" rx="10" ry="10" width="45.5" x="540" y="271"></rect><text x="562.75" y="286">&apos;,&apos;</text></g><path d="M599.25 282h20" /><path d="M506.25 282a10 10 0 0 1 10 10v34a10 10 0 0 0 10 10" /><g>
<path d="M526.25 336h0.0" /><path d="M599.25 336h0.0" /><rect class="group-box" height="38" rx="10" ry="10" width="73" x="526.25" y="317"></rect><g class="terminal ">
<path d="M526.25 336h13.75" /><path d="M585.5 336h13.75" /><rect height="22" rx="10" ry="10" width="45.5" x="540" y="325"></rect><text x="562.75" y="340">&apos;:&apos;</text></g><g class="non-terminal ">
<path d="M526.25 309h0.0" /><path d="M599.25 309h0.0" /><text class="comment" x="562.75" y="314">lookahead</text></g></g><path d="M599.25 336a10 10 0 0 0 10 -10v-34a10 10 0 0 1 10 -10" /></g></g><path d="M619.25 282h10" /><path d="M342.75 282a10 10 0 0 0 -10 10v61a10 10 0 0 0 10 10" /><g>
<path d="M342.75 363h276.5" /></g><path d="M619.25 363a10 10 0 0 0 10 -10v-61a10 10 0 0 0 -10 -10" /></g><path d="M882.0 282a10 10 0 0 0 10 -10v-222a10 10 0 0 1 10 -10" /></g><g>
<path d="M902.0 40h0.0" /><path d="M1089.5 40h0.0" /><path d="M902.0 40a10 10 0 0 0 10 -10v0a10 10 0 0 1 10 -10" /><g>
<path d="M922.0 20h147.5" /></g><path d="M1069.5 20a10 10 0 0 1 10 10v0a10 10 0 0 0 10 10" /><path d="M902.0 40h20" /><g class="non-terminal ">
<path d="M922.0 40h0.0" /><path d="M1069.5 40h0.0" /><rect height="22" width="147.5" x="922" y="29"></rect><text x="995.75" y="44">lambda_star_etc</text></g><path d="M1069.5 40h20" /></g></g><path d="M1089.5 40h20" /><path d="M40.0 40a10 10 0 0 1 10 10v322a10 10 0 0 0 10 10" /><g class="non-terminal ">
<path d="M60.0 382h441.0" /><path d="M648.5 382h441.0" /><rect height="22" width="147.5" x="501" y="371"></rect><text x="574.75" y="386">lambda_star_etc</text></g><path d="M1089.5 382a10 10 0 0 0 10 -10v-322a10 10 0 0 1 10 -10" /></g><path d="M 1109.5 40 h 20 m -10 -10 v 20 m 10 -20 v 20"></path></g><style>/* <![CDATA[ */
	svg.railroad-diagram {
		background-color:hsl(30,20%,95%);
	}
	svg.railroad-diagram path {
		stroke-width:3;
		stroke:black;
		fill:rgba(0,0,0,0);
	}
	svg.railroad-diagram text {
		font:bold 14px monospace;
		text-anchor:middle;
	}
	svg.railroad-diagram text.label{
		text-anchor:start;
	}
	svg.railroad-diagram text.comment{
		font:italic 12px monospace;
	}
	svg.railroad-diagram rect{
		stroke-width:3;
		stroke:black;
		fill:hsl(120,100%,90%);
	}
	svg.railroad-diagram rect.group-box {
		stroke: gray;
		stroke-dasharray: 10 5;
		fill: none;
	}

/* ]]> */
</style></svg>