<svg class="railroad-diagram" height="62" viewBox="0 0 604.0 62" width="604.0" xmlns="http://www.w3.org/2000/svg" xmlns:xlink="http://www.w3.org/1999/xlink">
<g transform="translate(.5 .5)">
<g>
<path d="M20 21v20m10 -20v20m-10 -10h78.0" /><text style="text-anchor:start" x="20" y="16">listcomp</text></g><path d="M98.0 31h10" /><g>
<path d="M108.0 31h0.0" /><path d="M554.0 31h0.0" /><g class="terminal ">
<path d="M108.0 31h0.0" /><path d="M153.5 31h0.0" /><rect height="22" rx="10" ry="10" width="45.5" x="108" y="20"></rect><text x="130.75" y="35">&apos;[&apos;</text></g><path d="M153.5 31h10" /><path d="M163.5 31h10" /><g class="non-terminal ">
<path d="M173.5 31h0.0" /><path d="M329.5 31h0.0" /><rect height="22" width="156" x="173.5" y="20"></rect><text x="251.5" y="35">named_expression</text></g><path d="M329.5 31h10" /><path d="M339.5 31h10" /><g class="non-terminal ">
<path d="M349.5 31h0.0" /><path d="M488.5 31h0.0" /><rect height="22" width="139" x="349.5" y="20"></rect><text x="419" y="35">for_if_clauses</text></g><path d="M488.5 31h10" /><path d="M498.5 31h10" /><g class="terminal ">
<path d="M508.5 31h0.0" /><path d="M554.0 31h0.0" /><rect height="22" rx="10" ry="10" width="45.5" x="508.5" y="20"></rect><text x="531.25" y="35">&apos;]&apos;</text></g></g><path d="M554.0 31h10" /><path d="M 564.0 31 h 20 m -10 -10 v 20 m 10 -20 v 20"></path></g><style>/* <![CDATA[ */
	svg.railroad-diagram {
		background-color:hsl(30,20%,95%);
	}
	svg.railroad-diagram path {
		stroke-width:3;
		stroke:black;
		fill:rgba(0,0,0,0);
	}
	svg.railroad-diagram text {
		font:bold 14px monospace;
		text-anchor:middle;
	}
	svg.railroad-diagram text.label{
		text-anchor:start;
	}
	svg.railroad-diagram text.comment{
		font:italic 12px monospace;
	}
	svg.railroad-diagram rect{
		stroke-width:3;
		stroke:black;
		fill:hsl(120,100%,90%);
	}
	svg.railroad-diagram rect.group-box {
		stroke: gray;
		stroke-dasharray: 10 5;
		fill: none;
	}

/* ]]> */
</style></svg>