<svg class="railroad-diagram" height="212" viewBox="0 0 351.0 212" width="351.0" xmlns="http://www.w3.org/2000/svg" xmlns:xlink="http://www.w3.org/1999/xlink">
<g transform="translate(.5 .5)">
<g>
<path d="M20 21v20m10 -20v20m-10 -10h112.0" /><text style="text-anchor:start" x="20" y="16">literal_expr</text></g><g>
<path d="M132.0 31h0.0" /><path d="M311.0 31h0.0" /><path d="M132.0 31h20" /><g class="non-terminal ">
<path d="M152.0 31h4.25" /><path d="M286.75 31h4.25" /><rect height="22" width="130.5" x="156.25" y="20"></rect><text x="221.5" y="35">signed_number</text></g><path d="M291.0 31h20" /><path d="M132.0 31a10 10 0 0 1 10 10v10a10 10 0 0 0 10 10" /><g class="non-terminal ">
<path d="M152.0 61h0.0" /><path d="M291.0 61h0.0" /><rect height="22" width="139" x="152" y="50"></rect><text x="221.5" y="65">complex_number</text></g><path d="M291.0 61a10 10 0 0 0 10 -10v-10a10 10 0 0 1 10 -10" /><path d="M132.0 31a10 10 0 0 1 10 10v40a10 10 0 0 0 10 10" /><g class="non-terminal ">
<path d="M152.0 91h29.75" /><path d="M261.25 91h29.75" /><rect height="22" width="79.5" x="181.75" y="80"></rect><text x="221.5" y="95">strings</text></g><path d="M291.0 91a10 10 0 0 0 10 -10v-40a10 10 0 0 1 10 -10" /><path d="M132.0 31a10 10 0 0 1 10 10v70a10 10 0 0 0 10 10" /><g class="terminal ">
<path d="M152.0 121h34.0" /><path d="M257.0 121h34.0" /><rect height="22" rx="10" ry="10" width="71" x="186" y="110"></rect><text x="221.5" y="125">&apos;None&apos;</text></g><path d="M291.0 121a10 10 0 0 0 10 -10v-70a10 10 0 0 1 10 -10" /><path d="M132.0 31a10 10 0 0 1 10 10v100a10 10 0 0 0 10 10" /><g class="terminal ">
<path d="M152.0 151h34.0" /><path d="M257.0 151h34.0" /><rect height="22" rx="10" ry="10" width="71" x="186" y="140"></rect><text x="221.5" y="155">&apos;True&apos;</text></g><path d="M291.0 151a10 10 0 0 0 10 -10v-100a10 10 0 0 1 10 -10" /><path d="M132.0 31a10 10 0 0 1 10 10v130a10 10 0 0 0 10 10" /><g class="terminal ">
<path d="M152.0 181h29.75" /><path d="M261.25 181h29.75" /><rect height="22" rx="10" ry="10" width="79.5" x="181.75" y="170"></rect><text x="221.5" y="185">&apos;False&apos;</text></g><path d="M291.0 181a10 10 0 0 0 10 -10v-130a10 10 0 0 1 10 -10" /></g><path d="M 311.0 31 h 20 m -10 -10 v 20 m 10 -20 v 20"></path></g><style>/* <![CDATA[ */
	svg.railroad-diagram {
		background-color:hsl(30,20%,95%);
	}
	svg.railroad-diagram path {
		stroke-width:3;
		stroke:black;
		fill:rgba(0,0,0,0);
	}
	svg.railroad-diagram text {
		font:bold 14px monospace;
		text-anchor:middle;
	}
	svg.railroad-diagram text.label{
		text-anchor:start;
	}
	svg.railroad-diagram text.comment{
		font:italic 12px monospace;
	}
	svg.railroad-diagram rect{
		stroke-width:3;
		stroke:black;
		fill:hsl(120,100%,90%);
	}
	svg.railroad-diagram rect.group-box {
		stroke: gray;
		stroke-dasharray: 10 5;
		fill: none;
	}

/* ]]> */
</style></svg>