<svg class="railroad-diagram" height="324" viewBox="0 0 483.0 324" width="483.0" xmlns="http://www.w3.org/2000/svg" xmlns:xlink="http://www.w3.org/1999/xlink">
<g transform="translate(.5 .5)">
<g>
<path d="M20 54v20m10 -20v20m-10 -10h20" /></g><g>
<path d="M40 64h0.0" /><path d="M443.0 64h0.0" /><path d="M40.0 64h20" /><g>
<path d="M60.0 64h88.25" /><path d="M334.75 64h88.25" /><rect class="group-box" height="47" rx="10" ry="10" width="186.5" x="148.25" y="36"></rect><g>
<path d="M148.25 64h10.0" /><path d="M324.75 64h10.0" /><g>
<path d="M158.25 64h0.0" /><path d="M243.75 64h0.0" /><path d="M158.25 64a10 10 0 0 0 10 -10v0a10 10 0 0 1 10 -10" /><g>
<path d="M178.25 44h45.5" /></g><path d="M223.75 44a10 10 0 0 1 10 10v0a10 10 0 0 0 10 10" /><path d="M158.25 64h20" /><g class="terminal ">
<path d="M178.25 64h0.0" /><path d="M223.75 64h0.0" /><rect height="22" rx="10" ry="10" width="45.5" x="178.25" y="53"></rect><text x="201" y="68">&apos;-&apos;</text></g><path d="M223.75 64h20" /></g><path d="M243.75 64h10" /><g class="terminal ">
<path d="M253.75 64h0.0" /><path d="M324.75 64h0.0" /><rect height="22" rx="10" ry="10" width="71" x="253.75" y="53"></rect><text x="289.25" y="68">NUMBER</text></g></g><g class="non-terminal ">
<path d="M148.25 28h0.0" /><path d="M249.25 28h0.0" /><text class="comment" x="198.75" y="33">signed_number</text></g></g><path d="M423.0 64h20" /><path d="M40.0 64a10 10 0 0 1 10 10v51a10 10 0 0 0 10 10" /><g>
<path d="M60.0 135h0.0" /><path d="M423.0 135h0.0" /><rect class="group-box" height="77" rx="10" ry="10" width="363" x="60" y="107"></rect><g>
<path d="M60.0 135h10.0" /><path d="M413.0 135h10.0" /><g>
<path d="M70.0 135h0.0" /><path d="M155.5 135h0.0" /><path d="M70.0 135a10 10 0 0 0 10 -10v0a10 10 0 0 1 10 -10" /><g>
<path d="M90.0 115h45.5" /></g><path d="M135.5 115a10 10 0 0 1 10 10v0a10 10 0 0 0 10 10" /><path d="M70.0 135h20" /><g class="terminal ">
<path d="M90.0 135h0.0" /><path d="M135.5 135h0.0" /><rect height="22" rx="10" ry="10" width="45.5" x="90" y="124"></rect><text x="112.75" y="139">&apos;-&apos;</text></g><path d="M135.5 135h20" /></g><path d="M155.5 135h10" /><g class="terminal ">
<path d="M165.5 135h0.0" /><path d="M236.5 135h0.0" /><rect height="22" rx="10" ry="10" width="71" x="165.5" y="124"></rect><text x="201" y="139">NUMBER</text></g><path d="M236.5 135h10" /><g>
<path d="M246.5 135h0.0" /><path d="M332.0 135h0.0" /><path d="M246.5 135h20" /><g class="terminal ">
<path d="M266.5 135h0.0" /><path d="M312.0 135h0.0" /><rect height="22" rx="10" ry="10" width="45.5" x="266.5" y="124"></rect><text x="289.25" y="139">&apos;+&apos;</text></g><path d="M312.0 135h20" /><path d="M246.5 135a10 10 0 0 1 10 10v10a10 10 0 0 0 10 10" /><g class="terminal ">
<path d="M266.5 165h0.0" /><path d="M312.0 165h0.0" /><rect height="22" rx="10" ry="10" width="45.5" x="266.5" y="154"></rect><text x="289.25" y="169">&apos;-&apos;</text></g><path d="M312.0 165a10 10 0 0 0 10 -10v-10a10 10 0 0 1 10 -10" /></g><path d="M332.0 135h10" /><g class="terminal ">
<path d="M342.0 135h0.0" /><path d="M413.0 135h0.0" /><rect height="22" rx="10" ry="10" width="71" x="342" y="124"></rect><text x="377.5" y="139">NUMBER</text></g></g><g class="non-terminal ">
<path d="M60.0 99h0.0" /><path d="M168.0 99h0.0" /><text class="comment" x="114" y="104">complex_number</text></g></g><path d="M423.0 135a10 10 0 0 0 10 -10v-51a10 10 0 0 1 10 -10" /><path d="M40.0 64a10 10 0 0 1 10 10v119a10 10 0 0 0 10 10" /><g class="non-terminal ">
<path d="M60.0 203h141.75" /><path d="M281.25 203h141.75" /><rect height="22" width="79.5" x="201.75" y="192"></rect><text x="241.5" y="207">strings</text></g><path d="M423.0 203a10 10 0 0 0 10 -10v-119a10 10 0 0 1 10 -10" /><path d="M40.0 64a10 10 0 0 1 10 10v149a10 10 0 0 0 10 10" /><g class="terminal ">
<path d="M60.0 233h146.0" /><path d="M277.0 233h146.0" /><rect height="22" rx="10" ry="10" width="71" x="206" y="222"></rect><text x="241.5" y="237">&apos;None&apos;</text></g><path d="M423.0 233a10 10 0 0 0 10 -10v-149a10 10 0 0 1 10 -10" /><path d="M40.0 64a10 10 0 0 1 10 10v179a10 10 0 0 0 10 10" /><g class="terminal ">
<path d="M60.0 263h146.0" /><path d="M277.0 263h146.0" /><rect height="22" rx="10" ry="10" width="71" x="206" y="252"></rect><text x="241.5" y="267">&apos;True&apos;</text></g><path d="M423.0 263a10 10 0 0 0 10 -10v-179a10 10 0 0 1 10 -10" /><path d="M40.0 64a10 10 0 0 1 10 10v209a10 10 0 0 0 10 10" /><g class="terminal ">
<path d="M60.0 293h141.75" /><path d="M281.25 293h141.75" /><rect height="22" rx="10" ry="10" width="79.5" x="201.75" y="282"></rect><text x="241.5" y="297">&apos;False&apos;</text></g><path d="M423.0 293a10 10 0 0 0 10 -10v-209a10 10 0 0 1 10 -10" /></g><path d="M 443.0 64 h 20 m -10 -10 v 20 m 10 -20 v 20"></path></g><style>/* <![CDATA[ */
	svg.railroad-diagram {
		background-color:hsl(30,20%,95%);
	}
	svg.railroad-diagram path {
		stroke-width:3;
		stroke:black;
		fill:rgba(0,0,0,0);
	}
	svg.railroad-diagram text {
		font:bold 14px monospace;
		text-anchor:middle;
	}
	svg.railroad-diagram text.label{
		text-anchor:start;
	}
	svg.railroad-diagram text.comment{
		font:italic 12px monospace;
	}
	svg.railroad-diagram rect{
		stroke-width:3;
		stroke:black;
		fill:hsl(120,100%,90%);
	}
	svg.railroad-diagram rect.group-box {
		stroke: gray;
		stroke-dasharray: 10 5;
		fill: none;
	}

/* ]]> */
</style></svg>