<svg class="railroad-diagram" height="132" viewBox="0 0 923.5 132" width="923.5" xmlns="http://www.w3.org/2000/svg" xmlns:xlink="http://www.w3.org/1999/xlink">
<g transform="translate(.5 .5)">
<g>
<path d="M20 53v20m10 -20v20m-10 -10h20" /></g><path d="M40 63h10" /><g>
<path d="M50 63h0.0" /><path d="M873.5 63h0.0" /><g class="terminal ">
<path d="M50.0 63h0.0" /><path d="M95.5 63h0.0" /><rect height="22" rx="10" ry="10" width="45.5" x="50" y="52"></rect><text x="72.75" y="67">&apos;{&apos;</text></g><path d="M95.5 63h10" /><g>
<path d="M105.5 63h0.0" /><path d="M818.0 63h0.0" /><path d="M105.5 63a10 10 0 0 0 10 -10v-23a10 10 0 0 1 10 -10" /><g>
<path d="M125.5 20h672.5" /></g><path d="M798.0 20a10 10 0 0 1 10 10v23a10 10 0 0 0 10 10" /><path d="M105.5 63h20" /><g>
<path d="M125.5 63h0.0" /><path d="M798.0 63h0.0" /><g>
<path d="M125.5 63h0.0" /><path d="M712.5 63h0.0" /><path d="M125.5 63h20" /><g>
<path d="M145.5 63h0.0" /><path d="M692.5 63h0.0" /><g>
<path d="M145.5 63h0.0" /><path d="M381.5 63h0.0" /><path d="M145.5 63a10 10 0 0 0 10 -10v0a10 10 0 0 1 10 -10" /><g>
<path d="M165.5 43h196.0" /></g><path d="M361.5 43a10 10 0 0 1 10 10v0a10 10 0 0 0 10 10" /><path d="M145.5 63h20" /><g>
<path d="M165.5 63h0.0" /><path d="M361.5 63h0.0" /><g class="non-terminal ">
<path d="M165.5 63h0.0" /><path d="M296.0 63h0.0" /><rect height="22" width="130.5" x="165.5" y="52"></rect><text x="230.75" y="67">items_pattern</text></g><path d="M296.0 63h10" /><path d="M306.0 63h10" /><g class="terminal ">
<path d="M316.0 63h0.0" /><path d="M361.5 63h0.0" /><rect height="22" rx="10" ry="10" width="45.5" x="316" y="52"></rect><text x="338.75" y="67">&apos;,&apos;</text></g></g><path d="M361.5 63h20" /></g><path d="M381.5 63h10" /><g>
<path d="M391.5 63h0.0" /><path d="M692.5 63h0.0" /><rect class="group-box" height="38" rx="10" ry="10" width="301" x="391.5" y="44"></rect><g>
<path d="M391.5 63h10.0" /><path d="M682.5 63h10.0" /><g class="terminal ">
<path d="M401.5 63h0.0" /><path d="M455.5 63h0.0" /><rect height="22" rx="10" ry="10" width="54" x="401.5" y="52"></rect><text x="428.5" y="67">&apos;**&apos;</text></g><path d="M455.5 63h10" /><path d="M465.5 63h10" /><g class="non-terminal ">
<path d="M475.5 63h0.0" /><path d="M682.5 63h0.0" /><rect height="22" width="207" x="475.5" y="52"></rect><text x="579" y="67">pattern_capture_target</text></g></g><g class="non-terminal ">
<path d="M391.5 36h0.0" /><path d="M534.5 36h0.0" /><text class="comment" x="463" y="41">double_star_pattern</text></g></g></g><path d="M692.5 63h20" /><path d="M125.5 63a10 10 0 0 1 10 10v18a10 10 0 0 0 10 10" /><g class="non-terminal ">
<path d="M145.5 101h208.25" /><path d="M484.25 101h208.25" /><rect height="22" width="130.5" x="353.75" y="90"></rect><text x="419" y="105">items_pattern</text></g><path d="M692.5 101a10 10 0 0 0 10 -10v-18a10 10 0 0 1 10 -10" /></g><g>
<path d="M712.5 63h0.0" /><path d="M798.0 63h0.0" /><path d="M712.5 63a10 10 0 0 0 10 -10v0a10 10 0 0 1 10 -10" /><g>
<path d="M732.5 43h45.5" /></g><path d="M778.0 43a10 10 0 0 1 10 10v0a10 10 0 0 0 10 10" /><path d="M712.5 63h20" /><g class="terminal ">
<path d="M732.5 63h0.0" /><path d="M778.0 63h0.0" /><rect height="22" rx="10" ry="10" width="45.5" x="732.5" y="52"></rect><text x="755.25" y="67">&apos;,&apos;</text></g><path d="M778.0 63h20" /></g></g><path d="M798.0 63h20" /></g><path d="M818.0 63h10" /><g class="terminal ">
<path d="M828.0 63h0.0" /><path d="M873.5 63h0.0" /><rect height="22" rx="10" ry="10" width="45.5" x="828" y="52"></rect><text x="850.75" y="67">&apos;}&apos;</text></g></g><path d="M873.5 63h10" /><path d="M 883.5 63 h 20 m -10 -10 v 20 m 10 -20 v 20"></path></g><style>/* <![CDATA[ */
	svg.railroad-diagram {
		background-color:hsl(30,20%,95%);
	}
	svg.railroad-diagram path {
		stroke-width:3;
		stroke:black;
		fill:rgba(0,0,0,0);
	}
	svg.railroad-diagram text {
		font:bold 14px monospace;
		text-anchor:middle;
	}
	svg.railroad-diagram text.label{
		text-anchor:start;
	}
	svg.railroad-diagram text.comment{
		font:italic 12px monospace;
	}
	svg.railroad-diagram rect{
		stroke-width:3;
		stroke:black;
		fill:hsl(120,100%,90%);
	}
	svg.railroad-diagram rect.group-box {
		stroke: gray;
		stroke-dasharray: 10 5;
		fill: none;
	}

/* ]]> */
</style></svg>