<svg class="railroad-diagram" height="109" viewBox="0 0 921.5 109" width="921.5" xmlns="http://www.w3.org/2000/svg" xmlns:xlink="http://www.w3.org/1999/xlink">
<g transform="translate(.5 .5)">
<g>
<path d="M20 38v20m10 -20v20m-10 -10h137.5" /><text style="text-anchor:start" x="20" y="33">mapping_pattern</text></g><path d="M157.5 48h10" /><g>
<path d="M167.5 48h0.0" /><path d="M871.5 48h0.0" /><g class="terminal ">
<path d="M167.5 48h0.0" /><path d="M213.0 48h0.0" /><rect height="22" rx="10" ry="10" width="45.5" x="167.5" y="37"></rect><text x="190.25" y="52">&apos;{&apos;</text></g><path d="M213.0 48h10" /><g>
<path d="M223.0 48h0.0" /><path d="M816.0 48h0.0" /><path d="M223.0 48a10 10 0 0 0 10 -10v-8a10 10 0 0 1 10 -10" /><g>
<path d="M243.0 20h553.0" /></g><path d="M796.0 20a10 10 0 0 1 10 10v8a10 10 0 0 0 10 10" /><path d="M223.0 48h20" /><g>
<path d="M243.0 48h0.0" /><path d="M796.0 48h0.0" /><g>
<path d="M243.0 48h0.0" /><path d="M710.5 48h0.0" /><path d="M243.0 48h20" /><g>
<path d="M263.0 48h0.0" /><path d="M690.5 48h0.0" /><g>
<path d="M263.0 48h0.0" /><path d="M499.0 48h0.0" /><path d="M263.0 48a10 10 0 0 0 10 -10v0a10 10 0 0 1 10 -10" /><g>
<path d="M283.0 28h196.0" /></g><path d="M479.0 28a10 10 0 0 1 10 10v0a10 10 0 0 0 10 10" /><path d="M263.0 48h20" /><g>
<path d="M283.0 48h0.0" /><path d="M479.0 48h0.0" /><g class="non-terminal ">
<path d="M283.0 48h0.0" /><path d="M413.5 48h0.0" /><rect height="22" width="130.5" x="283" y="37"></rect><text x="348.25" y="52">items_pattern</text></g><path d="M413.5 48h10" /><path d="M423.5 48h10" /><g class="terminal ">
<path d="M433.5 48h0.0" /><path d="M479.0 48h0.0" /><rect height="22" rx="10" ry="10" width="45.5" x="433.5" y="37"></rect><text x="456.25" y="52">&apos;,&apos;</text></g></g><path d="M479.0 48h20" /></g><path d="M499.0 48h10" /><g class="non-terminal ">
<path d="M509.0 48h0.0" /><path d="M690.5 48h0.0" /><rect height="22" width="181.5" x="509" y="37"></rect><text x="599.75" y="52">double_star_pattern</text></g></g><path d="M690.5 48h20" /><path d="M243.0 48a10 10 0 0 1 10 10v10a10 10 0 0 0 10 10" /><g class="non-terminal ">
<path d="M263.0 78h148.5" /><path d="M542.0 78h148.5" /><rect height="22" width="130.5" x="411.5" y="67"></rect><text x="476.75" y="82">items_pattern</text></g><path d="M690.5 78a10 10 0 0 0 10 -10v-10a10 10 0 0 1 10 -10" /></g><g>
<path d="M710.5 48h0.0" /><path d="M796.0 48h0.0" /><path d="M710.5 48a10 10 0 0 0 10 -10v0a10 10 0 0 1 10 -10" /><g>
<path d="M730.5 28h45.5" /></g><path d="M776.0 28a10 10 0 0 1 10 10v0a10 10 0 0 0 10 10" /><path d="M710.5 48h20" /><g class="terminal ">
<path d="M730.5 48h0.0" /><path d="M776.0 48h0.0" /><rect height="22" rx="10" ry="10" width="45.5" x="730.5" y="37"></rect><text x="753.25" y="52">&apos;,&apos;</text></g><path d="M776.0 48h20" /></g></g><path d="M796.0 48h20" /></g><path d="M816.0 48h10" /><g class="terminal ">
<path d="M826.0 48h0.0" /><path d="M871.5 48h0.0" /><rect height="22" rx="10" ry="10" width="45.5" x="826" y="37"></rect><text x="848.75" y="52">&apos;}&apos;</text></g></g><path d="M871.5 48h10" /><path d="M 881.5 48 h 20 m -10 -10 v 20 m 10 -20 v 20"></path></g><style>/* <![CDATA[ */
	svg.railroad-diagram {
		background-color:hsl(30,20%,95%);
	}
	svg.railroad-diagram path {
		stroke-width:3;
		stroke:black;
		fill:rgba(0,0,0,0);
	}
	svg.railroad-diagram text {
		font:bold 14px monospace;
		text-anchor:middle;
	}
	svg.railroad-diagram text.label{
		text-anchor:start;
	}
	svg.railroad-diagram text.comment{
		font:italic 12px monospace;
	}
	svg.railroad-diagram rect{
		stroke-width:3;
		stroke:black;
		fill:hsl(120,100%,90%);
	}
	svg.railroad-diagram rect.group-box {
		stroke: gray;
		stroke-dasharray: 10 5;
		fill: none;
	}

/* ]]> */
</style></svg>