<svg class="railroad-diagram" height="71" viewBox="0 0 813.5 71" width="813.5" xmlns="http://www.w3.org/2000/svg" xmlns:xlink="http://www.w3.org/1999/xlink">
<g transform="translate(.5 .5)">
<g>
<path d="M20 21v20m10 -20v20m-10 -10h20" /></g><path d="M40 31h10" /><g>
<path d="M50 31h0.0" /><path d="M763.5 31h0.0" /><g class="terminal ">
<path d="M50.0 31h0.0" /><path d="M129.5 31h0.0" /><rect height="22" rx="10" ry="10" width="79.5" x="50" y="20"></rect><text x="89.75" y="35">&quot;match&quot;</text></g><path d="M129.5 31h10" /><path d="M139.5 31h10" /><g class="non-terminal ">
<path d="M149.5 31h0.0" /><path d="M271.5 31h0.0" /><rect height="22" width="122" x="149.5" y="20"></rect><text x="210.5" y="35">subject_expr</text></g><path d="M271.5 31h10" /><path d="M281.5 31h10" /><g class="terminal ">
<path d="M291.5 31h0.0" /><path d="M337.0 31h0.0" /><rect height="22" rx="10" ry="10" width="45.5" x="291.5" y="20"></rect><text x="314.25" y="35">&apos;:&apos;</text></g><path d="M337.0 31h10" /><path d="M347.0 31h10" /><g class="terminal ">
<path d="M357.0 31h0.0" /><path d="M436.5 31h0.0" /><rect height="22" rx="10" ry="10" width="79.5" x="357" y="20"></rect><text x="396.75" y="35">NEWLINE</text></g><path d="M436.5 31h10" /><path d="M446.5 31h10" /><g class="terminal ">
<path d="M456.5 31h0.0" /><path d="M527.5 31h0.0" /><rect height="22" rx="10" ry="10" width="71" x="456.5" y="20"></rect><text x="492" y="35">INDENT</text></g><path d="M527.5 31h10" /><path d="M537.5 31h10" /><g>
<path d="M547.5 31h0.0" /><path d="M672.5 31h0.0" /><path d="M547.5 31h10" /><g class="non-terminal ">
<path d="M557.5 31h0.0" /><path d="M662.5 31h0.0" /><rect height="22" width="105" x="557.5" y="20"></rect><text x="610" y="35">case_block</text></g><path d="M662.5 31h10" /><path d="M557.5 31a10 10 0 0 0 -10 10v0a10 10 0 0 0 10 10" /><g>
<path d="M557.5 51h105.0" /></g><path d="M662.5 51a10 10 0 0 0 10 -10v0a10 10 0 0 0 -10 -10" /></g><path d="M672.5 31h10" /><path d="M682.5 31h10" /><g class="terminal ">
<path d="M692.5 31h0.0" /><path d="M763.5 31h0.0" /><rect height="22" rx="10" ry="10" width="71" x="692.5" y="20"></rect><text x="728" y="35">DEDENT</text></g></g><path d="M763.5 31h10" /><path d="M 773.5 31 h 20 m -10 -10 v 20 m 10 -20 v 20"></path></g><style>/* <![CDATA[ */
	svg.railroad-diagram {
		background-color:hsl(30,20%,95%);
	}
	svg.railroad-diagram path {
		stroke-width:3;
		stroke:black;
		fill:rgba(0,0,0,0);
	}
	svg.railroad-diagram text {
		font:bold 14px monospace;
		text-anchor:middle;
	}
	svg.railroad-diagram text.label{
		text-anchor:start;
	}
	svg.railroad-diagram text.comment{
		font:italic 12px monospace;
	}
	svg.railroad-diagram rect{
		stroke-width:3;
		stroke:black;
		fill:hsl(120,100%,90%);
	}
	svg.railroad-diagram rect.group-box {
		stroke: gray;
		stroke-dasharray: 10 5;
		fill: none;
	}

/* ]]> */
</style></svg>