<svg class="railroad-diagram" height="154" viewBox="0 0 442.5 154" width="442.5" xmlns="http://www.w3.org/2000/svg" xmlns:xlink="http://www.w3.org/1999/xlink">
<g transform="translate(.5 .5)">
<g>
<path d="M20 45v20m10 -20v20m-10 -10h20" /></g><g>
<path d="M40 55h0.0" /><path d="M402.5 55h0.0" /><path d="M40.0 55h20" /><g>
<path d="M60.0 55h0.0" /><path d="M382.5 55h0.0" /><rect class="group-box" height="68" rx="10" ry="10" width="322.5" x="60" y="36"></rect><g>
<path d="M60.0 55h10.0" /><path d="M372.5 55h10.0" /><g class="terminal ">
<path d="M70.0 55h0.0" /><path d="M115.5 55h0.0" /><rect height="22" rx="10" ry="10" width="45.5" x="70" y="44"></rect><text x="92.75" y="59">&apos;*&apos;</text></g><path d="M115.5 55h10" /><g>
<path d="M125.5 55h0.0" /><path d="M372.5 55h0.0" /><path d="M125.5 55h20" /><g class="non-terminal ">
<path d="M145.5 55h0.0" /><path d="M352.5 55h0.0" /><rect height="22" width="207" x="145.5" y="44"></rect><text x="249" y="59">pattern_capture_target</text></g><path d="M352.5 55h20" /><path d="M125.5 55a10 10 0 0 1 10 10v10a10 10 0 0 0 10 10" /><g class="non-terminal ">
<path d="M145.5 85h25.5" /><path d="M327.0 85h25.5" /><rect height="22" width="156" x="171" y="74"></rect><text x="249" y="89">wildcard_pattern</text></g><path d="M352.5 85a10 10 0 0 0 10 -10v-10a10 10 0 0 1 10 -10" /></g></g><g class="non-terminal ">
<path d="M60.0 28h0.0" /><path d="M154.0 28h0.0" /><text class="comment" x="107" y="33">star_pattern</text></g></g><path d="M382.5 55h20" /><path d="M40.0 55a10 10 0 0 1 10 10v48a10 10 0 0 0 10 10" /><g class="non-terminal ">
<path d="M60.0 123h121.5" /><path d="M261.0 123h121.5" /><rect height="22" width="79.5" x="181.5" y="112"></rect><text x="221.25" y="127">pattern</text></g><path d="M382.5 123a10 10 0 0 0 10 -10v-48a10 10 0 0 1 10 -10" /></g><path d="M 402.5 55 h 20 m -10 -10 v 20 m 10 -20 v 20"></path></g><style>/* <![CDATA[ */
	svg.railroad-diagram {
		background-color:hsl(30,20%,95%);
	}
	svg.railroad-diagram path {
		stroke-width:3;
		stroke:black;
		fill:rgba(0,0,0,0);
	}
	svg.railroad-diagram text {
		font:bold 14px monospace;
		text-anchor:middle;
	}
	svg.railroad-diagram text.label{
		text-anchor:start;
	}
	svg.railroad-diagram text.comment{
		font:italic 12px monospace;
	}
	svg.railroad-diagram rect{
		stroke-width:3;
		stroke:black;
		fill:hsl(120,100%,90%);
	}
	svg.railroad-diagram rect.group-box {
		stroke: gray;
		stroke-dasharray: 10 5;
		fill: none;
	}

/* ]]> */
</style></svg>