<svg class="railroad-diagram" height="92" viewBox="0 0 385.0 92" width="385.0" xmlns="http://www.w3.org/2000/svg" xmlns:xlink="http://www.w3.org/1999/xlink">
<g transform="translate(.5 .5)">
<g>
<path d="M20 21v20m10 -20v20m-10 -10h163.0" /><text style="text-anchor:start" x="20" y="16">maybe_star_pattern</text></g><g>
<path d="M183.0 31h0.0" /><path d="M345.0 31h0.0" /><path d="M183.0 31h20" /><g class="non-terminal ">
<path d="M203.0 31h0.0" /><path d="M325.0 31h0.0" /><rect height="22" width="122" x="203" y="20"></rect><text x="264" y="35">star_pattern</text></g><path d="M325.0 31h20" /><path d="M183.0 31a10 10 0 0 1 10 10v10a10 10 0 0 0 10 10" /><g class="non-terminal ">
<path d="M203.0 61h21.25" /><path d="M303.75 61h21.25" /><rect height="22" width="79.5" x="224.25" y="50"></rect><text x="264" y="65">pattern</text></g><path d="M325.0 61a10 10 0 0 0 10 -10v-10a10 10 0 0 1 10 -10" /></g><path d="M 345.0 31 h 20 m -10 -10 v 20 m 10 -20 v 20"></path></g><style>/* <![CDATA[ */
	svg.railroad-diagram {
		background-color:hsl(30,20%,95%);
	}
	svg.railroad-diagram path {
		stroke-width:3;
		stroke:black;
		fill:rgba(0,0,0,0);
	}
	svg.railroad-diagram text {
		font:bold 14px monospace;
		text-anchor:middle;
	}
	svg.railroad-diagram text.label{
		text-anchor:start;
	}
	svg.railroad-diagram text.comment{
		font:italic 12px monospace;
	}
	svg.railroad-diagram rect{
		stroke-width:3;
		stroke:black;
		fill:hsl(120,100%,90%);
	}
	svg.railroad-diagram rect.group-box {
		stroke: gray;
		stroke-dasharray: 10 5;
		fill: none;
	}

/* ]]> */
</style></svg>