<svg class="railroad-diagram" height="91" viewBox="0 0 575.5 91" width="575.5" xmlns="http://www.w3.org/2000/svg" xmlns:xlink="http://www.w3.org/1999/xlink">
<g transform="translate(.5 .5)">
<g>
<path d="M20 30v20m10 -20v20m-10 -10h197.0" /><text style="text-anchor:start" x="20" y="25">maybe_sequence_pattern</text></g><path d="M217.0 40h10" /><g>
<path d="M227.0 40h0.0" /><path d="M525.5 40h0.0" /><g>
<path d="M227.0 40h0.0" /><path d="M440.0 40h0.0" /><path d="M227.0 40h20" /><g>
<path d="M247.0 40h173.0" /></g><path d="M420.0 40h20" /><path d="M227.0 40a10 10 0 0 1 10 10v0a10 10 0 0 0 10 10" /><g class="non-terminal ">
<path d="M247.0 60h0.0" /><path d="M420.0 60h0.0" /><rect height="22" width="173" x="247" y="49"></rect><text x="333.5" y="64">maybe_star_pattern</text></g><path d="M420.0 60a10 10 0 0 0 10 -10v0a10 10 0 0 1 10 -10" /></g><g>
<path d="M440.0 40h0.0" /><path d="M525.5 40h0.0" /><path d="M440.0 40a10 10 0 0 0 10 -10v0a10 10 0 0 1 10 -10" /><g>
<path d="M460.0 20h45.5" /></g><path d="M505.5 20a10 10 0 0 1 10 10v0a10 10 0 0 0 10 10" /><path d="M440.0 40h20" /><g class="terminal ">
<path d="M460.0 40h0.0" /><path d="M505.5 40h0.0" /><rect height="22" rx="10" ry="10" width="45.5" x="460" y="29"></rect><text x="482.75" y="44">&apos;,&apos;</text></g><path d="M505.5 40h20" /></g></g><path d="M525.5 40h10" /><path d="M 535.5 40 h 20 m -10 -10 v 20 m 10 -20 v 20"></path></g><style>/* <![CDATA[ */
	svg.railroad-diagram {
		background-color:hsl(30,20%,95%);
	}
	svg.railroad-diagram path {
		stroke-width:3;
		stroke:black;
		fill:rgba(0,0,0,0);
	}
	svg.railroad-diagram text {
		font:bold 14px monospace;
		text-anchor:middle;
	}
	svg.railroad-diagram text.label{
		text-anchor:start;
	}
	svg.railroad-diagram text.comment{
		font:italic 12px monospace;
	}
	svg.railroad-diagram rect{
		stroke-width:3;
		stroke:black;
		fill:hsl(120,100%,90%);
	}
	svg.railroad-diagram rect.group-box {
		stroke: gray;
		stroke-dasharray: 10 5;
		fill: none;
	}

/* ]]> */
</style></svg>