<svg class="railroad-diagram" height="82" viewBox="0 0 409.5 82" width="409.5" xmlns="http://www.w3.org/2000/svg" xmlns:xlink="http://www.w3.org/1999/xlink">
<g transform="translate(.5 .5)">
<g>
<path d="M20 21v20m10 -20v20m-10 -10h120.5" /><text style="text-anchor:start" x="20" y="16">nonlocal_stmt</text></g><path d="M140.5 31h10" /><g>
<path d="M150.5 31h0.0" /><path d="M359.5 31h0.0" /><g class="terminal ">
<path d="M150.5 31h0.0" /><path d="M255.5 31h0.0" /><rect height="22" rx="10" ry="10" width="105" x="150.5" y="20"></rect><text x="203" y="35">&apos;nonlocal&apos;</text></g><path d="M255.5 31h10" /><g>
<path d="M265.5 31h0.0" /><path d="M359.5 31h0.0" /><path d="M265.5 31h20" /><g>
<path d="M285.5 31h54.0" /></g><path d="M339.5 31h20" /><path d="M265.5 31a10 10 0 0 1 10 10v0a10 10 0 0 0 10 10" /><g class="terminal ">
<path d="M285.5 51h0.0" /><path d="M339.5 51h0.0" /><rect height="22" rx="10" ry="10" width="54" x="285.5" y="40"></rect><text x="312.5" y="55">NAME</text></g><path d="M339.5 51a10 10 0 0 0 10 -10v0a10 10 0 0 1 10 -10" /></g></g><path d="M359.5 31h10" /><path d="M 369.5 31 h 20 m -10 -10 v 20 m 10 -20 v 20"></path></g><style>/* <![CDATA[ */
	svg.railroad-diagram {
		background-color:hsl(30,20%,95%);
	}
	svg.railroad-diagram path {
		stroke-width:3;
		stroke:black;
		fill:rgba(0,0,0,0);
	}
	svg.railroad-diagram text {
		font:bold 14px monospace;
		text-anchor:middle;
	}
	svg.railroad-diagram text.label{
		text-anchor:start;
	}
	svg.railroad-diagram text.comment{
		font:italic 12px monospace;
	}
	svg.railroad-diagram rect{
		stroke-width:3;
		stroke:black;
		fill:hsl(120,100%,90%);
	}
	svg.railroad-diagram rect.group-box {
		stroke: gray;
		stroke-dasharray: 10 5;
		fill: none;
	}

/* ]]> */
</style></svg>