<svg class="railroad-diagram" height="133" viewBox="0 0 556.5 133" width="556.5" xmlns="http://www.w3.org/2000/svg" xmlns:xlink="http://www.w3.org/1999/xlink">
<g transform="translate(.5 .5)">
<g>
<path d="M20 30v20m10 -20v20m-10 -10h171.5" /><text style="text-anchor:start" x="20" y="25">param_maybe_default</text></g><path d="M191.5 40h10" /><g>
<path d="M201.5 40h0.0" /><path d="M506.5 40h0.0" /><g class="non-terminal ">
<path d="M201.5 40h0.0" /><path d="M264.0 40h0.0" /><rect height="22" width="62.5" x="201.5" y="29"></rect><text x="232.75" y="44">param</text></g><path d="M264.0 40h10" /><g>
<path d="M274.0 40h0.0" /><path d="M393.5 40h0.0" /><path d="M274.0 40a10 10 0 0 0 10 -10v0a10 10 0 0 1 10 -10" /><g>
<path d="M294.0 20h79.5" /></g><path d="M373.5 20a10 10 0 0 1 10 10v0a10 10 0 0 0 10 10" /><path d="M274.0 40h20" /><g class="non-terminal ">
<path d="M294.0 40h0.0" /><path d="M373.5 40h0.0" /><rect height="22" width="79.5" x="294" y="29"></rect><text x="333.75" y="44">default</text></g><path d="M373.5 40h20" /></g><g>
<path d="M393.5 40h0.0" /><path d="M506.5 40h0.0" /><path d="M393.5 40h20" /><g class="terminal ">
<path d="M413.5 40h13.75" /><path d="M472.75 40h13.75" /><rect height="22" rx="10" ry="10" width="45.5" x="427.25" y="29"></rect><text x="450" y="44">&apos;,&apos;</text></g><path d="M486.5 40h20" /><path d="M393.5 40a10 10 0 0 1 10 10v34a10 10 0 0 0 10 10" /><g>
<path d="M413.5 94h0.0" /><path d="M486.5 94h0.0" /><rect class="group-box" height="38" rx="10" ry="10" width="73" x="413.5" y="75"></rect><g class="terminal ">
<path d="M413.5 94h13.75" /><path d="M472.75 94h13.75" /><rect height="22" rx="10" ry="10" width="45.5" x="427.25" y="83"></rect><text x="450" y="98">&apos;)&apos;</text></g><g class="non-terminal ">
<path d="M413.5 67h0.0" /><path d="M486.5 67h0.0" /><text class="comment" x="450" y="72">lookahead</text></g></g><path d="M486.5 94a10 10 0 0 0 10 -10v-34a10 10 0 0 1 10 -10" /></g></g><path d="M506.5 40h10" /><path d="M 516.5 40 h 20 m -10 -10 v 20 m 10 -20 v 20"></path></g><style>/* <![CDATA[ */
	svg.railroad-diagram {
		background-color:hsl(30,20%,95%);
	}
	svg.railroad-diagram path {
		stroke-width:3;
		stroke:black;
		fill:rgba(0,0,0,0);
	}
	svg.railroad-diagram text {
		font:bold 14px monospace;
		text-anchor:middle;
	}
	svg.railroad-diagram text.label{
		text-anchor:start;
	}
	svg.railroad-diagram text.comment{
		font:italic 12px monospace;
	}
	svg.railroad-diagram rect{
		stroke-width:3;
		stroke:black;
		fill:hsl(120,100%,90%);
	}
	svg.railroad-diagram rect.group-box {
		stroke: gray;
		stroke-dasharray: 10 5;
		fill: none;
	}

/* ]]> */
</style></svg>