<svg class="railroad-diagram" height="218" viewBox="0 0 943.0 218" width="943.0" xmlns="http://www.w3.org/2000/svg" xmlns:xlink="http://www.w3.org/1999/xlink">
<g transform="translate(.5 .5)">
<g>
<path d="M20 30v20m10 -20v20m-10 -10h20" /></g><g>
<path d="M40 40h0.0" /><path d="M903.0 40h0.0" /><path d="M40.0 40h20" /><g>
<path d="M60.0 40h0.0" /><path d="M883.0 40h0.0" /><g>
<path d="M60.0 40h0.0" /><path d="M755.0 40h0.0" /><path d="M60.0 40h20" /><g>
<path d="M80.0 40h0.0" /><path d="M735.0 40h0.0" /><g>
<path d="M80.0 40h0.0" /><path d="M502.0 40h0.0" /><path d="M80.0 40h20" /><g>
<path d="M100.0 40h0.0" /><path d="M482.0 40h0.0" /><g class="non-terminal ">
<path d="M100.0 40h0.0" /><path d="M256.0 40h0.0" /><rect height="22" width="156" x="100" y="29"></rect><text x="178" y="44">slash_no_default</text></g><path d="M256.0 40h10" /><g>
<path d="M266.0 40h0.0" /><path d="M482.0 40h0.0" /><path d="M266.0 40a10 10 0 0 0 10 -10v0a10 10 0 0 1 10 -10" /><g>
<path d="M286.0 20h176.0" /></g><path d="M462.0 20a10 10 0 0 1 10 10v0a10 10 0 0 0 10 10" /><path d="M266.0 40h20" /><g>
<path d="M286.0 40h0.0" /><path d="M462.0 40h0.0" /><path d="M286.0 40h10" /><g class="non-terminal ">
<path d="M296.0 40h0.0" /><path d="M452.0 40h0.0" /><rect height="22" width="156" x="296" y="29"></rect><text x="374" y="44">param_no_default</text></g><path d="M452.0 40h10" /><path d="M296.0 40a10 10 0 0 0 -10 10v0a10 10 0 0 0 10 10" /><g>
<path d="M296.0 60h156.0" /></g><path d="M452.0 60a10 10 0 0 0 10 -10v0a10 10 0 0 0 -10 -10" /></g><path d="M462.0 40h20" /></g></g><path d="M482.0 40h20" /><path d="M80.0 40a10 10 0 0 1 10 10v19a10 10 0 0 0 10 10" /><g class="non-terminal ">
<path d="M100.0 79h104.5" /><path d="M377.5 79h104.5" /><rect height="22" width="173" x="204.5" y="68"></rect><text x="291" y="83">slash_with_default</text></g><path d="M482.0 79a10 10 0 0 0 10 -10v-19a10 10 0 0 1 10 -10" /><path d="M80.0 40a10 10 0 0 1 10 10v49a10 10 0 0 0 10 10" /><g>
<path d="M100.0 109h103.0" /><path d="M379.0 109h103.0" /><path d="M203.0 109h10" /><g class="non-terminal ">
<path d="M213.0 109h0.0" /><path d="M369.0 109h0.0" /><rect height="22" width="156" x="213" y="98"></rect><text x="291" y="113">param_no_default</text></g><path d="M369.0 109h10" /><path d="M213.0 109a10 10 0 0 0 -10 10v0a10 10 0 0 0 10 10" /><g>
<path d="M213.0 129h156.0" /></g><path d="M369.0 129a10 10 0 0 0 10 -10v0a10 10 0 0 0 -10 -10" /></g><path d="M482.0 109a10 10 0 0 0 10 -10v-49a10 10 0 0 1 10 -10" /></g><g>
<path d="M502.0 40h0.0" /><path d="M735.0 40h0.0" /><path d="M502.0 40a10 10 0 0 0 10 -10v0a10 10 0 0 1 10 -10" /><g>
<path d="M522.0 20h193.0" /></g><path d="M715.0 20a10 10 0 0 1 10 10v0a10 10 0 0 0 10 10" /><path d="M502.0 40h20" /><g>
<path d="M522.0 40h0.0" /><path d="M715.0 40h0.0" /><path d="M522.0 40h10" /><g class="non-terminal ">
<path d="M532.0 40h0.0" /><path d="M705.0 40h0.0" /><rect height="22" width="173" x="532" y="29"></rect><text x="618.5" y="44">param_with_default</text></g><path d="M705.0 40h10" /><path d="M532.0 40a10 10 0 0 0 -10 10v0a10 10 0 0 0 10 10" /><g>
<path d="M532.0 60h173.0" /></g><path d="M705.0 60a10 10 0 0 0 10 -10v0a10 10 0 0 0 -10 -10" /></g><path d="M715.0 40h20" /></g></g><path d="M735.0 40h20" /><path d="M60.0 40a10 10 0 0 1 10 10v88a10 10 0 0 0 10 10" /><g>
<path d="M80.0 148h231.0" /><path d="M504.0 148h231.0" /><path d="M311.0 148h10" /><g class="non-terminal ">
<path d="M321.0 148h0.0" /><path d="M494.0 148h0.0" /><rect height="22" width="173" x="321" y="137"></rect><text x="407.5" y="152">param_with_default</text></g><path d="M494.0 148h10" /><path d="M321.0 148a10 10 0 0 0 -10 10v0a10 10 0 0 0 10 10" /><g>
<path d="M321.0 168h173.0" /></g><path d="M494.0 168a10 10 0 0 0 10 -10v0a10 10 0 0 0 -10 -10" /></g><path d="M735.0 148a10 10 0 0 0 10 -10v-88a10 10 0 0 1 10 -10" /></g><g>
<path d="M755.0 40h0.0" /><path d="M883.0 40h0.0" /><path d="M755.0 40a10 10 0 0 0 10 -10v0a10 10 0 0 1 10 -10" /><g>
<path d="M775.0 20h88.0" /></g><path d="M863.0 20a10 10 0 0 1 10 10v0a10 10 0 0 0 10 10" /><path d="M755.0 40h20" /><g class="non-terminal ">
<path d="M775.0 40h0.0" /><path d="M863.0 40h0.0" /><rect height="22" width="88" x="775" y="29"></rect><text x="819" y="44">star_etc</text></g><path d="M863.0 40h20" /></g></g><path d="M883.0 40h20" /><path d="M40.0 40a10 10 0 0 1 10 10v127a10 10 0 0 0 10 10" /><g class="non-terminal ">
<path d="M60.0 187h367.5" /><path d="M515.5 187h367.5" /><rect height="22" width="88" x="427.5" y="176"></rect><text x="471.5" y="191">star_etc</text></g><path d="M883.0 187a10 10 0 0 0 10 -10v-127a10 10 0 0 1 10 -10" /></g><path d="M 903.0 40 h 20 m -10 -10 v 20 m 10 -20 v 20"></path></g><style>/* <![CDATA[ */
	svg.railroad-diagram {
		background-color:hsl(30,20%,95%);
	}
	svg.railroad-diagram path {
		stroke-width:3;
		stroke:black;
		fill:rgba(0,0,0,0);
	}
	svg.railroad-diagram text {
		font:bold 14px monospace;
		text-anchor:middle;
	}
	svg.railroad-diagram text.label{
		text-anchor:start;
	}
	svg.railroad-diagram text.comment{
		font:italic 12px monospace;
	}
	svg.railroad-diagram rect{
		stroke-width:3;
		stroke:black;
		fill:hsl(120,100%,90%);
	}
	svg.railroad-diagram rect.group-box {
		stroke: gray;
		stroke-dasharray: 10 5;
		fill: none;
	}

/* ]]> */
</style></svg>