<svg class="railroad-diagram" height="133" viewBox="0 0 405.0 133" width="405.0" xmlns="http://www.w3.org/2000/svg" xmlns:xlink="http://www.w3.org/1999/xlink">
<g transform="translate(.5 .5)">
<g>
<path d="M20 30v20m10 -20v20m-10 -10h20" /></g><path d="M40 40h10" /><g>
<path d="M50 40h0.0" /><path d="M355.0 40h0.0" /><g class="non-terminal ">
<path d="M50.0 40h0.0" /><path d="M112.5 40h0.0" /><rect height="22" width="62.5" x="50" y="29"></rect><text x="81.25" y="44">param</text></g><path d="M112.5 40h10" /><g>
<path d="M122.5 40h0.0" /><path d="M242.0 40h0.0" /><path d="M122.5 40a10 10 0 0 0 10 -10v0a10 10 0 0 1 10 -10" /><g>
<path d="M142.5 20h79.5" /></g><path d="M222.0 20a10 10 0 0 1 10 10v0a10 10 0 0 0 10 10" /><path d="M122.5 40h20" /><g class="non-terminal ">
<path d="M142.5 40h0.0" /><path d="M222.0 40h0.0" /><rect height="22" width="79.5" x="142.5" y="29"></rect><text x="182.25" y="44">default</text></g><path d="M222.0 40h20" /></g><g>
<path d="M242.0 40h0.0" /><path d="M355.0 40h0.0" /><path d="M242.0 40h20" /><g class="terminal ">
<path d="M262.0 40h13.75" /><path d="M321.25 40h13.75" /><rect height="22" rx="10" ry="10" width="45.5" x="275.75" y="29"></rect><text x="298.5" y="44">&apos;,&apos;</text></g><path d="M335.0 40h20" /><path d="M242.0 40a10 10 0 0 1 10 10v34a10 10 0 0 0 10 10" /><g>
<path d="M262.0 94h0.0" /><path d="M335.0 94h0.0" /><rect class="group-box" height="38" rx="10" ry="10" width="73" x="262" y="75"></rect><g class="terminal ">
<path d="M262.0 94h13.75" /><path d="M321.25 94h13.75" /><rect height="22" rx="10" ry="10" width="45.5" x="275.75" y="83"></rect><text x="298.5" y="98">&apos;)&apos;</text></g><g class="non-terminal ">
<path d="M262.0 67h0.0" /><path d="M335.0 67h0.0" /><text class="comment" x="298.5" y="72">lookahead</text></g></g><path d="M335.0 94a10 10 0 0 0 10 -10v-34a10 10 0 0 1 10 -10" /></g></g><path d="M355.0 40h10" /><path d="M 365.0 40 h 20 m -10 -10 v 20 m 10 -20 v 20"></path></g><style>/* <![CDATA[ */
	svg.railroad-diagram {
		background-color:hsl(30,20%,95%);
	}
	svg.railroad-diagram path {
		stroke-width:3;
		stroke:black;
		fill:rgba(0,0,0,0);
	}
	svg.railroad-diagram text {
		font:bold 14px monospace;
		text-anchor:middle;
	}
	svg.railroad-diagram text.label{
		text-anchor:start;
	}
	svg.railroad-diagram text.comment{
		font:italic 12px monospace;
	}
	svg.railroad-diagram rect{
		stroke-width:3;
		stroke:black;
		fill:hsl(120,100%,90%);
	}
	svg.railroad-diagram rect.group-box {
		stroke: gray;
		stroke-dasharray: 10 5;
		fill: none;
	}

/* ]]> */
</style></svg>