<svg class="railroad-diagram" height="71" viewBox="0 0 425.5 71" width="425.5" xmlns="http://www.w3.org/2000/svg" xmlns:xlink="http://www.w3.org/1999/xlink">
<g transform="translate(.5 .5)">
<g>
<path d="M20 30v20m10 -20v20m-10 -10h20" /></g><path d="M40 40h10" /><g>
<path d="M50 40h0.0" /><path d="M375.5 40h0.0" /><g class="non-terminal ">
<path d="M50.0 40h0.0" /><path d="M180.5 40h0.0" /><rect height="22" width="130.5" x="50" y="29"></rect><text x="115.25" y="44">await_primary</text></g><path d="M180.5 40h10" /><g>
<path d="M190.5 40h0.0" /><path d="M375.5 40h0.0" /><path d="M190.5 40a10 10 0 0 0 10 -10v0a10 10 0 0 1 10 -10" /><g>
<path d="M210.5 20h145.0" /></g><path d="M355.5 20a10 10 0 0 1 10 10v0a10 10 0 0 0 10 10" /><path d="M190.5 40h20" /><g>
<path d="M210.5 40h0.0" /><path d="M355.5 40h0.0" /><g class="terminal ">
<path d="M210.5 40h0.0" /><path d="M264.5 40h0.0" /><rect height="22" rx="10" ry="10" width="54" x="210.5" y="29"></rect><text x="237.5" y="44">&apos;**&apos;</text></g><path d="M264.5 40h10" /><path d="M274.5 40h10" /><g class="non-terminal ">
<path d="M284.5 40h0.0" /><path d="M355.5 40h0.0" /><rect height="22" width="71" x="284.5" y="29"></rect><text x="320" y="44">factor</text></g></g><path d="M355.5 40h20" /></g></g><path d="M375.5 40h10" /><path d="M 385.5 40 h 20 m -10 -10 v 20 m 10 -20 v 20"></path></g><style>/* <![CDATA[ */
	svg.railroad-diagram {
		background-color:hsl(30,20%,95%);
	}
	svg.railroad-diagram path {
		stroke-width:3;
		stroke:black;
		fill:rgba(0,0,0,0);
	}
	svg.railroad-diagram text {
		font:bold 14px monospace;
		text-anchor:middle;
	}
	svg.railroad-diagram text.label{
		text-anchor:start;
	}
	svg.railroad-diagram text.comment{
		font:italic 12px monospace;
	}
	svg.railroad-diagram rect{
		stroke-width:3;
		stroke:black;
		fill:hsl(120,100%,90%);
	}
	svg.railroad-diagram rect.group-box {
		stroke: gray;
		stroke-dasharray: 10 5;
		fill: none;
	}

/* ]]> */
</style></svg>