<svg class="railroad-diagram" height="191" viewBox="0 0 497.0 191" width="497.0" xmlns="http://www.w3.org/2000/svg" xmlns:xlink="http://www.w3.org/1999/xlink">
<g transform="translate(.5 .5)">
<g>
<path d="M20 21v20m10 -20v20m-10 -10h20" /></g><g>
<path d="M40 31h0.0" /><path d="M457.0 31h0.0" /><path d="M40.0 31h20" /><g>
<path d="M60.0 31h0.0" /><path d="M437.0 31h0.0" /><g class="non-terminal ">
<path d="M60.0 31h0.0" /><path d="M139.5 31h0.0" /><rect height="22" width="79.5" x="60" y="20"></rect><text x="99.75" y="35">primary</text></g><path d="M139.5 31h10" /><g>
<path d="M149.5 31h0.0" /><path d="M437.0 31h0.0" /><path d="M149.5 31h20" /><g>
<path d="M169.5 31h64.0" /><path d="M353.0 31h64.0" /><g class="terminal ">
<path d="M233.5 31h0.0" /><path d="M279.0 31h0.0" /><rect height="22" rx="10" ry="10" width="45.5" x="233.5" y="20"></rect><text x="256.25" y="35">&apos;.&apos;</text></g><path d="M279.0 31h10" /><path d="M289.0 31h10" /><g class="terminal ">
<path d="M299.0 31h0.0" /><path d="M353.0 31h0.0" /><rect height="22" rx="10" ry="10" width="54" x="299" y="20"></rect><text x="326" y="35">NAME</text></g></g><path d="M417.0 31h20" /><path d="M149.5 31a10 10 0 0 1 10 10v10a10 10 0 0 0 10 10" /><g class="non-terminal ">
<path d="M169.5 61h88.25" /><path d="M328.75 61h88.25" /><rect height="22" width="71" x="257.75" y="50"></rect><text x="293.25" y="65">genexp</text></g><path d="M417.0 61a10 10 0 0 0 10 -10v-10a10 10 0 0 1 10 -10" /><path d="M149.5 31a10 10 0 0 1 10 10v49a10 10 0 0 0 10 10" /><g>
<path d="M169.5 100h0.0" /><path d="M417.0 100h0.0" /><g class="terminal ">
<path d="M169.5 100h0.0" /><path d="M215.0 100h0.0" /><rect height="22" rx="10" ry="10" width="45.5" x="169.5" y="89"></rect><text x="192.25" y="104">&apos;(&apos;</text></g><path d="M215.0 100h10" /><g>
<path d="M225.0 100h0.0" /><path d="M361.5 100h0.0" /><path d="M225.0 100a10 10 0 0 0 10 -10v0a10 10 0 0 1 10 -10" /><g>
<path d="M245.0 80h96.5" /></g><path d="M341.5 80a10 10 0 0 1 10 10v0a10 10 0 0 0 10 10" /><path d="M225.0 100h20" /><g class="non-terminal ">
<path d="M245.0 100h0.0" /><path d="M341.5 100h0.0" /><rect height="22" width="96.5" x="245" y="89"></rect><text x="293.25" y="104">arguments</text></g><path d="M341.5 100h20" /></g><path d="M361.5 100h10" /><g class="terminal ">
<path d="M371.5 100h0.0" /><path d="M417.0 100h0.0" /><rect height="22" rx="10" ry="10" width="45.5" x="371.5" y="89"></rect><text x="394.25" y="104">&apos;)&apos;</text></g></g><path d="M417.0 100a10 10 0 0 0 10 -10v-49a10 10 0 0 1 10 -10" /><path d="M149.5 31a10 10 0 0 1 10 10v79a10 10 0 0 0 10 10" /><g>
<path d="M169.5 130h22.75" /><path d="M394.25 130h22.75" /><g class="terminal ">
<path d="M192.25 130h0.0" /><path d="M237.75 130h0.0" /><rect height="22" rx="10" ry="10" width="45.5" x="192.25" y="119"></rect><text x="215" y="134">&apos;[&apos;</text></g><path d="M237.75 130h10" /><path d="M247.75 130h10" /><g class="non-terminal ">
<path d="M257.75 130h0.0" /><path d="M328.75 130h0.0" /><rect height="22" width="71" x="257.75" y="119"></rect><text x="293.25" y="134">slices</text></g><path d="M328.75 130h10" /><path d="M338.75 130h10" /><g class="terminal ">
<path d="M348.75 130h0.0" /><path d="M394.25 130h0.0" /><rect height="22" rx="10" ry="10" width="45.5" x="348.75" y="119"></rect><text x="371.5" y="134">&apos;]&apos;</text></g></g><path d="M417.0 130a10 10 0 0 0 10 -10v-79a10 10 0 0 1 10 -10" /></g></g><path d="M437.0 31h20" /><path d="M40.0 31a10 10 0 0 1 10 10v109a10 10 0 0 0 10 10" /><g class="non-terminal ">
<path d="M60.0 160h161.5" /><path d="M275.5 160h161.5" /><rect height="22" width="54" x="221.5" y="149"></rect><text x="248.5" y="164">atom</text></g><path d="M437.0 160a10 10 0 0 0 10 -10v-109a10 10 0 0 1 10 -10" /></g><path d="M 457.0 31 h 20 m -10 -10 v 20 m 10 -20 v 20"></path></g><style>/* <![CDATA[ */
	svg.railroad-diagram {
		background-color:hsl(30,20%,95%);
	}
	svg.railroad-diagram path {
		stroke-width:3;
		stroke:black;
		fill:rgba(0,0,0,0);
	}
	svg.railroad-diagram text {
		font:bold 14px monospace;
		text-anchor:middle;
	}
	svg.railroad-diagram text.label{
		text-anchor:start;
	}
	svg.railroad-diagram text.comment{
		font:italic 12px monospace;
	}
	svg.railroad-diagram rect{
		stroke-width:3;
		stroke:black;
		fill:hsl(120,100%,90%);
	}
	svg.railroad-diagram rect.group-box {
		stroke: gray;
		stroke-dasharray: 10 5;
		fill: none;
	}

/* ]]> */
</style></svg>