<svg class="railroad-diagram" height="191" viewBox="0 0 546.5 191" width="546.5" xmlns="http://www.w3.org/2000/svg" xmlns:xlink="http://www.w3.org/1999/xlink">
<g transform="translate(.5 .5)">
<g>
<path d="M20 21v20m10 -20v20m-10 -10h69.5" /><text style="text-anchor:start" x="20" y="16">primary</text></g><g>
<path d="M89.5 31h0.0" /><path d="M506.5 31h0.0" /><path d="M89.5 31h20" /><g>
<path d="M109.5 31h0.0" /><path d="M486.5 31h0.0" /><g class="non-terminal ">
<path d="M109.5 31h0.0" /><path d="M189.0 31h0.0" /><rect height="22" width="79.5" x="109.5" y="20"></rect><text x="149.25" y="35">primary</text></g><path d="M189.0 31h10" /><g>
<path d="M199.0 31h0.0" /><path d="M486.5 31h0.0" /><path d="M199.0 31h20" /><g>
<path d="M219.0 31h64.0" /><path d="M402.5 31h64.0" /><g class="terminal ">
<path d="M283.0 31h0.0" /><path d="M328.5 31h0.0" /><rect height="22" rx="10" ry="10" width="45.5" x="283" y="20"></rect><text x="305.75" y="35">&apos;.&apos;</text></g><path d="M328.5 31h10" /><path d="M338.5 31h10" /><g class="terminal ">
<path d="M348.5 31h0.0" /><path d="M402.5 31h0.0" /><rect height="22" rx="10" ry="10" width="54" x="348.5" y="20"></rect><text x="375.5" y="35">NAME</text></g></g><path d="M466.5 31h20" /><path d="M199.0 31a10 10 0 0 1 10 10v10a10 10 0 0 0 10 10" /><g class="non-terminal ">
<path d="M219.0 61h88.25" /><path d="M378.25 61h88.25" /><rect height="22" width="71" x="307.25" y="50"></rect><text x="342.75" y="65">genexp</text></g><path d="M466.5 61a10 10 0 0 0 10 -10v-10a10 10 0 0 1 10 -10" /><path d="M199.0 31a10 10 0 0 1 10 10v49a10 10 0 0 0 10 10" /><g>
<path d="M219.0 100h0.0" /><path d="M466.5 100h0.0" /><g class="terminal ">
<path d="M219.0 100h0.0" /><path d="M264.5 100h0.0" /><rect height="22" rx="10" ry="10" width="45.5" x="219" y="89"></rect><text x="241.75" y="104">&apos;(&apos;</text></g><path d="M264.5 100h10" /><g>
<path d="M274.5 100h0.0" /><path d="M411.0 100h0.0" /><path d="M274.5 100a10 10 0 0 0 10 -10v0a10 10 0 0 1 10 -10" /><g>
<path d="M294.5 80h96.5" /></g><path d="M391.0 80a10 10 0 0 1 10 10v0a10 10 0 0 0 10 10" /><path d="M274.5 100h20" /><g class="non-terminal ">
<path d="M294.5 100h0.0" /><path d="M391.0 100h0.0" /><rect height="22" width="96.5" x="294.5" y="89"></rect><text x="342.75" y="104">arguments</text></g><path d="M391.0 100h20" /></g><path d="M411.0 100h10" /><g class="terminal ">
<path d="M421.0 100h0.0" /><path d="M466.5 100h0.0" /><rect height="22" rx="10" ry="10" width="45.5" x="421" y="89"></rect><text x="443.75" y="104">&apos;)&apos;</text></g></g><path d="M466.5 100a10 10 0 0 0 10 -10v-49a10 10 0 0 1 10 -10" /><path d="M199.0 31a10 10 0 0 1 10 10v79a10 10 0 0 0 10 10" /><g>
<path d="M219.0 130h22.75" /><path d="M443.75 130h22.75" /><g class="terminal ">
<path d="M241.75 130h0.0" /><path d="M287.25 130h0.0" /><rect height="22" rx="10" ry="10" width="45.5" x="241.75" y="119"></rect><text x="264.5" y="134">&apos;[&apos;</text></g><path d="M287.25 130h10" /><path d="M297.25 130h10" /><g class="non-terminal ">
<path d="M307.25 130h0.0" /><path d="M378.25 130h0.0" /><rect height="22" width="71" x="307.25" y="119"></rect><text x="342.75" y="134">slices</text></g><path d="M378.25 130h10" /><path d="M388.25 130h10" /><g class="terminal ">
<path d="M398.25 130h0.0" /><path d="M443.75 130h0.0" /><rect height="22" rx="10" ry="10" width="45.5" x="398.25" y="119"></rect><text x="421" y="134">&apos;]&apos;</text></g></g><path d="M466.5 130a10 10 0 0 0 10 -10v-79a10 10 0 0 1 10 -10" /></g></g><path d="M486.5 31h20" /><path d="M89.5 31a10 10 0 0 1 10 10v109a10 10 0 0 0 10 10" /><g class="non-terminal ">
<path d="M109.5 160h161.5" /><path d="M325.0 160h161.5" /><rect height="22" width="54" x="271" y="149"></rect><text x="298" y="164">atom</text></g><path d="M486.5 160a10 10 0 0 0 10 -10v-109a10 10 0 0 1 10 -10" /></g><path d="M 506.5 31 h 20 m -10 -10 v 20 m 10 -20 v 20"></path></g><style>/* <![CDATA[ */
	svg.railroad-diagram {
		background-color:hsl(30,20%,95%);
	}
	svg.railroad-diagram path {
		stroke-width:3;
		stroke:black;
		fill:rgba(0,0,0,0);
	}
	svg.railroad-diagram text {
		font:bold 14px monospace;
		text-anchor:middle;
	}
	svg.railroad-diagram text.label{
		text-anchor:start;
	}
	svg.railroad-diagram text.comment{
		font:italic 12px monospace;
	}
	svg.railroad-diagram rect{
		stroke-width:3;
		stroke:black;
		fill:hsl(120,100%,90%);
	}
	svg.railroad-diagram rect.group-box {
		stroke: gray;
		stroke-dasharray: 10 5;
		fill: none;
	}

/* ]]> */
</style></svg>