<svg class="railroad-diagram" height="62" viewBox="0 0 453.5 62" width="453.5" xmlns="http://www.w3.org/2000/svg" xmlns:xlink="http://www.w3.org/1999/xlink">
<g transform="translate(.5 .5)">
<g>
<path d="M20 21v20m10 -20v20m-10 -10h35.5" /><text style="text-anchor:start" x="20" y="16">set</text></g><path d="M55.5 31h10" /><g>
<path d="M65.5 31h0.0" /><path d="M403.5 31h0.0" /><g class="terminal ">
<path d="M65.5 31h0.0" /><path d="M111.0 31h0.0" /><rect height="22" rx="10" ry="10" width="45.5" x="65.5" y="20"></rect><text x="88.25" y="35">&apos;{&apos;</text></g><path d="M111.0 31h10" /><path d="M121.0 31h10" /><g class="non-terminal ">
<path d="M131.0 31h0.0" /><path d="M338.0 31h0.0" /><rect height="22" width="207" x="131" y="20"></rect><text x="234.5" y="35">star_named_expressions</text></g><path d="M338.0 31h10" /><path d="M348.0 31h10" /><g class="terminal ">
<path d="M358.0 31h0.0" /><path d="M403.5 31h0.0" /><rect height="22" rx="10" ry="10" width="45.5" x="358" y="20"></rect><text x="380.75" y="35">&apos;}&apos;</text></g></g><path d="M403.5 31h10" /><path d="M 413.5 31 h 20 m -10 -10 v 20 m 10 -20 v 20"></path></g><style>/* <![CDATA[ */
	svg.railroad-diagram {
		background-color:hsl(30,20%,95%);
	}
	svg.railroad-diagram path {
		stroke-width:3;
		stroke:black;
		fill:rgba(0,0,0,0);
	}
	svg.railroad-diagram text {
		font:bold 14px monospace;
		text-anchor:middle;
	}
	svg.railroad-diagram text.label{
		text-anchor:start;
	}
	svg.railroad-diagram text.comment{
		font:italic 12px monospace;
	}
	svg.railroad-diagram rect{
		stroke-width:3;
		stroke:black;
		fill:hsl(120,100%,90%);
	}
	svg.railroad-diagram rect.group-box {
		stroke: gray;
		stroke-dasharray: 10 5;
		fill: none;
	}

/* ]]> */
</style></svg>