<svg class="railroad-diagram" height="62" viewBox="0 0 595.5 62" width="595.5" xmlns="http://www.w3.org/2000/svg" xmlns:xlink="http://www.w3.org/1999/xlink">
<g transform="translate(.5 .5)">
<g>
<path d="M20 21v20m10 -20v20m-10 -10h69.5" /><text style="text-anchor:start" x="20" y="16">setcomp</text></g><path d="M89.5 31h10" /><g>
<path d="M99.5 31h0.0" /><path d="M545.5 31h0.0" /><g class="terminal ">
<path d="M99.5 31h0.0" /><path d="M145.0 31h0.0" /><rect height="22" rx="10" ry="10" width="45.5" x="99.5" y="20"></rect><text x="122.25" y="35">&apos;{&apos;</text></g><path d="M145.0 31h10" /><path d="M155.0 31h10" /><g class="non-terminal ">
<path d="M165.0 31h0.0" /><path d="M321.0 31h0.0" /><rect height="22" width="156" x="165" y="20"></rect><text x="243" y="35">named_expression</text></g><path d="M321.0 31h10" /><path d="M331.0 31h10" /><g class="non-terminal ">
<path d="M341.0 31h0.0" /><path d="M480.0 31h0.0" /><rect height="22" width="139" x="341" y="20"></rect><text x="410.5" y="35">for_if_clauses</text></g><path d="M480.0 31h10" /><path d="M490.0 31h10" /><g class="terminal ">
<path d="M500.0 31h0.0" /><path d="M545.5 31h0.0" /><rect height="22" rx="10" ry="10" width="45.5" x="500" y="20"></rect><text x="522.75" y="35">&apos;}&apos;</text></g></g><path d="M545.5 31h10" /><path d="M 555.5 31 h 20 m -10 -10 v 20 m 10 -20 v 20"></path></g><style>/* <![CDATA[ */
	svg.railroad-diagram {
		background-color:hsl(30,20%,95%);
	}
	svg.railroad-diagram path {
		stroke-width:3;
		stroke:black;
		fill:rgba(0,0,0,0);
	}
	svg.railroad-diagram text {
		font:bold 14px monospace;
		text-anchor:middle;
	}
	svg.railroad-diagram text.label{
		text-anchor:start;
	}
	svg.railroad-diagram text.comment{
		font:italic 12px monospace;
	}
	svg.railroad-diagram rect{
		stroke-width:3;
		stroke:black;
		fill:hsl(120,100%,90%);
	}
	svg.railroad-diagram rect.group-box {
		stroke: gray;
		stroke-dasharray: 10 5;
		fill: none;
	}

/* ]]> */
</style></svg>