<svg class="railroad-diagram" height="91" viewBox="0 0 520.5 91" width="520.5" xmlns="http://www.w3.org/2000/svg" xmlns:xlink="http://www.w3.org/1999/xlink">
<g transform="translate(.5 .5)">
<g>
<path d="M20 30v20m10 -20v20m-10 -10h112.0" /><text style="text-anchor:start" x="20" y="25">simple_stmts</text></g><path d="M132.0 40h10" /><g>
<path d="M142.0 40h0.0" /><path d="M470.5 40h0.0" /><g>
<path d="M142.0 40h0.0" /><path d="M295.5 40h0.0" /><path d="M142.0 40h20" /><g>
<path d="M162.0 40h113.5" /></g><path d="M275.5 40h20" /><path d="M142.0 40a10 10 0 0 1 10 10v0a10 10 0 0 0 10 10" /><g class="non-terminal ">
<path d="M162.0 60h0.0" /><path d="M275.5 60h0.0" /><rect height="22" width="113.5" x="162" y="49"></rect><text x="218.75" y="64">simple_stmt</text></g><path d="M275.5 60a10 10 0 0 0 10 -10v0a10 10 0 0 1 10 -10" /></g><g>
<path d="M295.5 40h0.0" /><path d="M381.0 40h0.0" /><path d="M295.5 40a10 10 0 0 0 10 -10v0a10 10 0 0 1 10 -10" /><g>
<path d="M315.5 20h45.5" /></g><path d="M361.0 20a10 10 0 0 1 10 10v0a10 10 0 0 0 10 10" /><path d="M295.5 40h20" /><g class="terminal ">
<path d="M315.5 40h0.0" /><path d="M361.0 40h0.0" /><rect height="22" rx="10" ry="10" width="45.5" x="315.5" y="29"></rect><text x="338.25" y="44">&apos;;&apos;</text></g><path d="M361.0 40h20" /></g><path d="M381.0 40h10" /><g class="terminal ">
<path d="M391.0 40h0.0" /><path d="M470.5 40h0.0" /><rect height="22" rx="10" ry="10" width="79.5" x="391" y="29"></rect><text x="430.75" y="44">NEWLINE</text></g></g><path d="M470.5 40h10" /><path d="M 480.5 40 h 20 m -10 -10 v 20 m 10 -20 v 20"></path></g><style>/* <![CDATA[ */
	svg.railroad-diagram {
		background-color:hsl(30,20%,95%);
	}
	svg.railroad-diagram path {
		stroke-width:3;
		stroke:black;
		fill:rgba(0,0,0,0);
	}
	svg.railroad-diagram text {
		font:bold 14px monospace;
		text-anchor:middle;
	}
	svg.railroad-diagram text.label{
		text-anchor:start;
	}
	svg.railroad-diagram text.comment{
		font:italic 12px monospace;
	}
	svg.railroad-diagram rect{
		stroke-width:3;
		stroke:black;
		fill:hsl(120,100%,90%);
	}
	svg.railroad-diagram rect.group-box {
		stroke: gray;
		stroke-dasharray: 10 5;
		fill: none;
	}

/* ]]> */
</style></svg>