<svg class="railroad-diagram" height="452" viewBox="0 0 359.5 452" width="359.5" xmlns="http://www.w3.org/2000/svg" xmlns:xlink="http://www.w3.org/1999/xlink">
<g transform="translate(.5 .5)">
<g>
<path d="M20 21v20m10 -20v20m-10 -10h103.5" /><text style="text-anchor:start" x="20" y="16">simple_stmt</text></g><g>
<path d="M123.5 31h0.0" /><path d="M319.5 31h0.0" /><path d="M123.5 31h20" /><g class="non-terminal ">
<path d="M143.5 31h25.5" /><path d="M274.0 31h25.5" /><rect height="22" width="105" x="169" y="20"></rect><text x="221.5" y="35">assignment</text></g><path d="M299.5 31h20" /><path d="M123.5 31a10 10 0 0 1 10 10v10a10 10 0 0 0 10 10" /><g class="non-terminal ">
<path d="M143.5 61h25.5" /><path d="M274.0 61h25.5" /><rect height="22" width="105" x="169" y="50"></rect><text x="221.5" y="65">type_alias</text></g><path d="M299.5 61a10 10 0 0 0 10 -10v-10a10 10 0 0 1 10 -10" /><path d="M123.5 31a10 10 0 0 1 10 10v40a10 10 0 0 0 10 10" /><g class="non-terminal ">
<path d="M143.5 91h0.0" /><path d="M299.5 91h0.0" /><rect height="22" width="156" x="143.5" y="80"></rect><text x="221.5" y="95">star_expressions</text></g><path d="M299.5 91a10 10 0 0 0 10 -10v-40a10 10 0 0 1 10 -10" /><path d="M123.5 31a10 10 0 0 1 10 10v70a10 10 0 0 0 10 10" /><g class="non-terminal ">
<path d="M143.5 121h21.25" /><path d="M278.25 121h21.25" /><rect height="22" width="113.5" x="164.75" y="110"></rect><text x="221.5" y="125">return_stmt</text></g><path d="M299.5 121a10 10 0 0 0 10 -10v-70a10 10 0 0 1 10 -10" /><path d="M123.5 31a10 10 0 0 1 10 10v100a10 10 0 0 0 10 10" /><g class="non-terminal ">
<path d="M143.5 151h21.25" /><path d="M278.25 151h21.25" /><rect height="22" width="113.5" x="164.75" y="140"></rect><text x="221.5" y="155">import_stmt</text></g><path d="M299.5 151a10 10 0 0 0 10 -10v-100a10 10 0 0 1 10 -10" /><path d="M123.5 31a10 10 0 0 1 10 10v130a10 10 0 0 0 10 10" /><g class="non-terminal ">
<path d="M143.5 181h25.5" /><path d="M274.0 181h25.5" /><rect height="22" width="105" x="169" y="170"></rect><text x="221.5" y="185">raise_stmt</text></g><path d="M299.5 181a10 10 0 0 0 10 -10v-130a10 10 0 0 1 10 -10" /><path d="M123.5 31a10 10 0 0 1 10 10v160a10 10 0 0 0 10 10" /><g class="terminal ">
<path d="M143.5 211h42.5" /><path d="M257.0 211h42.5" /><rect height="22" rx="10" ry="10" width="71" x="186" y="200"></rect><text x="221.5" y="215">&apos;pass&apos;</text></g><path d="M299.5 211a10 10 0 0 0 10 -10v-160a10 10 0 0 1 10 -10" /><path d="M123.5 31a10 10 0 0 1 10 10v190a10 10 0 0 0 10 10" /><g class="non-terminal ">
<path d="M143.5 241h34.0" /><path d="M265.5 241h34.0" /><rect height="22" width="88" x="177.5" y="230"></rect><text x="221.5" y="245">del_stmt</text></g><path d="M299.5 241a10 10 0 0 0 10 -10v-190a10 10 0 0 1 10 -10" /><path d="M123.5 31a10 10 0 0 1 10 10v220a10 10 0 0 0 10 10" /><g class="non-terminal ">
<path d="M143.5 271h25.5" /><path d="M274.0 271h25.5" /><rect height="22" width="105" x="169" y="260"></rect><text x="221.5" y="275">yield_stmt</text></g><path d="M299.5 271a10 10 0 0 0 10 -10v-220a10 10 0 0 1 10 -10" /><path d="M123.5 31a10 10 0 0 1 10 10v250a10 10 0 0 0 10 10" /><g class="non-terminal ">
<path d="M143.5 301h21.25" /><path d="M278.25 301h21.25" /><rect height="22" width="113.5" x="164.75" y="290"></rect><text x="221.5" y="305">assert_stmt</text></g><path d="M299.5 301a10 10 0 0 0 10 -10v-250a10 10 0 0 1 10 -10" /><path d="M123.5 31a10 10 0 0 1 10 10v280a10 10 0 0 0 10 10" /><g class="terminal ">
<path d="M143.5 331h38.25" /><path d="M261.25 331h38.25" /><rect height="22" rx="10" ry="10" width="79.5" x="181.75" y="320"></rect><text x="221.5" y="335">&apos;break&apos;</text></g><path d="M299.5 331a10 10 0 0 0 10 -10v-280a10 10 0 0 1 10 -10" /><path d="M123.5 31a10 10 0 0 1 10 10v310a10 10 0 0 0 10 10" /><g class="terminal ">
<path d="M143.5 361h25.5" /><path d="M274.0 361h25.5" /><rect height="22" rx="10" ry="10" width="105" x="169" y="350"></rect><text x="221.5" y="365">&apos;continue&apos;</text></g><path d="M299.5 361a10 10 0 0 0 10 -10v-310a10 10 0 0 1 10 -10" /><path d="M123.5 31a10 10 0 0 1 10 10v340a10 10 0 0 0 10 10" /><g class="non-terminal ">
<path d="M143.5 391h21.25" /><path d="M278.25 391h21.25" /><rect height="22" width="113.5" x="164.75" y="380"></rect><text x="221.5" y="395">global_stmt</text></g><path d="M299.5 391a10 10 0 0 0 10 -10v-340a10 10 0 0 1 10 -10" /><path d="M123.5 31a10 10 0 0 1 10 10v370a10 10 0 0 0 10 10" /><g class="non-terminal ">
<path d="M143.5 421h12.75" /><path d="M286.75 421h12.75" /><rect height="22" width="130.5" x="156.25" y="410"></rect><text x="221.5" y="425">nonlocal_stmt</text></g><path d="M299.5 421a10 10 0 0 0 10 -10v-370a10 10 0 0 1 10 -10" /></g><path d="M 319.5 31 h 20 m -10 -10 v 20 m 10 -20 v 20"></path></g><style>/* <![CDATA[ */
	svg.railroad-diagram {
		background-color:hsl(30,20%,95%);
	}
	svg.railroad-diagram path {
		stroke-width:3;
		stroke:black;
		fill:rgba(0,0,0,0);
	}
	svg.railroad-diagram text {
		font:bold 14px monospace;
		text-anchor:middle;
	}
	svg.railroad-diagram text.label{
		text-anchor:start;
	}
	svg.railroad-diagram text.comment{
		font:italic 12px monospace;
	}
	svg.railroad-diagram rect{
		stroke-width:3;
		stroke:black;
		fill:hsl(120,100%,90%);
	}
	svg.railroad-diagram rect.group-box {
		stroke: gray;
		stroke-dasharray: 10 5;
		fill: none;
	}

/* ]]> */
</style></svg>