<svg class="railroad-diagram" height="452" viewBox="0 0 276.0 452" width="276.0" xmlns="http://www.w3.org/2000/svg" xmlns:xlink="http://www.w3.org/1999/xlink">
<g transform="translate(.5 .5)">
<g>
<path d="M20 21v20m10 -20v20m-10 -10h20" /></g><g>
<path d="M40 31h0.0" /><path d="M236.0 31h0.0" /><path d="M40.0 31h20" /><g class="non-terminal ">
<path d="M60.0 31h25.5" /><path d="M190.5 31h25.5" /><rect height="22" width="105" x="85.5" y="20"></rect><text x="138" y="35">assignment</text></g><path d="M216.0 31h20" /><path d="M40.0 31a10 10 0 0 1 10 10v10a10 10 0 0 0 10 10" /><g class="non-terminal ">
<path d="M60.0 61h25.5" /><path d="M190.5 61h25.5" /><rect height="22" width="105" x="85.5" y="50"></rect><text x="138" y="65">type_alias</text></g><path d="M216.0 61a10 10 0 0 0 10 -10v-10a10 10 0 0 1 10 -10" /><path d="M40.0 31a10 10 0 0 1 10 10v40a10 10 0 0 0 10 10" /><g class="non-terminal ">
<path d="M60.0 91h0.0" /><path d="M216.0 91h0.0" /><rect height="22" width="156" x="60" y="80"></rect><text x="138" y="95">star_expressions</text></g><path d="M216.0 91a10 10 0 0 0 10 -10v-40a10 10 0 0 1 10 -10" /><path d="M40.0 31a10 10 0 0 1 10 10v70a10 10 0 0 0 10 10" /><g class="non-terminal ">
<path d="M60.0 121h21.25" /><path d="M194.75 121h21.25" /><rect height="22" width="113.5" x="81.25" y="110"></rect><text x="138" y="125">return_stmt</text></g><path d="M216.0 121a10 10 0 0 0 10 -10v-70a10 10 0 0 1 10 -10" /><path d="M40.0 31a10 10 0 0 1 10 10v100a10 10 0 0 0 10 10" /><g class="non-terminal ">
<path d="M60.0 151h21.25" /><path d="M194.75 151h21.25" /><rect height="22" width="113.5" x="81.25" y="140"></rect><text x="138" y="155">import_stmt</text></g><path d="M216.0 151a10 10 0 0 0 10 -10v-100a10 10 0 0 1 10 -10" /><path d="M40.0 31a10 10 0 0 1 10 10v130a10 10 0 0 0 10 10" /><g class="non-terminal ">
<path d="M60.0 181h25.5" /><path d="M190.5 181h25.5" /><rect height="22" width="105" x="85.5" y="170"></rect><text x="138" y="185">raise_stmt</text></g><path d="M216.0 181a10 10 0 0 0 10 -10v-130a10 10 0 0 1 10 -10" /><path d="M40.0 31a10 10 0 0 1 10 10v160a10 10 0 0 0 10 10" /><g class="terminal ">
<path d="M60.0 211h42.5" /><path d="M173.5 211h42.5" /><rect height="22" rx="10" ry="10" width="71" x="102.5" y="200"></rect><text x="138" y="215">&apos;pass&apos;</text></g><path d="M216.0 211a10 10 0 0 0 10 -10v-160a10 10 0 0 1 10 -10" /><path d="M40.0 31a10 10 0 0 1 10 10v190a10 10 0 0 0 10 10" /><g class="non-terminal ">
<path d="M60.0 241h34.0" /><path d="M182.0 241h34.0" /><rect height="22" width="88" x="94" y="230"></rect><text x="138" y="245">del_stmt</text></g><path d="M216.0 241a10 10 0 0 0 10 -10v-190a10 10 0 0 1 10 -10" /><path d="M40.0 31a10 10 0 0 1 10 10v220a10 10 0 0 0 10 10" /><g class="non-terminal ">
<path d="M60.0 271h25.5" /><path d="M190.5 271h25.5" /><rect height="22" width="105" x="85.5" y="260"></rect><text x="138" y="275">yield_stmt</text></g><path d="M216.0 271a10 10 0 0 0 10 -10v-220a10 10 0 0 1 10 -10" /><path d="M40.0 31a10 10 0 0 1 10 10v250a10 10 0 0 0 10 10" /><g class="non-terminal ">
<path d="M60.0 301h21.25" /><path d="M194.75 301h21.25" /><rect height="22" width="113.5" x="81.25" y="290"></rect><text x="138" y="305">assert_stmt</text></g><path d="M216.0 301a10 10 0 0 0 10 -10v-250a10 10 0 0 1 10 -10" /><path d="M40.0 31a10 10 0 0 1 10 10v280a10 10 0 0 0 10 10" /><g class="terminal ">
<path d="M60.0 331h38.25" /><path d="M177.75 331h38.25" /><rect height="22" rx="10" ry="10" width="79.5" x="98.25" y="320"></rect><text x="138" y="335">&apos;break&apos;</text></g><path d="M216.0 331a10 10 0 0 0 10 -10v-280a10 10 0 0 1 10 -10" /><path d="M40.0 31a10 10 0 0 1 10 10v310a10 10 0 0 0 10 10" /><g class="terminal ">
<path d="M60.0 361h25.5" /><path d="M190.5 361h25.5" /><rect height="22" rx="10" ry="10" width="105" x="85.5" y="350"></rect><text x="138" y="365">&apos;continue&apos;</text></g><path d="M216.0 361a10 10 0 0 0 10 -10v-310a10 10 0 0 1 10 -10" /><path d="M40.0 31a10 10 0 0 1 10 10v340a10 10 0 0 0 10 10" /><g class="non-terminal ">
<path d="M60.0 391h21.25" /><path d="M194.75 391h21.25" /><rect height="22" width="113.5" x="81.25" y="380"></rect><text x="138" y="395">global_stmt</text></g><path d="M216.0 391a10 10 0 0 0 10 -10v-340a10 10 0 0 1 10 -10" /><path d="M40.0 31a10 10 0 0 1 10 10v370a10 10 0 0 0 10 10" /><g class="non-terminal ">
<path d="M60.0 421h12.75" /><path d="M203.25 421h12.75" /><rect height="22" width="130.5" x="72.75" y="410"></rect><text x="138" y="425">nonlocal_stmt</text></g><path d="M216.0 421a10 10 0 0 0 10 -10v-370a10 10 0 0 1 10 -10" /></g><path d="M 236.0 31 h 20 m -10 -10 v 20 m 10 -20 v 20"></path></g><style>/* <![CDATA[ */
	svg.railroad-diagram {
		background-color:hsl(30,20%,95%);
	}
	svg.railroad-diagram path {
		stroke-width:3;
		stroke:black;
		fill:rgba(0,0,0,0);
	}
	svg.railroad-diagram text {
		font:bold 14px monospace;
		text-anchor:middle;
	}
	svg.railroad-diagram text.label{
		text-anchor:start;
	}
	svg.railroad-diagram text.comment{
		font:italic 12px monospace;
	}
	svg.railroad-diagram rect{
		stroke-width:3;
		stroke:black;
		fill:hsl(120,100%,90%);
	}
	svg.railroad-diagram rect.group-box {
		stroke: gray;
		stroke-dasharray: 10 5;
		fill: none;
	}

/* ]]> */
</style></svg>