<svg class="railroad-diagram" height="92" viewBox="0 0 448.5 92" width="448.5" xmlns="http://www.w3.org/2000/svg" xmlns:xlink="http://www.w3.org/1999/xlink">
<g transform="translate(.5 .5)">
<g>
<path d="M20 21v20m10 -20v20m-10 -10h20" /></g><path d="M40 31h10" /><g>
<path d="M50 31h0.0" /><path d="M398.5 31h0.0" /><g class="non-terminal ">
<path d="M50.0 31h0.0" /><path d="M146.5 31h0.0" /><rect height="22" width="96.5" x="50" y="20"></rect><text x="98.25" y="35">t_primary</text></g><path d="M146.5 31h10" /><g>
<path d="M156.5 31h0.0" /><path d="M398.5 31h0.0" /><path d="M156.5 31h20" /><g>
<path d="M176.5 31h41.25" /><path d="M337.25 31h41.25" /><g class="terminal ">
<path d="M217.75 31h0.0" /><path d="M263.25 31h0.0" /><rect height="22" rx="10" ry="10" width="45.5" x="217.75" y="20"></rect><text x="240.5" y="35">&apos;.&apos;</text></g><path d="M263.25 31h10" /><path d="M273.25 31h10" /><g class="terminal ">
<path d="M283.25 31h0.0" /><path d="M337.25 31h0.0" /><rect height="22" rx="10" ry="10" width="54" x="283.25" y="20"></rect><text x="310.25" y="35">NAME</text></g></g><path d="M378.5 31h20" /><path d="M156.5 31a10 10 0 0 1 10 10v10a10 10 0 0 0 10 10" /><g>
<path d="M176.5 61h0.0" /><path d="M378.5 61h0.0" /><g class="terminal ">
<path d="M176.5 61h0.0" /><path d="M222.0 61h0.0" /><rect height="22" rx="10" ry="10" width="45.5" x="176.5" y="50"></rect><text x="199.25" y="65">&apos;[&apos;</text></g><path d="M222.0 61h10" /><path d="M232.0 61h10" /><g class="non-terminal ">
<path d="M242.0 61h0.0" /><path d="M313.0 61h0.0" /><rect height="22" width="71" x="242" y="50"></rect><text x="277.5" y="65">slices</text></g><path d="M313.0 61h10" /><path d="M323.0 61h10" /><g class="terminal ">
<path d="M333.0 61h0.0" /><path d="M378.5 61h0.0" /><rect height="22" rx="10" ry="10" width="45.5" x="333" y="50"></rect><text x="355.75" y="65">&apos;]&apos;</text></g></g><path d="M378.5 61a10 10 0 0 0 10 -10v-10a10 10 0 0 1 10 -10" /></g></g><path d="M398.5 31h10" /><path d="M 408.5 31 h 20 m -10 -10 v 20 m 10 -20 v 20"></path></g><style>/* <![CDATA[ */
	svg.railroad-diagram {
		background-color:hsl(30,20%,95%);
	}
	svg.railroad-diagram path {
		stroke-width:3;
		stroke:black;
		fill:rgba(0,0,0,0);
	}
	svg.railroad-diagram text {
		font:bold 14px monospace;
		text-anchor:middle;
	}
	svg.railroad-diagram text.label{
		text-anchor:start;
	}
	svg.railroad-diagram text.comment{
		font:italic 12px monospace;
	}
	svg.railroad-diagram rect{
		stroke-width:3;
		stroke:black;
		fill:hsl(120,100%,90%);
	}
	svg.railroad-diagram rect.group-box {
		stroke: gray;
		stroke-dasharray: 10 5;
		fill: none;
	}

/* ]]> */
</style></svg>