<svg class="railroad-diagram" height="122" viewBox="0 0 420.5 122" width="420.5" xmlns="http://www.w3.org/2000/svg" xmlns:xlink="http://www.w3.org/1999/xlink">
<g transform="translate(.5 .5)">
<g>
<path d="M20 21v20m10 -20v20m-10 -10h20" /></g><g>
<path d="M40 31h0.0" /><path d="M380.5 31h0.0" /><path d="M40.0 31h20" /><g class="non-terminal ">
<path d="M60.0 31h0.0" /><path d="M360.5 31h0.0" /><rect height="22" width="300.5" x="60" y="20"></rect><text x="210.25" y="35">single_subscript_attribute_target</text></g><path d="M360.5 31h20" /><path d="M40.0 31a10 10 0 0 1 10 10v10a10 10 0 0 0 10 10" /><g class="terminal ">
<path d="M60.0 61h123.25" /><path d="M237.25 61h123.25" /><rect height="22" rx="10" ry="10" width="54" x="183.25" y="50"></rect><text x="210.25" y="65">NAME</text></g><path d="M360.5 61a10 10 0 0 0 10 -10v-10a10 10 0 0 1 10 -10" /><path d="M40.0 31a10 10 0 0 1 10 10v40a10 10 0 0 0 10 10" /><g>
<path d="M60.0 91h19.5" /><path d="M341.0 91h19.5" /><g class="terminal ">
<path d="M79.5 91h0.0" /><path d="M125.0 91h0.0" /><rect height="22" rx="10" ry="10" width="45.5" x="79.5" y="80"></rect><text x="102.25" y="95">&apos;(&apos;</text></g><path d="M125.0 91h10" /><path d="M135.0 91h10" /><g class="non-terminal ">
<path d="M145.0 91h0.0" /><path d="M275.5 91h0.0" /><rect height="22" width="130.5" x="145" y="80"></rect><text x="210.25" y="95">single_target</text></g><path d="M275.5 91h10" /><path d="M285.5 91h10" /><g class="terminal ">
<path d="M295.5 91h0.0" /><path d="M341.0 91h0.0" /><rect height="22" rx="10" ry="10" width="45.5" x="295.5" y="80"></rect><text x="318.25" y="95">&apos;)&apos;</text></g></g><path d="M360.5 91a10 10 0 0 0 10 -10v-40a10 10 0 0 1 10 -10" /></g><path d="M 380.5 31 h 20 m -10 -10 v 20 m 10 -20 v 20"></path></g><style>/* <![CDATA[ */
	svg.railroad-diagram {
		background-color:hsl(30,20%,95%);
	}
	svg.railroad-diagram path {
		stroke-width:3;
		stroke:black;
		fill:rgba(0,0,0,0);
	}
	svg.railroad-diagram text {
		font:bold 14px monospace;
		text-anchor:middle;
	}
	svg.railroad-diagram text.label{
		text-anchor:start;
	}
	svg.railroad-diagram text.comment{
		font:italic 12px monospace;
	}
	svg.railroad-diagram rect{
		stroke-width:3;
		stroke:black;
		fill:hsl(120,100%,90%);
	}
	svg.railroad-diagram rect.group-box {
		stroke: gray;
		stroke-dasharray: 10 5;
		fill: none;
	}

/* ]]> */
</style></svg>