<svg class="railroad-diagram" height="122" viewBox="0 0 521.0 122" width="521.0" xmlns="http://www.w3.org/2000/svg" xmlns:xlink="http://www.w3.org/1999/xlink">
<g transform="translate(.5 .5)">
<g>
<path d="M20 21v20m10 -20v20m-10 -10h120.5" /><text style="text-anchor:start" x="20" y="16">single_target</text></g><g>
<path d="M140.5 31h0.0" /><path d="M481.0 31h0.0" /><path d="M140.5 31h20" /><g class="non-terminal ">
<path d="M160.5 31h0.0" /><path d="M461.0 31h0.0" /><rect height="22" width="300.5" x="160.5" y="20"></rect><text x="310.75" y="35">single_subscript_attribute_target</text></g><path d="M461.0 31h20" /><path d="M140.5 31a10 10 0 0 1 10 10v10a10 10 0 0 0 10 10" /><g class="terminal ">
<path d="M160.5 61h123.25" /><path d="M337.75 61h123.25" /><rect height="22" rx="10" ry="10" width="54" x="283.75" y="50"></rect><text x="310.75" y="65">NAME</text></g><path d="M461.0 61a10 10 0 0 0 10 -10v-10a10 10 0 0 1 10 -10" /><path d="M140.5 31a10 10 0 0 1 10 10v40a10 10 0 0 0 10 10" /><g>
<path d="M160.5 91h19.5" /><path d="M441.5 91h19.5" /><g class="terminal ">
<path d="M180.0 91h0.0" /><path d="M225.5 91h0.0" /><rect height="22" rx="10" ry="10" width="45.5" x="180" y="80"></rect><text x="202.75" y="95">&apos;(&apos;</text></g><path d="M225.5 91h10" /><path d="M235.5 91h10" /><g class="non-terminal ">
<path d="M245.5 91h0.0" /><path d="M376.0 91h0.0" /><rect height="22" width="130.5" x="245.5" y="80"></rect><text x="310.75" y="95">single_target</text></g><path d="M376.0 91h10" /><path d="M386.0 91h10" /><g class="terminal ">
<path d="M396.0 91h0.0" /><path d="M441.5 91h0.0" /><rect height="22" rx="10" ry="10" width="45.5" x="396" y="80"></rect><text x="418.75" y="95">&apos;)&apos;</text></g></g><path d="M461.0 91a10 10 0 0 0 10 -10v-40a10 10 0 0 1 10 -10" /></g><path d="M 481.0 31 h 20 m -10 -10 v 20 m 10 -20 v 20"></path></g><style>/* <![CDATA[ */
	svg.railroad-diagram {
		background-color:hsl(30,20%,95%);
	}
	svg.railroad-diagram path {
		stroke-width:3;
		stroke:black;
		fill:rgba(0,0,0,0);
	}
	svg.railroad-diagram text {
		font:bold 14px monospace;
		text-anchor:middle;
	}
	svg.railroad-diagram text.label{
		text-anchor:start;
	}
	svg.railroad-diagram text.comment{
		font:italic 12px monospace;
	}
	svg.railroad-diagram rect{
		stroke-width:3;
		stroke:black;
		fill:hsl(120,100%,90%);
	}
	svg.railroad-diagram rect.group-box {
		stroke: gray;
		stroke-dasharray: 10 5;
		fill: none;
	}

/* ]]> */
</style></svg>