<svg class="railroad-diagram" height="92" viewBox="0 0 719.0 92" width="719.0" xmlns="http://www.w3.org/2000/svg" xmlns:xlink="http://www.w3.org/1999/xlink">
<g transform="translate(.5 .5)">
<g>
<path d="M20 21v20m10 -20v20m-10 -10h290.5" /><text style="text-anchor:start" x="20" y="16">single_subscript_attribute_target</text></g><path d="M310.5 31h10" /><g>
<path d="M320.5 31h0.0" /><path d="M669.0 31h0.0" /><g class="non-terminal ">
<path d="M320.5 31h0.0" /><path d="M417.0 31h0.0" /><rect height="22" width="96.5" x="320.5" y="20"></rect><text x="368.75" y="35">t_primary</text></g><path d="M417.0 31h10" /><g>
<path d="M427.0 31h0.0" /><path d="M669.0 31h0.0" /><path d="M427.0 31h20" /><g>
<path d="M447.0 31h41.25" /><path d="M607.75 31h41.25" /><g class="terminal ">
<path d="M488.25 31h0.0" /><path d="M533.75 31h0.0" /><rect height="22" rx="10" ry="10" width="45.5" x="488.25" y="20"></rect><text x="511" y="35">&apos;.&apos;</text></g><path d="M533.75 31h10" /><path d="M543.75 31h10" /><g class="terminal ">
<path d="M553.75 31h0.0" /><path d="M607.75 31h0.0" /><rect height="22" rx="10" ry="10" width="54" x="553.75" y="20"></rect><text x="580.75" y="35">NAME</text></g></g><path d="M649.0 31h20" /><path d="M427.0 31a10 10 0 0 1 10 10v10a10 10 0 0 0 10 10" /><g>
<path d="M447.0 61h0.0" /><path d="M649.0 61h0.0" /><g class="terminal ">
<path d="M447.0 61h0.0" /><path d="M492.5 61h0.0" /><rect height="22" rx="10" ry="10" width="45.5" x="447" y="50"></rect><text x="469.75" y="65">&apos;[&apos;</text></g><path d="M492.5 61h10" /><path d="M502.5 61h10" /><g class="non-terminal ">
<path d="M512.5 61h0.0" /><path d="M583.5 61h0.0" /><rect height="22" width="71" x="512.5" y="50"></rect><text x="548" y="65">slices</text></g><path d="M583.5 61h10" /><path d="M593.5 61h10" /><g class="terminal ">
<path d="M603.5 61h0.0" /><path d="M649.0 61h0.0" /><rect height="22" rx="10" ry="10" width="45.5" x="603.5" y="50"></rect><text x="626.25" y="65">&apos;]&apos;</text></g></g><path d="M649.0 61a10 10 0 0 0 10 -10v-10a10 10 0 0 1 10 -10" /></g></g><path d="M669.0 31h10" /><path d="M 679.0 31 h 20 m -10 -10 v 20 m 10 -20 v 20"></path></g><style>/* <![CDATA[ */
	svg.railroad-diagram {
		background-color:hsl(30,20%,95%);
	}
	svg.railroad-diagram path {
		stroke-width:3;
		stroke:black;
		fill:rgba(0,0,0,0);
	}
	svg.railroad-diagram text {
		font:bold 14px monospace;
		text-anchor:middle;
	}
	svg.railroad-diagram text.label{
		text-anchor:start;
	}
	svg.railroad-diagram text.comment{
		font:italic 12px monospace;
	}
	svg.railroad-diagram rect{
		stroke-width:3;
		stroke:black;
		fill:hsl(120,100%,90%);
	}
	svg.railroad-diagram rect.group-box {
		stroke: gray;
		stroke-dasharray: 10 5;
		fill: none;
	}

/* ]]> */
</style></svg>