<svg class="railroad-diagram" height="133" viewBox="0 0 850.5 133" width="850.5" xmlns="http://www.w3.org/2000/svg" xmlns:xlink="http://www.w3.org/1999/xlink">
<g transform="translate(.5 .5)">
<g>
<path d="M20 30v20m10 -20v20m-10 -10h163.0" /><text style="text-anchor:start" x="20" y="25">slash_with_default</text></g><path d="M183.0 40h10" /><g>
<path d="M193.0 40h0.0" /><path d="M800.5 40h0.0" /><g>
<path d="M193.0 40h0.0" /><path d="M409.0 40h0.0" /><path d="M193.0 40a10 10 0 0 0 10 -10v0a10 10 0 0 1 10 -10" /><g>
<path d="M213.0 20h176.0" /></g><path d="M389.0 20a10 10 0 0 1 10 10v0a10 10 0 0 0 10 10" /><path d="M193.0 40h20" /><g>
<path d="M213.0 40h0.0" /><path d="M389.0 40h0.0" /><path d="M213.0 40h10" /><g class="non-terminal ">
<path d="M223.0 40h0.0" /><path d="M379.0 40h0.0" /><rect height="22" width="156" x="223" y="29"></rect><text x="301" y="44">param_no_default</text></g><path d="M379.0 40h10" /><path d="M223.0 40a10 10 0 0 0 -10 10v0a10 10 0 0 0 10 10" /><g>
<path d="M223.0 60h156.0" /></g><path d="M379.0 60a10 10 0 0 0 10 -10v0a10 10 0 0 0 -10 -10" /></g><path d="M389.0 40h20" /></g><path d="M409.0 40h10" /><g>
<path d="M419.0 40h0.0" /><path d="M612.0 40h0.0" /><path d="M419.0 40h10" /><g class="non-terminal ">
<path d="M429.0 40h0.0" /><path d="M602.0 40h0.0" /><rect height="22" width="173" x="429" y="29"></rect><text x="515.5" y="44">param_with_default</text></g><path d="M602.0 40h10" /><path d="M429.0 40a10 10 0 0 0 -10 10v0a10 10 0 0 0 10 10" /><g>
<path d="M429.0 60h173.0" /></g><path d="M602.0 60a10 10 0 0 0 10 -10v0a10 10 0 0 0 -10 -10" /></g><path d="M612.0 40h10" /><path d="M622.0 40h10" /><g class="terminal ">
<path d="M632.0 40h0.0" /><path d="M677.5 40h0.0" /><rect height="22" rx="10" ry="10" width="45.5" x="632" y="29"></rect><text x="654.75" y="44">&apos;/&apos;</text></g><path d="M677.5 40h10" /><g>
<path d="M687.5 40h0.0" /><path d="M800.5 40h0.0" /><path d="M687.5 40h20" /><g class="terminal ">
<path d="M707.5 40h13.75" /><path d="M766.75 40h13.75" /><rect height="22" rx="10" ry="10" width="45.5" x="721.25" y="29"></rect><text x="744" y="44">&apos;,&apos;</text></g><path d="M780.5 40h20" /><path d="M687.5 40a10 10 0 0 1 10 10v34a10 10 0 0 0 10 10" /><g>
<path d="M707.5 94h0.0" /><path d="M780.5 94h0.0" /><rect class="group-box" height="38" rx="10" ry="10" width="73" x="707.5" y="75"></rect><g class="terminal ">
<path d="M707.5 94h13.75" /><path d="M766.75 94h13.75" /><rect height="22" rx="10" ry="10" width="45.5" x="721.25" y="83"></rect><text x="744" y="98">&apos;)&apos;</text></g><g class="non-terminal ">
<path d="M707.5 67h0.0" /><path d="M780.5 67h0.0" /><text class="comment" x="744" y="72">lookahead</text></g></g><path d="M780.5 94a10 10 0 0 0 10 -10v-34a10 10 0 0 1 10 -10" /></g></g><path d="M800.5 40h10" /><path d="M 810.5 40 h 20 m -10 -10 v 20 m 10 -20 v 20"></path></g><style>/* <![CDATA[ */
	svg.railroad-diagram {
		background-color:hsl(30,20%,95%);
	}
	svg.railroad-diagram path {
		stroke-width:3;
		stroke:black;
		fill:rgba(0,0,0,0);
	}
	svg.railroad-diagram text {
		font:bold 14px monospace;
		text-anchor:middle;
	}
	svg.railroad-diagram text.label{
		text-anchor:start;
	}
	svg.railroad-diagram text.comment{
		font:italic 12px monospace;
	}
	svg.railroad-diagram rect{
		stroke-width:3;
		stroke:black;
		fill:hsl(120,100%,90%);
	}
	svg.railroad-diagram rect.group-box {
		stroke: gray;
		stroke-dasharray: 10 5;
		fill: none;
	}

/* ]]> */
</style></svg>