<svg class="railroad-diagram" height="151" viewBox="0 0 456.0 151" width="456.0" xmlns="http://www.w3.org/2000/svg" xmlns:xlink="http://www.w3.org/1999/xlink">
<g transform="translate(.5 .5)">
<g>
<path d="M20 21v20m10 -20v20m-10 -10h20" /></g><g>
<path d="M40 31h0.0" /><path d="M416.0 31h0.0" /><path d="M40.0 31h20" /><g class="non-terminal ">
<path d="M60.0 31h136.75" /><path d="M259.25 31h136.75" /><rect height="22" width="62.5" x="196.75" y="20"></rect><text x="228" y="35">slice</text></g><path d="M396.0 31h20" /><path d="M40.0 31a10 10 0 0 1 10 10v19a10 10 0 0 0 10 10" /><g>
<path d="M60.0 70h0.0" /><path d="M396.0 70h0.0" /><g>
<path d="M60.0 70h0.0" /><path d="M310.5 70h0.0" /><path d="M60.0 70h20" /><g>
<path d="M80.0 70h210.5" /></g><path d="M290.5 70h20" /><path d="M60.0 70a10 10 0 0 1 10 10v0a10 10 0 0 0 10 10" /><g>
<path d="M80.0 90h0.0" /><path d="M290.5 90h0.0" /><path d="M80.0 90h20" /><g class="non-terminal ">
<path d="M100.0 90h54.0" /><path d="M216.5 90h54.0" /><rect height="22" width="62.5" x="154" y="79"></rect><text x="185.25" y="94">slice</text></g><path d="M270.5 90h20" /><path d="M80.0 90a10 10 0 0 1 10 10v10a10 10 0 0 0 10 10" /><g>
<path d="M100.0 120h0.0" /><path d="M270.5 120h0.0" /><g class="terminal ">
<path d="M100.0 120h0.0" /><path d="M145.5 120h0.0" /><rect height="22" rx="10" ry="10" width="45.5" x="100" y="109"></rect><text x="122.75" y="124">&apos;*&apos;</text></g><path d="M145.5 120h10" /><path d="M155.5 120h10" /><g class="non-terminal ">
<path d="M165.5 120h0.0" /><path d="M270.5 120h0.0" /><rect height="22" width="105" x="165.5" y="109"></rect><text x="218" y="124">expression</text></g></g><path d="M270.5 120a10 10 0 0 0 10 -10v-10a10 10 0 0 1 10 -10" /></g><path d="M290.5 90a10 10 0 0 0 10 -10v0a10 10 0 0 1 10 -10" /></g><g>
<path d="M310.5 70h0.0" /><path d="M396.0 70h0.0" /><path d="M310.5 70a10 10 0 0 0 10 -10v0a10 10 0 0 1 10 -10" /><g>
<path d="M330.5 50h45.5" /></g><path d="M376.0 50a10 10 0 0 1 10 10v0a10 10 0 0 0 10 10" /><path d="M310.5 70h20" /><g class="terminal ">
<path d="M330.5 70h0.0" /><path d="M376.0 70h0.0" /><rect height="22" rx="10" ry="10" width="45.5" x="330.5" y="59"></rect><text x="353.25" y="74">&apos;,&apos;</text></g><path d="M376.0 70h20" /></g></g><path d="M396.0 70a10 10 0 0 0 10 -10v-19a10 10 0 0 1 10 -10" /></g><path d="M 416.0 31 h 20 m -10 -10 v 20 m 10 -20 v 20"></path></g><style>/* <![CDATA[ */
	svg.railroad-diagram {
		background-color:hsl(30,20%,95%);
	}
	svg.railroad-diagram path {
		stroke-width:3;
		stroke:black;
		fill:rgba(0,0,0,0);
	}
	svg.railroad-diagram text {
		font:bold 14px monospace;
		text-anchor:middle;
	}
	svg.railroad-diagram text.label{
		text-anchor:start;
	}
	svg.railroad-diagram text.comment{
		font:italic 12px monospace;
	}
	svg.railroad-diagram rect{
		stroke-width:3;
		stroke:black;
		fill:hsl(120,100%,90%);
	}
	svg.railroad-diagram rect.group-box {
		stroke: gray;
		stroke-dasharray: 10 5;
		fill: none;
	}

/* ]]> */
</style></svg>