<svg class="railroad-diagram" height="109" viewBox="0 0 716.0 109" width="716.0" xmlns="http://www.w3.org/2000/svg" xmlns:xlink="http://www.w3.org/1999/xlink">
<g transform="translate(.5 .5)">
<g>
<path d="M20 38v20m10 -20v20m-10 -10h20" /></g><g>
<path d="M40 48h0.0" /><path d="M676.0 48h0.0" /><path d="M40.0 48h20" /><g>
<path d="M60.0 48h0.0" /><path d="M656.0 48h0.0" /><g>
<path d="M60.0 48h0.0" /><path d="M205.0 48h0.0" /><path d="M60.0 48a10 10 0 0 0 10 -10v0a10 10 0 0 1 10 -10" /><g>
<path d="M80.0 28h105.0" /></g><path d="M185.0 28a10 10 0 0 1 10 10v0a10 10 0 0 0 10 10" /><path d="M60.0 48h20" /><g class="non-terminal ">
<path d="M80.0 48h0.0" /><path d="M185.0 48h0.0" /><rect height="22" width="105" x="80" y="37"></rect><text x="132.5" y="52">expression</text></g><path d="M185.0 48h20" /></g><path d="M205.0 48h10" /><g class="terminal ">
<path d="M215.0 48h0.0" /><path d="M260.5 48h0.0" /><rect height="22" rx="10" ry="10" width="45.5" x="215" y="37"></rect><text x="237.75" y="52">&apos;:&apos;</text></g><path d="M260.5 48h10" /><g>
<path d="M270.5 48h0.0" /><path d="M415.5 48h0.0" /><path d="M270.5 48a10 10 0 0 0 10 -10v0a10 10 0 0 1 10 -10" /><g>
<path d="M290.5 28h105.0" /></g><path d="M395.5 28a10 10 0 0 1 10 10v0a10 10 0 0 0 10 10" /><path d="M270.5 48h20" /><g class="non-terminal ">
<path d="M290.5 48h0.0" /><path d="M395.5 48h0.0" /><rect height="22" width="105" x="290.5" y="37"></rect><text x="343" y="52">expression</text></g><path d="M395.5 48h20" /></g><g>
<path d="M415.5 48h0.0" /><path d="M656.0 48h0.0" /><path d="M415.5 48a10 10 0 0 0 10 -10v-8a10 10 0 0 1 10 -10" /><g>
<path d="M435.5 20h200.5" /></g><path d="M636.0 20a10 10 0 0 1 10 10v8a10 10 0 0 0 10 10" /><path d="M415.5 48h20" /><g>
<path d="M435.5 48h0.0" /><path d="M636.0 48h0.0" /><g class="terminal ">
<path d="M435.5 48h0.0" /><path d="M481.0 48h0.0" /><rect height="22" rx="10" ry="10" width="45.5" x="435.5" y="37"></rect><text x="458.25" y="52">&apos;:&apos;</text></g><path d="M481.0 48h10" /><g>
<path d="M491.0 48h0.0" /><path d="M636.0 48h0.0" /><path d="M491.0 48a10 10 0 0 0 10 -10v0a10 10 0 0 1 10 -10" /><g>
<path d="M511.0 28h105.0" /></g><path d="M616.0 28a10 10 0 0 1 10 10v0a10 10 0 0 0 10 10" /><path d="M491.0 48h20" /><g class="non-terminal ">
<path d="M511.0 48h0.0" /><path d="M616.0 48h0.0" /><rect height="22" width="105" x="511" y="37"></rect><text x="563.5" y="52">expression</text></g><path d="M616.0 48h20" /></g></g><path d="M636.0 48h20" /></g></g><path d="M656.0 48h20" /><path d="M40.0 48a10 10 0 0 1 10 10v10a10 10 0 0 0 10 10" /><g class="non-terminal ">
<path d="M60.0 78h220.0" /><path d="M436.0 78h220.0" /><rect height="22" width="156" x="280" y="67"></rect><text x="358" y="82">named_expression</text></g><path d="M656.0 78a10 10 0 0 0 10 -10v-10a10 10 0 0 1 10 -10" /></g><path d="M 676.0 48 h 20 m -10 -10 v 20 m 10 -20 v 20"></path></g><style>/* <![CDATA[ */
	svg.railroad-diagram {
		background-color:hsl(30,20%,95%);
	}
	svg.railroad-diagram path {
		stroke-width:3;
		stroke:black;
		fill:rgba(0,0,0,0);
	}
	svg.railroad-diagram text {
		font:bold 14px monospace;
		text-anchor:middle;
	}
	svg.railroad-diagram text.label{
		text-anchor:start;
	}
	svg.railroad-diagram text.comment{
		font:italic 12px monospace;
	}
	svg.railroad-diagram rect{
		stroke-width:3;
		stroke:black;
		fill:hsl(120,100%,90%);
	}
	svg.railroad-diagram rect.group-box {
		stroke: gray;
		stroke-dasharray: 10 5;
		fill: none;
	}

/* ]]> */
</style></svg>