<svg class="railroad-diagram" height="288" viewBox="0 0 789.0 288" width="789.0" xmlns="http://www.w3.org/2000/svg" xmlns:xlink="http://www.w3.org/1999/xlink">
<g transform="translate(.5 .5)">
<g>
<path d="M20 21v20m10 -20v20m-10 -10h20" /></g><g>
<path d="M40 31h0.0" /><path d="M749.0 31h0.0" /><path d="M40.0 31h20" /><g class="terminal ">
<path d="M60.0 31h307.5" /><path d="M421.5 31h307.5" /><rect height="22" rx="10" ry="10" width="54" x="367.5" y="20"></rect><text x="394.5" y="35">NAME</text></g><path d="M729.0 31h20" /><path d="M40.0 31a10 10 0 0 1 10 10v19a10 10 0 0 0 10 10" /><g>
<path d="M60.0 70h0.0" /><path d="M729.0 70h0.0" /><g class="terminal ">
<path d="M60.0 70h0.0" /><path d="M105.5 70h0.0" /><rect height="22" rx="10" ry="10" width="45.5" x="60" y="59"></rect><text x="82.75" y="74">&apos;(&apos;</text></g><path d="M105.5 70h10" /><g>
<path d="M115.5 70h0.0" /><path d="M673.5 70h0.0" /><path d="M115.5 70a10 10 0 0 0 10 -10v0a10 10 0 0 1 10 -10" /><g>
<path d="M135.5 50h518.0" /></g><path d="M653.5 50a10 10 0 0 1 10 10v0a10 10 0 0 0 10 10" /><path d="M115.5 70h20" /><g>
<path d="M135.5 70h0.0" /><path d="M653.5 70h0.0" /><path d="M135.5 70h20" /><g class="non-terminal ">
<path d="M155.5 70h139.75" /><path d="M493.75 70h139.75" /><rect height="22" width="198.5" x="295.25" y="59"></rect><text x="394.5" y="74">target_with_star_atom</text></g><path d="M633.5 70h20" /><path d="M135.5 70a10 10 0 0 1 10 10v43a10 10 0 0 0 10 10" /><g>
<path d="M155.5 133h0.0" /><path d="M633.5 133h0.0" /><rect class="group-box" height="86" rx="10" ry="10" width="478" x="155.5" y="105"></rect><g>
<path d="M155.5 133h10.0" /><path d="M623.5 133h10.0" /><g class="non-terminal ">
<path d="M165.5 133h0.0" /><path d="M279.0 133h0.0" /><rect height="22" width="113.5" x="165.5" y="122"></rect><text x="222.25" y="137">star_target</text></g><path d="M279.0 133h10" /><g>
<path d="M289.0 133h0.0" /><path d="M623.5 133h0.0" /><path d="M289.0 133h20" /><g>
<path d="M309.0 133h0.0" /><path d="M603.5 133h0.0" /><g>
<path d="M309.0 133h0.0" /><path d="M508.0 133h0.0" /><path d="M309.0 133h10" /><g>
<path d="M319.0 133h0.0" /><path d="M498.0 133h0.0" /><g class="terminal ">
<path d="M319.0 133h0.0" /><path d="M364.5 133h0.0" /><rect height="22" rx="10" ry="10" width="45.5" x="319" y="122"></rect><text x="341.75" y="137">&apos;,&apos;</text></g><path d="M364.5 133h10" /><path d="M374.5 133h10" /><g class="non-terminal ">
<path d="M384.5 133h0.0" /><path d="M498.0 133h0.0" /><rect height="22" width="113.5" x="384.5" y="122"></rect><text x="441.25" y="137">star_target</text></g></g><path d="M498.0 133h10" /><path d="M319.0 133a10 10 0 0 0 -10 10v0a10 10 0 0 0 10 10" /><g>
<path d="M319.0 153h179.0" /></g><path d="M498.0 153a10 10 0 0 0 10 -10v0a10 10 0 0 0 -10 -10" /></g><path d="M508.0 133h10" /><g>
<path d="M518.0 133h0.0" /><path d="M603.5 133h0.0" /><path d="M518.0 133a10 10 0 0 0 10 -10v0a10 10 0 0 1 10 -10" /><g>
<path d="M538.0 113h45.5" /></g><path d="M583.5 113a10 10 0 0 1 10 10v0a10 10 0 0 0 10 10" /><path d="M518.0 133h20" /><g class="terminal ">
<path d="M538.0 133h0.0" /><path d="M583.5 133h0.0" /><rect height="22" rx="10" ry="10" width="45.5" x="538" y="122"></rect><text x="560.75" y="137">&apos;,&apos;</text></g><path d="M583.5 133h20" /></g></g><path d="M603.5 133h20" /><path d="M289.0 133a10 10 0 0 1 10 10v19a10 10 0 0 0 10 10" /><g class="terminal ">
<path d="M309.0 172h124.5" /><path d="M479.0 172h124.5" /><rect height="22" rx="10" ry="10" width="45.5" x="433.5" y="161"></rect><text x="456.25" y="176">&apos;,&apos;</text></g><path d="M603.5 172a10 10 0 0 0 10 -10v-19a10 10 0 0 1 10 -10" /></g></g><g class="non-terminal ">
<path d="M155.5 97h0.0" /><path d="M319.5 97h0.0" /><text class="comment" x="237.5" y="102">star_targets_tuple_seq</text></g></g><path d="M633.5 133a10 10 0 0 0 10 -10v-43a10 10 0 0 1 10 -10" /></g><path d="M653.5 70h20" /></g><path d="M673.5 70h10" /><g class="terminal ">
<path d="M683.5 70h0.0" /><path d="M729.0 70h0.0" /><rect height="22" rx="10" ry="10" width="45.5" x="683.5" y="59"></rect><text x="706.25" y="74">&apos;)&apos;</text></g></g><path d="M729.0 70a10 10 0 0 0 10 -10v-19a10 10 0 0 1 10 -10" /><path d="M40.0 31a10 10 0 0 1 10 10v176a10 10 0 0 0 10 10" /><g>
<path d="M60.0 227h144.5" /><path d="M584.5 227h144.5" /><g class="terminal ">
<path d="M204.5 227h0.0" /><path d="M250.0 227h0.0" /><rect height="22" rx="10" ry="10" width="45.5" x="204.5" y="216"></rect><text x="227.25" y="231">&apos;[&apos;</text></g><path d="M250.0 227h10" /><g>
<path d="M260.0 227h0.0" /><path d="M529.0 227h0.0" /><path d="M260.0 227a10 10 0 0 0 10 -10v-8a10 10 0 0 1 10 -10" /><g>
<path d="M280.0 199h229.0" /></g><path d="M509.0 199a10 10 0 0 1 10 10v8a10 10 0 0 0 10 10" /><path d="M260.0 227h20" /><g>
<path d="M280.0 227h0.0" /><path d="M509.0 227h0.0" /><g>
<path d="M280.0 227h0.0" /><path d="M413.5 227h0.0" /><path d="M280.0 227h10" /><g class="non-terminal ">
<path d="M290.0 227h0.0" /><path d="M403.5 227h0.0" /><rect height="22" width="113.5" x="290" y="216"></rect><text x="346.75" y="231">star_target</text></g><path d="M403.5 227h10" /><path d="M290.0 227a10 10 0 0 0 -10 10v10a10 10 0 0 0 10 10" /><g class="terminal ">
<path d="M290.0 257h34.0" /><path d="M369.5 257h34.0" /><rect height="22" rx="10" ry="10" width="45.5" x="324" y="246"></rect><text x="346.75" y="261">&apos;,&apos;</text></g><path d="M403.5 257a10 10 0 0 0 10 -10v-10a10 10 0 0 0 -10 -10" /></g><path d="M413.5 227h10" /><g>
<path d="M423.5 227h0.0" /><path d="M509.0 227h0.0" /><path d="M423.5 227a10 10 0 0 0 10 -10v0a10 10 0 0 1 10 -10" /><g>
<path d="M443.5 207h45.5" /></g><path d="M489.0 207a10 10 0 0 1 10 10v0a10 10 0 0 0 10 10" /><path d="M423.5 227h20" /><g class="terminal ">
<path d="M443.5 227h0.0" /><path d="M489.0 227h0.0" /><rect height="22" rx="10" ry="10" width="45.5" x="443.5" y="216"></rect><text x="466.25" y="231">&apos;,&apos;</text></g><path d="M489.0 227h20" /></g></g><path d="M509.0 227h20" /></g><path d="M529.0 227h10" /><g class="terminal ">
<path d="M539.0 227h0.0" /><path d="M584.5 227h0.0" /><rect height="22" rx="10" ry="10" width="45.5" x="539" y="216"></rect><text x="561.75" y="231">&apos;]&apos;</text></g></g><path d="M729.0 227a10 10 0 0 0 10 -10v-176a10 10 0 0 1 10 -10" /></g><path d="M 749.0 31 h 20 m -10 -10 v 20 m 10 -20 v 20"></path></g><style>/* <![CDATA[ */
	svg.railroad-diagram {
		background-color:hsl(30,20%,95%);
	}
	svg.railroad-diagram path {
		stroke-width:3;
		stroke:black;
		fill:rgba(0,0,0,0);
	}
	svg.railroad-diagram text {
		font:bold 14px monospace;
		text-anchor:middle;
	}
	svg.railroad-diagram text.label{
		text-anchor:start;
	}
	svg.railroad-diagram text.comment{
		font:italic 12px monospace;
	}
	svg.railroad-diagram rect{
		stroke-width:3;
		stroke:black;
		fill:hsl(120,100%,90%);
	}
	svg.railroad-diagram rect.group-box {
		stroke: gray;
		stroke-dasharray: 10 5;
		fill: none;
	}

/* ]]> */
</style></svg>