<svg class="railroad-diagram" height="208" viewBox="0 0 518.0 208" width="518.0" xmlns="http://www.w3.org/2000/svg" xmlns:xlink="http://www.w3.org/1999/xlink">
<g transform="translate(.5 .5)">
<g>
<path d="M20 21v20m10 -20v20m-10 -10h20" /></g><g>
<path d="M40 31h0.0" /><path d="M478.0 31h0.0" /><path d="M40.0 31h20" /><g class="terminal ">
<path d="M60.0 31h172.0" /><path d="M286.0 31h172.0" /><rect height="22" rx="10" ry="10" width="54" x="232" y="20"></rect><text x="259" y="35">NAME</text></g><path d="M458.0 31h20" /><path d="M40.0 31a10 10 0 0 1 10 10v19a10 10 0 0 0 10 10" /><g>
<path d="M60.0 70h0.0" /><path d="M458.0 70h0.0" /><g class="terminal ">
<path d="M60.0 70h0.0" /><path d="M105.5 70h0.0" /><rect height="22" rx="10" ry="10" width="45.5" x="60" y="59"></rect><text x="82.75" y="74">&apos;(&apos;</text></g><path d="M105.5 70h10" /><g>
<path d="M115.5 70h0.0" /><path d="M402.5 70h0.0" /><path d="M115.5 70a10 10 0 0 0 10 -10v0a10 10 0 0 1 10 -10" /><g>
<path d="M135.5 50h247.0" /></g><path d="M382.5 50a10 10 0 0 1 10 10v0a10 10 0 0 0 10 10" /><path d="M115.5 70h20" /><g>
<path d="M135.5 70h0.0" /><path d="M382.5 70h0.0" /><path d="M135.5 70h20" /><g class="non-terminal ">
<path d="M155.5 70h4.25" /><path d="M358.25 70h4.25" /><rect height="22" width="198.5" x="159.75" y="59"></rect><text x="259" y="74">target_with_star_atom</text></g><path d="M362.5 70h20" /><path d="M135.5 70a10 10 0 0 1 10 10v10a10 10 0 0 0 10 10" /><g class="non-terminal ">
<path d="M155.5 100h0.0" /><path d="M362.5 100h0.0" /><rect height="22" width="207" x="155.5" y="89"></rect><text x="259" y="104">star_targets_tuple_seq</text></g><path d="M362.5 100a10 10 0 0 0 10 -10v-10a10 10 0 0 1 10 -10" /></g><path d="M382.5 70h20" /></g><path d="M402.5 70h10" /><g class="terminal ">
<path d="M412.5 70h0.0" /><path d="M458.0 70h0.0" /><rect height="22" rx="10" ry="10" width="45.5" x="412.5" y="59"></rect><text x="435.25" y="74">&apos;)&apos;</text></g></g><path d="M458.0 70a10 10 0 0 0 10 -10v-19a10 10 0 0 1 10 -10" /><path d="M40.0 31a10 10 0 0 1 10 10v96a10 10 0 0 0 10 10" /><g>
<path d="M60.0 147h9.0" /><path d="M449.0 147h9.0" /><g class="terminal ">
<path d="M69.0 147h0.0" /><path d="M114.5 147h0.0" /><rect height="22" rx="10" ry="10" width="45.5" x="69" y="136"></rect><text x="91.75" y="151">&apos;[&apos;</text></g><path d="M114.5 147h10" /><g>
<path d="M124.5 147h0.0" /><path d="M393.5 147h0.0" /><path d="M124.5 147a10 10 0 0 0 10 -10v-8a10 10 0 0 1 10 -10" /><g>
<path d="M144.5 119h229.0" /></g><path d="M373.5 119a10 10 0 0 1 10 10v8a10 10 0 0 0 10 10" /><path d="M124.5 147h20" /><g>
<path d="M144.5 147h0.0" /><path d="M373.5 147h0.0" /><g>
<path d="M144.5 147h0.0" /><path d="M278.0 147h0.0" /><path d="M144.5 147h10" /><g class="non-terminal ">
<path d="M154.5 147h0.0" /><path d="M268.0 147h0.0" /><rect height="22" width="113.5" x="154.5" y="136"></rect><text x="211.25" y="151">star_target</text></g><path d="M268.0 147h10" /><path d="M154.5 147a10 10 0 0 0 -10 10v10a10 10 0 0 0 10 10" /><g class="terminal ">
<path d="M154.5 177h34.0" /><path d="M234.0 177h34.0" /><rect height="22" rx="10" ry="10" width="45.5" x="188.5" y="166"></rect><text x="211.25" y="181">&apos;,&apos;</text></g><path d="M268.0 177a10 10 0 0 0 10 -10v-10a10 10 0 0 0 -10 -10" /></g><path d="M278.0 147h10" /><g>
<path d="M288.0 147h0.0" /><path d="M373.5 147h0.0" /><path d="M288.0 147a10 10 0 0 0 10 -10v0a10 10 0 0 1 10 -10" /><g>
<path d="M308.0 127h45.5" /></g><path d="M353.5 127a10 10 0 0 1 10 10v0a10 10 0 0 0 10 10" /><path d="M288.0 147h20" /><g class="terminal ">
<path d="M308.0 147h0.0" /><path d="M353.5 147h0.0" /><rect height="22" rx="10" ry="10" width="45.5" x="308" y="136"></rect><text x="330.75" y="151">&apos;,&apos;</text></g><path d="M353.5 147h20" /></g></g><path d="M373.5 147h20" /></g><path d="M393.5 147h10" /><g class="terminal ">
<path d="M403.5 147h0.0" /><path d="M449.0 147h0.0" /><rect height="22" rx="10" ry="10" width="45.5" x="403.5" y="136"></rect><text x="426.25" y="151">&apos;]&apos;</text></g></g><path d="M458.0 147a10 10 0 0 0 10 -10v-96a10 10 0 0 1 10 -10" /></g><path d="M 478.0 31 h 20 m -10 -10 v 20 m 10 -20 v 20"></path></g><style>/* <![CDATA[ */
	svg.railroad-diagram {
		background-color:hsl(30,20%,95%);
	}
	svg.railroad-diagram path {
		stroke-width:3;
		stroke:black;
		fill:rgba(0,0,0,0);
	}
	svg.railroad-diagram text {
		font:bold 14px monospace;
		text-anchor:middle;
	}
	svg.railroad-diagram text.label{
		text-anchor:start;
	}
	svg.railroad-diagram text.comment{
		font:italic 12px monospace;
	}
	svg.railroad-diagram rect{
		stroke-width:3;
		stroke:black;
		fill:hsl(120,100%,90%);
	}
	svg.railroad-diagram rect.group-box {
		stroke: gray;
		stroke-dasharray: 10 5;
		fill: none;
	}

/* ]]> */
</style></svg>