<svg class="railroad-diagram" height="198" viewBox="0 0 584.5 198" width="584.5" xmlns="http://www.w3.org/2000/svg" xmlns:xlink="http://www.w3.org/1999/xlink">
<g transform="translate(.5 .5)">
<g>
<path d="M20 21v20m10 -20v20m-10 -10h86.5" /><text style="text-anchor:start" x="20" y="16">star_atom</text></g><g>
<path d="M106.5 31h0.0" /><path d="M544.5 31h0.0" /><path d="M106.5 31h20" /><g class="terminal ">
<path d="M126.5 31h172.0" /><path d="M352.5 31h172.0" /><rect height="22" rx="10" ry="10" width="54" x="298.5" y="20"></rect><text x="325.5" y="35">NAME</text></g><path d="M524.5 31h20" /><path d="M106.5 31a10 10 0 0 1 10 10v19a10 10 0 0 0 10 10" /><g>
<path d="M126.5 70h0.0" /><path d="M524.5 70h0.0" /><g class="terminal ">
<path d="M126.5 70h0.0" /><path d="M172.0 70h0.0" /><rect height="22" rx="10" ry="10" width="45.5" x="126.5" y="59"></rect><text x="149.25" y="74">&apos;(&apos;</text></g><path d="M172.0 70h10" /><g>
<path d="M182.0 70h0.0" /><path d="M469.0 70h0.0" /><path d="M182.0 70a10 10 0 0 0 10 -10v0a10 10 0 0 1 10 -10" /><g>
<path d="M202.0 50h247.0" /></g><path d="M449.0 50a10 10 0 0 1 10 10v0a10 10 0 0 0 10 10" /><path d="M182.0 70h20" /><g>
<path d="M202.0 70h0.0" /><path d="M449.0 70h0.0" /><path d="M202.0 70h20" /><g class="non-terminal ">
<path d="M222.0 70h4.25" /><path d="M424.75 70h4.25" /><rect height="22" width="198.5" x="226.25" y="59"></rect><text x="325.5" y="74">target_with_star_atom</text></g><path d="M429.0 70h20" /><path d="M202.0 70a10 10 0 0 1 10 10v10a10 10 0 0 0 10 10" /><g class="non-terminal ">
<path d="M222.0 100h0.0" /><path d="M429.0 100h0.0" /><rect height="22" width="207" x="222" y="89"></rect><text x="325.5" y="104">star_targets_tuple_seq</text></g><path d="M429.0 100a10 10 0 0 0 10 -10v-10a10 10 0 0 1 10 -10" /></g><path d="M449.0 70h20" /></g><path d="M469.0 70h10" /><g class="terminal ">
<path d="M479.0 70h0.0" /><path d="M524.5 70h0.0" /><rect height="22" rx="10" ry="10" width="45.5" x="479" y="59"></rect><text x="501.75" y="74">&apos;)&apos;</text></g></g><path d="M524.5 70a10 10 0 0 0 10 -10v-19a10 10 0 0 1 10 -10" /><path d="M106.5 31a10 10 0 0 1 10 10v96a10 10 0 0 0 10 10" /><g>
<path d="M126.5 147h4.0" /><path d="M520.5 147h4.0" /><g class="terminal ">
<path d="M130.5 147h0.0" /><path d="M176.0 147h0.0" /><rect height="22" rx="10" ry="10" width="45.5" x="130.5" y="136"></rect><text x="153.25" y="151">&apos;[&apos;</text></g><path d="M176.0 147h10" /><g>
<path d="M186.0 147h0.0" /><path d="M465.0 147h0.0" /><path d="M186.0 147a10 10 0 0 0 10 -10v-8a10 10 0 0 1 10 -10" /><g>
<path d="M206.0 119h239.0" /></g><path d="M445.0 119a10 10 0 0 1 10 10v8a10 10 0 0 0 10 10" /><path d="M186.0 147h20" /><g>
<path d="M206.0 147h0.0" /><path d="M445.0 147h0.0" /><g>
<path d="M206.0 147h0.0" /><path d="M359.5 147h0.0" /><path d="M206.0 147h20" /><g>
<path d="M226.0 147h113.5" /></g><path d="M339.5 147h20" /><path d="M206.0 147a10 10 0 0 1 10 10v0a10 10 0 0 0 10 10" /><g class="non-terminal ">
<path d="M226.0 167h0.0" /><path d="M339.5 167h0.0" /><rect height="22" width="113.5" x="226" y="156"></rect><text x="282.75" y="171">star_target</text></g><path d="M339.5 167a10 10 0 0 0 10 -10v0a10 10 0 0 1 10 -10" /></g><g>
<path d="M359.5 147h0.0" /><path d="M445.0 147h0.0" /><path d="M359.5 147a10 10 0 0 0 10 -10v0a10 10 0 0 1 10 -10" /><g>
<path d="M379.5 127h45.5" /></g><path d="M425.0 127a10 10 0 0 1 10 10v0a10 10 0 0 0 10 10" /><path d="M359.5 147h20" /><g class="terminal ">
<path d="M379.5 147h0.0" /><path d="M425.0 147h0.0" /><rect height="22" rx="10" ry="10" width="45.5" x="379.5" y="136"></rect><text x="402.25" y="151">&apos;,&apos;</text></g><path d="M425.0 147h20" /></g></g><path d="M445.0 147h20" /></g><path d="M465.0 147h10" /><g class="terminal ">
<path d="M475.0 147h0.0" /><path d="M520.5 147h0.0" /><rect height="22" rx="10" ry="10" width="45.5" x="475" y="136"></rect><text x="497.75" y="151">&apos;]&apos;</text></g></g><path d="M524.5 147a10 10 0 0 0 10 -10v-96a10 10 0 0 1 10 -10" /></g><path d="M 544.5 31 h 20 m -10 -10 v 20 m 10 -20 v 20"></path></g><style>/* <![CDATA[ */
	svg.railroad-diagram {
		background-color:hsl(30,20%,95%);
	}
	svg.railroad-diagram path {
		stroke-width:3;
		stroke:black;
		fill:rgba(0,0,0,0);
	}
	svg.railroad-diagram text {
		font:bold 14px monospace;
		text-anchor:middle;
	}
	svg.railroad-diagram text.label{
		text-anchor:start;
	}
	svg.railroad-diagram text.comment{
		font:italic 12px monospace;
	}
	svg.railroad-diagram rect{
		stroke-width:3;
		stroke:black;
		fill:hsl(120,100%,90%);
	}
	svg.railroad-diagram rect.group-box {
		stroke: gray;
		stroke-dasharray: 10 5;
		fill: none;
	}

/* ]]> */
</style></svg>