<svg class="railroad-diagram" height="92" viewBox="0 0 459.0 92" width="459.0" xmlns="http://www.w3.org/2000/svg" xmlns:xlink="http://www.w3.org/1999/xlink">
<g transform="translate(.5 .5)">
<g>
<path d="M20 21v20m10 -20v20m-10 -10h188.5" /><text style="text-anchor:start" x="20" y="16">star_named_expression</text></g><g>
<path d="M208.5 31h0.0" /><path d="M419.0 31h0.0" /><path d="M208.5 31h20" /><g>
<path d="M228.5 31h0.0" /><path d="M399.0 31h0.0" /><g class="terminal ">
<path d="M228.5 31h0.0" /><path d="M274.0 31h0.0" /><rect height="22" rx="10" ry="10" width="45.5" x="228.5" y="20"></rect><text x="251.25" y="35">&apos;*&apos;</text></g><path d="M274.0 31h10" /><path d="M284.0 31h10" /><g class="non-terminal ">
<path d="M294.0 31h0.0" /><path d="M399.0 31h0.0" /><rect height="22" width="105" x="294" y="20"></rect><text x="346.5" y="35">bitwise_or</text></g></g><path d="M399.0 31h20" /><path d="M208.5 31a10 10 0 0 1 10 10v10a10 10 0 0 0 10 10" /><g class="non-terminal ">
<path d="M228.5 61h7.25" /><path d="M391.75 61h7.25" /><rect height="22" width="156" x="235.75" y="50"></rect><text x="313.75" y="65">named_expression</text></g><path d="M399.0 61a10 10 0 0 0 10 -10v-10a10 10 0 0 1 10 -10" /></g><path d="M 419.0 31 h 20 m -10 -10 v 20 m 10 -20 v 20"></path></g><style>/* <![CDATA[ */
	svg.railroad-diagram {
		background-color:hsl(30,20%,95%);
	}
	svg.railroad-diagram path {
		stroke-width:3;
		stroke:black;
		fill:rgba(0,0,0,0);
	}
	svg.railroad-diagram text {
		font:bold 14px monospace;
		text-anchor:middle;
	}
	svg.railroad-diagram text.label{
		text-anchor:start;
	}
	svg.railroad-diagram text.comment{
		font:italic 12px monospace;
	}
	svg.railroad-diagram rect{
		stroke-width:3;
		stroke:black;
		fill:hsl(120,100%,90%);
	}
	svg.railroad-diagram rect.group-box {
		stroke: gray;
		stroke-dasharray: 10 5;
		fill: none;
	}

/* ]]> */
</style></svg>