<svg class="railroad-diagram" height="232" viewBox="0 0 1001.0 232" width="1001.0" xmlns="http://www.w3.org/2000/svg" xmlns:xlink="http://www.w3.org/1999/xlink">
<g transform="translate(.5 .5)">
<g>
<path d="M20 30v20m10 -20v20m-10 -10h20" /></g><g>
<path d="M40 40h0.0" /><path d="M961.0 40h0.0" /><path d="M40.0 40h20" /><g>
<path d="M60.0 40h0.0" /><path d="M941.0 40h0.0" /><g class="terminal ">
<path d="M60.0 40h0.0" /><path d="M105.5 40h0.0" /><rect height="22" rx="10" ry="10" width="45.5" x="60" y="29"></rect><text x="82.75" y="44">&apos;*&apos;</text></g><path d="M105.5 40h10" /><g>
<path d="M115.5 40h0.0" /><path d="M847.0 40h0.0" /><path d="M115.5 40h20" /><g>
<path d="M135.5 40h0.0" /><path d="M827.0 40h0.0" /><g>
<path d="M135.5 40h0.0" /><path d="M585.5 40h0.0" /><path d="M135.5 40h20" /><g class="non-terminal ">
<path d="M155.5 40h127.0" /><path d="M438.5 40h127.0" /><rect height="22" width="156" x="282.5" y="29"></rect><text x="360.5" y="44">param_no_default</text></g><path d="M565.5 40h20" /><path d="M135.5 40a10 10 0 0 1 10 10v10a10 10 0 0 0 10 10" /><g>
<path d="M155.5 70h0.0" /><path d="M565.5 70h0.0" /><g class="terminal ">
<path d="M155.5 70h0.0" /><path d="M209.5 70h0.0" /><rect height="22" rx="10" ry="10" width="54" x="155.5" y="59"></rect><text x="182.5" y="74">NAME</text></g><path d="M209.5 70h10" /><path d="M219.5 70h10" /><g class="terminal ">
<path d="M229.5 70h0.0" /><path d="M275.0 70h0.0" /><rect height="22" rx="10" ry="10" width="45.5" x="229.5" y="59"></rect><text x="252.25" y="74">&apos;:&apos;</text></g><path d="M275.0 70h10" /><path d="M285.0 70h10" /><g class="non-terminal ">
<path d="M295.0 70h0.0" /><path d="M442.5 70h0.0" /><rect height="22" width="147.5" x="295" y="59"></rect><text x="368.75" y="74">star_expression</text></g><path d="M442.5 70h10" /><g>
<path d="M452.5 70h0.0" /><path d="M565.5 70h0.0" /><path d="M452.5 70h20" /><g class="terminal ">
<path d="M472.5 70h13.75" /><path d="M531.75 70h13.75" /><rect height="22" rx="10" ry="10" width="45.5" x="486.25" y="59"></rect><text x="509" y="74">&apos;,&apos;</text></g><path d="M545.5 70h20" /><path d="M452.5 70a10 10 0 0 1 10 10v34a10 10 0 0 0 10 10" /><g>
<path d="M472.5 124h0.0" /><path d="M545.5 124h0.0" /><rect class="group-box" height="38" rx="10" ry="10" width="73" x="472.5" y="105"></rect><g class="terminal ">
<path d="M472.5 124h13.75" /><path d="M531.75 124h13.75" /><rect height="22" rx="10" ry="10" width="45.5" x="486.25" y="113"></rect><text x="509" y="128">&apos;)&apos;</text></g><g class="non-terminal ">
<path d="M472.5 97h0.0" /><path d="M545.5 97h0.0" /><text class="comment" x="509" y="102">lookahead</text></g></g><path d="M545.5 124a10 10 0 0 0 10 -10v-34a10 10 0 0 1 10 -10" /></g></g><path d="M565.5 70a10 10 0 0 0 10 -10v-10a10 10 0 0 1 10 -10" /></g><g>
<path d="M585.5 40h0.0" /><path d="M827.0 40h0.0" /><path d="M585.5 40a10 10 0 0 0 10 -10v0a10 10 0 0 1 10 -10" /><g>
<path d="M605.5 20h201.5" /></g><path d="M807.0 20a10 10 0 0 1 10 10v0a10 10 0 0 0 10 10" /><path d="M585.5 40h20" /><g>
<path d="M605.5 40h0.0" /><path d="M807.0 40h0.0" /><path d="M605.5 40h10" /><g class="non-terminal ">
<path d="M615.5 40h0.0" /><path d="M797.0 40h0.0" /><rect height="22" width="181.5" x="615.5" y="29"></rect><text x="706.25" y="44">param_maybe_default</text></g><path d="M797.0 40h10" /><path d="M615.5 40a10 10 0 0 0 -10 10v0a10 10 0 0 0 10 10" /><g>
<path d="M615.5 60h181.5" /></g><path d="M797.0 60a10 10 0 0 0 10 -10v0a10 10 0 0 0 -10 -10" /></g><path d="M807.0 40h20" /></g></g><path d="M827.0 40h20" /><path d="M115.5 40a10 10 0 0 1 10 10v102a10 10 0 0 0 10 10" /><g>
<path d="M135.5 162h212.25" /><path d="M614.75 162h212.25" /><g class="terminal ">
<path d="M347.75 162h0.0" /><path d="M393.25 162h0.0" /><rect height="22" rx="10" ry="10" width="45.5" x="347.75" y="151"></rect><text x="370.5" y="166">&apos;,&apos;</text></g><path d="M393.25 162h10" /><path d="M403.25 162h10" /><g>
<path d="M413.25 162h0.0" /><path d="M614.75 162h0.0" /><path d="M413.25 162h10" /><g class="non-terminal ">
<path d="M423.25 162h0.0" /><path d="M604.75 162h0.0" /><rect height="22" width="181.5" x="423.25" y="151"></rect><text x="514" y="166">param_maybe_default</text></g><path d="M604.75 162h10" /><path d="M423.25 162a10 10 0 0 0 -10 10v0a10 10 0 0 0 10 10" /><g>
<path d="M423.25 182h181.5" /></g><path d="M604.75 182a10 10 0 0 0 10 -10v0a10 10 0 0 0 -10 -10" /></g></g><path d="M827.0 162a10 10 0 0 0 10 -10v-102a10 10 0 0 1 10 -10" /></g><g>
<path d="M847.0 40h0.0" /><path d="M941.0 40h0.0" /><path d="M847.0 40a10 10 0 0 0 10 -10v0a10 10 0 0 1 10 -10" /><g>
<path d="M867.0 20h54.0" /></g><path d="M921.0 20a10 10 0 0 1 10 10v0a10 10 0 0 0 10 10" /><path d="M847.0 40h20" /><g class="non-terminal ">
<path d="M867.0 40h0.0" /><path d="M921.0 40h0.0" /><rect height="22" width="54" x="867" y="29"></rect><text x="894" y="44">kwds</text></g><path d="M921.0 40h20" /></g></g><path d="M941.0 40h20" /><path d="M40.0 40a10 10 0 0 1 10 10v141a10 10 0 0 0 10 10" /><g class="non-terminal ">
<path d="M60.0 201h413.5" /><path d="M527.5 201h413.5" /><rect height="22" width="54" x="473.5" y="190"></rect><text x="500.5" y="205">kwds</text></g><path d="M941.0 201a10 10 0 0 0 10 -10v-141a10 10 0 0 1 10 -10" /></g><path d="M 961.0 40 h 20 m -10 -10 v 20 m 10 -20 v 20"></path></g><style>/* <![CDATA[ */
	svg.railroad-diagram {
		background-color:hsl(30,20%,95%);
	}
	svg.railroad-diagram path {
		stroke-width:3;
		stroke:black;
		fill:rgba(0,0,0,0);
	}
	svg.railroad-diagram text {
		font:bold 14px monospace;
		text-anchor:middle;
	}
	svg.railroad-diagram text.label{
		text-anchor:start;
	}
	svg.railroad-diagram text.comment{
		font:italic 12px monospace;
	}
	svg.railroad-diagram rect{
		stroke-width:3;
		stroke:black;
		fill:hsl(120,100%,90%);
	}
	svg.railroad-diagram rect.group-box {
		stroke: gray;
		stroke-dasharray: 10 5;
		fill: none;
	}

/* ]]> */
</style></svg>