<svg class="railroad-diagram" height="154" viewBox="0 0 426.0 154" width="426.0" xmlns="http://www.w3.org/2000/svg" xmlns:xlink="http://www.w3.org/1999/xlink">
<g transform="translate(.5 .5)">
<g>
<path d="M20 45v20m10 -20v20m-10 -10h20" /></g><path d="M40 55h10" /><g>
<path d="M50 55h0.0" /><path d="M376.0 55h0.0" /><g>
<path d="M50.0 55h0.0" /><path d="M280.5 55h0.0" /><path d="M50.0 55h10" /><g>
<path d="M60.0 55h0.0" /><path d="M270.5 55h0.0" /><rect class="group-box" height="68" rx="10" ry="10" width="210.5" x="60" y="36"></rect><g>
<path d="M60.0 55h0.0" /><path d="M270.5 55h0.0" /><path d="M60.0 55h20" /><g>
<path d="M80.0 55h0.0" /><path d="M250.5 55h0.0" /><g class="terminal ">
<path d="M80.0 55h0.0" /><path d="M125.5 55h0.0" /><rect height="22" rx="10" ry="10" width="45.5" x="80" y="44"></rect><text x="102.75" y="59">&apos;*&apos;</text></g><path d="M125.5 55h10" /><path d="M135.5 55h10" /><g class="non-terminal ">
<path d="M145.5 55h0.0" /><path d="M250.5 55h0.0" /><rect height="22" width="105" x="145.5" y="44"></rect><text x="198" y="59">bitwise_or</text></g></g><path d="M250.5 55h20" /><path d="M60.0 55a10 10 0 0 1 10 10v10a10 10 0 0 0 10 10" /><g class="non-terminal ">
<path d="M80.0 85h32.75" /><path d="M217.75 85h32.75" /><rect height="22" width="105" x="112.75" y="74"></rect><text x="165.25" y="89">expression</text></g><path d="M250.5 85a10 10 0 0 0 10 -10v-10a10 10 0 0 1 10 -10" /></g><g class="non-terminal ">
<path d="M60.0 28h0.0" /><path d="M175.0 28h0.0" /><text class="comment" x="117.5" y="33">star_expression</text></g></g><path d="M270.5 55h10" /><path d="M60.0 55a10 10 0 0 0 -10 10v48a10 10 0 0 0 10 10" /><g class="terminal ">
<path d="M60.0 123h82.5" /><path d="M188.0 123h82.5" /><rect height="22" rx="10" ry="10" width="45.5" x="142.5" y="112"></rect><text x="165.25" y="127">&apos;,&apos;</text></g><path d="M270.5 123a10 10 0 0 0 10 -10v-48a10 10 0 0 0 -10 -10" /></g><path d="M280.5 55h10" /><g>
<path d="M290.5 55h0.0" /><path d="M376.0 55h0.0" /><path d="M290.5 55a10 10 0 0 0 10 -10v0a10 10 0 0 1 10 -10" /><g>
<path d="M310.5 35h45.5" /></g><path d="M356.0 35a10 10 0 0 1 10 10v0a10 10 0 0 0 10 10" /><path d="M290.5 55h20" /><g class="terminal ">
<path d="M310.5 55h0.0" /><path d="M356.0 55h0.0" /><rect height="22" rx="10" ry="10" width="45.5" x="310.5" y="44"></rect><text x="333.25" y="59">&apos;,&apos;</text></g><path d="M356.0 55h20" /></g></g><path d="M376.0 55h10" /><path d="M 386.0 55 h 20 m -10 -10 v 20 m 10 -20 v 20"></path></g><style>/* <![CDATA[ */
	svg.railroad-diagram {
		background-color:hsl(30,20%,95%);
	}
	svg.railroad-diagram path {
		stroke-width:3;
		stroke:black;
		fill:rgba(0,0,0,0);
	}
	svg.railroad-diagram text {
		font:bold 14px monospace;
		text-anchor:middle;
	}
	svg.railroad-diagram text.label{
		text-anchor:start;
	}
	svg.railroad-diagram text.comment{
		font:italic 12px monospace;
	}
	svg.railroad-diagram rect{
		stroke-width:3;
		stroke:black;
		fill:hsl(120,100%,90%);
	}
	svg.railroad-diagram rect.group-box {
		stroke: gray;
		stroke-dasharray: 10 5;
		fill: none;
	}

/* ]]> */
</style></svg>