<svg class="railroad-diagram" height="198" viewBox="0 0 518.0 198" width="518.0" xmlns="http://www.w3.org/2000/svg" xmlns:xlink="http://www.w3.org/1999/xlink">
<g transform="translate(.5 .5)">
<g>
<path d="M20 21v20m10 -20v20m-10 -10h20" /></g><g>
<path d="M40 31h0.0" /><path d="M478.0 31h0.0" /><path d="M40.0 31h20" /><g class="terminal ">
<path d="M60.0 31h172.0" /><path d="M286.0 31h172.0" /><rect height="22" rx="10" ry="10" width="54" x="232" y="20"></rect><text x="259" y="35">NAME</text></g><path d="M458.0 31h20" /><path d="M40.0 31a10 10 0 0 1 10 10v19a10 10 0 0 0 10 10" /><g>
<path d="M60.0 70h0.0" /><path d="M458.0 70h0.0" /><g class="terminal ">
<path d="M60.0 70h0.0" /><path d="M105.5 70h0.0" /><rect height="22" rx="10" ry="10" width="45.5" x="60" y="59"></rect><text x="82.75" y="74">&apos;(&apos;</text></g><path d="M105.5 70h10" /><g>
<path d="M115.5 70h0.0" /><path d="M402.5 70h0.0" /><path d="M115.5 70a10 10 0 0 0 10 -10v0a10 10 0 0 1 10 -10" /><g>
<path d="M135.5 50h247.0" /></g><path d="M382.5 50a10 10 0 0 1 10 10v0a10 10 0 0 0 10 10" /><path d="M115.5 70h20" /><g>
<path d="M135.5 70h0.0" /><path d="M382.5 70h0.0" /><path d="M135.5 70h20" /><g class="non-terminal ">
<path d="M155.5 70h4.25" /><path d="M358.25 70h4.25" /><rect height="22" width="198.5" x="159.75" y="59"></rect><text x="259" y="74">target_with_star_atom</text></g><path d="M362.5 70h20" /><path d="M135.5 70a10 10 0 0 1 10 10v10a10 10 0 0 0 10 10" /><g class="non-terminal ">
<path d="M155.5 100h0.0" /><path d="M362.5 100h0.0" /><rect height="22" width="207" x="155.5" y="89"></rect><text x="259" y="104">star_targets_tuple_seq</text></g><path d="M362.5 100a10 10 0 0 0 10 -10v-10a10 10 0 0 1 10 -10" /></g><path d="M382.5 70h20" /></g><path d="M402.5 70h10" /><g class="terminal ">
<path d="M412.5 70h0.0" /><path d="M458.0 70h0.0" /><rect height="22" rx="10" ry="10" width="45.5" x="412.5" y="59"></rect><text x="435.25" y="74">&apos;)&apos;</text></g></g><path d="M458.0 70a10 10 0 0 0 10 -10v-19a10 10 0 0 1 10 -10" /><path d="M40.0 31a10 10 0 0 1 10 10v96a10 10 0 0 0 10 10" /><g>
<path d="M60.0 147h4.0" /><path d="M454.0 147h4.0" /><g class="terminal ">
<path d="M64.0 147h0.0" /><path d="M109.5 147h0.0" /><rect height="22" rx="10" ry="10" width="45.5" x="64" y="136"></rect><text x="86.75" y="151">&apos;[&apos;</text></g><path d="M109.5 147h10" /><g>
<path d="M119.5 147h0.0" /><path d="M398.5 147h0.0" /><path d="M119.5 147a10 10 0 0 0 10 -10v-8a10 10 0 0 1 10 -10" /><g>
<path d="M139.5 119h239.0" /></g><path d="M378.5 119a10 10 0 0 1 10 10v8a10 10 0 0 0 10 10" /><path d="M119.5 147h20" /><g>
<path d="M139.5 147h0.0" /><path d="M378.5 147h0.0" /><g>
<path d="M139.5 147h0.0" /><path d="M293.0 147h0.0" /><path d="M139.5 147h20" /><g>
<path d="M159.5 147h113.5" /></g><path d="M273.0 147h20" /><path d="M139.5 147a10 10 0 0 1 10 10v0a10 10 0 0 0 10 10" /><g class="non-terminal ">
<path d="M159.5 167h0.0" /><path d="M273.0 167h0.0" /><rect height="22" width="113.5" x="159.5" y="156"></rect><text x="216.25" y="171">star_target</text></g><path d="M273.0 167a10 10 0 0 0 10 -10v0a10 10 0 0 1 10 -10" /></g><g>
<path d="M293.0 147h0.0" /><path d="M378.5 147h0.0" /><path d="M293.0 147a10 10 0 0 0 10 -10v0a10 10 0 0 1 10 -10" /><g>
<path d="M313.0 127h45.5" /></g><path d="M358.5 127a10 10 0 0 1 10 10v0a10 10 0 0 0 10 10" /><path d="M293.0 147h20" /><g class="terminal ">
<path d="M313.0 147h0.0" /><path d="M358.5 147h0.0" /><rect height="22" rx="10" ry="10" width="45.5" x="313" y="136"></rect><text x="335.75" y="151">&apos;,&apos;</text></g><path d="M358.5 147h20" /></g></g><path d="M378.5 147h20" /></g><path d="M398.5 147h10" /><g class="terminal ">
<path d="M408.5 147h0.0" /><path d="M454.0 147h0.0" /><rect height="22" rx="10" ry="10" width="45.5" x="408.5" y="136"></rect><text x="431.25" y="151">&apos;]&apos;</text></g></g><path d="M458.0 147a10 10 0 0 0 10 -10v-96a10 10 0 0 1 10 -10" /></g><path d="M 478.0 31 h 20 m -10 -10 v 20 m 10 -20 v 20"></path></g><style>/* <![CDATA[ */
	svg.railroad-diagram {
		background-color:hsl(30,20%,95%);
	}
	svg.railroad-diagram path {
		stroke-width:3;
		stroke:black;
		fill:rgba(0,0,0,0);
	}
	svg.railroad-diagram text {
		font:bold 14px monospace;
		text-anchor:middle;
	}
	svg.railroad-diagram text.label{
		text-anchor:start;
	}
	svg.railroad-diagram text.comment{
		font:italic 12px monospace;
	}
	svg.railroad-diagram rect{
		stroke-width:3;
		stroke:black;
		fill:hsl(120,100%,90%);
	}
	svg.railroad-diagram rect.group-box {
		stroke: gray;
		stroke-dasharray: 10 5;
		fill: none;
	}

/* ]]> */
</style></svg>