<svg class="railroad-diagram" height="147" viewBox="0 0 756.5 147" width="756.5" xmlns="http://www.w3.org/2000/svg" xmlns:xlink="http://www.w3.org/1999/xlink">
<g transform="translate(.5 .5)">
<g>
<path d="M20 21v20m10 -20v20m-10 -10h20" /></g><path d="M40 31h10" /><g>
<path d="M50 31h0.0" /><path d="M706.5 31h0.0" /><path d="M50.0 31h10" /><g>
<path d="M60.0 31h0.0" /><path d="M696.5 31h0.0" /><path d="M60.0 31h20" /><g class="terminal ">
<path d="M80.0 31h262.75" /><path d="M413.75 31h262.75" /><rect height="22" rx="10" ry="10" width="71" x="342.75" y="20"></rect><text x="378.25" y="35">STRING</text></g><path d="M676.5 31h20" /><path d="M60.0 31a10 10 0 0 1 10 10v19a10 10 0 0 0 10 10" /><g>
<path d="M80.0 70h0.0" /><path d="M676.5 70h0.0" /><g class="terminal ">
<path d="M80.0 70h0.0" /><path d="M210.5 70h0.0" /><rect height="22" rx="10" ry="10" width="130.5" x="80" y="59"></rect><text x="145.25" y="74">FSTRING_START</text></g><path d="M210.5 70h10" /><g>
<path d="M220.5 70h0.0" /><path d="M553.0 70h0.0" /><path d="M220.5 70a10 10 0 0 0 10 -10v0a10 10 0 0 1 10 -10" /><g>
<path d="M240.5 50h292.5" /></g><path d="M533.0 50a10 10 0 0 1 10 10v0a10 10 0 0 0 10 10" /><path d="M220.5 70h20" /><g>
<path d="M240.5 70h0.0" /><path d="M533.0 70h0.0" /><path d="M240.5 70h10" /><g>
<path d="M250.5 70h0.0" /><path d="M523.0 70h0.0" /><path d="M250.5 70h20" /><g class="non-terminal ">
<path d="M270.5 70h0.0" /><path d="M503.0 70h0.0" /><rect height="22" width="232.5" x="270.5" y="59"></rect><text x="386.75" y="74">fstring_replacement_field</text></g><path d="M503.0 70h20" /><path d="M250.5 70a10 10 0 0 1 10 10v10a10 10 0 0 0 10 10" /><g class="terminal ">
<path d="M270.5 100h46.75" /><path d="M456.25 100h46.75" /><rect height="22" rx="10" ry="10" width="139" x="317.25" y="89"></rect><text x="386.75" y="104">FSTRING_MIDDLE</text></g><path d="M503.0 100a10 10 0 0 0 10 -10v-10a10 10 0 0 1 10 -10" /></g><path d="M523.0 70h10" /><path d="M250.5 70a10 10 0 0 0 -10 10v29a10 10 0 0 0 10 10" /><g>
<path d="M250.5 119h272.5" /></g><path d="M523.0 119a10 10 0 0 0 10 -10v-29a10 10 0 0 0 -10 -10" /></g><path d="M533.0 70h20" /></g><path d="M553.0 70h10" /><g class="terminal ">
<path d="M563.0 70h0.0" /><path d="M676.5 70h0.0" /><rect height="22" rx="10" ry="10" width="113.5" x="563" y="59"></rect><text x="619.75" y="74">FSTRING_END</text></g></g><path d="M676.5 70a10 10 0 0 0 10 -10v-19a10 10 0 0 1 10 -10" /></g><path d="M696.5 31h10" /><path d="M60.0 31a10 10 0 0 0 -10 10v76a10 10 0 0 0 10 10" /><g>
<path d="M60.0 127h636.5" /></g><path d="M696.5 127a10 10 0 0 0 10 -10v-76a10 10 0 0 0 -10 -10" /></g><path d="M706.5 31h10" /><path d="M 716.5 31 h 20 m -10 -10 v 20 m 10 -20 v 20"></path></g><style>/* <![CDATA[ */
	svg.railroad-diagram {
		background-color:hsl(30,20%,95%);
	}
	svg.railroad-diagram path {
		stroke-width:3;
		stroke:black;
		fill:rgba(0,0,0,0);
	}
	svg.railroad-diagram text {
		font:bold 14px monospace;
		text-anchor:middle;
	}
	svg.railroad-diagram text.label{
		text-anchor:start;
	}
	svg.railroad-diagram text.comment{
		font:italic 12px monospace;
	}
	svg.railroad-diagram rect{
		stroke-width:3;
		stroke:black;
		fill:hsl(120,100%,90%);
	}
	svg.railroad-diagram rect.group-box {
		stroke: gray;
		stroke-dasharray: 10 5;
		fill: none;
	}

/* ]]> */
</style></svg>