<svg class="railroad-diagram" height="101" viewBox="0 0 641.0 101" width="641.0" xmlns="http://www.w3.org/2000/svg" xmlns:xlink="http://www.w3.org/1999/xlink">
<g transform="translate(.5 .5)">
<g>
<path d="M20 30v20m10 -20v20m-10 -10h20" /></g><g>
<path d="M40 40h0.0" /><path d="M601.0 40h0.0" /><path d="M40.0 40h20" /><g>
<path d="M60.0 40h0.0" /><path d="M581.0 40h0.0" /><g class="non-terminal ">
<path d="M60.0 40h0.0" /><path d="M258.5 40h0.0" /><rect height="22" width="198.5" x="60" y="29"></rect><text x="159.25" y="44">star_named_expression</text></g><path d="M258.5 40h10" /><path d="M268.5 40h10" /><g class="terminal ">
<path d="M278.5 40h0.0" /><path d="M324.0 40h0.0" /><rect height="22" rx="10" ry="10" width="45.5" x="278.5" y="29"></rect><text x="301.25" y="44">&apos;,&apos;</text></g><path d="M324.0 40h10" /><g>
<path d="M334.0 40h0.0" /><path d="M581.0 40h0.0" /><path d="M334.0 40a10 10 0 0 0 10 -10v0a10 10 0 0 1 10 -10" /><g>
<path d="M354.0 20h207.0" /></g><path d="M561.0 20a10 10 0 0 1 10 10v0a10 10 0 0 0 10 10" /><path d="M334.0 40h20" /><g class="non-terminal ">
<path d="M354.0 40h0.0" /><path d="M561.0 40h0.0" /><rect height="22" width="207" x="354" y="29"></rect><text x="457.5" y="44">star_named_expressions</text></g><path d="M561.0 40h20" /></g></g><path d="M581.0 40h20" /><path d="M40.0 40a10 10 0 0 1 10 10v10a10 10 0 0 0 10 10" /><g class="non-terminal ">
<path d="M60.0 70h182.5" /><path d="M398.5 70h182.5" /><rect height="22" width="156" x="242.5" y="59"></rect><text x="320.5" y="74">named_expression</text></g><path d="M581.0 70a10 10 0 0 0 10 -10v-10a10 10 0 0 1 10 -10" /></g><path d="M 601.0 40 h 20 m -10 -10 v 20 m 10 -20 v 20"></path></g><style>/* <![CDATA[ */
	svg.railroad-diagram {
		background-color:hsl(30,20%,95%);
	}
	svg.railroad-diagram path {
		stroke-width:3;
		stroke:black;
		fill:rgba(0,0,0,0);
	}
	svg.railroad-diagram text {
		font:bold 14px monospace;
		text-anchor:middle;
	}
	svg.railroad-diagram text.label{
		text-anchor:start;
	}
	svg.railroad-diagram text.comment{
		font:italic 12px monospace;
	}
	svg.railroad-diagram rect{
		stroke-width:3;
		stroke:black;
		fill:hsl(120,100%,90%);
	}
	svg.railroad-diagram rect.group-box {
		stroke: gray;
		stroke-dasharray: 10 5;
		fill: none;
	}

/* ]]> */
</style></svg>