<svg class="railroad-diagram" height="101" viewBox="0 0 733.0 101" width="733.0" xmlns="http://www.w3.org/2000/svg" xmlns:xlink="http://www.w3.org/1999/xlink">
<g transform="translate(.5 .5)">
<g>
<path d="M20 30v20m10 -20v20m-10 -10h112.0" /><text style="text-anchor:start" x="20" y="25">subject_expr</text></g><g>
<path d="M132.0 40h0.0" /><path d="M693.0 40h0.0" /><path d="M132.0 40h20" /><g>
<path d="M152.0 40h0.0" /><path d="M673.0 40h0.0" /><g class="non-terminal ">
<path d="M152.0 40h0.0" /><path d="M350.5 40h0.0" /><rect height="22" width="198.5" x="152" y="29"></rect><text x="251.25" y="44">star_named_expression</text></g><path d="M350.5 40h10" /><path d="M360.5 40h10" /><g class="terminal ">
<path d="M370.5 40h0.0" /><path d="M416.0 40h0.0" /><rect height="22" rx="10" ry="10" width="45.5" x="370.5" y="29"></rect><text x="393.25" y="44">&apos;,&apos;</text></g><path d="M416.0 40h10" /><g>
<path d="M426.0 40h0.0" /><path d="M673.0 40h0.0" /><path d="M426.0 40a10 10 0 0 0 10 -10v0a10 10 0 0 1 10 -10" /><g>
<path d="M446.0 20h207.0" /></g><path d="M653.0 20a10 10 0 0 1 10 10v0a10 10 0 0 0 10 10" /><path d="M426.0 40h20" /><g class="non-terminal ">
<path d="M446.0 40h0.0" /><path d="M653.0 40h0.0" /><rect height="22" width="207" x="446" y="29"></rect><text x="549.5" y="44">star_named_expressions</text></g><path d="M653.0 40h20" /></g></g><path d="M673.0 40h20" /><path d="M132.0 40a10 10 0 0 1 10 10v10a10 10 0 0 0 10 10" /><g class="non-terminal ">
<path d="M152.0 70h182.5" /><path d="M490.5 70h182.5" /><rect height="22" width="156" x="334.5" y="59"></rect><text x="412.5" y="74">named_expression</text></g><path d="M673.0 70a10 10 0 0 0 10 -10v-10a10 10 0 0 1 10 -10" /></g><path d="M 693.0 40 h 20 m -10 -10 v 20 m 10 -20 v 20"></path></g><style>/* <![CDATA[ */
	svg.railroad-diagram {
		background-color:hsl(30,20%,95%);
	}
	svg.railroad-diagram path {
		stroke-width:3;
		stroke:black;
		fill:rgba(0,0,0,0);
	}
	svg.railroad-diagram text {
		font:bold 14px monospace;
		text-anchor:middle;
	}
	svg.railroad-diagram text.label{
		text-anchor:start;
	}
	svg.railroad-diagram text.comment{
		font:italic 12px monospace;
	}
	svg.railroad-diagram rect{
		stroke-width:3;
		stroke:black;
		fill:hsl(120,100%,90%);
	}
	svg.railroad-diagram rect.group-box {
		stroke: gray;
		stroke-dasharray: 10 5;
		fill: none;
	}

/* ]]> */
</style></svg>