<svg class="railroad-diagram" height="141" viewBox="0 0 564.5 141" width="564.5" xmlns="http://www.w3.org/2000/svg" xmlns:xlink="http://www.w3.org/1999/xlink">
<g transform="translate(.5 .5)">
<g>
<path d="M20 62v20m10 -20v20m-10 -10h20" /></g><path d="M40 72h10" /><g>
<path d="M50 72h0.0" /><path d="M514.5 72h0.0" /><g>
<path d="M50.0 72h0.0" /><path d="M450.5 72h0.0" /><path d="M50.0 72a10 10 0 0 0 10 -10v-32a10 10 0 0 1 10 -10" /><g>
<path d="M70.0 20h360.5" /></g><path d="M430.5 20a10 10 0 0 1 10 10v32a10 10 0 0 0 10 10" /><path d="M50.0 72h20" /><g>
<path d="M70.0 72h0.0" /><path d="M430.5 72h0.0" /><g>
<path d="M70.0 72h0.0" /><path d="M335.0 72h0.0" /><rect class="group-box" height="77" rx="10" ry="10" width="265" x="70" y="44"></rect><g>
<path d="M70.0 72h10.0" /><path d="M325.0 72h10.0" /><g>
<path d="M80.0 72h0.0" /><path d="M261.0 72h0.0" /><path d="M80.0 72a10 10 0 0 0 10 -10v0a10 10 0 0 1 10 -10" /><g>
<path d="M100.0 52h141.0" /></g><path d="M241.0 52a10 10 0 0 1 10 10v0a10 10 0 0 0 10 10" /><path d="M80.0 72h20" /><g>
<path d="M100.0 72h0.0" /><path d="M241.0 72h0.0" /><g class="non-terminal ">
<path d="M100.0 72h0.0" /><path d="M145.5 72h0.0" /><rect height="22" width="45.5" x="100" y="61"></rect><text x="122.75" y="76">sum</text></g><path d="M145.5 72h10" /><g>
<path d="M155.5 72h0.0" /><path d="M241.0 72h0.0" /><path d="M155.5 72h20" /><g class="terminal ">
<path d="M175.5 72h0.0" /><path d="M221.0 72h0.0" /><rect height="22" rx="10" ry="10" width="45.5" x="175.5" y="61"></rect><text x="198.25" y="76">&apos;+&apos;</text></g><path d="M221.0 72h20" /><path d="M155.5 72a10 10 0 0 1 10 10v10a10 10 0 0 0 10 10" /><g class="terminal ">
<path d="M175.5 102h0.0" /><path d="M221.0 102h0.0" /><rect height="22" rx="10" ry="10" width="45.5" x="175.5" y="91"></rect><text x="198.25" y="106">&apos;-&apos;</text></g><path d="M221.0 102a10 10 0 0 0 10 -10v-10a10 10 0 0 1 10 -10" /></g></g><path d="M241.0 72h20" /></g><path d="M261.0 72h10" /><g class="non-terminal ">
<path d="M271.0 72h0.0" /><path d="M325.0 72h0.0" /><rect height="22" width="54" x="271" y="61"></rect><text x="298" y="76">term</text></g></g><g class="non-terminal ">
<path d="M70.0 36h0.0" /><path d="M101.0 36h0.0" /><text class="comment" x="85.5" y="41">sum</text></g></g><path d="M335.0 72h10" /><g>
<path d="M345.0 72h0.0" /><path d="M430.5 72h0.0" /><path d="M345.0 72h20" /><g class="terminal ">
<path d="M365.0 72h0.0" /><path d="M410.5 72h0.0" /><rect height="22" rx="10" ry="10" width="45.5" x="365" y="61"></rect><text x="387.75" y="76">&apos;+&apos;</text></g><path d="M410.5 72h20" /><path d="M345.0 72a10 10 0 0 1 10 10v10a10 10 0 0 0 10 10" /><g class="terminal ">
<path d="M365.0 102h0.0" /><path d="M410.5 102h0.0" /><rect height="22" rx="10" ry="10" width="45.5" x="365" y="91"></rect><text x="387.75" y="106">&apos;-&apos;</text></g><path d="M410.5 102a10 10 0 0 0 10 -10v-10a10 10 0 0 1 10 -10" /></g></g><path d="M430.5 72h20" /></g><path d="M450.5 72h10" /><g class="non-terminal ">
<path d="M460.5 72h0.0" /><path d="M514.5 72h0.0" /><rect height="22" width="54" x="460.5" y="61"></rect><text x="487.5" y="76">term</text></g></g><path d="M514.5 72h10" /><path d="M 524.5 72 h 20 m -10 -10 v 20 m 10 -20 v 20"></path></g><style>/* <![CDATA[ */
	svg.railroad-diagram {
		background-color:hsl(30,20%,95%);
	}
	svg.railroad-diagram path {
		stroke-width:3;
		stroke:black;
		fill:rgba(0,0,0,0);
	}
	svg.railroad-diagram text {
		font:bold 14px monospace;
		text-anchor:middle;
	}
	svg.railroad-diagram text.label{
		text-anchor:start;
	}
	svg.railroad-diagram text.comment{
		font:italic 12px monospace;
	}
	svg.railroad-diagram rect{
		stroke-width:3;
		stroke:black;
		fill:hsl(120,100%,90%);
	}
	svg.railroad-diagram rect.group-box {
		stroke: gray;
		stroke-dasharray: 10 5;
		fill: none;
	}

/* ]]> */
</style></svg>