<svg class="railroad-diagram" height="101" viewBox="0 0 345.0 101" width="345.0" xmlns="http://www.w3.org/2000/svg" xmlns:xlink="http://www.w3.org/1999/xlink">
<g transform="translate(.5 .5)">
<g>
<path d="M20 30v20m10 -20v20m-10 -10h20" /></g><path d="M40 40h10" /><g>
<path d="M50 40h0.0" /><path d="M295.0 40h0.0" /><g>
<path d="M50.0 40h0.0" /><path d="M231.0 40h0.0" /><path d="M50.0 40a10 10 0 0 0 10 -10v0a10 10 0 0 1 10 -10" /><g>
<path d="M70.0 20h141.0" /></g><path d="M211.0 20a10 10 0 0 1 10 10v0a10 10 0 0 0 10 10" /><path d="M50.0 40h20" /><g>
<path d="M70.0 40h0.0" /><path d="M211.0 40h0.0" /><g class="non-terminal ">
<path d="M70.0 40h0.0" /><path d="M115.5 40h0.0" /><rect height="22" width="45.5" x="70" y="29"></rect><text x="92.75" y="44">sum</text></g><path d="M115.5 40h10" /><g>
<path d="M125.5 40h0.0" /><path d="M211.0 40h0.0" /><path d="M125.5 40h20" /><g class="terminal ">
<path d="M145.5 40h0.0" /><path d="M191.0 40h0.0" /><rect height="22" rx="10" ry="10" width="45.5" x="145.5" y="29"></rect><text x="168.25" y="44">&apos;+&apos;</text></g><path d="M191.0 40h20" /><path d="M125.5 40a10 10 0 0 1 10 10v10a10 10 0 0 0 10 10" /><g class="terminal ">
<path d="M145.5 70h0.0" /><path d="M191.0 70h0.0" /><rect height="22" rx="10" ry="10" width="45.5" x="145.5" y="59"></rect><text x="168.25" y="74">&apos;-&apos;</text></g><path d="M191.0 70a10 10 0 0 0 10 -10v-10a10 10 0 0 1 10 -10" /></g></g><path d="M211.0 40h20" /></g><path d="M231.0 40h10" /><g class="non-terminal ">
<path d="M241.0 40h0.0" /><path d="M295.0 40h0.0" /><rect height="22" width="54" x="241" y="29"></rect><text x="268" y="44">term</text></g></g><path d="M295.0 40h10" /><path d="M 305.0 40 h 20 m -10 -10 v 20 m 10 -20 v 20"></path></g><style>/* <![CDATA[ */
	svg.railroad-diagram {
		background-color:hsl(30,20%,95%);
	}
	svg.railroad-diagram path {
		stroke-width:3;
		stroke:black;
		fill:rgba(0,0,0,0);
	}
	svg.railroad-diagram text {
		font:bold 14px monospace;
		text-anchor:middle;
	}
	svg.railroad-diagram text.label{
		text-anchor:start;
	}
	svg.railroad-diagram text.comment{
		font:italic 12px monospace;
	}
	svg.railroad-diagram rect{
		stroke-width:3;
		stroke:black;
		fill:hsl(120,100%,90%);
	}
	svg.railroad-diagram rect.group-box {
		stroke: gray;
		stroke-dasharray: 10 5;
		fill: none;
	}

/* ]]> */
</style></svg>