<svg class="railroad-diagram" height="101" viewBox="0 0 360.5 101" width="360.5" xmlns="http://www.w3.org/2000/svg" xmlns:xlink="http://www.w3.org/1999/xlink">
<g transform="translate(.5 .5)">
<g>
<path d="M20 30v20m10 -20v20m-10 -10h35.5" /><text style="text-anchor:start" x="20" y="25">sum</text></g><path d="M55.5 40h10" /><g>
<path d="M65.5 40h0.0" /><path d="M310.5 40h0.0" /><g>
<path d="M65.5 40h0.0" /><path d="M246.5 40h0.0" /><path d="M65.5 40a10 10 0 0 0 10 -10v0a10 10 0 0 1 10 -10" /><g>
<path d="M85.5 20h141.0" /></g><path d="M226.5 20a10 10 0 0 1 10 10v0a10 10 0 0 0 10 10" /><path d="M65.5 40h20" /><g>
<path d="M85.5 40h0.0" /><path d="M226.5 40h0.0" /><g class="non-terminal ">
<path d="M85.5 40h0.0" /><path d="M131.0 40h0.0" /><rect height="22" width="45.5" x="85.5" y="29"></rect><text x="108.25" y="44">sum</text></g><path d="M131.0 40h10" /><g>
<path d="M141.0 40h0.0" /><path d="M226.5 40h0.0" /><path d="M141.0 40h20" /><g class="terminal ">
<path d="M161.0 40h0.0" /><path d="M206.5 40h0.0" /><rect height="22" rx="10" ry="10" width="45.5" x="161" y="29"></rect><text x="183.75" y="44">&apos;+&apos;</text></g><path d="M206.5 40h20" /><path d="M141.0 40a10 10 0 0 1 10 10v10a10 10 0 0 0 10 10" /><g class="terminal ">
<path d="M161.0 70h0.0" /><path d="M206.5 70h0.0" /><rect height="22" rx="10" ry="10" width="45.5" x="161" y="59"></rect><text x="183.75" y="74">&apos;-&apos;</text></g><path d="M206.5 70a10 10 0 0 0 10 -10v-10a10 10 0 0 1 10 -10" /></g></g><path d="M226.5 40h20" /></g><path d="M246.5 40h10" /><g class="non-terminal ">
<path d="M256.5 40h0.0" /><path d="M310.5 40h0.0" /><rect height="22" width="54" x="256.5" y="29"></rect><text x="283.5" y="44">term</text></g></g><path d="M310.5 40h10" /><path d="M 320.5 40 h 20 m -10 -10 v 20 m 10 -20 v 20"></path></g><style>/* <![CDATA[ */
	svg.railroad-diagram {
		background-color:hsl(30,20%,95%);
	}
	svg.railroad-diagram path {
		stroke-width:3;
		stroke:black;
		fill:rgba(0,0,0,0);
	}
	svg.railroad-diagram text {
		font:bold 14px monospace;
		text-anchor:middle;
	}
	svg.railroad-diagram text.label{
		text-anchor:start;
	}
	svg.railroad-diagram text.comment{
		font:italic 12px monospace;
	}
	svg.railroad-diagram rect{
		stroke-width:3;
		stroke:black;
		fill:hsl(120,100%,90%);
	}
	svg.railroad-diagram rect.group-box {
		stroke: gray;
		stroke-dasharray: 10 5;
		fill: none;
	}

/* ]]> */
</style></svg>