<svg class="railroad-diagram" height="223" viewBox="0 0 590.0 223" width="590.0" xmlns="http://www.w3.org/2000/svg" xmlns:xlink="http://www.w3.org/1999/xlink">
<g transform="translate(.5 .5)">
<g>
<path d="M20 54v20m10 -20v20m-10 -10h20" /></g><path d="M40 64h10" /><g>
<path d="M50 64h0.0" /><path d="M540.0 64h0.0" /><g>
<path d="M50.0 64h0.0" /><path d="M231.0 64h0.0" /><path d="M50.0 64a10 10 0 0 0 10 -10v0a10 10 0 0 1 10 -10" /><g>
<path d="M70.0 44h141.0" /></g><path d="M211.0 44a10 10 0 0 1 10 10v0a10 10 0 0 0 10 10" /><path d="M50.0 64h20" /><g>
<path d="M70.0 64h0.0" /><path d="M211.0 64h0.0" /><g class="non-terminal ">
<path d="M70.0 64h0.0" /><path d="M115.5 64h0.0" /><rect height="22" width="45.5" x="70" y="53"></rect><text x="92.75" y="68">sum</text></g><path d="M115.5 64h10" /><g>
<path d="M125.5 64h0.0" /><path d="M211.0 64h0.0" /><path d="M125.5 64h20" /><g class="terminal ">
<path d="M145.5 64h0.0" /><path d="M191.0 64h0.0" /><rect height="22" rx="10" ry="10" width="45.5" x="145.5" y="53"></rect><text x="168.25" y="68">&apos;+&apos;</text></g><path d="M191.0 64h20" /><path d="M125.5 64a10 10 0 0 1 10 10v10a10 10 0 0 0 10 10" /><g class="terminal ">
<path d="M145.5 94h0.0" /><path d="M191.0 94h0.0" /><rect height="22" rx="10" ry="10" width="45.5" x="145.5" y="83"></rect><text x="168.25" y="98">&apos;-&apos;</text></g><path d="M191.0 94a10 10 0 0 0 10 -10v-10a10 10 0 0 1 10 -10" /></g></g><path d="M211.0 64h20" /></g><path d="M231.0 64h10" /><g>
<path d="M241.0 64h0.0" /><path d="M540.0 64h0.0" /><rect class="group-box" height="167" rx="10" ry="10" width="299" x="241" y="36"></rect><g>
<path d="M241.0 64h10.0" /><path d="M530.0 64h10.0" /><g>
<path d="M251.0 64h0.0" /><path d="M449.0 64h0.0" /><path d="M251.0 64a10 10 0 0 0 10 -10v0a10 10 0 0 1 10 -10" /><g>
<path d="M271.0 44h158.0" /></g><path d="M429.0 44a10 10 0 0 1 10 10v0a10 10 0 0 0 10 10" /><path d="M251.0 64h20" /><g>
<path d="M271.0 64h0.0" /><path d="M429.0 64h0.0" /><g class="non-terminal ">
<path d="M271.0 64h0.0" /><path d="M325.0 64h0.0" /><rect height="22" width="54" x="271" y="53"></rect><text x="298" y="68">term</text></g><path d="M325.0 64h10" /><g>
<path d="M335.0 64h0.0" /><path d="M429.0 64h0.0" /><path d="M335.0 64h20" /><g class="terminal ">
<path d="M355.0 64h4.25" /><path d="M404.75 64h4.25" /><rect height="22" rx="10" ry="10" width="45.5" x="359.25" y="53"></rect><text x="382" y="68">&apos;*&apos;</text></g><path d="M409.0 64h20" /><path d="M335.0 64a10 10 0 0 1 10 10v10a10 10 0 0 0 10 10" /><g class="terminal ">
<path d="M355.0 94h4.25" /><path d="M404.75 94h4.25" /><rect height="22" rx="10" ry="10" width="45.5" x="359.25" y="83"></rect><text x="382" y="98">&apos;/&apos;</text></g><path d="M409.0 94a10 10 0 0 0 10 -10v-10a10 10 0 0 1 10 -10" /><path d="M335.0 64a10 10 0 0 1 10 10v40a10 10 0 0 0 10 10" /><g class="terminal ">
<path d="M355.0 124h0.0" /><path d="M409.0 124h0.0" /><rect height="22" rx="10" ry="10" width="54" x="355" y="113"></rect><text x="382" y="128">&apos;//&apos;</text></g><path d="M409.0 124a10 10 0 0 0 10 -10v-40a10 10 0 0 1 10 -10" /><path d="M335.0 64a10 10 0 0 1 10 10v70a10 10 0 0 0 10 10" /><g class="terminal ">
<path d="M355.0 154h4.25" /><path d="M404.75 154h4.25" /><rect height="22" rx="10" ry="10" width="45.5" x="359.25" y="143"></rect><text x="382" y="158">&apos;%&apos;</text></g><path d="M409.0 154a10 10 0 0 0 10 -10v-70a10 10 0 0 1 10 -10" /><path d="M335.0 64a10 10 0 0 1 10 10v100a10 10 0 0 0 10 10" /><g class="terminal ">
<path d="M355.0 184h4.25" /><path d="M404.75 184h4.25" /><rect height="22" rx="10" ry="10" width="45.5" x="359.25" y="173"></rect><text x="382" y="188">&apos;@&apos;</text></g><path d="M409.0 184a10 10 0 0 0 10 -10v-100a10 10 0 0 1 10 -10" /></g></g><path d="M429.0 64h20" /></g><path d="M449.0 64h10" /><g class="non-terminal ">
<path d="M459.0 64h0.0" /><path d="M530.0 64h0.0" /><rect height="22" width="71" x="459" y="53"></rect><text x="494.5" y="68">factor</text></g></g><g class="non-terminal ">
<path d="M241.0 28h0.0" /><path d="M279.0 28h0.0" /><text class="comment" x="260" y="33">term</text></g></g></g><path d="M540.0 64h10" /><path d="M 550.0 64 h 20 m -10 -10 v 20 m 10 -20 v 20"></path></g><style>/* <![CDATA[ */
	svg.railroad-diagram {
		background-color:hsl(30,20%,95%);
	}
	svg.railroad-diagram path {
		stroke-width:3;
		stroke:black;
		fill:rgba(0,0,0,0);
	}
	svg.railroad-diagram text {
		font:bold 14px monospace;
		text-anchor:middle;
	}
	svg.railroad-diagram text.label{
		text-anchor:start;
	}
	svg.railroad-diagram text.comment{
		font:italic 12px monospace;
	}
	svg.railroad-diagram rect{
		stroke-width:3;
		stroke:black;
		fill:hsl(120,100%,90%);
	}
	svg.railroad-diagram rect.group-box {
		stroke: gray;
		stroke-dasharray: 10 5;
		fill: none;
	}

/* ]]> */
</style></svg>