<svg class="railroad-diagram" height="122" viewBox="0 0 249.0 122" width="249.0" xmlns="http://www.w3.org/2000/svg" xmlns:xlink="http://www.w3.org/1999/xlink">
<g transform="translate(.5 .5)">
<g>
<path d="M20 21v20m10 -20v20m-10 -10h103.5" /><text style="text-anchor:start" x="20" y="16">t_lookahead</text></g><g>
<path d="M123.5 31h0.0" /><path d="M209.0 31h0.0" /><path d="M123.5 31h20" /><g class="terminal ">
<path d="M143.5 31h0.0" /><path d="M189.0 31h0.0" /><rect height="22" rx="10" ry="10" width="45.5" x="143.5" y="20"></rect><text x="166.25" y="35">&apos;(&apos;</text></g><path d="M189.0 31h20" /><path d="M123.5 31a10 10 0 0 1 10 10v10a10 10 0 0 0 10 10" /><g class="terminal ">
<path d="M143.5 61h0.0" /><path d="M189.0 61h0.0" /><rect height="22" rx="10" ry="10" width="45.5" x="143.5" y="50"></rect><text x="166.25" y="65">&apos;[&apos;</text></g><path d="M189.0 61a10 10 0 0 0 10 -10v-10a10 10 0 0 1 10 -10" /><path d="M123.5 31a10 10 0 0 1 10 10v40a10 10 0 0 0 10 10" /><g class="terminal ">
<path d="M143.5 91h0.0" /><path d="M189.0 91h0.0" /><rect height="22" rx="10" ry="10" width="45.5" x="143.5" y="80"></rect><text x="166.25" y="95">&apos;.&apos;</text></g><path d="M189.0 91a10 10 0 0 0 10 -10v-40a10 10 0 0 1 10 -10" /></g><path d="M 209.0 31 h 20 m -10 -10 v 20 m 10 -20 v 20"></path></g><style>/* <![CDATA[ */
	svg.railroad-diagram {
		background-color:hsl(30,20%,95%);
	}
	svg.railroad-diagram path {
		stroke-width:3;
		stroke:black;
		fill:rgba(0,0,0,0);
	}
	svg.railroad-diagram text {
		font:bold 14px monospace;
		text-anchor:middle;
	}
	svg.railroad-diagram text.label{
		text-anchor:start;
	}
	svg.railroad-diagram text.comment{
		font:italic 12px monospace;
	}
	svg.railroad-diagram rect{
		stroke-width:3;
		stroke:black;
		fill:hsl(120,100%,90%);
	}
	svg.railroad-diagram rect.group-box {
		stroke: gray;
		stroke-dasharray: 10 5;
		fill: none;
	}

/* ]]> */
</style></svg>