<svg class="railroad-diagram" height="191" viewBox="0 0 580.5 191" width="580.5" xmlns="http://www.w3.org/2000/svg" xmlns:xlink="http://www.w3.org/1999/xlink">
<g transform="translate(.5 .5)">
<g>
<path d="M20 21v20m10 -20v20m-10 -10h86.5" /><text style="text-anchor:start" x="20" y="16">t_primary</text></g><g>
<path d="M106.5 31h0.0" /><path d="M540.5 31h0.0" /><path d="M106.5 31h20" /><g>
<path d="M126.5 31h0.0" /><path d="M520.5 31h0.0" /><g class="non-terminal ">
<path d="M126.5 31h0.0" /><path d="M223.0 31h0.0" /><rect height="22" width="96.5" x="126.5" y="20"></rect><text x="174.75" y="35">t_primary</text></g><path d="M223.0 31h10" /><g>
<path d="M233.0 31h0.0" /><path d="M520.5 31h0.0" /><path d="M233.0 31h20" /><g>
<path d="M253.0 31h64.0" /><path d="M436.5 31h64.0" /><g class="terminal ">
<path d="M317.0 31h0.0" /><path d="M362.5 31h0.0" /><rect height="22" rx="10" ry="10" width="45.5" x="317" y="20"></rect><text x="339.75" y="35">&apos;.&apos;</text></g><path d="M362.5 31h10" /><path d="M372.5 31h10" /><g class="terminal ">
<path d="M382.5 31h0.0" /><path d="M436.5 31h0.0" /><rect height="22" rx="10" ry="10" width="54" x="382.5" y="20"></rect><text x="409.5" y="35">NAME</text></g></g><path d="M500.5 31h20" /><path d="M233.0 31a10 10 0 0 1 10 10v10a10 10 0 0 0 10 10" /><g>
<path d="M253.0 61h22.75" /><path d="M477.75 61h22.75" /><g class="terminal ">
<path d="M275.75 61h0.0" /><path d="M321.25 61h0.0" /><rect height="22" rx="10" ry="10" width="45.5" x="275.75" y="50"></rect><text x="298.5" y="65">&apos;[&apos;</text></g><path d="M321.25 61h10" /><path d="M331.25 61h10" /><g class="non-terminal ">
<path d="M341.25 61h0.0" /><path d="M412.25 61h0.0" /><rect height="22" width="71" x="341.25" y="50"></rect><text x="376.75" y="65">slices</text></g><path d="M412.25 61h10" /><path d="M422.25 61h10" /><g class="terminal ">
<path d="M432.25 61h0.0" /><path d="M477.75 61h0.0" /><rect height="22" rx="10" ry="10" width="45.5" x="432.25" y="50"></rect><text x="455" y="65">&apos;]&apos;</text></g></g><path d="M500.5 61a10 10 0 0 0 10 -10v-10a10 10 0 0 1 10 -10" /><path d="M233.0 31a10 10 0 0 1 10 10v40a10 10 0 0 0 10 10" /><g class="non-terminal ">
<path d="M253.0 91h88.25" /><path d="M412.25 91h88.25" /><rect height="22" width="71" x="341.25" y="80"></rect><text x="376.75" y="95">genexp</text></g><path d="M500.5 91a10 10 0 0 0 10 -10v-40a10 10 0 0 1 10 -10" /><path d="M233.0 31a10 10 0 0 1 10 10v79a10 10 0 0 0 10 10" /><g>
<path d="M253.0 130h0.0" /><path d="M500.5 130h0.0" /><g class="terminal ">
<path d="M253.0 130h0.0" /><path d="M298.5 130h0.0" /><rect height="22" rx="10" ry="10" width="45.5" x="253" y="119"></rect><text x="275.75" y="134">&apos;(&apos;</text></g><path d="M298.5 130h10" /><g>
<path d="M308.5 130h0.0" /><path d="M445.0 130h0.0" /><path d="M308.5 130a10 10 0 0 0 10 -10v0a10 10 0 0 1 10 -10" /><g>
<path d="M328.5 110h96.5" /></g><path d="M425.0 110a10 10 0 0 1 10 10v0a10 10 0 0 0 10 10" /><path d="M308.5 130h20" /><g class="non-terminal ">
<path d="M328.5 130h0.0" /><path d="M425.0 130h0.0" /><rect height="22" width="96.5" x="328.5" y="119"></rect><text x="376.75" y="134">arguments</text></g><path d="M425.0 130h20" /></g><path d="M445.0 130h10" /><g class="terminal ">
<path d="M455.0 130h0.0" /><path d="M500.5 130h0.0" /><rect height="22" rx="10" ry="10" width="45.5" x="455" y="119"></rect><text x="477.75" y="134">&apos;)&apos;</text></g></g><path d="M500.5 130a10 10 0 0 0 10 -10v-79a10 10 0 0 1 10 -10" /></g></g><path d="M520.5 31h20" /><path d="M106.5 31a10 10 0 0 1 10 10v109a10 10 0 0 0 10 10" /><g class="non-terminal ">
<path d="M126.5 160h170.0" /><path d="M350.5 160h170.0" /><rect height="22" width="54" x="296.5" y="149"></rect><text x="323.5" y="164">atom</text></g><path d="M520.5 160a10 10 0 0 0 10 -10v-109a10 10 0 0 1 10 -10" /></g><path d="M 540.5 31 h 20 m -10 -10 v 20 m 10 -20 v 20"></path></g><style>/* <![CDATA[ */
	svg.railroad-diagram {
		background-color:hsl(30,20%,95%);
	}
	svg.railroad-diagram path {
		stroke-width:3;
		stroke:black;
		fill:rgba(0,0,0,0);
	}
	svg.railroad-diagram text {
		font:bold 14px monospace;
		text-anchor:middle;
	}
	svg.railroad-diagram text.label{
		text-anchor:start;
	}
	svg.railroad-diagram text.comment{
		font:italic 12px monospace;
	}
	svg.railroad-diagram rect{
		stroke-width:3;
		stroke:black;
		fill:hsl(120,100%,90%);
	}
	svg.railroad-diagram rect.group-box {
		stroke: gray;
		stroke-dasharray: 10 5;
		fill: none;
	}

/* ]]> */
</style></svg>