<svg class="railroad-diagram" height="122" viewBox="0 0 468.5 122" width="468.5" xmlns="http://www.w3.org/2000/svg" xmlns:xlink="http://www.w3.org/1999/xlink">
<g transform="translate(.5 .5)">
<g>
<path d="M20 21v20m10 -20v20m-10 -10h20" /></g><g>
<path d="M40 31h0.0" /><path d="M428.5 31h0.0" /><path d="M40.0 31h20" /><g>
<path d="M60.0 31h0.0" /><path d="M408.5 31h0.0" /><g class="non-terminal ">
<path d="M60.0 31h0.0" /><path d="M156.5 31h0.0" /><rect height="22" width="96.5" x="60" y="20"></rect><text x="108.25" y="35">t_primary</text></g><path d="M156.5 31h10" /><g>
<path d="M166.5 31h0.0" /><path d="M408.5 31h0.0" /><path d="M166.5 31h20" /><g>
<path d="M186.5 31h41.25" /><path d="M347.25 31h41.25" /><g class="terminal ">
<path d="M227.75 31h0.0" /><path d="M273.25 31h0.0" /><rect height="22" rx="10" ry="10" width="45.5" x="227.75" y="20"></rect><text x="250.5" y="35">&apos;.&apos;</text></g><path d="M273.25 31h10" /><path d="M283.25 31h10" /><g class="terminal ">
<path d="M293.25 31h0.0" /><path d="M347.25 31h0.0" /><rect height="22" rx="10" ry="10" width="54" x="293.25" y="20"></rect><text x="320.25" y="35">NAME</text></g></g><path d="M388.5 31h20" /><path d="M166.5 31a10 10 0 0 1 10 10v10a10 10 0 0 0 10 10" /><g>
<path d="M186.5 61h0.0" /><path d="M388.5 61h0.0" /><g class="terminal ">
<path d="M186.5 61h0.0" /><path d="M232.0 61h0.0" /><rect height="22" rx="10" ry="10" width="45.5" x="186.5" y="50"></rect><text x="209.25" y="65">&apos;[&apos;</text></g><path d="M232.0 61h10" /><path d="M242.0 61h10" /><g class="non-terminal ">
<path d="M252.0 61h0.0" /><path d="M323.0 61h0.0" /><rect height="22" width="71" x="252" y="50"></rect><text x="287.5" y="65">slices</text></g><path d="M323.0 61h10" /><path d="M333.0 61h10" /><g class="terminal ">
<path d="M343.0 61h0.0" /><path d="M388.5 61h0.0" /><rect height="22" rx="10" ry="10" width="45.5" x="343" y="50"></rect><text x="365.75" y="65">&apos;]&apos;</text></g></g><path d="M388.5 61a10 10 0 0 0 10 -10v-10a10 10 0 0 1 10 -10" /></g></g><path d="M408.5 31h20" /><path d="M40.0 31a10 10 0 0 1 10 10v40a10 10 0 0 0 10 10" /><g class="non-terminal ">
<path d="M60.0 91h126.0" /><path d="M282.5 91h126.0" /><rect height="22" width="96.5" x="186" y="80"></rect><text x="234.25" y="95">star_atom</text></g><path d="M408.5 91a10 10 0 0 0 10 -10v-40a10 10 0 0 1 10 -10" /></g><path d="M 428.5 31 h 20 m -10 -10 v 20 m 10 -20 v 20"></path></g><style>/* <![CDATA[ */
	svg.railroad-diagram {
		background-color:hsl(30,20%,95%);
	}
	svg.railroad-diagram path {
		stroke-width:3;
		stroke:black;
		fill:rgba(0,0,0,0);
	}
	svg.railroad-diagram text {
		font:bold 14px monospace;
		text-anchor:middle;
	}
	svg.railroad-diagram text.label{
		text-anchor:start;
	}
	svg.railroad-diagram text.comment{
		font:italic 12px monospace;
	}
	svg.railroad-diagram rect{
		stroke-width:3;
		stroke:black;
		fill:hsl(120,100%,90%);
	}
	svg.railroad-diagram rect.group-box {
		stroke: gray;
		stroke-dasharray: 10 5;
		fill: none;
	}

/* ]]> */
</style></svg>