<svg class="railroad-diagram" height="231" viewBox="0 0 624.0 231" width="624.0" xmlns="http://www.w3.org/2000/svg" xmlns:xlink="http://www.w3.org/1999/xlink">
<g transform="translate(.5 .5)">
<g>
<path d="M20 62v20m10 -20v20m-10 -10h20" /></g><path d="M40 72h10" /><g>
<path d="M50 72h0.0" /><path d="M574.0 72h0.0" /><g>
<path d="M50.0 72h0.0" /><path d="M493.0 72h0.0" /><path d="M50.0 72a10 10 0 0 0 10 -10v-32a10 10 0 0 1 10 -10" /><g>
<path d="M70.0 20h403.0" /></g><path d="M473.0 20a10 10 0 0 1 10 10v32a10 10 0 0 0 10 10" /><path d="M50.0 72h20" /><g>
<path d="M70.0 72h0.0" /><path d="M473.0 72h0.0" /><g>
<path d="M70.0 72h0.0" /><path d="M369.0 72h0.0" /><rect class="group-box" height="167" rx="10" ry="10" width="299" x="70" y="44"></rect><g>
<path d="M70.0 72h10.0" /><path d="M359.0 72h10.0" /><g>
<path d="M80.0 72h0.0" /><path d="M278.0 72h0.0" /><path d="M80.0 72a10 10 0 0 0 10 -10v0a10 10 0 0 1 10 -10" /><g>
<path d="M100.0 52h158.0" /></g><path d="M258.0 52a10 10 0 0 1 10 10v0a10 10 0 0 0 10 10" /><path d="M80.0 72h20" /><g>
<path d="M100.0 72h0.0" /><path d="M258.0 72h0.0" /><g class="non-terminal ">
<path d="M100.0 72h0.0" /><path d="M154.0 72h0.0" /><rect height="22" width="54" x="100" y="61"></rect><text x="127" y="76">term</text></g><path d="M154.0 72h10" /><g>
<path d="M164.0 72h0.0" /><path d="M258.0 72h0.0" /><path d="M164.0 72h20" /><g class="terminal ">
<path d="M184.0 72h4.25" /><path d="M233.75 72h4.25" /><rect height="22" rx="10" ry="10" width="45.5" x="188.25" y="61"></rect><text x="211" y="76">&apos;*&apos;</text></g><path d="M238.0 72h20" /><path d="M164.0 72a10 10 0 0 1 10 10v10a10 10 0 0 0 10 10" /><g class="terminal ">
<path d="M184.0 102h4.25" /><path d="M233.75 102h4.25" /><rect height="22" rx="10" ry="10" width="45.5" x="188.25" y="91"></rect><text x="211" y="106">&apos;/&apos;</text></g><path d="M238.0 102a10 10 0 0 0 10 -10v-10a10 10 0 0 1 10 -10" /><path d="M164.0 72a10 10 0 0 1 10 10v40a10 10 0 0 0 10 10" /><g class="terminal ">
<path d="M184.0 132h0.0" /><path d="M238.0 132h0.0" /><rect height="22" rx="10" ry="10" width="54" x="184" y="121"></rect><text x="211" y="136">&apos;//&apos;</text></g><path d="M238.0 132a10 10 0 0 0 10 -10v-40a10 10 0 0 1 10 -10" /><path d="M164.0 72a10 10 0 0 1 10 10v70a10 10 0 0 0 10 10" /><g class="terminal ">
<path d="M184.0 162h4.25" /><path d="M233.75 162h4.25" /><rect height="22" rx="10" ry="10" width="45.5" x="188.25" y="151"></rect><text x="211" y="166">&apos;%&apos;</text></g><path d="M238.0 162a10 10 0 0 0 10 -10v-70a10 10 0 0 1 10 -10" /><path d="M164.0 72a10 10 0 0 1 10 10v100a10 10 0 0 0 10 10" /><g class="terminal ">
<path d="M184.0 192h4.25" /><path d="M233.75 192h4.25" /><rect height="22" rx="10" ry="10" width="45.5" x="188.25" y="181"></rect><text x="211" y="196">&apos;@&apos;</text></g><path d="M238.0 192a10 10 0 0 0 10 -10v-100a10 10 0 0 1 10 -10" /></g></g><path d="M258.0 72h20" /></g><path d="M278.0 72h10" /><g class="non-terminal ">
<path d="M288.0 72h0.0" /><path d="M359.0 72h0.0" /><rect height="22" width="71" x="288" y="61"></rect><text x="323.5" y="76">factor</text></g></g><g class="non-terminal ">
<path d="M70.0 36h0.0" /><path d="M108.0 36h0.0" /><text class="comment" x="89" y="41">term</text></g></g><path d="M369.0 72h10" /><g>
<path d="M379.0 72h0.0" /><path d="M473.0 72h0.0" /><path d="M379.0 72h20" /><g class="terminal ">
<path d="M399.0 72h4.25" /><path d="M448.75 72h4.25" /><rect height="22" rx="10" ry="10" width="45.5" x="403.25" y="61"></rect><text x="426" y="76">&apos;*&apos;</text></g><path d="M453.0 72h20" /><path d="M379.0 72a10 10 0 0 1 10 10v10a10 10 0 0 0 10 10" /><g class="terminal ">
<path d="M399.0 102h4.25" /><path d="M448.75 102h4.25" /><rect height="22" rx="10" ry="10" width="45.5" x="403.25" y="91"></rect><text x="426" y="106">&apos;/&apos;</text></g><path d="M453.0 102a10 10 0 0 0 10 -10v-10a10 10 0 0 1 10 -10" /><path d="M379.0 72a10 10 0 0 1 10 10v40a10 10 0 0 0 10 10" /><g class="terminal ">
<path d="M399.0 132h0.0" /><path d="M453.0 132h0.0" /><rect height="22" rx="10" ry="10" width="54" x="399" y="121"></rect><text x="426" y="136">&apos;//&apos;</text></g><path d="M453.0 132a10 10 0 0 0 10 -10v-40a10 10 0 0 1 10 -10" /><path d="M379.0 72a10 10 0 0 1 10 10v70a10 10 0 0 0 10 10" /><g class="terminal ">
<path d="M399.0 162h4.25" /><path d="M448.75 162h4.25" /><rect height="22" rx="10" ry="10" width="45.5" x="403.25" y="151"></rect><text x="426" y="166">&apos;%&apos;</text></g><path d="M453.0 162a10 10 0 0 0 10 -10v-70a10 10 0 0 1 10 -10" /><path d="M379.0 72a10 10 0 0 1 10 10v100a10 10 0 0 0 10 10" /><g class="terminal ">
<path d="M399.0 192h4.25" /><path d="M448.75 192h4.25" /><rect height="22" rx="10" ry="10" width="45.5" x="403.25" y="181"></rect><text x="426" y="196">&apos;@&apos;</text></g><path d="M453.0 192a10 10 0 0 0 10 -10v-100a10 10 0 0 1 10 -10" /></g></g><path d="M473.0 72h20" /></g><path d="M493.0 72h10" /><g class="non-terminal ">
<path d="M503.0 72h0.0" /><path d="M574.0 72h0.0" /><rect height="22" width="71" x="503" y="61"></rect><text x="538.5" y="76">factor</text></g></g><path d="M574.0 72h10" /><path d="M 584.0 72 h 20 m -10 -10 v 20 m 10 -20 v 20"></path></g><style>/* <![CDATA[ */
	svg.railroad-diagram {
		background-color:hsl(30,20%,95%);
	}
	svg.railroad-diagram path {
		stroke-width:3;
		stroke:black;
		fill:rgba(0,0,0,0);
	}
	svg.railroad-diagram text {
		font:bold 14px monospace;
		text-anchor:middle;
	}
	svg.railroad-diagram text.label{
		text-anchor:start;
	}
	svg.railroad-diagram text.comment{
		font:italic 12px monospace;
	}
	svg.railroad-diagram rect{
		stroke-width:3;
		stroke:black;
		fill:hsl(120,100%,90%);
	}
	svg.railroad-diagram rect.group-box {
		stroke: gray;
		stroke-dasharray: 10 5;
		fill: none;
	}

/* ]]> */
</style></svg>