<svg class="railroad-diagram" height="149" viewBox="0 0 958.5 149" width="958.5" xmlns="http://www.w3.org/2000/svg" xmlns:xlink="http://www.w3.org/1999/xlink">
<g transform="translate(.5 .5)">
<g>
<path d="M20 21v20m10 -20v20m-10 -10h78.0" /><text style="text-anchor:start" x="20" y="16">try_stmt</text></g><path d="M98.0 31h10" /><g>
<path d="M108.0 31h0.0" /><path d="M908.5 31h0.0" /><g class="terminal ">
<path d="M108.0 31h0.0" /><path d="M170.5 31h0.0" /><rect height="22" rx="10" ry="10" width="62.5" x="108" y="20"></rect><text x="139.25" y="35">&apos;try&apos;</text></g><path d="M170.5 31h10" /><path d="M180.5 31h10" /><g class="terminal ">
<path d="M190.5 31h0.0" /><path d="M236.0 31h0.0" /><rect height="22" rx="10" ry="10" width="45.5" x="190.5" y="20"></rect><text x="213.25" y="35">&apos;:&apos;</text></g><path d="M236.0 31h10" /><path d="M246.0 31h10" /><g class="non-terminal ">
<path d="M256.0 31h0.0" /><path d="M318.5 31h0.0" /><rect height="22" width="62.5" x="256" y="20"></rect><text x="287.25" y="35">block</text></g><path d="M318.5 31h10" /><g>
<path d="M328.5 31h0.0" /><path d="M908.5 31h0.0" /><path d="M328.5 31h20" /><g class="non-terminal ">
<path d="M348.5 31h204.75" /><path d="M683.75 31h204.75" /><rect height="22" width="130.5" x="553.25" y="20"></rect><text x="618.5" y="35">finally_block</text></g><path d="M888.5 31h20" /><path d="M328.5 31a10 10 0 0 1 10 10v19a10 10 0 0 0 10 10" /><g>
<path d="M348.5 70h0.0" /><path d="M888.5 70h0.0" /><g>
<path d="M348.5 70h0.0" /><path d="M573.0 70h0.0" /><path d="M348.5 70h20" /><g>
<path d="M368.5 70h21.25" /><path d="M531.75 70h21.25" /><path d="M389.75 70h10" /><g class="non-terminal ">
<path d="M399.75 70h0.0" /><path d="M521.75 70h0.0" /><rect height="22" width="122" x="399.75" y="59"></rect><text x="460.75" y="74">except_block</text></g><path d="M521.75 70h10" /><path d="M399.75 70a10 10 0 0 0 -10 10v0a10 10 0 0 0 10 10" /><g>
<path d="M399.75 90h122.0" /></g><path d="M521.75 90a10 10 0 0 0 10 -10v0a10 10 0 0 0 -10 -10" /></g><path d="M553.0 70h20" /><path d="M348.5 70a10 10 0 0 1 10 10v19a10 10 0 0 0 10 10" /><g>
<path d="M368.5 109h0.0" /><path d="M553.0 109h0.0" /><path d="M368.5 109h10" /><g class="non-terminal ">
<path d="M378.5 109h0.0" /><path d="M543.0 109h0.0" /><rect height="22" width="164.5" x="378.5" y="98"></rect><text x="460.75" y="113">except_star_block</text></g><path d="M543.0 109h10" /><path d="M378.5 109a10 10 0 0 0 -10 10v0a10 10 0 0 0 10 10" /><g>
<path d="M378.5 129h164.5" /></g><path d="M543.0 129a10 10 0 0 0 10 -10v0a10 10 0 0 0 -10 -10" /></g><path d="M553.0 109a10 10 0 0 0 10 -10v-19a10 10 0 0 1 10 -10" /></g><g>
<path d="M573.0 70h0.0" /><path d="M718.0 70h0.0" /><path d="M573.0 70a10 10 0 0 0 10 -10v0a10 10 0 0 1 10 -10" /><g>
<path d="M593.0 50h105.0" /></g><path d="M698.0 50a10 10 0 0 1 10 10v0a10 10 0 0 0 10 10" /><path d="M573.0 70h20" /><g class="non-terminal ">
<path d="M593.0 70h0.0" /><path d="M698.0 70h0.0" /><rect height="22" width="105" x="593" y="59"></rect><text x="645.5" y="74">else_block</text></g><path d="M698.0 70h20" /></g><g>
<path d="M718.0 70h0.0" /><path d="M888.5 70h0.0" /><path d="M718.0 70a10 10 0 0 0 10 -10v0a10 10 0 0 1 10 -10" /><g>
<path d="M738.0 50h130.5" /></g><path d="M868.5 50a10 10 0 0 1 10 10v0a10 10 0 0 0 10 10" /><path d="M718.0 70h20" /><g class="non-terminal ">
<path d="M738.0 70h0.0" /><path d="M868.5 70h0.0" /><rect height="22" width="130.5" x="738" y="59"></rect><text x="803.25" y="74">finally_block</text></g><path d="M868.5 70h20" /></g></g><path d="M888.5 70a10 10 0 0 0 10 -10v-19a10 10 0 0 1 10 -10" /></g></g><path d="M908.5 31h10" /><path d="M 918.5 31 h 20 m -10 -10 v 20 m 10 -20 v 20"></path></g><style>/* <![CDATA[ */
	svg.railroad-diagram {
		background-color:hsl(30,20%,95%);
	}
	svg.railroad-diagram path {
		stroke-width:3;
		stroke:black;
		fill:rgba(0,0,0,0);
	}
	svg.railroad-diagram text {
		font:bold 14px monospace;
		text-anchor:middle;
	}
	svg.railroad-diagram text.label{
		text-anchor:start;
	}
	svg.railroad-diagram text.comment{
		font:italic 12px monospace;
	}
	svg.railroad-diagram rect{
		stroke-width:3;
		stroke:black;
		fill:hsl(120,100%,90%);
	}
	svg.railroad-diagram rect.group-box {
		stroke: gray;
		stroke-dasharray: 10 5;
		fill: none;
	}

/* ]]> */
</style></svg>