<svg class="railroad-diagram" height="149" viewBox="0 0 900.5 149" width="900.5" xmlns="http://www.w3.org/2000/svg" xmlns:xlink="http://www.w3.org/1999/xlink">
<g transform="translate(.5 .5)">
<g>
<path d="M20 21v20m10 -20v20m-10 -10h20" /></g><path d="M40 31h10" /><g>
<path d="M50 31h0.0" /><path d="M850.5 31h0.0" /><g class="terminal ">
<path d="M50.0 31h0.0" /><path d="M112.5 31h0.0" /><rect height="22" rx="10" ry="10" width="62.5" x="50" y="20"></rect><text x="81.25" y="35">&apos;try&apos;</text></g><path d="M112.5 31h10" /><path d="M122.5 31h10" /><g class="terminal ">
<path d="M132.5 31h0.0" /><path d="M178.0 31h0.0" /><rect height="22" rx="10" ry="10" width="45.5" x="132.5" y="20"></rect><text x="155.25" y="35">&apos;:&apos;</text></g><path d="M178.0 31h10" /><path d="M188.0 31h10" /><g class="non-terminal ">
<path d="M198.0 31h0.0" /><path d="M260.5 31h0.0" /><rect height="22" width="62.5" x="198" y="20"></rect><text x="229.25" y="35">block</text></g><path d="M260.5 31h10" /><g>
<path d="M270.5 31h0.0" /><path d="M850.5 31h0.0" /><path d="M270.5 31h20" /><g class="non-terminal ">
<path d="M290.5 31h204.75" /><path d="M625.75 31h204.75" /><rect height="22" width="130.5" x="495.25" y="20"></rect><text x="560.5" y="35">finally_block</text></g><path d="M830.5 31h20" /><path d="M270.5 31a10 10 0 0 1 10 10v19a10 10 0 0 0 10 10" /><g>
<path d="M290.5 70h0.0" /><path d="M830.5 70h0.0" /><g>
<path d="M290.5 70h0.0" /><path d="M515.0 70h0.0" /><path d="M290.5 70h20" /><g>
<path d="M310.5 70h21.25" /><path d="M473.75 70h21.25" /><path d="M331.75 70h10" /><g class="non-terminal ">
<path d="M341.75 70h0.0" /><path d="M463.75 70h0.0" /><rect height="22" width="122" x="341.75" y="59"></rect><text x="402.75" y="74">except_block</text></g><path d="M463.75 70h10" /><path d="M341.75 70a10 10 0 0 0 -10 10v0a10 10 0 0 0 10 10" /><g>
<path d="M341.75 90h122.0" /></g><path d="M463.75 90a10 10 0 0 0 10 -10v0a10 10 0 0 0 -10 -10" /></g><path d="M495.0 70h20" /><path d="M290.5 70a10 10 0 0 1 10 10v19a10 10 0 0 0 10 10" /><g>
<path d="M310.5 109h0.0" /><path d="M495.0 109h0.0" /><path d="M310.5 109h10" /><g class="non-terminal ">
<path d="M320.5 109h0.0" /><path d="M485.0 109h0.0" /><rect height="22" width="164.5" x="320.5" y="98"></rect><text x="402.75" y="113">except_star_block</text></g><path d="M485.0 109h10" /><path d="M320.5 109a10 10 0 0 0 -10 10v0a10 10 0 0 0 10 10" /><g>
<path d="M320.5 129h164.5" /></g><path d="M485.0 129a10 10 0 0 0 10 -10v0a10 10 0 0 0 -10 -10" /></g><path d="M495.0 109a10 10 0 0 0 10 -10v-19a10 10 0 0 1 10 -10" /></g><g>
<path d="M515.0 70h0.0" /><path d="M660.0 70h0.0" /><path d="M515.0 70a10 10 0 0 0 10 -10v0a10 10 0 0 1 10 -10" /><g>
<path d="M535.0 50h105.0" /></g><path d="M640.0 50a10 10 0 0 1 10 10v0a10 10 0 0 0 10 10" /><path d="M515.0 70h20" /><g class="non-terminal ">
<path d="M535.0 70h0.0" /><path d="M640.0 70h0.0" /><rect height="22" width="105" x="535" y="59"></rect><text x="587.5" y="74">else_block</text></g><path d="M640.0 70h20" /></g><g>
<path d="M660.0 70h0.0" /><path d="M830.5 70h0.0" /><path d="M660.0 70a10 10 0 0 0 10 -10v0a10 10 0 0 1 10 -10" /><g>
<path d="M680.0 50h130.5" /></g><path d="M810.5 50a10 10 0 0 1 10 10v0a10 10 0 0 0 10 10" /><path d="M660.0 70h20" /><g class="non-terminal ">
<path d="M680.0 70h0.0" /><path d="M810.5 70h0.0" /><rect height="22" width="130.5" x="680" y="59"></rect><text x="745.25" y="74">finally_block</text></g><path d="M810.5 70h20" /></g></g><path d="M830.5 70a10 10 0 0 0 10 -10v-19a10 10 0 0 1 10 -10" /></g></g><path d="M850.5 31h10" /><path d="M 860.5 31 h 20 m -10 -10 v 20 m 10 -20 v 20"></path></g><style>/* <![CDATA[ */
	svg.railroad-diagram {
		background-color:hsl(30,20%,95%);
	}
	svg.railroad-diagram path {
		stroke-width:3;
		stroke:black;
		fill:rgba(0,0,0,0);
	}
	svg.railroad-diagram text {
		font:bold 14px monospace;
		text-anchor:middle;
	}
	svg.railroad-diagram text.label{
		text-anchor:start;
	}
	svg.railroad-diagram text.comment{
		font:italic 12px monospace;
	}
	svg.railroad-diagram rect{
		stroke-width:3;
		stroke:black;
		fill:hsl(120,100%,90%);
	}
	svg.railroad-diagram rect.group-box {
		stroke: gray;
		stroke-dasharray: 10 5;
		fill: none;
	}

/* ]]> */
</style></svg>