<svg class="railroad-diagram" height="79" viewBox="0 0 772.0 79" width="772.0" xmlns="http://www.w3.org/2000/svg" xmlns:xlink="http://www.w3.org/1999/xlink">
<g transform="translate(.5 .5)">
<g>
<path d="M20 38v20m10 -20v20m-10 -10h20" /></g><path d="M40 48h10" /><g>
<path d="M50 48h0.0" /><path d="M722.0 48h0.0" /><g class="terminal ">
<path d="M50.0 48h0.0" /><path d="M95.5 48h0.0" /><rect height="22" rx="10" ry="10" width="45.5" x="50" y="37"></rect><text x="72.75" y="52">&apos;(&apos;</text></g><path d="M95.5 48h10" /><g>
<path d="M105.5 48h0.0" /><path d="M666.5 48h0.0" /><path d="M105.5 48a10 10 0 0 0 10 -10v-8a10 10 0 0 1 10 -10" /><g>
<path d="M125.5 20h521.0" /></g><path d="M646.5 20a10 10 0 0 1 10 10v8a10 10 0 0 0 10 10" /><path d="M105.5 48h20" /><g>
<path d="M125.5 48h0.0" /><path d="M646.5 48h0.0" /><g class="non-terminal ">
<path d="M125.5 48h0.0" /><path d="M324.0 48h0.0" /><rect height="22" width="198.5" x="125.5" y="37"></rect><text x="224.75" y="52">star_named_expression</text></g><path d="M324.0 48h10" /><path d="M334.0 48h10" /><g class="terminal ">
<path d="M344.0 48h0.0" /><path d="M389.5 48h0.0" /><rect height="22" rx="10" ry="10" width="45.5" x="344" y="37"></rect><text x="366.75" y="52">&apos;,&apos;</text></g><path d="M389.5 48h10" /><g>
<path d="M399.5 48h0.0" /><path d="M646.5 48h0.0" /><path d="M399.5 48a10 10 0 0 0 10 -10v0a10 10 0 0 1 10 -10" /><g>
<path d="M419.5 28h207.0" /></g><path d="M626.5 28a10 10 0 0 1 10 10v0a10 10 0 0 0 10 10" /><path d="M399.5 48h20" /><g class="non-terminal ">
<path d="M419.5 48h0.0" /><path d="M626.5 48h0.0" /><rect height="22" width="207" x="419.5" y="37"></rect><text x="523" y="52">star_named_expressions</text></g><path d="M626.5 48h20" /></g></g><path d="M646.5 48h20" /></g><path d="M666.5 48h10" /><g class="terminal ">
<path d="M676.5 48h0.0" /><path d="M722.0 48h0.0" /><rect height="22" rx="10" ry="10" width="45.5" x="676.5" y="37"></rect><text x="699.25" y="52">&apos;)&apos;</text></g></g><path d="M722.0 48h10" /><path d="M 732.0 48 h 20 m -10 -10 v 20 m 10 -20 v 20"></path></g><style>/* <![CDATA[ */
	svg.railroad-diagram {
		background-color:hsl(30,20%,95%);
	}
	svg.railroad-diagram path {
		stroke-width:3;
		stroke:black;
		fill:rgba(0,0,0,0);
	}
	svg.railroad-diagram text {
		font:bold 14px monospace;
		text-anchor:middle;
	}
	svg.railroad-diagram text.label{
		text-anchor:start;
	}
	svg.railroad-diagram text.comment{
		font:italic 12px monospace;
	}
	svg.railroad-diagram rect{
		stroke-width:3;
		stroke:black;
		fill:hsl(120,100%,90%);
	}
	svg.railroad-diagram rect.group-box {
		stroke: gray;
		stroke-dasharray: 10 5;
		fill: none;
	}

/* ]]> */
</style></svg>