<svg class="railroad-diagram" height="79" viewBox="0 0 804.5 79" width="804.5" xmlns="http://www.w3.org/2000/svg" xmlns:xlink="http://www.w3.org/1999/xlink">
<g transform="translate(.5 .5)">
<g>
<path d="M20 38v20m10 -20v20m-10 -10h52.5" /><text style="text-anchor:start" x="20" y="33">tuple</text></g><path d="M72.5 48h10" /><g>
<path d="M82.5 48h0.0" /><path d="M754.5 48h0.0" /><g class="terminal ">
<path d="M82.5 48h0.0" /><path d="M128.0 48h0.0" /><rect height="22" rx="10" ry="10" width="45.5" x="82.5" y="37"></rect><text x="105.25" y="52">&apos;(&apos;</text></g><path d="M128.0 48h10" /><g>
<path d="M138.0 48h0.0" /><path d="M699.0 48h0.0" /><path d="M138.0 48a10 10 0 0 0 10 -10v-8a10 10 0 0 1 10 -10" /><g>
<path d="M158.0 20h521.0" /></g><path d="M679.0 20a10 10 0 0 1 10 10v8a10 10 0 0 0 10 10" /><path d="M138.0 48h20" /><g>
<path d="M158.0 48h0.0" /><path d="M679.0 48h0.0" /><g class="non-terminal ">
<path d="M158.0 48h0.0" /><path d="M356.5 48h0.0" /><rect height="22" width="198.5" x="158" y="37"></rect><text x="257.25" y="52">star_named_expression</text></g><path d="M356.5 48h10" /><path d="M366.5 48h10" /><g class="terminal ">
<path d="M376.5 48h0.0" /><path d="M422.0 48h0.0" /><rect height="22" rx="10" ry="10" width="45.5" x="376.5" y="37"></rect><text x="399.25" y="52">&apos;,&apos;</text></g><path d="M422.0 48h10" /><g>
<path d="M432.0 48h0.0" /><path d="M679.0 48h0.0" /><path d="M432.0 48a10 10 0 0 0 10 -10v0a10 10 0 0 1 10 -10" /><g>
<path d="M452.0 28h207.0" /></g><path d="M659.0 28a10 10 0 0 1 10 10v0a10 10 0 0 0 10 10" /><path d="M432.0 48h20" /><g class="non-terminal ">
<path d="M452.0 48h0.0" /><path d="M659.0 48h0.0" /><rect height="22" width="207" x="452" y="37"></rect><text x="555.5" y="52">star_named_expressions</text></g><path d="M659.0 48h20" /></g></g><path d="M679.0 48h20" /></g><path d="M699.0 48h10" /><g class="terminal ">
<path d="M709.0 48h0.0" /><path d="M754.5 48h0.0" /><rect height="22" rx="10" ry="10" width="45.5" x="709" y="37"></rect><text x="731.75" y="52">&apos;)&apos;</text></g></g><path d="M754.5 48h10" /><path d="M 764.5 48 h 20 m -10 -10 v 20 m 10 -20 v 20"></path></g><style>/* <![CDATA[ */
	svg.railroad-diagram {
		background-color:hsl(30,20%,95%);
	}
	svg.railroad-diagram path {
		stroke-width:3;
		stroke:black;
		fill:rgba(0,0,0,0);
	}
	svg.railroad-diagram text {
		font:bold 14px monospace;
		text-anchor:middle;
	}
	svg.railroad-diagram text.label{
		text-anchor:start;
	}
	svg.railroad-diagram text.comment{
		font:italic 12px monospace;
	}
	svg.railroad-diagram rect{
		stroke-width:3;
		stroke:black;
		fill:hsl(120,100%,90%);
	}
	svg.railroad-diagram rect.group-box {
		stroke: gray;
		stroke-dasharray: 10 5;
		fill: none;
	}

/* ]]> */
</style></svg>