<svg class="railroad-diagram" height="149" viewBox="0 0 605.0 149" width="605.0" xmlns="http://www.w3.org/2000/svg" xmlns:xlink="http://www.w3.org/1999/xlink">
<g transform="translate(.5 .5)">
<g>
<path d="M20 30v20m10 -20v20m-10 -10h20" /></g><g>
<path d="M40 40h0.0" /><path d="M565.0 40h0.0" /><path d="M40.0 40h20" /><g>
<path d="M60.0 40h0.0" /><path d="M545.0 40h0.0" /><g class="terminal ">
<path d="M60.0 40h0.0" /><path d="M114.0 40h0.0" /><rect height="22" rx="10" ry="10" width="54" x="60" y="29"></rect><text x="87" y="44">NAME</text></g><path d="M114.0 40h10" /><g>
<path d="M124.0 40h0.0" /><path d="M334.5 40h0.0" /><path d="M124.0 40a10 10 0 0 0 10 -10v0a10 10 0 0 1 10 -10" /><g>
<path d="M144.0 20h170.5" /></g><path d="M314.5 20a10 10 0 0 1 10 10v0a10 10 0 0 0 10 10" /><path d="M124.0 40h20" /><g>
<path d="M144.0 40h0.0" /><path d="M314.5 40h0.0" /><g class="terminal ">
<path d="M144.0 40h0.0" /><path d="M189.5 40h0.0" /><rect height="22" rx="10" ry="10" width="45.5" x="144" y="29"></rect><text x="166.75" y="44">&apos;:&apos;</text></g><path d="M189.5 40h10" /><path d="M199.5 40h10" /><g class="non-terminal ">
<path d="M209.5 40h0.0" /><path d="M314.5 40h0.0" /><rect height="22" width="105" x="209.5" y="29"></rect><text x="262" y="44">expression</text></g></g><path d="M314.5 40h20" /></g><g>
<path d="M334.5 40h0.0" /><path d="M545.0 40h0.0" /><path d="M334.5 40a10 10 0 0 0 10 -10v0a10 10 0 0 1 10 -10" /><g>
<path d="M354.5 20h170.5" /></g><path d="M525.0 20a10 10 0 0 1 10 10v0a10 10 0 0 0 10 10" /><path d="M334.5 40h20" /><g>
<path d="M354.5 40h0.0" /><path d="M525.0 40h0.0" /><g class="terminal ">
<path d="M354.5 40h0.0" /><path d="M400.0 40h0.0" /><rect height="22" rx="10" ry="10" width="45.5" x="354.5" y="29"></rect><text x="377.25" y="44">&apos;=&apos;</text></g><path d="M400.0 40h10" /><path d="M410.0 40h10" /><g class="non-terminal ">
<path d="M420.0 40h0.0" /><path d="M525.0 40h0.0" /><rect height="22" width="105" x="420" y="29"></rect><text x="472.5" y="44">expression</text></g></g><path d="M525.0 40h20" /></g></g><path d="M545.0 40h20" /><path d="M40.0 40a10 10 0 0 1 10 10v19a10 10 0 0 0 10 10" /><g>
<path d="M60.0 79h51.25" /><path d="M493.75 79h51.25" /><g class="terminal ">
<path d="M111.25 79h0.0" /><path d="M156.75 79h0.0" /><rect height="22" rx="10" ry="10" width="45.5" x="111.25" y="68"></rect><text x="134" y="83">&apos;*&apos;</text></g><path d="M156.75 79h10" /><path d="M166.75 79h10" /><g class="terminal ">
<path d="M176.75 79h0.0" /><path d="M230.75 79h0.0" /><rect height="22" rx="10" ry="10" width="54" x="176.75" y="68"></rect><text x="203.75" y="83">NAME</text></g><path d="M230.75 79h10" /><g>
<path d="M240.75 79h0.0" /><path d="M493.75 79h0.0" /><path d="M240.75 79a10 10 0 0 0 10 -10v0a10 10 0 0 1 10 -10" /><g>
<path d="M260.75 59h213.0" /></g><path d="M473.75 59a10 10 0 0 1 10 10v0a10 10 0 0 0 10 10" /><path d="M240.75 79h20" /><g>
<path d="M260.75 79h0.0" /><path d="M473.75 79h0.0" /><g class="terminal ">
<path d="M260.75 79h0.0" /><path d="M306.25 79h0.0" /><rect height="22" rx="10" ry="10" width="45.5" x="260.75" y="68"></rect><text x="283.5" y="83">&apos;=&apos;</text></g><path d="M306.25 79h10" /><path d="M316.25 79h10" /><g class="non-terminal ">
<path d="M326.25 79h0.0" /><path d="M473.75 79h0.0" /><rect height="22" width="147.5" x="326.25" y="68"></rect><text x="400" y="83">star_expression</text></g></g><path d="M473.75 79h20" /></g></g><path d="M545.0 79a10 10 0 0 0 10 -10v-19a10 10 0 0 1 10 -10" /><path d="M40.0 40a10 10 0 0 1 10 10v58a10 10 0 0 0 10 10" /><g>
<path d="M60.0 118h68.25" /><path d="M476.75 118h68.25" /><g class="terminal ">
<path d="M128.25 118h0.0" /><path d="M182.25 118h0.0" /><rect height="22" rx="10" ry="10" width="54" x="128.25" y="107"></rect><text x="155.25" y="122">&apos;**&apos;</text></g><path d="M182.25 118h10" /><path d="M192.25 118h10" /><g class="terminal ">
<path d="M202.25 118h0.0" /><path d="M256.25 118h0.0" /><rect height="22" rx="10" ry="10" width="54" x="202.25" y="107"></rect><text x="229.25" y="122">NAME</text></g><path d="M256.25 118h10" /><g>
<path d="M266.25 118h0.0" /><path d="M476.75 118h0.0" /><path d="M266.25 118a10 10 0 0 0 10 -10v0a10 10 0 0 1 10 -10" /><g>
<path d="M286.25 98h170.5" /></g><path d="M456.75 98a10 10 0 0 1 10 10v0a10 10 0 0 0 10 10" /><path d="M266.25 118h20" /><g>
<path d="M286.25 118h0.0" /><path d="M456.75 118h0.0" /><g class="terminal ">
<path d="M286.25 118h0.0" /><path d="M331.75 118h0.0" /><rect height="22" rx="10" ry="10" width="45.5" x="286.25" y="107"></rect><text x="309" y="122">&apos;=&apos;</text></g><path d="M331.75 118h10" /><path d="M341.75 118h10" /><g class="non-terminal ">
<path d="M351.75 118h0.0" /><path d="M456.75 118h0.0" /><rect height="22" width="105" x="351.75" y="107"></rect><text x="404.25" y="122">expression</text></g></g><path d="M456.75 118h20" /></g></g><path d="M545.0 118a10 10 0 0 0 10 -10v-58a10 10 0 0 1 10 -10" /></g><path d="M 565.0 40 h 20 m -10 -10 v 20 m 10 -20 v 20"></path></g><style>/* <![CDATA[ */
	svg.railroad-diagram {
		background-color:hsl(30,20%,95%);
	}
	svg.railroad-diagram path {
		stroke-width:3;
		stroke:black;
		fill:rgba(0,0,0,0);
	}
	svg.railroad-diagram text {
		font:bold 14px monospace;
		text-anchor:middle;
	}
	svg.railroad-diagram text.label{
		text-anchor:start;
	}
	svg.railroad-diagram text.comment{
		font:italic 12px monospace;
	}
	svg.railroad-diagram rect{
		stroke-width:3;
		stroke:black;
		fill:hsl(120,100%,90%);
	}
	svg.railroad-diagram rect.group-box {
		stroke: gray;
		stroke-dasharray: 10 5;
		fill: none;
	}

/* ]]> */
</style></svg>