<svg class="railroad-diagram" height="71" viewBox="0 0 664.0 71" width="664.0" xmlns="http://www.w3.org/2000/svg" xmlns:xlink="http://www.w3.org/1999/xlink">
<g transform="translate(.5 .5)">
<g>
<path d="M20 30v20m10 -20v20m-10 -10h95.0" /><text style="text-anchor:start" x="20" y="25">type_alias</text></g><path d="M115.0 40h10" /><g>
<path d="M125.0 40h0.0" /><path d="M614.0 40h0.0" /><g class="terminal ">
<path d="M125.0 40h0.0" /><path d="M196.0 40h0.0" /><rect height="22" rx="10" ry="10" width="71" x="125" y="29"></rect><text x="160.5" y="44">&quot;type&quot;</text></g><path d="M196.0 40h10" /><path d="M206.0 40h10" /><g class="terminal ">
<path d="M216.0 40h0.0" /><path d="M270.0 40h0.0" /><rect height="22" rx="10" ry="10" width="54" x="216" y="29"></rect><text x="243" y="44">NAME</text></g><path d="M270.0 40h10" /><g>
<path d="M280.0 40h0.0" /><path d="M433.5 40h0.0" /><path d="M280.0 40a10 10 0 0 0 10 -10v0a10 10 0 0 1 10 -10" /><g>
<path d="M300.0 20h113.5" /></g><path d="M413.5 20a10 10 0 0 1 10 10v0a10 10 0 0 0 10 10" /><path d="M280.0 40h20" /><g class="non-terminal ">
<path d="M300.0 40h0.0" /><path d="M413.5 40h0.0" /><rect height="22" width="113.5" x="300" y="29"></rect><text x="356.75" y="44">type_params</text></g><path d="M413.5 40h20" /></g><path d="M433.5 40h10" /><g class="terminal ">
<path d="M443.5 40h0.0" /><path d="M489.0 40h0.0" /><rect height="22" rx="10" ry="10" width="45.5" x="443.5" y="29"></rect><text x="466.25" y="44">&apos;=&apos;</text></g><path d="M489.0 40h10" /><path d="M499.0 40h10" /><g class="non-terminal ">
<path d="M509.0 40h0.0" /><path d="M614.0 40h0.0" /><rect height="22" width="105" x="509" y="29"></rect><text x="561.5" y="44">expression</text></g></g><path d="M614.0 40h10" /><path d="M 624.0 40 h 20 m -10 -10 v 20 m 10 -20 v 20"></path></g><style>/* <![CDATA[ */
	svg.railroad-diagram {
		background-color:hsl(30,20%,95%);
	}
	svg.railroad-diagram path {
		stroke-width:3;
		stroke:black;
		fill:rgba(0,0,0,0);
	}
	svg.railroad-diagram text {
		font:bold 14px monospace;
		text-anchor:middle;
	}
	svg.railroad-diagram text.label{
		text-anchor:start;
	}
	svg.railroad-diagram text.comment{
		font:italic 12px monospace;
	}
	svg.railroad-diagram rect{
		stroke-width:3;
		stroke:black;
		fill:hsl(120,100%,90%);
	}
	svg.railroad-diagram rect.group-box {
		stroke: gray;
		stroke-dasharray: 10 5;
		fill: none;
	}

/* ]]> */
</style></svg>