<svg class="railroad-diagram" height="124" viewBox="0 0 343.5 124" width="343.5" xmlns="http://www.w3.org/2000/svg" xmlns:xlink="http://www.w3.org/1999/xlink">
<g transform="translate(.5 .5)">
<g>
<path d="M20 45v20m10 -20v20m-10 -10h20" /></g><path d="M40 55h10" /><g>
<path d="M50 55h0.0" /><path d="M293.5 55h0.0" /><rect class="group-box" height="68" rx="10" ry="10" width="243.5" x="50" y="36"></rect><g>
<path d="M50.0 55h10.0" /><path d="M283.5 55h10.0" /><g>
<path d="M60.0 55h0.0" /><path d="M154.0 55h0.0" /><path d="M60.0 55h20" /><g class="non-terminal ">
<path d="M80.0 55h0.0" /><path d="M134.0 55h0.0" /><rect height="22" width="54" x="80" y="44"></rect><text x="107" y="59">attr</text></g><path d="M134.0 55h20" /><path d="M60.0 55a10 10 0 0 1 10 10v10a10 10 0 0 0 10 10" /><g class="terminal ">
<path d="M80.0 85h0.0" /><path d="M134.0 85h0.0" /><rect height="22" rx="10" ry="10" width="54" x="80" y="74"></rect><text x="107" y="89">NAME</text></g><path d="M134.0 85a10 10 0 0 0 10 -10v-10a10 10 0 0 1 10 -10" /></g><path d="M154.0 55h10" /><g class="terminal ">
<path d="M164.0 55h0.0" /><path d="M209.5 55h0.0" /><rect height="22" rx="10" ry="10" width="45.5" x="164" y="44"></rect><text x="186.75" y="59">&apos;.&apos;</text></g><path d="M209.5 55h10" /><path d="M219.5 55h10" /><g class="terminal ">
<path d="M229.5 55h0.0" /><path d="M283.5 55h0.0" /><rect height="22" rx="10" ry="10" width="54" x="229.5" y="44"></rect><text x="256.5" y="59">NAME</text></g></g><g class="non-terminal ">
<path d="M50.0 28h0.0" /><path d="M88.0 28h0.0" /><text class="comment" x="69" y="33">attr</text></g></g><path d="M293.5 55h10" /><path d="M 303.5 55 h 20 m -10 -10 v 20 m 10 -20 v 20"></path></g><style>/* <![CDATA[ */
	svg.railroad-diagram {
		background-color:hsl(30,20%,95%);
	}
	svg.railroad-diagram path {
		stroke-width:3;
		stroke:black;
		fill:rgba(0,0,0,0);
	}
	svg.railroad-diagram text {
		font:bold 14px monospace;
		text-anchor:middle;
	}
	svg.railroad-diagram text.label{
		text-anchor:start;
	}
	svg.railroad-diagram text.comment{
		font:italic 12px monospace;
	}
	svg.railroad-diagram rect{
		stroke-width:3;
		stroke:black;
		fill:hsl(120,100%,90%);
	}
	svg.railroad-diagram rect.group-box {
		stroke: gray;
		stroke-dasharray: 10 5;
		fill: none;
	}

/* ]]> */
</style></svg>