<svg class="railroad-diagram" height="71" viewBox="0 0 509.0 71" width="509.0" xmlns="http://www.w3.org/2000/svg" xmlns:xlink="http://www.w3.org/1999/xlink">
<g transform="translate(.5 .5)">
<g>
<path d="M20 30v20m10 -20v20m-10 -10h86.5" /><text style="text-anchor:start" x="20" y="25">with_item</text></g><path d="M106.5 40h10" /><g>
<path d="M116.5 40h0.0" /><path d="M459.0 40h0.0" /><g class="non-terminal ">
<path d="M116.5 40h0.0" /><path d="M221.5 40h0.0" /><rect height="22" width="105" x="116.5" y="29"></rect><text x="169" y="44">expression</text></g><path d="M221.5 40h10" /><g>
<path d="M231.5 40h0.0" /><path d="M459.0 40h0.0" /><path d="M231.5 40a10 10 0 0 0 10 -10v0a10 10 0 0 1 10 -10" /><g>
<path d="M251.5 20h187.5" /></g><path d="M439.0 20a10 10 0 0 1 10 10v0a10 10 0 0 0 10 10" /><path d="M231.5 40h20" /><g>
<path d="M251.5 40h0.0" /><path d="M439.0 40h0.0" /><g class="terminal ">
<path d="M251.5 40h0.0" /><path d="M305.5 40h0.0" /><rect height="22" rx="10" ry="10" width="54" x="251.5" y="29"></rect><text x="278.5" y="44">&apos;as&apos;</text></g><path d="M305.5 40h10" /><path d="M315.5 40h10" /><g class="non-terminal ">
<path d="M325.5 40h0.0" /><path d="M439.0 40h0.0" /><rect height="22" width="113.5" x="325.5" y="29"></rect><text x="382.25" y="44">star_target</text></g></g><path d="M439.0 40h20" /></g></g><path d="M459.0 40h10" /><path d="M 469.0 40 h 20 m -10 -10 v 20 m 10 -20 v 20"></path></g><style>/* <![CDATA[ */
	svg.railroad-diagram {
		background-color:hsl(30,20%,95%);
	}
	svg.railroad-diagram path {
		stroke-width:3;
		stroke:black;
		fill:rgba(0,0,0,0);
	}
	svg.railroad-diagram text {
		font:bold 14px monospace;
		text-anchor:middle;
	}
	svg.railroad-diagram text.label{
		text-anchor:start;
	}
	svg.railroad-diagram text.comment{
		font:italic 12px monospace;
	}
	svg.railroad-diagram rect{
		stroke-width:3;
		stroke:black;
		fill:hsl(120,100%,90%);
	}
	svg.railroad-diagram rect.group-box {
		stroke: gray;
		stroke-dasharray: 10 5;
		fill: none;
	}

/* ]]> */
</style></svg>