<svg class="railroad-diagram" height="101" viewBox="0 0 540.5 101" width="540.5" xmlns="http://www.w3.org/2000/svg" xmlns:xlink="http://www.w3.org/1999/xlink">
<g transform="translate(.5 .5)">
<g>
<path d="M20 30v20m10 -20v20m-10 -10h95.0" /><text style="text-anchor:start" x="20" y="25">yield_expr</text></g><path d="M115.0 40h10" /><g>
<path d="M125.0 40h0.0" /><path d="M490.5 40h0.0" /><g class="terminal ">
<path d="M125.0 40h0.0" /><path d="M204.5 40h0.0" /><rect height="22" rx="10" ry="10" width="79.5" x="125" y="29"></rect><text x="164.75" y="44">&apos;yield&apos;</text></g><path d="M204.5 40h10" /><g>
<path d="M214.5 40h0.0" /><path d="M490.5 40h0.0" /><path d="M214.5 40a10 10 0 0 0 10 -10v0a10 10 0 0 1 10 -10" /><g>
<path d="M234.5 20h236.0" /></g><path d="M470.5 20a10 10 0 0 1 10 10v0a10 10 0 0 0 10 10" /><path d="M214.5 40h20" /><g>
<path d="M234.5 40h0.0" /><path d="M470.5 40h0.0" /><path d="M234.5 40h20" /><g>
<path d="M254.5 40h0.0" /><path d="M450.5 40h0.0" /><g class="terminal ">
<path d="M254.5 40h0.0" /><path d="M325.5 40h0.0" /><rect height="22" rx="10" ry="10" width="71" x="254.5" y="29"></rect><text x="290" y="44">&apos;from&apos;</text></g><path d="M325.5 40h10" /><path d="M335.5 40h10" /><g class="non-terminal ">
<path d="M345.5 40h0.0" /><path d="M450.5 40h0.0" /><rect height="22" width="105" x="345.5" y="29"></rect><text x="398" y="44">expression</text></g></g><path d="M450.5 40h20" /><path d="M234.5 40a10 10 0 0 1 10 10v10a10 10 0 0 0 10 10" /><g class="non-terminal ">
<path d="M254.5 70h20.0" /><path d="M430.5 70h20.0" /><rect height="22" width="156" x="274.5" y="59"></rect><text x="352.5" y="74">star_expressions</text></g><path d="M450.5 70a10 10 0 0 0 10 -10v-10a10 10 0 0 1 10 -10" /></g><path d="M470.5 40h20" /></g></g><path d="M490.5 40h10" /><path d="M 500.5 40 h 20 m -10 -10 v 20 m 10 -20 v 20"></path></g><style>/* <![CDATA[ */
	svg.railroad-diagram {
		background-color:hsl(30,20%,95%);
	}
	svg.railroad-diagram path {
		stroke-width:3;
		stroke:black;
		fill:rgba(0,0,0,0);
	}
	svg.railroad-diagram text {
		font:bold 14px monospace;
		text-anchor:middle;
	}
	svg.railroad-diagram text.label{
		text-anchor:start;
	}
	svg.railroad-diagram text.comment{
		font:italic 12px monospace;
	}
	svg.railroad-diagram rect{
		stroke-width:3;
		stroke:black;
		fill:hsl(120,100%,90%);
	}
	svg.railroad-diagram rect.group-box {
		stroke: gray;
		stroke-dasharray: 10 5;
		fill: none;
	}

/* ]]> */
</style></svg>